<svg width="2852" height="2836" viewBox="0 0 2852 2836" fill="none" xmlns="http://www.w3.org/2000/svg">
<path d="M614.031 2185.98C633.235 2179.58 667.289 2148.28 667.289 2148.21C667.289 2148.15 639.892 2132.27 638.036 2131.51C616.464 2122.42 569.415 2117.55 552.324 2137.46C549.62 2140.85 547.654 2144.76 546.552 2148.95C545.45 2153.14 545.235 2157.52 545.922 2161.8C546.609 2166.08 548.183 2170.16 550.542 2173.8C552.901 2177.44 555.993 2180.54 559.621 2182.91C574.728 2193.66 597.388 2191.36 614.031 2185.98Z" fill="#A2D957"/>
<path d="M968.722 1884.23C969.17 1884.23 954.639 1855.87 953.487 1854.14C940.684 1834.94 903.942 1804.66 878.721 1811.83C874.563 1813.14 870.726 1815.31 867.459 1818.19C864.193 1821.08 861.569 1824.62 859.758 1828.58C857.948 1832.55 856.991 1836.85 856.949 1841.21C856.908 1845.57 857.783 1849.89 859.517 1853.89C866.367 1871.04 886.53 1881.67 903.429 1886.34C923.273 1891.85 968.658 1884.29 968.722 1884.23Z" fill="#A2D957"/>
<path d="M714.466 2275.02C730.981 2264.2 753.769 2228.04 755.562 2225.16C776.222 2238.23 797.736 2249.91 819.958 2260.11C832.76 2266.12 846.075 2271.82 859.389 2277.33C852.988 2275.66 847.163 2274.32 846.587 2274.19C823.35 2271.12 776.686 2278.86 765.484 2302.55C763.728 2306.55 762.836 2310.87 762.867 2315.24C762.898 2319.61 763.851 2323.93 765.664 2327.9C767.476 2331.88 770.108 2335.43 773.386 2338.32C776.664 2341.2 780.515 2343.37 784.687 2344.67C802.098 2351.07 823.094 2342.68 838.009 2333.08C852.924 2323.48 872.896 2292.82 878.081 2284.69L893.443 2291.09C918.088 2300.88 942.669 2310.29 966.545 2320.79C974.931 2324.37 983.06 2328.28 991.254 2332.06C985.493 2330.65 980.692 2329.5 979.924 2329.43C956.687 2326.36 910.087 2334.1 898.821 2357.79C897.065 2361.79 896.174 2366.11 896.205 2370.47C896.237 2374.84 897.191 2379.15 899.004 2383.12C900.817 2387.09 903.449 2390.63 906.726 2393.51C910.004 2396.4 913.854 2398.55 918.024 2399.85C935.499 2406.25 956.751 2397.86 971.346 2388.26C985.941 2378.66 1004.25 2351 1010.52 2341.4C1018.72 2345.56 1026.97 2349.72 1034.78 2354.2C1040.03 2357.34 1045.34 2359.97 1050.46 2363.42L1065.7 2373.22C1075.11 2379.62 1084.9 2386.53 1093.99 2393.19C1100.39 2397.8 1106.28 2402.28 1112.3 2406.76C1103.98 2403.11 1087.53 2396.2 1086.06 2395.81C1063.59 2389.41 1016.28 2389.86 1001.62 2411.56C999.275 2415.23 997.728 2419.36 997.083 2423.67C996.439 2427.98 996.712 2432.38 997.884 2436.58C999.056 2440.78 1001.1 2444.68 1003.89 2448.04C1006.67 2451.39 1010.13 2454.12 1014.04 2456.05C1030.3 2464.82 1052.45 2459.95 1068.52 2452.66C1085.99 2444.65 1113.32 2413.74 1116.4 2409.83C1126.32 2417.32 1135.92 2424.68 1144.82 2431.79C1170.81 2452.33 1192.44 2470.83 1208.83 2485.3L1221.63 2473.65C1204.48 2459.18 1181.56 2440.36 1153.97 2419.5C1143.92 2411.88 1133.04 2403.88 1121.97 2395.81C1127.87 2383.98 1133.09 2371.82 1137.59 2359.39C1157.24 2361.37 1194.24 2351.2 1199.04 2349.85C1203.2 2361.57 1207.1 2373.02 1210.62 2383.84C1220.74 2414.76 1228.48 2441.45 1234.18 2462.64L1248.52 2449.84C1242.56 2430.06 1234.88 2405.93 1225.35 2378.72C1221.18 2366.81 1216.51 2354.2 1211.52 2341.27C1215.94 2338.78 1251.53 2318.04 1262.73 2302.42C1272.91 2288.21 1281.93 2267.28 1276.43 2249.54C1275.27 2245.35 1273.24 2241.45 1270.47 2238.09C1267.71 2234.73 1264.27 2231.98 1260.38 2230.03C1256.49 2228.09 1252.23 2226.98 1247.88 2226.77C1243.53 2226.57 1239.19 2227.29 1235.14 2228.87C1211.01 2239.17 1201.41 2285.46 1203.52 2308.76C1203.52 2310.16 1206.72 2324.95 1208.77 2334.36C1206.72 2329.05 1204.8 2323.93 1202.37 2318.55C1198.14 2307.8 1193.6 2297.23 1188.79 2285.84C1186.23 2280.4 1183.74 2274.96 1181.11 2269.45C1178.49 2263.95 1175.42 2258.38 1172.54 2252.75C1165.69 2239.94 1158.07 2227.14 1150.07 2214.34C1159.48 2210.63 1192.57 2196.93 1204.86 2184.38C1217.15 2171.83 1229.19 2152.37 1226.37 2134.26C1225.88 2129.93 1224.47 2125.76 1222.26 2122.01C1220.04 2118.27 1217.06 2115.03 1213.51 2112.51C1209.96 2109.99 1205.92 2108.25 1201.65 2107.4C1197.38 2106.54 1192.98 2106.6 1188.73 2107.57C1163.13 2113.97 1146.8 2158.39 1145.39 2181.76C1145.39 2183.16 1146.16 2200.06 1146.8 2209.35C1141.94 2201.79 1137.14 2194.24 1132.02 2186.75C1117.17 2165.18 1101.42 2143.8 1085.86 2122.42C1081.06 2116.02 1076.39 2109.29 1071.72 2102.7C1075.05 2101.42 1114.73 2085.99 1128.5 2071.98C1140.72 2059.17 1152.82 2039.97 1150.07 2021.79C1149.56 2017.46 1148.16 2013.29 1145.93 2009.54C1143.71 2005.79 1140.72 2002.55 1137.17 2000.04C1133.61 1997.52 1129.57 1995.78 1125.29 1994.93C1121.02 1994.08 1116.61 1994.13 1112.36 1995.1C1086.76 2001.5 1070.44 2045.92 1069.03 2069.29C1069.03 2071.08 1070.18 2095.34 1070.82 2101.29C1060.45 2086.76 1050.27 2072.23 1040.8 2057.51C1027.88 2037.71 1016.29 2017.07 1006.1 1995.74C1007.64 1995.16 1049.12 1979.22 1063.2 1964.82C1075.43 1952.02 1087.53 1932.81 1084.78 1914.7C1084.28 1910.37 1082.88 1906.2 1080.66 1902.45C1078.45 1898.7 1075.47 1895.47 1071.92 1892.95C1068.37 1890.43 1064.32 1888.69 1060.05 1887.83C1055.78 1886.98 1051.38 1887.04 1047.14 1888.01C1021.53 1894.41 1005.21 1938.83 1003.8 1962.2C1003.8 1963.73 1004.63 1982.23 1005.27 1991L1003.86 1991.38C994.125 1969.66 986.37 1947.1 980.692 1923.98C977.427 1911.18 974.995 1898.95 972.882 1886.98C980.884 1884.8 1017.69 1874.5 1031.65 1862.91C1045.6 1851.33 1059.3 1833.92 1058.59 1815.42C1058.56 1811.06 1057.61 1806.76 1055.81 1802.8C1054 1798.83 1051.39 1795.29 1048.13 1792.4C1044.87 1789.51 1041.04 1787.33 1036.89 1786.02C1032.74 1784.7 1028.36 1784.27 1024.03 1784.75C998.103 1788.4 976.787 1830.65 972.818 1853.76C972.818 1854.97 971.794 1867.97 971.346 1877.44C970.514 1872 969.49 1866.43 968.786 1861.18C966.033 1841.53 964.689 1823.42 963.601 1807.35C963.089 1798.2 962.833 1789.87 962.641 1782.13C969.362 1775.73 996.375 1750.12 1003.42 1733.93C1010.46 1717.73 1014.62 1695.52 1005.46 1679.39C1003.44 1675.53 1000.62 1672.14 997.195 1669.44C993.771 1666.74 989.816 1664.79 985.589 1663.73C981.362 1662.66 976.957 1662.49 972.661 1663.24C968.365 1663.98 964.275 1665.63 960.656 1668.06C939.276 1683.29 939.852 1730.6 946.958 1752.94C947.598 1754.86 960.592 1783.92 960.976 1783.6L961.36 1783.22C961.36 1790.64 961.36 1798.64 961.872 1807.41C962.576 1823.55 963.473 1841.79 965.841 1861.57C968.15 1882.88 971.698 1904.04 976.467 1924.94C981.692 1948.4 989.019 1971.35 998.359 1993.5L998.743 1994.27C993.75 1988.44 979.22 1972.63 977.939 1971.54C960.272 1956.18 917.064 1936.91 894.724 1950.48C891.056 1952.83 887.925 1955.93 885.536 1959.57C883.146 1963.22 881.552 1967.32 880.858 1971.62C880.163 1975.93 880.383 1980.32 881.504 1984.53C882.625 1988.74 884.621 1992.67 887.362 1996.06C898.5 2010.84 920.713 2015.77 938.252 2015.84C957.968 2015.84 996.887 1998.23 1000.02 1996.63C1010.05 2018.95 1021.55 2040.57 1034.46 2061.35C1041.89 2073.45 1049.76 2085.48 1057.83 2097.39C1053.35 2092.52 1049.31 2088.17 1048.67 2087.59C1031.01 2072.3 987.797 2052.96 965.457 2066.53C961.789 2068.89 958.658 2071.98 956.269 2075.63C953.88 2079.27 952.286 2083.38 951.591 2087.68C950.896 2091.98 951.117 2096.38 952.237 2100.59C953.358 2104.8 955.354 2108.72 958.096 2112.11C969.17 2126.96 991.446 2131.83 1008.99 2131.89C1026.52 2131.95 1060.19 2117.55 1069.03 2113.65C1072.17 2118.19 1075.43 2122.8 1078.44 2127.35C1093.55 2149.05 1108.72 2170.75 1123.25 2192.38C1128.3 2200.06 1132.98 2207.75 1137.65 2215.43C1133.68 2211.07 1130.29 2207.49 1129.71 2206.98C1112.04 2191.61 1068.84 2172.35 1046.5 2185.92C1042.83 2188.27 1039.71 2191.38 1037.32 2195.02C1034.94 2198.67 1033.35 2202.77 1032.67 2207.08C1031.98 2211.38 1032.2 2215.77 1033.33 2219.98C1034.45 2224.19 1036.45 2228.11 1039.2 2231.49C1050.27 2246.28 1072.55 2251.21 1090.02 2251.27C1107.5 2251.34 1138.03 2238.47 1148.53 2233.73C1153.14 2241.74 1157.75 2249.74 1161.78 2257.74C1164.47 2263.24 1167.41 2268.36 1169.72 2274.06C1172.02 2279.76 1174.65 2285.2 1177.02 2290.64C1181.31 2301.39 1185.72 2312.4 1189.82 2322.97C1192.57 2330.26 1195.07 2337.31 1197.56 2344.35C1192.7 2336.67 1182.71 2321.88 1181.75 2320.73C1167.8 2305.5 1150.17 2294.13 1130.54 2287.7C1129.09 2285.92 1127.46 2284.29 1125.68 2282.83C1122.4 2279.97 1118.56 2277.82 1114.4 2276.54C1110.24 2275.25 1105.86 2274.86 1101.54 2275.37C1097.21 2275.89 1093.05 2277.32 1089.31 2279.55C1085.58 2281.78 1082.35 2284.78 1079.85 2288.34C1065.38 2310.23 1082.92 2354.14 1097.58 2372.45C1098.41 2373.54 1109.1 2384.16 1115.95 2390.76L1101.48 2381.35C1092.07 2374.94 1082.28 2368.54 1072.17 2361.57L1056.74 2352.09C1051.62 2348.83 1045.86 2346.01 1040.35 2342.94C1027.55 2336.03 1014.17 2329.62 1000.6 2323.73C1006.36 2315.48 1026.2 2285.84 1029.73 2268.56C1033.25 2251.27 1032.41 2228.61 1020.06 2214.85C1017.25 2211.52 1013.78 2208.82 1009.86 2206.92C1005.94 2205.02 1001.66 2203.97 997.311 2203.83C992.958 2203.69 988.625 2204.47 984.593 2206.11C980.561 2207.76 976.92 2210.23 973.907 2213.38C956.303 2232.58 966.993 2278.86 978.644 2299.15C979.412 2300.43 989.397 2314.01 995.095 2321.37C986.901 2317.78 978.708 2314.13 970.322 2310.74C945.997 2300.95 921.097 2291.54 896.324 2282.51C888.707 2279.69 881.153 2276.75 873.6 2273.87C875.712 2270.99 900.293 2236.23 904.006 2216.9C907.334 2199.74 906.758 2176.96 894.34 2163.19C891.533 2159.86 888.057 2157.16 884.138 2155.26C880.219 2153.36 875.944 2152.31 871.591 2152.17C867.239 2152.03 862.906 2152.81 858.873 2154.46C854.841 2156.1 851.2 2158.58 848.187 2161.72C830.584 2180.92 841.274 2227.2 852.988 2247.5C853.82 2249.03 868.287 2268.56 872.192 2273.1C855.548 2266.7 839.033 2260.3 822.966 2253.19C801.277 2243.8 780.235 2232.98 759.979 2220.8C760.939 2219.46 786.8 2183.29 790.576 2163.51C793.841 2146.36 793.265 2123.57 780.91 2109.81C778.104 2106.48 774.628 2103.77 770.709 2101.88C766.79 2099.98 762.515 2098.92 758.162 2098.79C753.809 2098.65 749.476 2099.42 745.444 2101.07C741.412 2102.72 737.771 2105.19 734.758 2108.33C717.154 2127.54 727.845 2173.82 739.495 2194.11C740.263 2195.45 751.273 2210.37 756.714 2217.35L755.69 2218.44C735.611 2205.66 716.716 2191.12 699.231 2174.97C689.437 2166.2 680.604 2157.3 672.218 2148.41C677.723 2142 702.56 2113.39 708.001 2095.92C713.442 2078.44 715.042 2056.48 704.288 2041.51C701.847 2037.9 698.676 2034.84 694.979 2032.54C691.282 2030.23 687.142 2028.73 682.828 2028.12C678.513 2027.52 674.12 2027.83 669.932 2029.03C665.745 2030.24 661.857 2032.3 658.519 2035.1C638.932 2052.52 644.501 2099.5 653.847 2120.94C654.359 2122.1 660.888 2133.36 665.753 2141.49C662.04 2137.46 658.135 2133.36 654.615 2129.39C641.812 2114.54 630.354 2100.14 620.624 2087.27C615.119 2079.91 610.318 2073.19 605.838 2066.85C608.078 2057.89 616.528 2021.73 613.327 2004.12C610.126 1986.52 601.421 1965.72 584.906 1957.52C581.094 1955.43 576.883 1954.16 572.547 1953.8C568.212 1953.43 563.849 1953.99 559.742 1955.43C555.636 1956.86 551.879 1959.15 548.715 1962.14C545.55 1965.12 543.05 1968.74 541.378 1972.76C531.968 1997.21 558.533 2036.32 576.712 2051.04C578.312 2052.32 605.197 2069.35 605.326 2068.9C605.339 2068.71 605.339 2068.52 605.326 2068.33C609.486 2074.73 614.031 2081.13 619.088 2088.3C628.562 2101.1 639.444 2116.08 652.31 2131.25C666.013 2147.76 680.653 2163.47 696.159 2178.3C713.475 2194.85 732.218 2209.85 752.169 2223.11L752.937 2223.56C745.576 2221.44 724.708 2216.26 723.044 2216.07C699.807 2212.99 653.206 2220.74 641.94 2244.42C640.184 2248.42 639.293 2252.75 639.324 2257.12C639.355 2261.49 640.308 2265.8 642.121 2269.78C643.933 2273.76 646.565 2277.3 649.843 2280.19C653.121 2283.08 656.972 2285.25 661.144 2286.54C678.619 2292.82 699.871 2284.69 714.466 2275.02Z" fill="#A2D957"/>
<path d="M1912.07 651.166C1925.77 674.082 1975.12 707.688 1975.18 707.688C1975.25 707.688 1987.47 668.449 1987.98 665.824C1993.23 635.931 1985.81 574.991 1955.98 559.116C1950.91 556.616 1945.37 555.21 1939.72 554.992C1934.07 554.773 1928.44 555.746 1923.2 557.847C1917.95 559.948 1913.2 563.131 1909.27 567.188C1905.33 571.244 1902.29 576.084 1900.35 581.393C1891.07 603.669 1900.42 631.706 1912.07 651.166Z" fill="#A2D957"/>
<path d="M2396.06 1013.09C2396.06 1013.67 2428.07 987.101 2429.8 985.18C2450.73 963.096 2478.12 908.366 2461.8 878.344C2458.95 873.461 2455.11 869.232 2450.52 865.933C2445.92 862.635 2440.69 860.34 2435.15 859.199C2429.61 858.057 2423.9 858.095 2418.38 859.309C2412.85 860.523 2407.65 862.887 2403.1 866.246C2383.32 879.88 2375.71 908.43 2374.62 931.09C2373.4 957.719 2396.06 1013.03 2396.06 1013.09Z" fill="#A2D957"/>
<path d="M1828.27 803.962C1846.77 821.694 1899.14 840.129 1903.3 841.537C1892.73 871.468 1884.18 902.069 1877.69 933.138C1873.79 951.19 1870.39 969.561 1867.26 987.997C1867.26 979.355 1867.26 971.61 1867.26 970.522C1864.44 940.308 1841.21 883.465 1807.98 876.104C1802.43 875.023 1796.71 875.124 1791.2 876.401C1785.69 877.677 1780.51 880.101 1776 883.513C1771.49 886.925 1767.75 891.25 1765.02 896.205C1762.29 901.16 1760.64 906.634 1760.17 912.271C1757.35 936.147 1773.86 960.728 1790.25 976.283C1806.64 991.838 1851.19 1008.86 1862.97 1013.09C1861.82 1020.13 1860.6 1027.24 1859.51 1034.28C1854.2 1068.27 1849.08 1102.19 1843 1135.35C1840.88 1147 1838.32 1158.46 1835.83 1169.92C1835.83 1162.24 1835.83 1155.77 1835.83 1154.81C1833.01 1124.53 1809.78 1067.76 1776.55 1060.33C1771 1059.26 1765.28 1059.37 1759.78 1060.66C1754.27 1061.94 1749.1 1064.37 1744.59 1067.79C1740.09 1071.21 1736.35 1075.54 1733.63 1080.49C1730.91 1085.45 1729.26 1090.93 1728.8 1096.56C1725.98 1120.37 1742.43 1144.95 1758.82 1160.57C1775.21 1176.19 1815.47 1191.43 1829.23 1196.55C1826.35 1208.2 1823.47 1219.85 1820.15 1230.99C1817.65 1238.54 1815.86 1245.97 1812.98 1253.45L1804.91 1275.54C1799.34 1289.37 1793.64 1303.7 1787.82 1317.15C1783.85 1326.43 1779.88 1335.26 1775.91 1344.16C1778.15 1332.57 1782.31 1309.79 1782.31 1307.86C1784.11 1277.52 1769.51 1217.86 1738.02 1205.45C1732.69 1203.54 1727.02 1202.77 1721.38 1203.2C1715.73 1203.63 1710.25 1205.25 1705.27 1207.94C1700.29 1210.63 1695.94 1214.35 1692.49 1218.84C1689.05 1223.32 1686.59 1228.49 1685.27 1233.99C1678.87 1257.1 1691.67 1283.92 1705.24 1301.91C1720.48 1321.76 1767.4 1347.1 1773.29 1350.24C1766.89 1364.9 1760.1 1379.17 1753.7 1392.49C1735.14 1431.34 1717.98 1463.99 1704.41 1489.02L1722.91 1502.21C1736.35 1476.6 1753.51 1441.97 1771.94 1401C1778.73 1386.09 1785.71 1370.02 1792.68 1353.44C1809.34 1357.56 1826.22 1360.65 1843.25 1362.72C1846.45 1388.33 1869.95 1432.11 1873.02 1437.75C1859.38 1446.39 1846.07 1454.64 1833.33 1462.2C1797.16 1483.96 1765.35 1501.5 1740.45 1514.75L1760.61 1529.15C1783.98 1515.97 1812.27 1499.32 1843.83 1479.42C1857.72 1470.71 1872.38 1461.11 1887.29 1451.12C1891.71 1455.99 1928.2 1495.04 1951.31 1504.77C1972.24 1513.54 2001.3 1518.98 2022.1 1506.88C2027.09 1504.22 2031.47 1500.54 2034.94 1496.08C2038.41 1491.61 2040.9 1486.47 2042.25 1480.98C2043.59 1475.48 2043.77 1469.77 2042.76 1464.21C2041.74 1458.64 2039.57 1453.36 2036.38 1448.69C2016.41 1421.1 1955.08 1422.32 1926.15 1431.73C1924.48 1432.3 1906.63 1440.37 1895.49 1445.68C1901.57 1441.59 1907.52 1437.62 1913.73 1433.33C1926.09 1424.88 1938.18 1416.11 1951.18 1406.76L1969.74 1392.36C1976.14 1387.62 1982.1 1381.93 1988.37 1376.68C2002.64 1364.26 2016.53 1351.07 2030.17 1337.25C2037.59 1348 2064.48 1385.96 2083.87 1397.87C2103.27 1409.77 2131.18 1419.5 2153.52 1410.67C2158.86 1408.79 2163.74 1405.82 2167.85 1401.93C2171.96 1398.04 2175.2 1393.34 2177.37 1388.11C2179.54 1382.89 2180.58 1377.27 2180.43 1371.61C2180.28 1365.96 2178.94 1360.4 2176.5 1355.3C2160.94 1325.02 2100.07 1316.89 2070.11 1321.82C2068.26 1322.14 2047.13 1328.22 2035.61 1331.55C2043.74 1323.29 2051.93 1315.03 2059.87 1306.33C2082.91 1281.36 2105.45 1255.12 2127.98 1229.51C2134.89 1221.58 2141.93 1213.77 2148.85 1205.96C2151.47 1209.8 2182.39 1255.57 2204.15 1268.95C2223.36 1280.79 2251.46 1290.58 2273.86 1281.75C2279.19 1279.87 2284.07 1276.89 2288.17 1273C2292.27 1269.11 2295.51 1264.4 2297.67 1259.17C2299.83 1253.95 2300.87 1248.33 2300.72 1242.68C2300.56 1237.03 2299.22 1231.48 2296.78 1226.38C2281.22 1196.1 2220.35 1187.97 2190.39 1192.9C2188.15 1193.22 2157.74 1201.86 2150.13 1204.42C2165.49 1187.14 2180.92 1170.05 2196.86 1153.79C2218.22 1131.77 2241 1111.16 2265.03 1092.08C2266.24 1093.87 2298.31 1141.82 2320.59 1155.52C2339.79 1167.36 2367.9 1177.09 2390.3 1168.32C2395.63 1166.44 2400.51 1163.46 2404.61 1159.57C2408.71 1155.68 2411.95 1150.97 2414.11 1145.75C2416.27 1140.52 2417.31 1134.9 2417.16 1129.25C2417 1123.6 2415.66 1118.05 2413.22 1112.95C2397.66 1082.67 2336.79 1074.54 2306.83 1079.53C2304.84 1079.53 2281.74 1086.38 2270.79 1089.71L2269.89 1087.98C2294.62 1069.44 2320.95 1053.14 2348.56 1039.27C2363.67 1031.46 2378.52 1024.87 2393.37 1018.72C2398.43 1028.26 2422.05 1071.6 2440.74 1086.13C2459.43 1100.66 2485.55 1112.82 2508.59 1106.55C2514.1 1105.26 2519.27 1102.84 2523.77 1099.42C2528.27 1096.01 2532.01 1091.69 2534.73 1086.74C2537.45 1081.79 2539.11 1076.32 2539.58 1070.69C2540.05 1065.06 2539.33 1059.39 2537.46 1054.06C2525.3 1022.05 2465.77 1007.46 2435.43 1009.25C2433.76 1009.25 2417.06 1012.13 2404.96 1014.24C2411.36 1011.62 2418.4 1008.74 2424.8 1006.3C2448.87 997.151 2471.4 990.237 2491.5 984.284C2502.9 980.955 2513.33 977.883 2523.06 975.707C2532.92 982.492 2572.93 1009.31 2595.84 1013.47C2618.76 1017.63 2647.76 1016.61 2665.42 1000.35C2669.72 996.675 2673.19 992.135 2675.62 987.028C2678.04 981.921 2679.36 976.36 2679.5 970.708C2679.63 965.056 2678.57 959.439 2676.39 954.223C2674.21 949.008 2670.95 944.31 2666.83 940.436C2641.23 917.84 2581.76 932.178 2555.58 947.541C2553.27 948.885 2520.31 973.786 2520.82 974.17L2521.4 974.554C2511.99 976.731 2501.87 979.227 2490.86 982.108C2470.7 987.677 2447.85 994.142 2423.52 1002.78C2397.19 1011.96 2371.42 1022.64 2346.32 1034.79C2318.16 1048.18 2291.24 1064.03 2265.86 1082.16L2265.03 1082.86C2270.92 1074.86 2286.79 1051.94 2287.82 1050.02C2302.16 1023.2 2314.13 963.032 2290.51 938.516C2286.46 934.57 2281.63 931.518 2276.32 929.557C2271.02 927.596 2265.37 926.77 2259.73 927.132C2254.08 927.494 2248.58 929.036 2243.57 931.658C2238.57 934.281 2234.16 937.925 2230.65 942.356C2215.16 960.728 2215.36 990.301 2220.35 1012.45C2225.98 1037.41 2259.46 1081.65 2262.15 1085.17C2236.81 1104.28 2212.77 1125.07 2190.2 1147.39C2176.95 1160.19 2164.08 1173.76 2151.28 1187.39C2156.21 1180.29 2160.5 1173.89 2161.01 1172.93C2175.35 1146.17 2187.32 1085.94 2163.7 1061.48C2159.66 1057.52 2154.84 1054.45 2149.54 1052.48C2144.24 1050.51 2138.59 1049.68 2132.95 1050.04C2127.3 1050.4 2121.8 1051.95 2116.8 1054.58C2111.79 1057.22 2107.4 1060.88 2103.91 1065.32C2088.36 1083.63 2088.55 1113.2 2093.54 1135.35C2098.53 1157.5 2126.44 1196.16 2133.93 1206.15L2119.34 1221.96C2096.16 1247.57 2073.18 1272.85 2049.82 1297.11C2041.63 1305.69 2033.18 1313.82 2024.79 1322.01C2029.14 1315.61 2032.79 1310.36 2033.24 1309.21C2047.58 1282.45 2059.55 1222.22 2035.93 1197.76C2031.89 1193.81 2027.06 1190.74 2021.76 1188.77C2016.46 1186.8 2010.81 1185.96 2005.16 1186.32C1999.52 1186.67 1994.01 1188.21 1989 1190.84C1983.99 1193.46 1979.59 1197.11 1976.08 1201.54C1960.59 1219.91 1960.78 1249.49 1965.77 1271.63C1970.77 1293.78 1995.92 1328.67 2004.82 1340.64C1995.99 1348.7 1987.15 1356.83 1978.19 1364.32C1971.79 1369.25 1966.35 1374.44 1959.82 1379.11L1940.94 1393.06C1928.65 1401.58 1915.97 1410.35 1903.74 1418.35C1895.23 1423.92 1887.1 1429.1 1878.84 1434.35C1887.17 1425.9 1903.04 1409.07 1904.45 1407.53C1919.67 1385.54 1929.02 1360.03 1931.59 1333.41C1933.4 1331.04 1934.98 1328.51 1936.33 1325.85C1939.01 1320.87 1940.62 1315.39 1941.04 1309.75C1941.47 1304.11 1940.7 1298.44 1938.79 1293.12C1936.88 1287.79 1933.88 1282.93 1929.97 1278.84C1926.06 1274.75 1921.33 1271.54 1916.1 1269.39C1884.09 1257.42 1833.72 1292.25 1814.83 1316.06C1813.68 1317.47 1803.31 1334.05 1796.91 1344.61C1799.73 1337.82 1802.54 1331.29 1805.36 1324.25C1810.99 1310.43 1816.24 1296.47 1821.87 1281.43C1824.37 1274.07 1826.93 1266.64 1829.43 1259.15C1831.92 1251.66 1833.97 1243.66 1836.34 1235.85C1841.4 1217.54 1845.62 1198.85 1849.46 1179.84C1861.56 1184.77 1904.9 1201.6 1927.69 1200.84C1950.47 1200.07 1978.89 1192.77 1992.91 1173.12C1996.32 1168.61 1998.74 1163.43 2000.02 1157.92C2001.29 1152.41 2001.39 1146.7 2000.31 1141.15C1999.23 1135.6 1996.99 1130.34 1993.74 1125.71C1990.49 1121.09 1986.31 1117.19 1981.46 1114.29C1951.82 1097.59 1896.58 1124.41 1874.3 1145.02C1872.89 1146.36 1858.55 1162.94 1850.87 1172.22C1853.05 1160.83 1855.35 1149.44 1857.27 1137.78C1862.65 1104.18 1867.07 1070.06 1871.67 1036.01C1873.02 1025.57 1874.56 1015.2 1876.03 1004.83C1880.32 1006.62 1931.4 1027.75 1956.94 1026.85C1979.6 1026.08 2008.15 1018.79 2022.1 999.135C2025.51 994.628 2027.94 989.453 2029.22 983.948C2030.5 978.442 2030.6 972.729 2029.53 967.18C2028.45 961.631 2026.22 956.37 2022.98 951.74C2019.74 947.111 2015.56 943.215 2010.71 940.308C1981.01 923.665 1925.76 950.422 1903.49 971.098C1901.82 972.634 1881.21 996.702 1876.28 1003.1C1879.55 980.251 1882.68 957.463 1887.29 935.123C1893.04 904.938 1900.71 875.154 1910.27 845.954C1912.26 846.786 1965.45 869.126 1991.63 868.23C2014.29 867.398 2042.84 860.165 2056.8 840.513C2060.21 836.001 2062.63 830.821 2063.91 825.311C2065.19 819.8 2065.3 814.082 2064.22 808.528C2063.15 802.974 2060.92 797.708 2057.68 793.073C2054.43 788.437 2050.25 784.536 2045.4 781.622C2015.7 764.979 1960.52 791.736 1938.18 812.412C1936.71 813.756 1921.03 832 1913.73 840.833L1912.07 839.873C1922.33 810.788 1935.19 782.681 1950.47 755.889C1958.8 741.039 1967.5 727.276 1976.08 714.089C1985.55 719.274 2029.14 742.383 2052.89 744.239C2075.55 745.903 2104.81 741.807 2120.75 723.819C2124.63 719.71 2127.6 714.829 2129.47 709.495C2131.34 704.161 2132.07 698.492 2131.6 692.858C2131.14 687.224 2129.49 681.752 2126.77 676.796C2124.05 671.841 2120.32 667.513 2115.82 664.096C2088.16 644.252 2030.36 664.8 2005.91 682.916C2004.63 683.876 1992.21 695.334 1983.31 703.848C1987.34 697.958 1991.44 691.813 1995.47 686.244C2010.45 665.376 2025.5 647.133 2038.87 631.066C2046.62 622.04 2053.79 613.975 2060.51 606.549C2072.48 606.549 2120.68 607.061 2142.06 597.908C2163.44 588.754 2186.87 571.855 2192.89 548.554C2194.44 543.109 2194.83 537.396 2194.03 531.79C2193.23 526.184 2191.25 520.81 2188.23 516.019C2185.21 511.228 2181.21 507.129 2176.5 503.988C2171.79 500.848 2166.47 498.737 2160.88 497.793C2127.21 492.928 2085.35 537.864 2071.97 565.134C2070.82 567.502 2057.05 606.485 2057.63 606.485H2058.4C2052 613.527 2044.64 621.144 2037.08 629.658C2023.32 645.405 2007.83 663.392 1992.27 684.004C1975.31 706.099 1959.64 729.161 1945.35 753.073C1929.26 779.78 1915.57 807.863 1904.45 836.993L1904.06 838.081C1904.64 828.095 1905.15 800.25 1904.96 798.073C1902.14 767.796 1878.91 711.017 1845.69 703.656C1840.14 702.585 1834.43 702.694 1828.92 703.975C1823.42 705.256 1818.25 707.681 1813.75 711.092C1809.24 714.504 1805.51 718.825 1802.78 723.775C1800.06 728.724 1798.41 734.192 1797.93 739.822C1795.44 763.699 1811.89 788.279 1828.27 803.962Z" fill="#A2D957"/>
<path d="M2215.42 1930.77V1909.32C2215.42 1798.9 2355.22 1794.1 2355.22 1715.49C2355.22 1681.38 2327.44 1659.1 2286.09 1659.1C2240.83 1659.1 2212.22 1683.74 2212.22 1718.69V1727.46C2212.22 1736.17 2207.48 1740.27 2198.71 1740.27L2113.77 1737.07C2105.83 1737.07 2100.26 1733.1 2100.26 1727.59V1718.82C2100.26 1622.8 2176.5 1556.81 2288.52 1556.81C2398.11 1556.81 2468.78 1618.77 2468.78 1711.65C2468.78 1843.52 2326.61 1844.35 2326.61 1916.49V1930.77C2326.82 1932.59 2326.62 1934.44 2326.02 1936.18C2325.42 1937.92 2324.43 1939.49 2323.13 1940.79C2321.83 1942.09 2320.25 1943.08 2318.52 1943.68C2316.78 1944.29 2314.93 1944.49 2313.1 1944.27H2228.93C2227.1 1944.49 2225.25 1944.29 2223.51 1943.68C2221.78 1943.08 2220.2 1942.09 2218.9 1940.79C2217.6 1939.49 2216.61 1937.92 2216.01 1936.18C2215.4 1934.44 2215.2 1932.59 2215.42 1930.77ZM2208.25 2058.79C2208.25 2023.84 2239.23 1995.23 2276.55 1995.23C2312.33 1995.23 2344.08 2023.84 2344.08 2058.79C2344.08 2093.74 2312.08 2122.35 2275.78 2122.35C2239.49 2122.35 2208.25 2093.61 2208.25 2058.66V2058.79Z" fill="#263238"/>
<path d="M537.025 1021.15V1002.53C537.025 906.51 658.647 902.477 658.647 834.176C658.647 804.474 634.515 785.207 598.668 785.207C559.301 785.207 534.656 806.587 534.656 836.928V844.546C534.656 852.099 530.559 855.556 522.942 855.556L449.136 852.803C442.223 852.803 437.422 849.347 437.422 844.546V836.928C437.422 753.713 503.61 696.102 600.909 696.102C696.094 696.102 757.546 749.936 757.546 830.527C757.546 945.045 634.003 945.749 634.003 1008.54V1020.96C634.187 1022.55 634.011 1024.15 633.488 1025.66C632.965 1027.16 632.107 1028.53 630.98 1029.65C629.853 1030.78 628.486 1031.64 626.981 1032.16C625.476 1032.69 623.872 1032.86 622.289 1032.68H548.739C547.174 1032.86 545.588 1032.68 544.099 1032.17C542.609 1031.66 541.253 1030.82 540.13 1029.71C539.007 1028.61 538.145 1027.27 537.608 1025.79C537.07 1024.31 536.871 1022.72 537.025 1021.15ZM530.623 1132.22C530.623 1101.87 557.509 1077.04 589.899 1077.04C620.944 1077.04 648.598 1101.87 648.598 1132.22C648.598 1162.56 620.944 1187.39 589.258 1187.39C574.206 1187.77 559.614 1182.19 548.666 1171.85C537.717 1161.51 531.301 1147.27 530.815 1132.22H530.623Z" fill="#1FBD59"/>
<path d="M2082.02 286.618V277.208C2082.02 228.751 2143.34 226.638 2143.34 192.136C2143.34 177.157 2131.12 167.363 2113 167.363C2093.16 167.363 2080.61 178.181 2080.61 193.544V197.385C2080.61 201.226 2078.5 202.954 2074.66 202.954L2037.4 201.546C2033.88 201.546 2031.45 199.817 2031.45 197.385V193.544C2031.45 151.36 2064.93 122.427 2114.09 122.427C2162.16 122.427 2193.21 149.632 2193.21 190.408C2193.21 248.018 2130.8 248.594 2130.8 280.024V286.426C2130.89 287.227 2130.8 288.04 2130.53 288.802C2130.27 289.563 2129.83 290.254 2129.26 290.822C2128.68 291.39 2127.99 291.819 2127.22 292.078C2126.46 292.336 2125.64 292.417 2124.84 292.315H2087.91C2087.13 292.414 2086.33 292.337 2085.59 292.088C2084.84 291.84 2084.16 291.427 2083.59 290.88C2083.03 290.333 2082.59 289.666 2082.32 288.928C2082.05 288.191 2081.94 287.401 2082.02 286.618ZM2078.88 342.756C2078.47 336.771 2079.87 330.8 2082.9 325.621C2085.93 320.441 2090.44 316.293 2095.86 313.715C2101.28 311.137 2107.34 310.248 2113.27 311.165C2119.2 312.082 2124.72 314.761 2129.1 318.855C2133.49 322.949 2136.54 328.268 2137.86 334.12C2139.19 339.972 2138.72 346.086 2136.52 351.668C2134.32 357.25 2130.49 362.04 2125.53 365.417C2120.57 368.794 2114.71 370.6 2108.71 370.601C2104.92 370.738 2101.14 370.126 2097.59 368.799C2094.04 367.473 2090.79 365.458 2088.02 362.871C2085.24 360.285 2083.01 357.176 2081.44 353.724C2079.88 350.272 2079.01 346.545 2078.88 342.756Z" fill="#1FBD59"/>
<path d="M284.369 1581.2V1569.35C284.369 1508.29 361.696 1505.66 361.696 1462.13C361.696 1443.25 346.333 1430.96 323.289 1430.96C298.26 1430.96 282.449 1444.59 282.449 1463.93V1468.73C282.449 1473.59 279.824 1475.77 274.96 1475.77L227.975 1474.04C223.558 1474.04 220.485 1471.8 220.485 1468.73V1463.93C220.485 1410.8 262.669 1374.31 324.633 1374.31C385.252 1374.31 424.3 1408.56 424.3 1459.96C424.3 1532.87 345.693 1533.32 345.693 1573.32V1581.2C345.817 1582.21 345.709 1583.24 345.376 1584.2C345.044 1585.17 344.496 1586.05 343.774 1586.77C343.052 1587.49 342.175 1588.04 341.21 1588.37C340.245 1588.7 339.217 1588.81 338.203 1588.69H291.731C290.727 1588.79 289.714 1588.67 288.765 1588.32C287.816 1587.98 286.956 1587.43 286.249 1586.71C285.542 1585.99 285.006 1585.12 284.68 1584.17C284.355 1583.21 284.249 1582.2 284.369 1581.2ZM280.401 1651.93C279.899 1644.39 281.68 1636.87 285.511 1630.36C289.342 1623.84 295.046 1618.63 301.88 1615.4C308.714 1612.17 316.361 1611.08 323.827 1612.26C331.292 1613.43 338.23 1616.83 343.737 1622.01C349.244 1627.19 353.065 1633.9 354.702 1641.28C356.339 1648.66 355.717 1656.36 352.917 1663.38C350.117 1670.4 345.268 1676.41 339.001 1680.64C332.735 1684.87 325.342 1687.11 317.784 1687.07C308.15 1687.38 298.787 1683.86 291.753 1677.27C284.719 1670.68 280.59 1661.56 280.273 1651.93H280.401Z" stroke="#263238" stroke-miterlimit="10"/>
<path d="M873.28 476.221V468.091C873.28 426.1 926.474 424.243 926.474 394.35C926.474 381.547 915.912 372.906 900.165 372.906C882.945 372.906 872.063 382.251 872.063 395.566V398.895C872.063 402.223 870.271 403.695 866.942 403.695L834.936 402.479C831.928 402.479 829.816 401.007 829.816 398.895V395.566C829.816 359.015 858.813 333.922 901.381 333.922C943.949 333.922 969.298 357.479 969.298 392.813C969.298 442.999 915.208 443.319 915.208 470.78V476.221C915.29 476.913 915.214 477.615 914.986 478.274C914.758 478.933 914.383 479.531 913.89 480.024C913.397 480.517 912.798 480.892 912.14 481.12C911.481 481.349 910.779 481.424 910.087 481.342H878.081C877.414 481.374 876.748 481.261 876.129 481.01C875.51 480.76 874.954 480.378 874.497 479.891C874.041 479.404 873.695 478.823 873.485 478.19C873.275 477.556 873.205 476.884 873.28 476.221ZM870.591 524.87C870.309 519.755 871.568 514.674 874.205 510.282C876.842 505.89 880.735 502.39 885.382 500.235C890.029 498.079 895.216 497.367 900.272 498.19C905.328 499.013 910.02 501.334 913.743 504.852C917.467 508.37 920.049 512.925 921.156 517.926C922.264 522.927 921.846 528.146 919.956 532.907C918.067 537.668 914.792 541.753 910.557 544.634C906.321 547.515 901.318 549.059 896.196 549.067C889.585 549.291 883.154 546.883 878.318 542.37C873.481 537.857 870.633 531.609 870.399 524.998L870.591 524.87Z" fill="#263238"/>
<path d="M1820.66 2231.11V2222.98C1820.66 2180.99 1873.85 2179.2 1873.85 2149.24C1873.85 2136.44 1863.29 2127.79 1847.54 2127.79C1830.32 2127.79 1819.44 2137.14 1819.44 2150.45V2153.78C1819.44 2157.11 1817.65 2158.65 1814.32 2158.65L1782.31 2157.43C1779.31 2157.43 1777.19 2155.9 1777.19 2153.78V2150.45C1777.19 2113.9 1806.19 2088.81 1848.76 2088.81C1891.33 2088.81 1917.38 2112.37 1917.38 2147.77C1917.38 2197.89 1863.29 2198.21 1863.29 2225.67V2231.11C1863.37 2231.8 1863.29 2232.51 1863.06 2233.17C1862.84 2233.83 1862.46 2234.43 1861.97 2234.93C1861.48 2235.43 1860.88 2235.81 1860.23 2236.04C1859.57 2236.28 1858.86 2236.37 1858.17 2236.29H1826.16C1825.44 2236.43 1824.69 2236.4 1823.98 2236.19C1823.27 2235.98 1822.63 2235.61 1822.09 2235.11C1821.55 2234.6 1821.14 2233.97 1820.89 2233.28C1820.64 2232.58 1820.56 2231.84 1820.66 2231.11ZM1817.97 2279.76C1817.69 2274.64 1818.95 2269.56 1821.58 2265.17C1824.22 2260.78 1828.11 2257.28 1832.76 2255.12C1837.41 2252.97 1842.59 2252.26 1847.65 2253.08C1852.7 2253.9 1857.4 2256.22 1861.12 2259.74C1864.84 2263.26 1867.43 2267.81 1868.53 2272.81C1869.64 2277.82 1869.22 2283.03 1867.33 2287.8C1865.44 2292.56 1862.17 2296.64 1857.93 2299.52C1853.7 2302.4 1848.7 2303.95 1843.57 2303.96C1836.98 2304.11 1830.6 2301.65 1825.82 2297.12C1821.03 2292.59 1818.23 2286.35 1818.03 2279.76H1817.97Z" stroke="#263238" stroke-miterlimit="10"/>
<path d="M1570.05 2376.8C1569.6 2375.46 1569.15 2374.11 1568.64 2372.77C1568.13 2371.42 1567.75 2370.02 1567.23 2368.67C1566.72 2367.33 1566.34 2365.98 1565.83 2364.64C1565.31 2363.29 1564.93 2361.89 1564.42 2360.54C1563.91 2359.2 1563.52 2357.85 1563.01 2356.51C1562.5 2355.17 1562.11 2353.76 1561.6 2352.41L1560.19 2348.38C1559.74 2346.97 1559.23 2345.63 1558.78 2344.28L1557.38 2340.25C1556.93 2338.84 1556.42 2337.5 1555.97 2336.15L1554.56 2332.12C1554.11 2330.71 1553.6 2329.37 1553.15 2328.02L1551.81 2323.74C1551.36 2322.33 1550.85 2320.98 1550.4 2319.64L1548.93 2315.61C1548.48 2314.2 1548.03 2312.85 1547.52 2311.51C1547.01 2310.16 1546.62 2308.82 1546.11 2307.48C1545.6 2306.13 1545.21 2304.72 1544.7 2303.38C1544.19 2302.04 1543.81 2300.69 1543.29 2299.35C1522.43 2235.85 1457.9 2189.25 1386.91 2189.25C1318.1 2189.25 1258.25 2229.32 1233.28 2285.78C1232.64 2287.06 1232.07 2288.4 1231.49 2289.68L1229.76 2293.65C1229.12 2294.93 1228.55 2296.21 1227.97 2297.55C1227.39 2298.9 1226.75 2300.18 1226.18 2301.46L1224.45 2305.36C1223.81 2306.71 1223.23 2307.99 1222.66 2309.33C1222.08 2310.68 1221.44 2311.89 1220.86 2313.24C1220.29 2314.58 1219.65 2315.8 1219.07 2317.14L1217.34 2321.05C1216.7 2322.33 1216.13 2323.67 1215.55 2324.95C1214.98 2326.23 1214.34 2327.58 1213.76 2328.86L1212.03 2332.83C1211.39 2334.11 1210.81 2335.39 1210.24 2336.73C1209.66 2338.07 1209.02 2339.35 1208.45 2340.63L1206.72 2344.54C1206.08 2345.88 1205.5 2347.16 1204.93 2348.51C1204.35 2349.85 1203.71 2351.07 1203.13 2352.41L1201.41 2356.32C1200.77 2357.6 1200.19 2358.94 1199.61 2360.22C1199.04 2361.5 1198.4 2362.85 1197.82 2364.19C1186.84 2387.58 1181.2 2413.12 1181.31 2438.96C1181.31 2542.02 1270.28 2626.26 1380.32 2626.26C1487.99 2626.26 1581.64 2542.02 1581.64 2438.96C1581.62 2419.31 1578.17 2399.81 1571.46 2381.35C1571.01 2379.49 1570.56 2378.15 1570.05 2376.8Z" fill="#263238"/>
<path d="M1417.77 959C1087.66 959 862.91 1153.28 862.91 1436.59V1462.2C862.969 1466.43 864.12 1470.57 866.251 1474.23C868.382 1477.88 871.42 1480.93 875.072 1483.07C876.453 1484.39 877.953 1485.59 879.553 1486.65C880.94 1488 882.463 1489.2 884.098 1490.24C885.485 1491.58 887.008 1492.78 888.643 1493.82C890.017 1495.18 891.542 1496.39 893.187 1497.4C894.552 1498.75 896.054 1499.95 897.668 1500.99C899.054 1502.36 900.577 1503.58 902.213 1504.64C903.617 1505.97 905.138 1507.17 906.758 1508.22C908.149 1509.57 909.671 1510.77 911.303 1511.81C912.671 1513.15 914.172 1514.35 915.784 1515.39C917.287 1516.84 918.939 1518.13 920.713 1519.23C922.018 1520.42 923.408 1521.51 924.873 1522.5C926.277 1523.83 927.798 1525.03 929.418 1526.08C930.799 1527.41 932.299 1528.61 933.899 1529.67C935.303 1531 936.824 1532.2 938.444 1533.25C939.835 1534.6 941.357 1535.8 942.989 1536.84C944.357 1538.18 945.858 1539.38 947.47 1540.42C948.86 1541.76 950.383 1542.97 952.014 1544.01C953.382 1545.35 954.884 1546.55 956.495 1547.59C957.899 1548.92 959.42 1550.12 961.04 1551.17C962.408 1552.52 963.91 1553.72 965.521 1554.76C972.917 1561.27 982.568 1564.62 992.406 1564.1L1198.27 1571.79C1219.46 1571.79 1230.98 1562.18 1230.98 1541V1519.87C1230.98 1435.18 1300.24 1375.59 1410.21 1375.59C1510.26 1375.59 1577.6 1429.42 1577.6 1512.19C1577.61 1521.62 1576.71 1531.03 1574.92 1540.29C1471.6 1675.74 1202.69 1735.47 1202.69 1998.36V2061.61C1202.69 2087.21 1216.7 2101.36 1242.5 2101.36H1490.36C1515.96 2101.36 1530.17 2087.34 1530.17 2061.61V2019.42C1530.17 1806.39 1949.26 1804.02 1949.26 1415.41C1949.26 1141.56 1740.83 959 1417.77 959Z" fill="#263238"/>
<path d="M1202.37 2061.73V1998.49C1202.37 1673.05 1614.41 1659.23 1614.41 1427.25C1614.41 1326.56 1532.48 1260.82 1410.72 1260.82C1277.26 1260.82 1193.08 1333.41 1193.08 1436.4V1462.01C1193.08 1487.61 1179 1499.52 1153.27 1499.52L902.725 1490.11C879.361 1490.11 862.974 1478.39 862.974 1462.01V1436.4C862.974 1153.08 1087.72 958.808 1417.83 958.808C1740.9 958.808 1949.13 1141.37 1949.13 1415.34C1949.13 1803.96 1530.04 1806.33 1530.04 2019.36V2061.54C1530.04 2087.15 1515.96 2101.29 1490.23 2101.29H1242.18C1216.38 2101.49 1202.37 2087.47 1202.37 2061.73ZM1181.31 2438.96C1181.31 2335.96 1272.59 2251.66 1382.62 2251.66C1487.99 2251.66 1581.64 2335.96 1581.64 2438.96C1581.64 2541.95 1487.79 2625.94 1380.32 2625.94C1270.15 2625.94 1181.31 2541.7 1181.31 2438.96Z" fill="#1FBD59" stroke="#1FBD59" stroke-miterlimit="10"/>
<path d="M1370.08 2835.83C1563.14 2835.83 1719.65 2800.84 1719.65 2757.67C1719.65 2714.51 1563.14 2679.51 1370.08 2679.51C1177.01 2679.51 1020.51 2714.51 1020.51 2757.67C1020.51 2800.84 1177.01 2835.83 1370.08 2835.83Z" fill="#263238"/>
<path d="M1102.89 984.924L1089.51 1014.11C1089.51 1014.11 1011.8 1022.5 1011.8 1028.32C1011.8 1034.15 1012.63 1074.29 1016.86 1075.95C1020.07 1077.2 1023.63 1077.2 1026.84 1075.95L1141.3 1046.7L1152.18 994.91L1102.89 984.924Z" fill="#FFBDA7" stroke="#263238" stroke-linecap="round" stroke-linejoin="round"/>
<path d="M1081.13 1037.09C1066.91 1048.74 1051.58 1058.94 1035.36 1067.56C1016.86 1075.89 1016.15 1088.5 1022.04 1088.5C1027.93 1088.5 1080.17 1066.6 1080.17 1066.6C1080.17 1066.6 1127.6 1054.19 1134.45 1050.41C1141.3 1046.63 1142.07 1025.64 1142.07 1025.64" fill="#FFBDA7"/>
<path d="M1081.13 1037.09C1066.91 1048.74 1051.58 1058.94 1035.36 1067.56C1016.86 1075.89 1016.15 1088.5 1022.04 1088.5C1027.93 1088.5 1080.17 1066.6 1080.17 1066.6C1080.17 1066.6 1127.6 1054.19 1134.45 1050.41C1141.3 1046.63 1142.07 1025.64 1142.07 1025.64" stroke="#263238" stroke-linecap="round" stroke-linejoin="round"/>
<path d="M1171.26 424.051L1123.5 790.072L1090.28 988.253L1164.02 1005.66L1219.01 771.252L1245.06 623.705L1171.26 424.051Z" fill="#B3DE54" stroke="#263238" stroke-linecap="round" stroke-linejoin="round"/>
<path d="M1556.61 159.042L1527.48 154.433L1467.82 131.836L1465.65 202.698L1558.14 211.211L1556.61 159.042Z" fill="#FFBDA7" stroke="#263238" stroke-linecap="round" stroke-linejoin="round"/>
<path d="M1216.13 1457.01C1194.42 1482.32 1174.14 1508.82 1155.38 1536.39C1130.74 1574.03 1139.44 1614.48 1169.85 1624.66C1200.25 1634.84 1239.24 1607.25 1249.41 1585.55C1259.59 1563.85 1256.65 1552.33 1272.52 1530.63C1288.4 1508.93 1301.46 1487.23 1295.69 1458.29C1289.93 1429.36 1231.75 1436.79 1216.13 1457.01Z" fill="#B3DE54" stroke="#263238" stroke-linecap="round" stroke-linejoin="round"/>
<path d="M1246.47 1590.99C1244.42 1586.64 1242.05 1582.03 1239.24 1577.1C1216 1536.2 1175.22 1539.46 1149.62 1547.08C1132.78 1581.45 1142.39 1615.63 1169.98 1624.85C1197.56 1634.07 1233.16 1611.54 1246.47 1590.99Z" fill="#FFBDA7" stroke="#263238" stroke-linecap="round" stroke-linejoin="round"/>
<path d="M1239.24 1577.1C1230.59 1589.9 1219.01 1624.85 1174.14 1610.39C1161.62 1607.17 1150.43 1600.12 1142.13 1590.22C1143.1 1598.03 1146.23 1605.41 1151.18 1611.53C1156.12 1617.65 1162.68 1622.26 1170.1 1624.85C1200.45 1634.97 1239.49 1607.44 1249.67 1585.74C1259.85 1564.04 1256.9 1552.52 1272.78 1530.82C1288.65 1509.12 1301.71 1487.42 1295.95 1458.48C1295.95 1493.18 1283.15 1498.94 1267.02 1517.76C1250.89 1536.58 1247.94 1564.04 1239.24 1577.1Z" fill="#FFBDA7" stroke="#263238" stroke-linecap="round" stroke-linejoin="round"/>
<path d="M1643.02 1457.01C1664.73 1482.32 1685.01 1508.82 1703.77 1536.39C1728.42 1574.03 1719.71 1614.48 1689.3 1624.66C1658.9 1634.84 1619.92 1607.25 1609.74 1585.55C1599.56 1563.85 1602.5 1552.33 1586.63 1530.63C1570.75 1508.93 1557.7 1487.23 1563.46 1458.29C1569.22 1429.36 1627.15 1436.79 1643.02 1457.01Z" fill="#B3DE54" stroke="#263238" stroke-linecap="round" stroke-linejoin="round"/>
<path d="M1612.75 1590.99C1614.73 1586.64 1617.1 1582.03 1619.92 1577.1C1643.15 1536.2 1683.93 1539.46 1709.53 1547.08C1726.37 1581.45 1716.77 1615.63 1689.18 1624.85C1661.59 1634.07 1626 1611.54 1612.75 1590.99Z" fill="#FFBDA7" stroke="#263238" stroke-linecap="round" stroke-linejoin="round"/>
<path d="M1619.92 1577.1C1628.56 1589.9 1640.14 1624.85 1685.02 1610.39C1697.53 1607.17 1708.72 1600.12 1717.02 1590.22C1716.05 1598.03 1712.92 1605.41 1707.98 1611.53C1703.03 1617.65 1696.48 1622.26 1689.05 1624.85C1658.71 1634.97 1619.66 1607.44 1609.48 1585.74C1599.3 1564.04 1602.25 1552.52 1586.37 1530.82C1570.5 1509.12 1557.44 1487.42 1563.2 1458.48C1563.2 1493.18 1576 1498.94 1592.13 1517.76C1608.27 1536.58 1611.21 1564.04 1619.92 1577.1Z" fill="#FFBDA7" stroke="#263238" stroke-linecap="round" stroke-linejoin="round"/>
<path d="M1710.88 957.911C1710.88 931.858 1666.07 902.925 1666.07 902.925C1598.54 834.24 1476.66 843.33 1431.66 849.475C1386.85 843.074 1264.84 834.24 1197.31 902.925C1197.31 902.925 1152.5 931.858 1152.5 957.911C1152.5 983.964 1208.96 1454.13 1208.96 1454.13C1208.96 1454.13 1207.49 1478.71 1248.01 1481.59C1288.53 1484.47 1305.62 1461.37 1305.62 1461.37L1321.56 1063.53C1321.56 1063.53 1386.66 1017.19 1398.37 1015.78C1402.59 1015.2 1408.1 1014.31 1414.25 1013.54V1014.31C1425.71 1011.92 1437.54 1011.92 1449 1014.31V1013.54C1455.4 1014.31 1460.59 1015.2 1464.88 1015.78C1476.46 1017.19 1541.69 1063.53 1541.69 1063.53L1557.63 1461.37C1557.63 1461.37 1574.98 1484.47 1615.24 1481.59C1655.51 1478.71 1654.29 1454.13 1654.29 1454.13C1654.29 1454.13 1710.88 983.964 1710.88 957.911Z" fill="#263238" stroke="#263238" stroke-linecap="round" stroke-linejoin="round"/>
<path d="M1541.63 1063.53C1541.63 1063.53 1532.92 968.025 1574.92 931.858" stroke="#BBE152" stroke-linecap="round" stroke-linejoin="round"/>
<path d="M1321.75 1063.53C1321.75 1063.53 1326.1 983.964 1317.4 955.031C1308.69 926.097 1294.22 914.511 1294.22 914.511" stroke="#BBE152" stroke-linecap="round" stroke-linejoin="round"/>
<path d="M1375.26 873.992C1375.26 873.992 1421.54 927.506 1430.25 972.378" stroke="#BBE152" stroke-linecap="round" stroke-linejoin="round"/>
<path d="M1476.53 877.064C1476.53 877.064 1450.48 905.997 1447.6 927.697" stroke="#BBE152" stroke-linecap="round" stroke-linejoin="round"/>
<path d="M1411.43 314.143C1411.43 314.143 1369.5 308.318 1355.03 322.784C1340.57 337.251 1291.34 390.573 1291.34 390.573L1317.39 850.627C1317.39 850.627 1376.73 873.8 1427.37 873.8C1478 873.8 1535.87 854.98 1548.99 844.866C1562.11 834.752 1550.46 341.412 1550.46 341.412C1550.46 341.412 1442.99 309.79 1411.43 314.143Z" fill="#1FBD59" stroke="#263238" stroke-linecap="round" stroke-linejoin="round"/>
<path d="M1488.11 324.257C1510.14 320.912 1532.35 318.967 1554.62 318.432C1583.56 318.432 1612.23 319.904 1612.23 319.904L1684.57 250.451L1539 217.165L1550.59 150.656C1550.59 150.656 1657.62 143.423 1711.13 153.537C1764.65 163.651 1848.57 189.703 1852.92 189.703C1857.27 189.703 1863.03 205.642 1858.68 217.165C1854.33 228.687 1718.24 379.243 1677.59 418.29C1651 444.348 1625.89 471.874 1602.38 500.738L1583.81 823.358C1583.81 823.358 1631.57 849.411 1640.27 858.053C1648.98 866.694 1659.09 901.453 1659.09 901.453C1659.09 901.453 1570.82 865.286 1547.65 862.406C1524.47 859.525 1510.07 858.053 1505.72 849.603C1501.37 841.154 1465.2 454.649 1465.2 454.649L1466.67 331.682C1466.67 331.682 1466.41 324.257 1488.11 324.257Z" fill="#B3DE54" stroke="#263238" stroke-linecap="round" stroke-linejoin="round"/>
<path d="M1574.92 522.438L1496.76 532.551L1503.99 561.485L1543.1 571.599L1580.68 554.251L1574.92 522.438Z" stroke="#263238" stroke-linecap="round" stroke-linejoin="round"/>
<path d="M1619.72 348.837L1602.38 500.738L1647.25 372.009" stroke="#263238" stroke-linecap="round" stroke-linejoin="round"/>
<path d="M1684.82 250.451C1684.82 250.451 1720.99 257.684 1775.98 235.984" stroke="#263238" stroke-linecap="round" stroke-linejoin="round"/>
<path d="M1722.46 260.565C1746.22 261.226 1769.98 259.294 1793.32 254.803" stroke="#263238" stroke-linecap="round" stroke-linejoin="round"/>
<path d="M1362.27 312.67L1369.5 418.29C1376.09 426.963 1384.63 433.966 1394.43 438.736C1404.22 443.506 1415 445.909 1425.9 445.751C1462.06 444.343 1466.41 418.29 1466.41 418.29V331.49L1362.27 312.67Z" fill="#FFBDA7" stroke="#263238" stroke-linecap="round" stroke-linejoin="round"/>
<path d="M1467.82 367.657L1464.94 454.585L1495.35 406.832C1495.35 406.832 1528.63 448.76 1537.28 447.352C1545.92 445.943 1531.52 428.532 1528.63 412.657C1525.75 396.782 1501.11 340.26 1498.23 324.385C1495.35 308.51 1467.82 305.565 1466.22 312.798C1465.42 319.046 1465.42 325.371 1466.22 331.618L1467.82 367.657Z" fill="#B3DE54" stroke="#263238" stroke-linecap="round" stroke-linejoin="round"/>
<path d="M1368.03 445.751C1368.03 445.751 1373.79 850.819 1359.32 855.428C1344.86 860.037 1286.99 861.253 1250.5 878.6C1214.02 895.948 1196.99 903.181 1196.99 903.181C1196.99 903.181 1214.34 861.253 1234.63 842.434C1248.11 830.312 1263.19 820.083 1279.44 812.028L1241.86 618.2C1241.86 618.2 1172.41 434.421 1170.94 424.307C1169.46 414.193 1302.61 338.979 1330.07 325.921C1357.53 312.862 1364.83 324.513 1364.83 324.513L1368.03 445.751Z" fill="#B3DE54" stroke="#263238" stroke-linecap="round" stroke-linejoin="round"/>
<path d="M1331.86 305.437C1331.86 305.437 1297.17 415.41 1294.22 429.876C1291.28 444.343 1294.22 444.343 1304.4 434.165C1314.58 423.987 1340.57 399.471 1340.57 399.471L1368.03 445.751L1366.56 360.423V311.198C1366.56 311.198 1365.15 290.97 1331.86 305.437Z" fill="#B3DE54" stroke="#263238" stroke-linecap="round" stroke-linejoin="round"/>
<path d="M1263.88 542.729H1349.21L1347.8 577.424L1310.16 590.418L1262.41 577.424L1263.88 542.729Z" stroke="#263238" stroke-linecap="round" stroke-linejoin="round"/>
<path d="M1498.23 162.242C1498.23 162.242 1518.46 250.451 1522.81 264.661C1527.16 278.872 1499.7 335.587 1490.8 348.581C1487.42 354.217 1482.76 358.982 1477.2 362.494C1471.64 366.007 1465.34 368.169 1458.8 368.809C1448.68 368.809 1393.7 350.053 1380.64 341.348C1367.58 332.642 1354.65 322.528 1354.65 322.528C1348.5 325.334 1341.66 326.284 1334.97 325.26C1328.29 324.237 1322.04 321.285 1317.01 316.767C1299.66 300.828 1276.49 282.009 1282.25 269.014C1285.06 262.638 1289.76 257.278 1295.71 253.66C1301.66 250.042 1308.59 248.34 1315.54 248.786C1331.48 248.786 1325.72 247.314 1325.72 247.314C1325.72 247.314 1296.78 205.386 1296.78 172.1C1296.78 138.814 1358.94 114.489 1395.11 114.489C1420.11 115.531 1444.68 121.423 1467.44 131.837L1498.23 162.242Z" fill="#FFBDA7" stroke="#263238" stroke-linecap="round" stroke-linejoin="round"/>
<path d="M1447.6 195.464L1473.65 244.69L1447.6 262.037L1436.01 247.57" stroke="#263238" stroke-linecap="round" stroke-linejoin="round"/>
<path d="M1495.35 240.337C1495.35 240.337 1496.76 251.923 1479.41 270.743" stroke="#263238" stroke-linecap="round" stroke-linejoin="round"/>
<path d="M1420.13 213.58C1420.13 220.365 1417.19 225.87 1413.73 225.87C1410.28 225.87 1407.33 220.365 1407.33 213.58C1407.33 206.795 1410.28 201.29 1413.73 201.29C1417.19 201.29 1420.13 206.795 1420.13 213.58Z" fill="#263238"/>
<path d="M1465.65 202.698C1469.25 202.698 1472.18 197.195 1472.18 190.408C1472.18 183.62 1469.25 178.117 1465.65 178.117C1462.04 178.117 1459.12 183.62 1459.12 190.408C1459.12 197.195 1462.04 202.698 1465.65 202.698Z" fill="#263238"/>
<path d="M1341.98 86.9641C1341.98 86.9641 1250.95 120.25 1247.94 162.242C1244.93 204.234 1328.98 262.037 1333.33 269.27C1337.69 276.504 1350.68 260.565 1350.68 260.565C1347.79 256.678 1345.77 252.211 1344.76 247.471C1343.76 242.732 1343.79 237.83 1344.86 233.104C1349.21 218.637 1368.03 201.098 1368.03 194.056C1368.03 187.015 1346.33 199.817 1346.33 178.117C1346.33 156.417 1399.84 143.423 1431.66 144.831C1463.47 146.239 1491 199.817 1514.17 173.764C1537.34 147.712 1503.99 140.542 1503.99 140.542C1503.99 140.542 1548.8 134.717 1548.8 111.609C1548.8 88.5004 1525.63 72.4974 1515.51 72.4974C1505.4 72.4974 1477.94 89.9087 1477.94 71.0892C1477.94 52.2696 1505.4 43.564 1479.35 13.4784C1453.29 -16.6073 1420.07 13.4784 1420.07 25.0645C1420.07 36.6507 1411.36 58.2868 1405.6 58.2868C1399.84 58.2868 1382.43 32.2979 1362.2 46.7646C1356.12 51.6004 1351.16 57.6997 1347.67 64.6406C1344.18 71.5815 1342.23 79.1984 1341.98 86.9641Z" fill="#263238" stroke="#263238" stroke-linecap="round" stroke-linejoin="round"/>
<path d="M1379.61 198.409L1425.9 180.998" stroke="#263238" stroke-linecap="round" stroke-linejoin="round"/>
<path d="M1433.13 160.77C1432.24 156.229 1432.97 151.521 1435.18 147.456" stroke="#263238" stroke-linecap="round" stroke-linejoin="round"/>
<path d="M1435.18 147.328C1438.44 140.926 1445.8 132.669 1462.06 125.948" stroke="#FFBDA7" stroke-linecap="round" stroke-linejoin="round"/>
</svg>
