<svg width="25520" height="17145" viewBox="0 0 25520 17145" fill="none" xmlns="http://www.w3.org/2000/svg">
<path d="M5607.85 1305.56H1106.4V9181.06H5607.85V1305.56Z" fill="#F1F1F1"/>
<path d="M2508.75 9256.39C2508.75 9256.39 2015.11 5713.46 1757.16 5323.9C1757.16 5323.9 3231.99 4216.76 3276.94 1215.67H1039.18V9256.39H2508.75Z" fill="#F5F5F5"/>
<path d="M4205.09 9241C4205.09 9241 4697.92 5697.67 4956.28 5308.51C4956.28 5308.51 3481.85 4200.97 3436.49 1200.28H5674.26V9241H4205.09Z" fill="#F5F5F5"/>
<path d="M5726.09 1005.49H689.302V9441.45H5935.05V1005.49H5726.09ZM2011.06 5388.29V7394.42H1106.4V5388.29H2011.06ZM1106.4 5243.31V3167.13H2011.06V5243.31H1106.4ZM3388.31 5243.31V3167.13H4522.17V5243.31H3388.31ZM4522.17 5388.29V7394.42H3388.31V5388.29H4522.17ZM2051.96 5243.31V3167.13H3243.74V5243.31H2051.96ZM3243.74 5388.29V7394.42H2051.56V5388.29H3243.74ZM2051.56 3129.87V1307.59H3243.33V3129.87H2051.56ZM3243.33 7430.46V9181.87H2051.56V7430.46H3243.33ZM3388.31 7430.46H4522.17V9181.87H3388.31V7430.46ZM3388.31 3131.09V1307.59H4522.17V3129.87L3388.31 3131.09ZM4560.24 5388.29H5517.54V7394.42H4560.24V5388.29ZM4560.24 5243.31V3167.13H5517.54V5243.31H4560.24ZM5517.54 3129.87H4560.24V1307.59H5517.54V3129.87ZM2011.06 1307.59V3129.87H1106.4V1307.59H2011.06ZM1106.4 7430.46H2011.06V9181.87H1106.4V7430.46ZM4560.24 9181.87V7430.46H5517.54V9181.87H4560.24Z" fill="#FFBDA7"/>
<path d="M20934.5 2865.84H7238.59V12038.8H20934.5V2865.84Z" fill="#F5F5F5"/>
<path d="M20934.5 2865.84H7238.59V3782.25H20934.5V2865.84Z" fill="#FFBDA7"/>
<path d="M7831.84 3323.84C7833.47 3346.08 7828.36 3368.29 7817.18 3387.58C7806 3406.87 7789.27 3422.34 7769.17 3431.98C7749.06 3441.63 7726.52 3444.99 7704.48 3441.63C7682.44 3438.28 7661.92 3428.36 7645.6 3413.18C7629.28 3397.99 7617.91 3378.24 7612.97 3356.49C7608.04 3334.75 7609.77 3312.03 7617.94 3291.28C7626.11 3270.54 7640.34 3252.74 7658.77 3240.2C7677.21 3227.66 7698.99 3220.96 7721.29 3220.98C7749.58 3220 7777.1 3230.28 7797.83 3249.56C7818.55 3268.84 7830.79 3295.55 7831.84 3323.84Z" fill="#F1F1F1"/>
<path d="M8189.01 3323.84C8190.63 3346.08 8185.52 3368.29 8174.35 3387.58C8163.17 3406.87 8146.44 3422.34 8126.33 3431.98C8106.23 3441.63 8083.69 3444.99 8061.65 3441.63C8039.61 3438.28 8019.09 3428.36 8002.76 3413.18C7986.44 3397.99 7975.07 3378.24 7970.14 3356.49C7965.21 3334.75 7966.94 3312.03 7975.11 3291.28C7983.28 3270.54 7997.51 3252.74 8015.94 3240.2C8034.37 3227.66 8056.16 3220.96 8078.45 3220.98C8106.74 3220 8134.27 3230.28 8155 3249.56C8175.72 3268.84 8187.95 3295.55 8189.01 3323.84Z" fill="#F1F1F1"/>
<path d="M8546.17 3323.84C8547.8 3346.08 8542.69 3368.29 8531.51 3387.58C8520.34 3406.87 8503.6 3422.34 8483.5 3431.98C8463.4 3441.63 8440.86 3444.99 8418.82 3441.63C8396.78 3438.28 8376.26 3428.36 8359.93 3413.18C8343.61 3397.99 8332.24 3378.24 8327.31 3356.49C8322.37 3334.75 8324.11 3312.03 8332.28 3291.28C8340.44 3270.54 8354.67 3252.74 8373.11 3240.2C8391.54 3227.66 8413.33 3220.96 8435.62 3220.98C8463.91 3220 8491.44 3230.28 8512.16 3249.56C8532.89 3268.84 8545.12 3295.55 8546.17 3323.84Z" fill="#F1F1F1"/>
<path d="M25127.3 4678.41H22375.7V8266.68L25127.3 8335.93V4678.41Z" fill="#FFBDA7"/>
<path d="M24946.3 4806.37H22538.5V8060.56L24946.3 8141.96V4806.37Z" fill="#F1F1F1"/>
<path d="M24524.8 5397.6L22926.8 5336.86V7611.47H24524.8V5397.6Z" fill="#FFBDA7"/>
<path d="M22926.8 7611.47L24524.8 6442.78L22926.8 5336.86V7611.47Z" fill="#F5F5F5"/>
<path d="M24824 2153.53L23292.5 2105.75V4102.97L24824 4141.44V2153.53Z" fill="#FFBDA7"/>
<path d="M24723.2 2240.6L23383.2 2177.02V3987.96L24723.2 4033.32V2240.6Z" fill="#F1F1F1"/>
<path d="M24488.7 2505.84L23599.4 2472.23V3738.11H24488.7V2505.84Z" fill="#FFBDA7"/>
<path d="M23599.4 3738.11L24488.7 3087.76L23599.4 2472.23V3738.11Z" fill="#F5F5F5"/>
<path d="M14287.6 462.051L14141 1823.5H16020.4L16176.3 462.051H14287.6Z" fill="#FFBDA7"/>
<path d="M14364.9 551.543L14222 1742.91H15918.3L16055.6 551.543H14364.9Z" fill="#F1F1F1"/>
<path d="M14650.4 760.096L14562.5 1550.97H15632.8L15687.9 760.096H14650.4Z" fill="#FFBDA7"/>
<path d="M16740 0L16543.2 1823.5H19061.1L19270.1 0H16740Z" fill="#FFBDA7"/>
<path d="M16843.2 119.865L16652.1 1715.78H18924.7L19108.5 119.865H16843.2Z" fill="#F1F1F1"/>
<path d="M17225.9 399.281L17108.1 1458.23H18542L18615.7 399.281H17225.9Z" fill="#FFBDA7"/>
<path d="M20210 1823.5H12877.1V2033.26H20210V1823.5Z" fill="#FFBDA7"/>
<path d="M14131.7 2543.5L13810.5 2033.26H14287.6V2543.5H14131.7Z" fill="#FFBDA7"/>
<path d="M13965.6 2033.26L14249.5 2543.5H14287.6V2033.26H13965.6Z" fill="#E0E0E0"/>
<path d="M18362.6 2543.5L18041.5 2033.26H18518.5V2543.5H18362.6Z" fill="#FFBDA7"/>
<path d="M18196.6 2033.26L18480.4 2543.5H18518.5V2033.26H18196.6Z" fill="#E0E0E0"/>
<path d="M4105.47 14294C4780.53 13852.6 4951.82 13006.6 4944.13 12242.9C4944.13 12115.3 4960.33 11981.3 4901.61 11867.9C4842.89 11754.5 4701.56 11675.2 4584.53 11725.8C4487.75 11768.3 4443.2 11877.2 4387.32 11968.8C4312.37 12088.9 4204.97 12185.3 4077.53 12247C3994.52 12287.4 3892.06 12310.1 3811.88 12264C3702.14 12200.8 3692.83 12048.5 3696.47 11921.8L3718.34 11213.5C3729.28 11086.9 3719.3 10959.4 3688.78 10836.1C3651.93 10714.6 3567.29 10601.2 3445.81 10564.4C3324.32 10527.5 3171.66 10593.5 3142.9 10717C3136.81 10769.5 3134.38 10822.2 3135.61 10875C3130.76 10927.2 3104.43 10985.1 3054.62 10996.5C3004.82 11007.8 2952.58 10973 2914.92 10934.9C2785.74 10803.7 2699.48 10636.9 2619.71 10470.8C2539.93 10304.8 2460.56 10135.5 2343.12 9992.99C2225.69 9850.45 2062.9 9735.85 1879.05 9721.27C1695.2 9706.69 1496.78 9814 1448.18 9990.97C1399.59 10167.9 1498.4 10352.6 1610.16 10500C1775.73 10718.8 1971.99 10912.6 2192.89 11075.4C2236.08 11100.3 2270.15 11138.3 2290.08 11184C2315.99 11269 2232.98 11350.8 2147.53 11376.7C2051.15 11405.9 1947.49 11393.7 1847.06 11402.6C1746.63 11411.5 1637.29 11452.8 1597.2 11545.6C1541.32 11673.9 1647.82 11812 1753.51 11903.6C1966.03 12087.3 2208.46 12233.3 2470.28 12335.2C2563.82 12371.3 2662.23 12403.7 2736.74 12470.9C2811.25 12538.1 2854.58 12653.5 2806.39 12741.4C2758.2 12829.3 2639.55 12855.6 2540.74 12834.9C2441.93 12814.3 2355.27 12759.6 2261.73 12722C2086.79 12651.9 1856.78 12658.8 1742.18 12806.6C1706.43 12857.3 1683.09 12915.7 1674.01 12977.1C1664.94 13038.5 1670.39 13101.2 1689.94 13160.1C1730.38 13277.5 1794.01 13385.6 1877.03 13478C2149.8 13817 2507.28 14078 2913.3 14234.5C3318.25 14384.3 3697.69 14431.3 4107.9 14294" fill="#1FBD59"/>
<path d="M1635.67 9821.7L1647.82 9833.84L1685.08 9868.67C1718.28 9898.64 1766.07 9943.18 1827.62 10001.9C1999.95 10167.7 2159.55 10346.3 2305.06 10536C2397.79 10657.5 2493.77 10791.1 2594.19 10938.6C2694.62 11086 2800.72 11243.9 2905.6 11414.4C3016.75 11591.7 3118.14 11775.1 3209.32 11963.5C3256.29 12061.5 3298 12163.9 3340.52 12268.4L3468.89 12585.9C3634.62 12987.7 3777.39 13398.6 3896.52 13816.5C3992.44 14158 4055.62 14507.9 4085.23 14861.3C4104.32 15099.8 4102.42 15339.5 4079.56 15577.7C4071.05 15661.9 4062.95 15727.1 4055.67 15771.2C4052.83 15792.3 4050.4 15808.9 4048.38 15821.5C4048.02 15827.1 4048.02 15832.8 4048.38 15838.5C4050.52 15833.2 4051.88 15827.6 4052.43 15821.9L4062.14 15772.1C4070.65 15727.9 4080.37 15662.7 4090.49 15578.5C4116.89 15339.9 4121.23 15099.5 4103.45 14860.1C4075.92 14505.2 4013.94 14153.8 3918.39 13810.9C3800.2 13391.8 3657.68 12979.9 3491.57 12577.4L3363.2 12259.5C3320.68 12155.4 3278.56 12052.2 3230.78 11953.8C3139.35 11764.6 3037.28 11580.7 2925.04 11403C2818.94 11232.5 2712.44 11074.6 2611.2 10927.2C2509.96 10779.8 2413.18 10643.7 2319.23 10525.9C2171.77 10336.3 2009.26 10158.9 1833.29 9995.42C1771.33 9937.51 1721.93 9893.78 1687.91 9865.03L1647.42 9832.22C1643.85 9828.34 1639.92 9824.81 1635.67 9821.7Z" fill="#263238"/>
<path d="M3223.49 11952.6C3230.1 11935.2 3234.72 11917.1 3237.26 11898.7C3244.95 11863.9 3254.27 11813.2 3264.79 11750.5C3285.85 11624.5 3309.34 11450 3334.45 11257.3C3359.55 11064.5 3385.06 10890.8 3408.15 10765.6C3419.49 10702.9 3429.2 10652.7 3436.49 10617.4C3441.31 10599.6 3444.17 10581.2 3445 10562.8C3437.2 10579.6 3431.36 10597.2 3427.58 10615.4C3417.87 10649.8 3405.31 10700 3391.95 10762.4C3364.41 10887.1 3336.07 11061.3 3310.96 11254C3285.85 11446.8 3264.79 11616.4 3248.19 11747.6C3240.09 11807.2 3233.61 11857 3228.35 11897.1C3224.55 11915.3 3222.92 11933.9 3223.49 11952.6Z" fill="#263238"/>
<path d="M1579.79 11608.7C1601.33 11613.8 1623.29 11617 1645.39 11618.1C1685.89 11622.9 1749.06 11629.4 1824.38 11639.5C1975.02 11659.4 2182.76 11693.8 2409.54 11741.6C2636.31 11789.4 2840.41 11842.4 2986.59 11884.5C3059.89 11904.8 3118.61 11923 3159.51 11935.5C3180.2 11943.4 3201.64 11949.1 3223.49 11952.6C3203.89 11942.2 3183.44 11933.5 3162.34 11926.6C3121.85 11911.7 3064.34 11891 2991.45 11868.3C2846.07 11822.2 2642.38 11767.1 2414.4 11718.5C2186.41 11669.9 1978.26 11637.5 1826.41 11622.9C1750.68 11614.8 1688.72 11610.8 1646.2 11608.7C1624.11 11606.7 1601.88 11606.7 1579.79 11608.7Z" fill="#263238"/>
<path d="M3898.14 13780.1C3903.03 13774.1 3906.99 13767.4 3909.88 13760.3L3939.44 13701.9C3965.36 13651.3 4000.19 13577.2 4042.3 13484.5C4126.53 13299.8 4234.65 13041.1 4350.06 12755.6C4465.48 12470.1 4571.17 12208.9 4651.75 12022.6C4692.25 11931.9 4723.03 11857.4 4747.32 11802.3L4772.83 11742C4776.13 11735.1 4778.71 11727.9 4780.53 11720.5C4775.62 11726.4 4771.53 11733 4768.38 11740C4760.69 11755.7 4750.56 11775.2 4738.82 11798.3C4713.31 11848.9 4678.48 11923.4 4636.37 12015.7C4552.14 12200.4 4444.01 12461.2 4328.2 12746.7C4212.38 13032.2 4107.09 13293.3 4026.91 13479.6L3931.35 13699.1L3905.83 13759C3902.3 13765.7 3899.71 13772.8 3898.14 13780.1Z" fill="#263238"/>
<path d="M1721.52 13030.1C1728.19 13034.3 1735.42 13037.4 1742.99 13039.4L1806.16 13062.1L2039.41 13143.1C2236.22 13211.5 2506.72 13308.7 2805.58 13416.9C3104.43 13525 3376.56 13619.3 3574.99 13683.7C3674.2 13716.1 3754.79 13741.2 3810.67 13757.4L3875.06 13776C3882.54 13778.5 3890.29 13780.2 3898.14 13780.9C3891.44 13776.7 3884.23 13773.5 3876.68 13771.2L3813.5 13748.9L3580.25 13667.9C3383.44 13599.9 3112.94 13502.7 2813.68 13394.6C2514.42 13286.5 2243.1 13192.1 2044.27 13127.3C1945.06 13095.3 1864.47 13070.2 1808.59 13053.6L1744.2 13035.4C1736.92 13032.6 1729.29 13030.8 1721.52 13030.1Z" fill="#263238"/>
<path d="M22489.1 15827.9C22489.1 15834 17947.9 15838.5 12347.1 15838.5C6746.17 15838.5 2204.23 15834 2204.23 15827.9C2204.23 15821.9 6744.55 15817.4 12347.1 15817.4C17949.6 15817.4 22489.1 15822.3 22489.1 15827.9Z" fill="#263238"/>
<path d="M18748.5 3645.78H4962.76C4906.25 3645.78 4850.29 3656.92 4798.09 3678.56C4745.88 3700.19 4698.46 3731.91 4658.52 3771.89C4618.58 3811.86 4586.91 3859.32 4565.32 3911.54C4543.73 3963.77 4532.65 4019.73 4532.7 4076.24V13813.3C4532.65 13869.8 4543.73 13925.8 4565.32 13978C4586.91 14030.2 4618.58 14077.7 4658.52 14117.7C4698.46 14157.6 4745.88 14189.4 4798.09 14211C4850.29 14232.6 4906.25 14243.8 4962.76 14243.8H10253.9C10253.9 14243.8 10590.4 15284.5 9546.81 15823.1H14494.1C14494.1 15823.1 13316.5 15418.1 13619.4 14243.8H18748.5C18862.7 14243.8 18972.2 14198.4 19052.9 14117.7C19133.6 14037 19179 13927.5 19179 13813.3V4076.24C19179 3962.08 19133.6 3852.59 19052.9 3771.86C18972.2 3691.13 18862.7 3645.78 18748.5 3645.78Z" fill="#263238"/>
<path d="M12054.3 13216C12241.8 13484.1 11948.2 13777.7 11680.1 13590.2C11671.1 13583.9 11663.3 13576.1 11657 13567.1C11469.9 13299 11763.1 13005.8 12031.2 13192.9C12040.1 13199.2 12048 13207 12054.3 13216Z" fill="#455A64"/>
<path d="M18721 4137.8H4990.29C4917.16 4137.8 4857.87 4197.08 4857.87 4270.22V12306.9C4857.87 12380 4917.16 12439.3 4990.29 12439.3H18721C18794.1 12439.3 18853.4 12380 18853.4 12306.9V4270.22C18853.4 4197.08 18794.1 4137.8 18721 4137.8Z" fill="#E0E0E0"/>
<path d="M18853.4 4746.04H4857.87V12439.3H18853.4V4746.04Z" fill="#F1F1F1"/>
<path d="M6005.91 4458.11C6005.91 4480.22 5999.36 4501.83 5987.08 4520.21C5974.79 4538.59 5957.34 4552.91 5936.92 4561.37C5916.49 4569.83 5894.02 4572.05 5872.34 4567.73C5850.66 4563.42 5830.75 4552.78 5815.11 4537.15C5799.48 4521.51 5788.84 4501.6 5784.53 4479.92C5780.21 4458.24 5782.43 4435.77 5790.89 4415.34C5799.35 4394.92 5813.67 4377.47 5832.05 4365.18C5850.43 4352.9 5872.04 4346.35 5894.15 4346.35C5923.79 4346.35 5952.22 4358.12 5973.18 4379.08C5994.14 4400.04 6005.91 4428.47 6005.91 4458.11Z" fill="#1FBD59"/>
<path d="M5328.43 4458.11C5328.43 4480.22 5321.87 4501.83 5309.59 4520.21C5297.31 4538.59 5279.86 4552.91 5259.43 4561.37C5239.01 4569.83 5216.54 4572.05 5194.86 4567.73C5173.18 4563.42 5153.26 4552.78 5137.63 4537.15C5122 4521.51 5111.35 4501.6 5107.04 4479.92C5102.73 4458.24 5104.94 4435.77 5113.4 4415.34C5121.86 4394.92 5136.19 4377.47 5154.57 4365.18C5172.95 4352.9 5194.56 4346.35 5216.66 4346.35C5246.3 4346.35 5274.73 4358.12 5295.69 4379.08C5316.65 4400.04 5328.43 4428.47 5328.43 4458.11Z" fill="#1FBD59"/>
<path d="M5653.61 4458.11C5653.61 4480.22 5647.05 4501.83 5634.77 4520.21C5622.49 4538.59 5605.03 4552.91 5584.61 4561.37C5564.19 4569.83 5541.71 4572.05 5520.03 4567.73C5498.35 4563.42 5478.44 4552.78 5462.81 4537.15C5447.18 4521.51 5436.53 4501.6 5432.22 4479.92C5427.91 4458.24 5430.12 4435.77 5438.58 4415.34C5447.04 4394.92 5461.36 4377.47 5479.74 4365.18C5498.12 4352.9 5519.73 4346.35 5541.84 4346.35C5571.48 4346.35 5599.91 4358.12 5620.87 4379.08C5641.83 4400.04 5653.61 4428.47 5653.61 4458.11Z" fill="#1FBD59"/>
<path d="M11753.8 8328.24C11753.8 8334.31 11241.1 8339.58 10609 8339.58C9976.87 8339.58 9463.79 8334.31 9463.79 8328.24C9463.79 8322.16 9976.46 8316.9 10609 8316.9C11241.5 8316.9 11753.8 8321.76 11753.8 8328.24Z" fill="#455A64"/>
<path d="M11753.8 8634.78C11753.8 8640.86 11241.1 8646.12 10609 8646.12C9976.87 8646.12 9463.79 8640.86 9463.79 8634.78C9463.79 8628.71 9976.46 8623.04 10609 8623.04C11241.5 8623.04 11753.8 8628.3 11753.8 8634.78Z" fill="#455A64"/>
<path d="M10836.2 8940.93C10836.2 8947.41 10529.2 8952.67 10150.2 8952.67C9771.15 8952.67 9463.79 8947.41 9463.79 8940.93C9463.79 8934.45 9771.15 8929.59 10150.2 8929.59C10529.2 8929.59 10836.2 8934.85 10836.2 8940.93Z" fill="#455A64"/>
<path d="M10552.7 5196.34H9463.79V5334.43H10552.7V5196.34Z" fill="#455A64"/>
<path d="M11856.7 5641.38H9463.79V7956.49H11856.7V5641.38Z" fill="#E0E0E0"/>
<path d="M9649.26 7758.06L10311.4 6566.7L10852.8 7328.41L11181.6 6923.86L11671.2 7758.06H9649.26Z" fill="#1FBD59"/>
<path d="M10911.1 6507.17C11006.1 6507.17 11083.2 6430.12 11083.2 6335.07C11083.2 6240.01 11006.1 6162.96 10911.1 6162.96C10816 6162.96 10739 6240.01 10739 6335.07C10739 6430.12 10816 6507.17 10911.1 6507.17Z" fill="#1FBD59"/>
<path d="M11671.2 7764.54C11670.7 7761.45 11670.7 7758.32 11671.2 7755.23C11671.2 7747.94 11671.2 7739.44 11671.2 7728.1C11671.2 7703.4 11671.2 7668.57 11671.2 7624.02C11671.2 7532.1 11671.2 7399.28 11668.8 7230.82C11668.8 6892.68 11665.9 6411.19 11663.9 5832.92L11673.6 5842.64H9652.1C9649.26 5845.07 9673.15 5821.18 9663.03 5831.71V6350.86C9663.03 6520.94 9663.03 6687.78 9663.03 6849.76C9663.03 7173.72 9663.03 7480.67 9663.03 7762.52L9652.91 7752.39L11114.8 7757.66L11527 7760.09H11636.4H11664.7H11637.6H11529.9L11120 7762.52L9651.69 7767.78H9641.97V7757.66C9641.97 7474.19 9641.97 7169.26 9641.97 6844.9C9641.97 6682.92 9641.97 6516.08 9641.97 6346V5833.73C9631.85 5843.45 9655.74 5819.15 9653.72 5821.99H11675.2H11685V5831.71C11682.9 6412.41 11681.3 6895.92 11680.1 7235.68C11680.1 7403.33 11678.1 7535.34 11677.3 7626.86C11677.3 7670.59 11677.3 7704.61 11677.3 7728.91C11677.3 7739.84 11677.3 7748.35 11677.3 7754.82C11675.5 7758.23 11673.5 7761.48 11671.2 7764.54Z" fill="#455A64"/>
<path d="M14671.1 8328.24C14671.1 8334.31 14158.4 8339.58 13525.9 8339.58C12893.3 8339.58 12381.1 8334.31 12381.1 8328.24C12381.1 8322.16 12893.3 8316.9 13525.9 8316.9C14158.4 8316.9 14671.1 8321.76 14671.1 8328.24Z" fill="#455A64"/>
<path d="M14671.1 8634.78C14671.1 8640.86 14158.4 8646.12 13525.9 8646.12C12893.3 8646.12 12381.1 8640.86 12381.1 8634.78C12381.1 8628.71 12893.3 8623.04 13525.9 8623.04C14158.4 8623.04 14671.1 8628.3 14671.1 8634.78Z" fill="#455A64"/>
<path d="M13753.4 8940.93C13753.4 8947.41 13446.1 8952.67 13067.1 8952.67C12688 8952.67 12381.9 8947.41 12381.9 8940.93C12381.9 8934.45 12688.8 8929.59 13067.9 8929.59C13446.9 8929.59 13753.4 8934.85 13753.4 8940.93Z" fill="#455A64"/>
<path d="M13470 5196.34H12381.1V5334.43H13470V5196.34Z" fill="#455A64"/>
<path d="M14773.9 5641.38H12381.1V7956.49H14773.9V5641.38Z" fill="#E0E0E0"/>
<path d="M12566.5 7758.06L13228.2 6566.7L13769.6 7328.41L14098.9 6923.86L14588.1 7758.06H12566.5Z" fill="#1FBD59"/>
<path d="M14001.7 6335.07C14001.8 6369.22 13991.7 6402.63 13972.8 6431.06C13953.9 6459.49 13926.9 6481.66 13895.4 6494.77C13863.8 6507.88 13829.1 6511.33 13795.6 6504.69C13762.1 6498.04 13731.3 6481.6 13707.2 6457.45C13683 6433.3 13666.6 6402.53 13660 6369.03C13653.3 6335.52 13656.8 6300.81 13669.9 6269.27C13683 6237.73 13705.2 6210.79 13733.6 6191.87C13762 6172.94 13795.4 6162.88 13829.6 6162.96C13875.2 6162.96 13919 6181.09 13951.3 6213.37C13983.6 6245.65 14001.7 6289.42 14001.7 6335.07Z" fill="#1FBD59"/>
<path d="M14588.1 7764.54C14588.1 7764.54 14588.1 7761.3 14588.1 7755.23C14588.1 7749.15 14588.1 7739.44 14588.1 7728.1C14588.1 7703.4 14588.1 7668.57 14588.1 7624.02C14588.1 7532.1 14588.1 7399.28 14585.6 7230.82C14585.6 6892.68 14582.4 6411.19 14580.4 5832.92L14590.1 5842.64H12568.6C12565.7 5845.07 12590 5821.18 12579.9 5831.71V6350.86C12579.9 6520.94 12579.9 6687.78 12579.9 6849.76C12579.9 7173.72 12579.9 7480.67 12579.9 7762.52L12570.2 7752.39L14032.1 7757.66L14444.3 7760.09H14553.6H14582H14554.4H14447.1L14036.9 7762.52L12569 7767.78H12558.8V7757.66C12558.8 7474.19 12558.8 7169.26 12558.8 6844.9V5833.73C12548.3 5843.45 12572.6 5819.15 12570.2 5821.99H14591.7H14601.8V5831.71C14599.4 6412.41 14597.8 6895.92 14596.6 7235.68C14596.6 7403.33 14594.5 7535.34 14594.1 7626.86C14594.1 7670.59 14594.1 7704.61 14594.1 7728.91C14594.1 7739.84 14594.1 7748.35 14594.1 7754.82C14592.7 7758.38 14590.6 7761.67 14588.1 7764.54Z" fill="#455A64"/>
<path d="M10629.2 9368.15H9540.33V9506.24H10629.2V9368.15Z" fill="#455A64"/>
<path d="M11933.2 9812.79H9540.33V12127.9H11933.2V9812.79Z" fill="#E0E0E0"/>
<path d="M9725.8 11929.9L10387.9 10738.5L10929.3 11499.8L11258.1 11095.7L11747.7 11929.9H9725.8Z" fill="#1FBD59"/>
<path d="M11160.1 10506.9C11160.1 10541 11150 10574.3 11131.1 10602.7C11112.1 10631.1 11085.2 10653.2 11053.6 10666.3C11022.1 10679.3 10987.4 10682.7 10954 10676.1C10920.5 10669.4 10889.8 10653 10865.6 10628.9C10841.5 10604.7 10825.1 10574 10818.4 10540.5C10811.8 10507.1 10815.2 10472.4 10828.3 10440.9C10841.3 10409.3 10863.4 10382.4 10891.8 10363.4C10920.2 10344.5 10953.5 10334.4 10987.6 10334.4C11010.3 10334.3 11032.8 10338.7 11053.7 10347.4C11074.7 10356 11093.7 10368.7 11109.7 10384.8C11125.8 10400.8 11138.5 10419.8 11147.1 10440.8C11155.8 10461.8 11160.2 10484.2 11160.1 10506.9Z" fill="#1FBD59"/>
<path d="M11747.7 11936.4C11747.7 11936.4 11747.7 11932.7 11747.7 11926.6C11747.7 11920.6 11747.7 11910.8 11747.7 11899.5C11747.7 11875.2 11747.7 11840.4 11747.7 11795.4C11747.7 11703.9 11747.7 11571.1 11744.9 11402.2C11744.9 11064.1 11742.1 10582.6 11740 10004.7L11749.7 10014.5H9728.23L9739.57 10003.1V10135.5C9739.57 10179.3 9739.57 10223 9739.57 10266.3V11023.2C9739.57 11347.2 9739.57 11653.7 9739.57 11935.9L9729.44 11925.8L11191.3 11931.1L11603.6 11933.5H11713.3H11741.6C11744.9 11933.2 11748.1 11933.2 11751.4 11933.5H11715.3H11608L11197.8 11936.4L9729.44 11941.2H9719.72V11931.5C9719.72 11648 9719.72 11342.7 9719.72 11018.7C9719.72 10856.8 9719.72 10690.5 9719.72 10519.8V10004.7L9731.47 9992.99H11753H11762.7V10003.1C11760.7 10583.8 11759.1 11067.3 11757.8 11407.1C11757.8 11574.7 11757.8 11706.7 11755.4 11797.9C11755.4 11842 11755.4 11876 11755.4 11900.3C11755.4 11910.8 11755.4 11919.3 11755.4 11926.2C11753.7 11930.2 11751.1 11933.6 11747.7 11936.4Z" fill="#455A64"/>
<path d="M13548.5 9368.15H12459.6V9506.24H13548.5V9368.15Z" fill="#455A64"/>
<path d="M14852.5 9812.79H12459.6V12127.9H14852.5V9812.79Z" fill="#E0E0E0"/>
<path d="M12645.1 11929.9L13307.2 10738.5L13848.6 11499.8L14177.4 11095.7L14667 11929.9H12645.1Z" fill="#1FBD59"/>
<path d="M14079 10506.9C14078.9 10540.9 14068.8 10574.1 14049.8 10602.4C14030.9 10630.6 14004 10652.6 13972.5 10665.6C13941.1 10678.6 13906.5 10681.9 13873.1 10675.2C13839.7 10668.5 13809.1 10652.1 13785.1 10628C13761.1 10603.9 13744.7 10573.3 13738.1 10539.9C13731.5 10506.5 13734.9 10471.9 13748 10440.5C13761 10409.1 13783.1 10382.2 13811.4 10363.3C13839.6 10344.5 13872.9 10334.4 13906.9 10334.4C13929.6 10334.4 13952 10338.8 13972.9 10347.5C13993.8 10356.2 14012.8 10368.9 14028.8 10384.9C14044.8 10400.9 14057.4 10420 14066 10440.9C14074.7 10461.8 14079.1 10484.2 14079 10506.9Z" fill="#1FBD59"/>
<path d="M14667 11936.4C14666.7 11933.1 14666.7 11929.9 14667 11926.6C14667 11919.8 14667 11910.8 14667 11899.5C14667 11875.2 14667 11840.4 14667 11795.4C14667 11703.9 14667 11571.1 14664.6 11402.2C14664.6 11064.1 14661.8 10582.6 14659.7 10004.7L14669.4 10014.5H12647.5L12658.9 10003.1V10523.1C12658.9 10693.2 12658.9 10859.5 12658.9 11022C12658.9 11345.9 12658.9 11652.5 12658.9 11934.7L12648.7 11924.6L14110.6 11929.9L14522.9 11932.3H14632.2H14660.5H14670.7H14634.6H14526.9L14117.1 11935.1L12648.7 11940H12638.6V11930.3C12638.6 11646.8 12638.6 11341.5 12638.6 11017.5C12638.6 10855.5 12638.6 10689.2 12638.6 10518.6V10004.7L12650 9992.99H14671.9H14681.6V10003.1C14679.6 10583.8 14678 11067.3 14676.7 11407.1C14676.7 11574.7 14674.7 11706.7 14673.9 11797.9C14673.9 11842 14673.9 11876 14673.9 11900.3C14673.9 11910.8 14673.9 11919.3 14673.9 11926.2C14671.9 11929.8 14669.6 11933.2 14667 11936.4Z" fill="#455A64"/>
<path d="M16560.6 9368.15H15471.7V9506.24H16560.6V9368.15Z" fill="#455A64"/>
<path d="M17864.5 9812.79H15471.7V12127.9H17864.5V9812.79Z" fill="#E0E0E0"/>
<path d="M15657.1 11929.9L16319.2 10738.5L16860.6 11499.8L17189.5 11095.7L17679 11929.9H15657.1Z" fill="#1FBD59"/>
<path d="M17091.5 10506.9C17091.5 10541 17081.3 10574.3 17062.4 10602.7C17043.4 10631.1 17016.5 10653.2 16985 10666.3C16953.4 10679.3 16918.8 10682.7 16885.3 10676.1C16851.8 10669.4 16821.1 10653 16797 10628.9C16772.8 10604.7 16756.4 10574 16749.8 10540.5C16743.1 10507.1 16746.5 10472.4 16759.6 10440.9C16772.6 10409.3 16794.7 10382.4 16823.1 10363.4C16851.5 10344.5 16884.8 10334.4 16919 10334.4C16941.6 10334.3 16964.1 10338.7 16985 10347.4C17006 10356 17025 10368.7 17041.1 10384.8C17057.1 10400.8 17069.8 10419.8 17078.4 10440.8C17087.1 10461.8 17091.5 10484.2 17091.5 10506.9Z" fill="#1FBD59"/>
<path d="M17679 11936.4C17679 11936.4 17679 11932.7 17679 11926.6C17679 11920.6 17679 11910.8 17679 11899.5C17679 11875.2 17679 11840.4 17679 11795.4C17679 11703.9 17679 11571.1 17676.2 11402.2C17676.2 11064.1 17673.4 10582.6 17671.4 10004.7L17681.1 10014.5H15659.6L15670.9 10003.1V11022C15670.9 11345.9 15670.9 11652.5 15670.9 11934.7L15660.8 11924.6L17122.6 11929.9L17534.9 11932.3H17644.6H17672.6C17675.9 11932 17679.3 11932 17682.7 11932.3H17646.7H17539.3L17129.1 11935.1L15660.8 11940H15651.1V11930.3C15651.1 11646.8 15651.1 11341.5 15651.1 11017.5C15651.1 10855.5 15651.1 10689.2 15651.1 10518.6V10004.7L15662.8 9992.99H17684.3H17694V10003.1C17692 10583.8 17690.4 11067.3 17689.2 11407.1C17689.2 11574.7 17687.1 11706.7 17686.7 11797.9C17686.7 11842 17686.7 11876 17686.7 11900.3C17686.7 11910.8 17686.7 11919.3 17686.7 11926.2C17685 11930.2 17682.4 11933.6 17679 11936.4Z" fill="#455A64"/>
<path d="M17640.6 7956.09C17727.6 7944.89 17815.4 7941.1 17903 7944.75L17891.6 7956.09V7930.17C17891.6 7921.26 17891.6 7912.76 17891.6 7904.25C17891.6 7887.24 17891.6 7871.05 17891.6 7854.85C17891.6 7826.1 17891.6 7798.16 17894.1 7771.43C17892.9 7745.52 17895.6 7719.57 17902.2 7694.49C17908.2 7719.66 17910.8 7745.55 17909.9 7771.43C17909.9 7798.16 17909.9 7826.1 17912.3 7854.85C17912.3 7871.05 17912.3 7887.24 17912.3 7904.25V7956.09L17900.6 7967.83C17813.7 7971.58 17726.7 7967.65 17640.6 7956.09Z" fill="#455A64"/>
<path d="M16447.2 7956.09C16645.9 7940.97 16845.4 7940.97 17044.1 7956.09C16845.4 7971.74 16645.8 7971.74 16447.2 7956.09Z" fill="#455A64"/>
<path d="M15587.9 7693.68C15599.3 7780.65 15603.1 7868.45 15599.2 7956.08L15587.9 7944.75H15690.3L15773.8 7947.18C15799.6 7946.5 15825.5 7949.22 15850.7 7955.27C15825.6 7961.83 15799.7 7964.56 15773.8 7963.37L15690.3 7965.8H15640.9H15587.9L15576.5 7954.06C15573 7867.1 15576.8 7780 15587.9 7693.68Z" fill="#455A64"/>
<path d="M15587.9 6500.29C15599.3 6599.33 15603.1 6699.11 15599.2 6798.73C15603.1 6898.23 15599.3 6997.87 15587.9 7096.78C15576.7 6997.85 15572.9 6898.23 15576.5 6798.73C15572.9 6699.11 15576.7 6599.35 15587.9 6500.29Z" fill="#455A64"/>
<path d="M15850.7 5640.57C15763.6 5652 15675.6 5655.79 15587.9 5651.91L15599.2 5640.57V5692.81C15599.2 5709.41 15599.2 5726.02 15599.2 5742.22C15599.2 5770.97 15599.2 5798.5 15596.8 5825.64C15598 5851.54 15595.2 5877.48 15588.7 5902.58C15582.1 5877.48 15579.4 5851.54 15580.6 5825.64C15580.6 5798.5 15580.6 5770.97 15578.2 5742.22C15578.2 5726.02 15578.2 5709.41 15578.2 5692.81C15578.2 5684.31 15578.2 5675.4 15578.2 5666.49V5640.57L15589.5 5629.23C15676.7 5625.69 15764.1 5629.48 15850.7 5640.57Z" fill="#455A64"/>
<path d="M17044.1 5640.57C16845.4 5655.69 16645.9 5655.69 16447.2 5640.57C16645.9 5625.45 16845.4 5625.45 17044.1 5640.57Z" fill="#455A64"/>
<path d="M17903.4 5903.79C17891.7 5816.71 17887.8 5728.76 17891.6 5640.98C17914.7 5663.65 17898.1 5647.46 17903 5652.31H17848.7H17799.3L17715.9 5649.89C17690 5651.07 17664.1 5648.34 17639 5641.79C17664.1 5635.23 17690 5632.5 17715.9 5633.69L17799.3 5631.26H17901.4L17913.1 5642.6C17917.2 5729.78 17913.9 5817.15 17903.4 5903.79Z" fill="#455A64"/>
<path d="M17903.4 7098.4C17891.7 6999.51 17887.7 6899.85 17891.6 6800.35C17887.8 6700.71 17891.7 6600.93 17903.4 6501.9C17914.6 6600.96 17918.4 6700.72 17914.7 6800.35C17918.4 6899.84 17914.6 6999.47 17903.4 7098.4Z" fill="#455A64"/>
<path d="M17869.8 8324.99C17869.8 8331.07 17356.7 8336.33 16724.6 8336.33C16092.4 8336.33 15579.4 8331.07 15579.4 8324.99C15579.4 8318.92 16092 8313.66 16724.6 8313.66C17357.1 8313.66 17869.8 8318.52 17869.8 8324.99Z" fill="#455A64"/>
<path d="M17869.8 8631.54C17869.8 8637.62 17356.7 8642.88 16724.6 8642.88C16092.4 8642.88 15581 8637.21 15581 8631.54C15581 8625.87 16093.7 8619.8 16726.2 8619.8C17358.7 8619.8 17869.8 8625.06 17869.8 8631.54Z" fill="#455A64"/>
<path d="M16668.3 5193.1H15579.4V5331.19H16668.3V5193.1Z" fill="#455A64"/>
<path d="M8350.58 6994.73C8350.58 7227 8281.71 7454.05 8152.67 7647.17C8023.63 7840.29 7840.22 7990.81 7625.63 8079.7C7411.04 8168.58 7174.92 8191.84 6947.12 8146.53C6719.31 8101.21 6510.06 7989.37 6345.82 7825.13C6181.59 7660.89 6069.74 7451.64 6024.43 7223.84C5979.12 6996.03 6002.37 6759.91 6091.26 6545.32C6180.14 6330.74 6330.66 6147.33 6523.78 6018.29C6716.91 5889.25 6943.96 5820.37 7176.22 5820.37C7487.68 5820.37 7786.39 5944.1 8006.62 6164.33C8226.86 6384.57 8350.58 6683.27 8350.58 6994.73Z" fill="#E0E0E0"/>
<path d="M8582.62 9552.4C8582.62 9558.48 7980.05 9563.74 7236.97 9563.74C6493.88 9563.74 5890.91 9558.48 5890.91 9552.4C5890.91 9546.33 6493.47 9540.66 7236.97 9540.66C7980.46 9540.66 8582.62 9545.92 8582.62 9552.4Z" fill="#455A64"/>
<path d="M8582.62 9852.07C8582.62 9858.55 7980.05 9863.41 7236.97 9863.41C6493.88 9863.41 5890.91 9858.55 5890.91 9852.07C5890.91 9845.59 6493.47 9840.73 7236.97 9840.73C7980.46 9840.73 8582.62 9843.57 8582.62 9852.07Z" fill="#455A64"/>
<path d="M8582.62 10147.7C8582.62 10154.2 7980.05 10159 7236.97 10159C6493.88 10159 5890.91 10154.2 5890.91 10147.7C5890.91 10141.2 6493.47 10135.5 7238.99 10135.5C7984.51 10135.5 8582.62 10141.6 8582.62 10147.7Z" fill="#455A64"/>
<path d="M7437.42 10451.8C7437.42 10458.3 7087.94 10463.1 6657.07 10463.1C6226.21 10463.1 5876.33 10458.3 5876.33 10451.8C5876.33 10445.3 6225.8 10440.5 6657.07 10440.5C7088.35 10440.5 7437.42 10445.7 7437.42 10451.8Z" fill="#455A64"/>
<path d="M5890.91 9080.23H7745.58V8944.57H5890.91V9080.23Z" fill="#455A64"/>
<path d="M6441.64 7890.89C6648.32 8069.84 6912.56 8168.33 7185.94 8168.33C7459.33 8168.33 7723.56 8069.84 7930.24 7890.89C7867.88 7678.7 7716.43 7426.82 7348.33 7370.93C7430.86 7334.56 7500.9 7274.77 7549.78 7198.97C7598.65 7123.18 7624.21 7034.7 7623.29 6944.52C7623.29 6689.4 7431.34 6482.06 7192.42 6480.85C6953.5 6479.63 6759.12 6685.75 6757.91 6940.47C6756.23 7031.49 6781.51 7120.97 6830.59 7197.64C6879.66 7274.31 6950.32 7334.75 7033.68 7371.34C6659.5 7426.82 6505.22 7679.91 6441.64 7890.89Z" fill="#1FBD59"/>
<path d="M6930.82 10916.7H5890.91V11043.4H6930.82V10916.7Z" fill="#1FBD59"/>
<path d="M21458.5 6517.7L21635.8 7112.57C21645.3 7139.28 21650.6 7167.27 21651.6 7195.58C21651.6 7279.41 21570.6 7345.42 21489.6 7360.8C21406 7369.86 21321.4 7359.89 21242.2 7331.65C21220.3 7417.09 21120.7 7453.13 21033.7 7469.33C20645.8 7541.49 20245.1 7491.54 19886.8 7326.38C20039.8 7107.45 20164 6869.83 20256.6 6619.34L21161.2 6659.83C21214.5 6665.61 21268.4 6661.07 21320 6646.47C21345.6 6638.7 21368.5 6623.8 21386 6603.51C21403.5 6583.22 21414.9 6558.37 21418.8 6531.87" fill="#1FBD59"/>
<path d="M20421.8 7679.5C20433.1 7613.09 20406 7333.67 20406 7333.67C20406 7333.67 20151.3 7306.54 20135.9 7053.85C20120.5 6801.16 20135.9 6218.03 20135.9 6218.03L20600 5991.26L21111 6377.99L21033.7 7641.84L20480.9 8135.07L20421.8 7679.5Z" fill="#FFBE9D"/>
<path d="M20186.5 6642.83C20186.4 6649.25 20188.3 6655.55 20191.8 6660.93C20195.3 6666.31 20200.3 6670.53 20206.2 6673.04C20212.1 6675.56 20218.7 6676.26 20225 6675.05C20231.3 6673.85 20237.1 6670.8 20241.7 6666.28C20246.2 6661.77 20249.4 6656 20250.6 6649.7C20251.9 6643.41 20251.3 6636.87 20248.9 6630.93C20246.4 6624.99 20242.3 6619.9 20236.9 6616.32C20231.6 6612.75 20225.3 6610.84 20218.9 6610.83C20214.7 6610.78 20210.5 6611.57 20206.5 6613.15C20202.6 6614.74 20199 6617.08 20196 6620.06C20193 6623.04 20190.6 6626.58 20189 6630.49C20187.3 6634.4 20186.5 6638.59 20186.5 6642.83Z" fill="#263238"/>
<path d="M20156.9 6607.59C20161.4 6612.05 20185.3 6591.8 20220.1 6589.78C20254.9 6587.75 20280.9 6604.76 20284.5 6599.9C20288.2 6595.04 20282.1 6590.18 20270.7 6582.49C20255.3 6572.31 20236.9 6567.48 20218.5 6568.72C20200.2 6569.64 20182.6 6576.62 20168.7 6588.56C20156.9 6597.87 20152.9 6605.97 20156.9 6607.59Z" fill="#263238"/>
<path d="M20561.9 6642.83C20561.8 6649.27 20563.7 6655.59 20567.2 6660.97C20570.7 6666.36 20575.8 6670.58 20581.7 6673.08C20587.6 6675.58 20594.2 6676.26 20600.5 6675.02C20606.8 6673.78 20612.6 6670.69 20617.2 6666.14C20621.8 6661.58 20624.8 6655.77 20626.1 6649.45C20627.3 6643.13 20626.6 6636.58 20624.1 6630.64C20621.6 6624.71 20617.4 6619.65 20612 6616.13C20606.7 6612.6 20600.3 6610.75 20593.9 6610.83C20585.4 6610.83 20577.3 6614.2 20571.3 6620.2C20565.3 6626.2 20561.9 6634.34 20561.9 6642.83Z" fill="#263238"/>
<path d="M20541.2 6607.6C20545.3 6612.05 20569.2 6591.81 20604 6589.78C20638.8 6587.76 20665.2 6604.76 20668.8 6599.9C20672.5 6595.05 20666.4 6590.19 20654.6 6582.49C20639.3 6572.46 20621.1 6567.64 20602.8 6568.73C20584.5 6569.83 20567 6576.78 20553 6588.57C20542.5 6597.88 20539.2 6605.98 20541.2 6607.6Z" fill="#263238"/>
<path d="M20530.7 6936.42C20477.5 6963.56 20420.8 6983.19 20362.3 6994.73C20375.2 7012.16 20393.5 7024.82 20414.4 7030.76C20435.3 7036.69 20457.5 7035.55 20477.7 7027.53C20487.3 7025.29 20496.3 7021.11 20504.3 7015.24C20512.2 7009.37 20518.9 7001.94 20523.8 6993.41C20528.8 6984.88 20532 6975.43 20533.2 6965.63C20534.3 6955.83 20533.5 6945.89 20530.7 6936.42Z" fill="#F1F1F1"/>
<path d="M20406 7333.67C20526.1 7328.71 20642.3 7289.51 20740.9 7220.69C20740.9 7220.69 20665.2 7406.16 20411.7 7395.63L20406 7333.67Z" fill="#EB996E"/>
<path d="M21846.4 7104.87C21814.6 7106.08 21783.1 7098.96 21754.9 7084.22C21713.3 7061.59 21678.7 7027.97 21654.9 6987.03C21625.3 6936.02 21600.4 6882.49 21580.4 6827.08C21533 6709.64 21499.4 6600.31 21473 6520.93C21469.4 6508.38 21465.8 6497.04 21462.5 6486.11C21461 6474.39 21458.8 6462.76 21456 6451.28C21317.9 5924.85 20854.7 5826.04 20763.2 5826.04C20664.8 5826.04 20492.7 5771.77 20242 6032.56C20204 6071.43 20172 6115.63 20146.8 6163.77C20091.6 6233.32 20053.4 6314.88 20035.5 6401.88C20024.5 6442.68 20022.5 6485.38 20029.8 6527.01C20034.7 6527.01 20035.5 6479.63 20054.9 6405.52C20066.5 6362.44 20082.8 6320.76 20103.5 6281.2C20081.7 6378.56 20090.6 6480.28 20129 6572.36L20218.9 6547.26L20542.9 6437.92C20513.3 6338.3 20556.6 6214.39 20580.9 6154.45H20583.4C20657.1 6532.68 21073.8 6572.36 21073.8 6572.36L21053.1 7290.34C21481.1 7198.82 21486.8 6731.51 21484 6615.29C21503.4 6680.89 21528.5 6756.21 21560.1 6835.18C21581.3 6891.47 21607.6 6945.69 21638.7 6997.16C21665 7040.83 21703.6 7075.77 21749.6 7097.59C21780.6 7112.29 21815.3 7117.37 21849.2 7112.16C21861.8 7111 21873.8 7106.53 21884.1 7099.21C21871.4 7100.28 21858.8 7102.17 21846.4 7104.87Z" fill="#1FBD59"/>
<path d="M20415.7 6902C20397.3 6897.76 20378.4 6895.72 20359.4 6895.92C20350.5 6895.92 20341.6 6895.92 20340 6887.82C20338.7 6878.1 20340.4 6868.23 20344.8 6859.48C20352.5 6836.8 20360.2 6812.91 20368.7 6787.39C20385.3 6735.97 20399.5 6689.4 20409.2 6655.38C20415.9 6637.41 20420.2 6618.61 20421.8 6599.5C20412.3 6616.33 20404.9 6634.29 20399.9 6652.95C20387.8 6686.16 20372 6733.94 20355.4 6784.15L20332.3 6856.64C20327.3 6868.11 20326.1 6880.91 20329.1 6893.09C20330.5 6896.15 20332.6 6898.86 20335.2 6901.03C20337.7 6903.2 20340.8 6904.77 20344 6905.64C20349 6906.2 20354 6906.2 20359 6905.64C20378 6906.71 20397 6905.48 20415.7 6902Z" fill="#263238"/>
<path d="M21003.3 6696.28C20924.7 6680.89 20858.3 6669.96 20835.6 6668.34C20838.6 6655.04 20840.3 6641.47 20840.5 6627.84C20840.1 6584.09 20826 6541.58 20800 6506.36C20776.1 6473.55 20742.8 6448.83 20704.4 6435.49C20670 6423.26 20633 6420.46 20597.1 6427.39C20565.9 6433.7 20536.7 6447.61 20512.1 6467.89C20475.9 6495.84 20450.6 6535.49 20440.4 6580.06C20437.6 6592 20436.1 6604.23 20436 6616.5C20435.3 6620.66 20435.3 6624.9 20436 6629.06C20436 6629.06 20436 6611.65 20444.9 6581.68C20456.6 6539.24 20482.1 6501.91 20517.4 6475.58C20541.2 6457.6 20568.9 6445.52 20598.3 6440.35C20636.1 6433.52 20674.9 6438.13 20710 6453.59C20745.1 6469.06 20774.7 6494.66 20795.1 6527.12C20815.5 6559.57 20825.7 6597.38 20824.4 6635.69C20823.1 6673.99 20810.4 6711.03 20787.9 6742.04C20765.6 6772.9 20734.6 6796.33 20698.8 6809.26C20666.7 6821.13 20632 6824.2 20598.3 6818.17C20568.9 6812.86 20541.2 6800.65 20517.4 6782.53C20482 6756.42 20456.5 6719.2 20444.9 6676.84C20441.5 6664.92 20439.2 6652.72 20438 6640.4C20444.1 6640.4 20448.1 6637.16 20448.1 6635.54C20448.1 6633.92 20443.2 6631.49 20436.4 6630.27C20428.3 6629.55 20420.1 6629.55 20412.1 6630.27C20402.3 6630.22 20392.5 6631.3 20382.9 6633.51V6631.08C20382.7 6587.3 20368.5 6544.73 20342.4 6509.6C20318.6 6476.9 20285.4 6452.19 20247.3 6438.73C20212.7 6426.5 20175.5 6423.71 20139.5 6430.63C20101.7 6438.27 20066.9 6456.55 20039.2 6483.31C20011.4 6510.06 19991.8 6544.19 19982.8 6581.68C19980 6593.62 19978.5 6605.85 19978.4 6618.12C19977.7 6622.28 19977.7 6626.52 19978.4 6630.68C19978.4 6630.68 19978.4 6613.26 19987.3 6583.3C19999 6540.86 20024.5 6503.53 20059.8 6477.2C20083.6 6459.22 20111.3 6447.14 20140.7 6441.97C20168.4 6436.93 20196.8 6438.02 20224 6445.18C20251.2 6452.33 20276.5 6465.37 20298.1 6483.37C20319.7 6501.37 20337 6523.89 20349 6549.35C20360.9 6574.8 20367.1 6602.57 20367.1 6630.68C20367.1 6669.94 20355 6708.24 20332.6 6740.46C20310.2 6772.67 20278.4 6797.24 20241.6 6810.88C20209.4 6822.74 20174.6 6825.82 20140.7 6819.79C20111.3 6814.48 20083.6 6802.27 20059.8 6784.15C20024.4 6758.04 19998.9 6720.82 19987.3 6678.46C19979.2 6648.5 19980 6630.68 19978.4 6630.68C19977.8 6634.98 19977.8 6639.34 19978.4 6643.64C19978.5 6655.78 19980 6667.87 19982.8 6679.68C19992.9 6724.38 20018.3 6764.18 20054.5 6792.25C20079.3 6812.25 20108.4 6826.12 20139.5 6832.75C20175.5 6839.67 20212.7 6836.88 20247.3 6824.65C20285.3 6811.06 20318.5 6786.38 20342.4 6753.78C20366.5 6721.44 20380.6 6682.71 20382.9 6642.42C20392.7 6644.85 20402.8 6645.94 20412.9 6645.66C20420.7 6646.16 20428.5 6646.16 20436.4 6645.66C20436.5 6657.81 20438 6669.9 20440.8 6681.7C20449.5 6719.37 20469 6753.71 20496.8 6780.59C20524.6 6807.46 20559.6 6825.71 20597.5 6833.15C20633.4 6840.08 20670.4 6837.29 20704.8 6825.05C20743.1 6811.54 20776.4 6786.85 20800.4 6754.19C20817.1 6731.54 20828.7 6705.58 20834.4 6678.06C20855.9 6684.94 20921.5 6700.33 21000.9 6715.72C21058.9 6729.39 21118 6738.73 21177.4 6743.66C21120.8 6723.01 21062.6 6707.16 21003.3 6696.28Z" fill="#263238"/>
<path d="M21137.7 6891.47C21133.7 6849.39 21138.4 6806.93 21151.5 6766.74C21158.2 6746.72 21170.2 6728.87 21186.1 6715.05C21202.1 6701.23 21221.4 6691.95 21242.2 6688.18C21266.3 6686.98 21289.9 6694.52 21308.8 6709.41C21327.7 6724.3 21340.6 6745.53 21345.1 6769.17C21348 6793.38 21343.6 6817.92 21332.4 6839.59C21321.2 6861.25 21303.8 6879.05 21282.3 6890.66C21260.7 6901.85 21236.8 6908.02 21212.5 6908.72C21188.2 6909.42 21164 6904.63 21141.8 6894.71" fill="#FFBE9D"/>
<path d="M21209.8 6855.43C21209.8 6852.59 21223.6 6858.67 21241.4 6855.43C21252.5 6851.53 21262.2 6844.23 21268.9 6834.56C21275.7 6824.9 21279.2 6813.36 21279.1 6801.57C21280.2 6795.66 21279.9 6789.57 21278.4 6783.76C21276.9 6777.94 21274 6772.55 21270.2 6767.96C21262.4 6761.73 21252.5 6758.82 21242.6 6759.86C21223.6 6759.86 21210.2 6766.34 21209.4 6763.1C21208.6 6759.86 21217.9 6751.35 21240.6 6745.28C21247.5 6743.54 21254.8 6743.37 21261.8 6744.77C21268.8 6746.17 21275.4 6749.11 21281.1 6753.38C21287.8 6759.69 21292.8 6767.5 21295.8 6776.17C21298.9 6784.83 21299.8 6794.1 21298.5 6803.19C21297.9 6820.52 21291.3 6837.12 21279.9 6850.16C21270.3 6861.17 21257.1 6868.24 21242.6 6870C21220.8 6869.6 21209.8 6855.43 21209.8 6855.43Z" fill="#EB996E"/>
<path d="M22190.6 16478.3L21885.7 16271.4L22270 15697.9L22719.1 15996L22697.6 16032.8C22600.4 16197.3 22191.8 16860.6 22090.2 16945.2C21974.4 17039.1 22190.6 16478.3 22190.6 16478.3Z" fill="#1FBD59"/>
<path d="M22052.1 16938.7C22046.5 16935.1 22187 16718.4 22366 16455.2C22544.9 16192 22694 15981 22699.6 15984.7C22705.3 15988.3 22564.4 16204.9 22385.4 16470.6C22206.4 16736.2 22057.4 16943.2 22052.1 16938.7Z" fill="#263238"/>
<path d="M22246.1 16530.5C22246.1 16537 22227.1 16540.7 22205.6 16542.3C22184.1 16543.9 22165.1 16542.3 22163.1 16535.8C22161.1 16529.3 22179.7 16520 22203.6 16518.8C22227.5 16517.6 22246.9 16524.1 22246.1 16530.5Z" fill="#263238"/>
<path d="M22241.6 16580.7C22241.6 16587.2 22219.4 16588 22194.7 16586.4C22170 16584.8 22149.3 16581.6 22148.9 16574.7C22148.5 16567.8 22169.6 16561.3 22195.9 16562.9C22222.2 16564.6 22242.9 16574.3 22241.6 16580.7Z" fill="#263238"/>
<path d="M22580.6 16156.4C22577.7 16156.4 22570.1 16145.4 22560.7 16124.8C22548.1 16097.1 22540.9 16067.3 22539.3 16036.9C22537.7 16005.4 22546.8 15974.3 22565.2 15948.6C22580.2 15929.2 22594.8 15923.9 22596.4 15926.3C22598 15928.8 22588.7 15938.9 22579 15957.5C22567.2 15982 22561.6 16009 22562.8 16036.1C22564.7 16064.3 22569.3 16092.2 22576.5 16119.5C22581.8 16141 22583.8 16155.1 22580.6 16156.4Z" fill="#263238"/>
<path d="M22187.8 16493.3C22184.9 16487.6 22195.9 16476.3 22210.9 16465.3C22225.8 16454.4 22239.6 16447.1 22244.5 16451.6C22249.3 16456 22241.6 16471.8 22224.6 16484.4C22207.6 16496.9 22190.2 16499.4 22187.8 16493.3Z" fill="#263238"/>
<path d="M22164.3 16464.5C22159 16460.5 22164.3 16442.3 22178.1 16424C22191.8 16405.8 22206 16393.7 22211.3 16396.9C22216.5 16400.1 22211.3 16418.4 22197.5 16437.4C22183.7 16456.4 22169.2 16468.6 22164.3 16464.5Z" fill="#263238"/>
<path d="M18596.7 16949.7V16581.2L19285.1 16576.7L19290.8 17116.1L19247.8 17118.9C19057.5 17130.7 18279.2 17165.5 18151.2 17127.8C18010.7 17085.7 18596.7 16949.7 18596.7 16949.7Z" fill="#1FBD59"/>
<path d="M18137 17093.8C18137 17087.3 18395.4 17082.1 18713.7 17082.1C19032 17082.1 19290.3 17087.3 19290.3 17093.8C19290.3 17100.3 19032.4 17106 18713.7 17106C18395 17106 18137 17100.7 18137 17093.8Z" fill="#263238"/>
<path d="M18584.5 17025C18578.9 17028.2 18565.5 17014.9 18551.7 16997C18538 16979.2 18528.6 16963 18533.1 16956.5C18537.5 16950.1 18555.8 16961.8 18570.3 16981.2C18584.9 17000.7 18590.2 17021.7 18584.5 17025Z" fill="#263238"/>
<path d="M18540.4 17049.3C18534.3 17051.7 18522.2 17035.1 18509.6 17013.6C18497 16992.2 18488.1 16973.1 18493.4 16969.1C18498.7 16965 18516.1 16978.8 18529.8 17001.9C18543.6 17025 18546.5 17046.8 18540.4 17049.3Z" fill="#263238"/>
<path d="M19082.2 17091.4C19079.8 17091.4 19085.4 17076.4 19097.2 17057.4C19113.1 17031.5 19133.5 17008.7 19157.5 16990.2C19182.9 16971.3 19213.8 16961.3 19245.4 16961.8C19269.7 16961.8 19282.7 16972.7 19281.4 16975.2C19280.2 16977.6 19266.5 16975.2 19245.8 16978.4C19219 16982.6 19193.6 16993.1 19171.7 17009.2C19149.5 17026.6 19129 17046.1 19110.6 17067.5C19095.6 17083.7 19085 17093.4 19082.2 17091.4Z" fill="#263238"/>
<path d="M18582.5 16955.7C18585.7 16950.1 18601.5 16952.9 18618.5 16959C18635.5 16965 18650.1 16972.7 18648.9 16979.2C18647.7 16985.7 18630.7 16988.1 18610.8 16981.2C18591 16974.4 18577.6 16961.4 18582.5 16955.7Z" fill="#263238"/>
<path d="M18593.4 16920.1C18593.4 16913.6 18612.5 16908.4 18633.9 16908.8C18655.4 16909.2 18674.4 16914.8 18674.4 16921.3C18674.4 16927.8 18656.6 16932.6 18633.9 16932.6C18611.2 16932.6 18592.6 16926.6 18593.4 16920.1Z" fill="#263238"/>
<path d="M20338 8440.81L19590 8191.77C19590 8191.77 19260 9142.59 19158.7 9151.91C18598.3 9202.93 17998.6 9017.06 17788 8943.76C17766.9 8919.87 17742.6 8891.12 17715.5 8855.89C17692.2 8825.56 17674.2 8791.45 17662.4 8755.05C17646.3 8710.45 17636.2 8663.86 17632.5 8616.56C17633.4 8607.44 17631.4 8598.28 17626.8 8590.34C17622.2 8582.41 17615.3 8576.08 17607 8572.26C17598.7 8568.43 17589.4 8567.29 17580.4 8568.99C17571.4 8570.68 17563.1 8575.14 17556.8 8581.73C17532.9 8613.32 17526.4 8733.19 17581.9 8862.77C17637.3 8992.36 17441.3 8889.09 17369.3 8852.65C17297.2 8816.2 17069.2 8714.96 17040.4 8728.33C16999.9 8748.17 17011.7 8796.76 17084.6 8831.18C17157.5 8865.61 17368 8984.26 17347.4 9021.51C17326.7 9058.77 16962.3 8868.84 16962.3 8868.84C16962.3 8868.84 16891 8815.8 16865.5 8857.91C16819.3 8933.64 17221 9106.55 17259.9 9121.94C17286.7 9132.47 17265.6 9173.77 17237.2 9162.43C17208.9 9151.1 16878.5 8965.22 16830.3 9040.95C16793.8 9099.67 17159.9 9185.92 17207.3 9262.05C17254.7 9338.18 16936 9168.51 16903.6 9226.42C16891.4 9247.88 16884.9 9266.91 17081.7 9336.56C17226.2 9381.4 17373 9418.31 17521.5 9447.12V9449.14C17521.5 9449.14 19487.6 10328.3 19910.7 9481.13C20359.4 8582.14 20338 8440.81 20338 8440.81Z" fill="#FFBE9D"/>
<path d="M19880.4 10530.4C19880.4 10530.4 19403.7 13697.9 19472.2 13851C19540.6 14004 21991.8 16604.6 21991.8 16604.6L22565.2 15622.2C22565.2 15622.2 20631.6 13463.8 20646.1 13405.9C20660.7 13348 21331.3 10267.6 21331.3 10267.6L19880.4 10530.4Z" fill="#455A64"/>
<path d="M19984.4 14442.6L20387.4 13557.8L20790.3 12673L20111.6 13849.3L19984.4 14442.6Z" fill="#263238"/>
<path d="M20224.6 13653.4C20226.4 13664.9 20227.2 13676.5 20227 13688.2C20227 13713.3 20227 13746.9 20229.4 13788.6V13785.4C20382.9 13958.7 20723.1 14352.3 21115.9 14812.3L21798.2 15616.6L22003.1 15862.4C22025.8 15889.9 22043.6 15912.6 22057.8 15929.6C22064.7 15937.1 22070.7 15945.4 22075.6 15954.3C22067.8 15947.8 22060.6 15940.6 22054.1 15932.8L21996.2 15868C21944.4 15809.3 21874.7 15727.5 21785.7 15627.5L21097.2 14827.7C20704.8 14368.1 20368.3 13970.4 20221.3 13791.8C20221.3 13751.4 20221.3 13716.5 20223.4 13691.4C20222 13678.7 20222.4 13665.9 20224.6 13653.4Z" fill="#263238"/>
<path d="M22381.3 15418.9C22387 15422.6 22253 15635.2 22082.5 15893.5C21912 16151.9 21769.5 16358.8 21764.2 16355.2C21758.9 16351.5 21892.6 16138.9 22063.1 15880.6C22233.5 15622.2 22376.1 15415.3 22381.3 15418.9Z" fill="#263238"/>
<path d="M19707.9 11720.1C19712.3 11686.9 20093 10829.2 20093 10829.2L19908.3 10568.8L19875.5 10561.5L19707.9 11720.1Z" fill="#263238"/>
<path d="M20253.7 10500L19875.5 10563.2L20093 10830.8C19741.9 11625.4 19016.6 13307.5 18929.5 13849.8C18813.7 14568.1 18377.6 16812 18421.3 16846.4C18465.1 16880.8 19470.6 16846.4 19470.6 16846.4L20111.6 13849.8L21528.9 11394.9C21705.2 11089.2 21756.7 10727.3 21672.7 10384.6L21644.3 10268" fill="#455A64"/>
<path d="M19120.7 16513.5C19120.9 16507.9 19121.6 16502.4 19122.7 16496.9C19122.7 16484.8 19126.8 16468.6 19130 16447.9L19161.2 16260.4C19189.9 16096.4 19230.8 15861.1 19282.7 15572C19334.5 15282.9 19396.4 14935 19464.9 14551.1C19500.5 14359.2 19537.8 14157.5 19576.2 13948.6C19586 13896.7 19596.5 13844.1 19606.6 13791C19611.9 13764.3 19616.7 13738 19622.8 13710C19626.1 13696.7 19628.5 13682.9 19632.5 13669.5L19647.5 13629.1C19688 13526.2 19734.2 13426.6 19779.5 13321.7C20146 12498.4 20487 11757.4 20733.6 11221.2L21028 10586.7C21062.4 10512.9 21090 10455.4 21109 10414.9C21117.9 10396.3 21125.2 10381.3 21130.9 10370.4C21133 10365.1 21135.7 10360.1 21139 10355.4L21132.9 10371.6L21113.4 10417L21036.1 10590.7C20966.9 10743 20868 10961.6 20747.4 11228.9C20504.4 11767.1 20165.9 12509 19799.8 13332.2C19754.4 13435.1 19708.7 13537.1 19668.2 13638L19653.6 13675.2C19649.5 13688.2 19647.5 13701.5 19644.3 13715.7C19638.2 13741.6 19633.3 13768.8 19627.7 13796.7C19617.6 13849.8 19607.4 13902.4 19597.3 13954.2C19556.8 14162.8 19520.8 14364.4 19484.7 14556C19414.3 14939.9 19350.7 15284.9 19297.2 15576.1C19243.8 15867.2 19200.5 16100.1 19170.5 16264.5C19155.1 16345.5 19142.9 16407 19134.9 16451.2C19130.4 16471.4 19127.2 16487.6 19124.7 16499.8C19123.9 16504.5 19122.5 16509.1 19120.7 16513.5Z" fill="#263238"/>
<path d="M19530.5 16558.1C19530.5 16564.5 19287.5 16565.4 18991.5 16558.1C18695.5 16550.8 18452.5 16543.1 18452.5 16536.6C18452.5 16530.1 18695.5 16529.3 18991.9 16534.6C19288.3 16539.8 19530.9 16551.6 19530.5 16558.1Z" fill="#263238"/>
<path d="M19875.5 10562.8L19890.1 10597.2L21707.1 10450.2L21643.1 10267.6L19875.5 10562.8Z" fill="#263238"/>
<path d="M20625.9 7602.56L20504.4 8093.37L20499.9 7740.25L20509.3 7662.09L20520.2 7602.56L20358.2 7547.9L20274.8 7677.88H20250.5C20250.5 7677.88 19596.5 7612.69 19367.7 8476.85L19158.3 8989.12L19792.1 9304.98V9345.47L19832.6 10568L21663 10271.6C21670.3 9997.04 21390 9499.76 21452 9251.12L21663 8400.72L21386.4 7608.23L21194.8 7614.31L21088.3 7488.37L20627.9 7602.56" fill="#263238"/>
<path d="M19803.4 9297.69C19788.7 9293.58 19774.9 9286.56 19762.9 9277.04C19729.2 9253.83 19700.4 9224.09 19678.3 9189.57C19644.8 9137.86 19629.5 9076.42 19635 9015.04C19638.1 8939.96 19662.8 8867.39 19706.2 8806.08C19739.9 8758.01 19784.3 8718.37 19835.8 8690.27L19830.2 8697.55C19845.5 8585.38 19859.3 8489 19870.6 8420.57C19874.5 8384.05 19881.3 8347.89 19890.9 8312.45C19890.9 8349.31 19888.2 8386.13 19882.8 8422.59C19875.9 8491.03 19865 8588.22 19851.2 8700.39V8705.25L19846.4 8708.08C19791.4 8739.4 19745.1 8784.03 19711.8 8837.87C19678.6 8891.72 19659.4 8953.05 19656 9016.25C19649.9 9073.95 19662.7 9132.08 19692.5 9181.88C19712.7 9215.58 19738.8 9245.46 19769.4 9270.16C19792.5 9287.97 19803.8 9296.07 19803.4 9297.69Z" fill="#455A64"/>
<path d="M19873.5 8475.23C19868.2 8477.66 19850.4 8451.75 19833 8416.92C19815.6 8382.09 19806.3 8351.72 19811.5 8349.29C19816.8 8346.86 19834.6 8372.78 19852 8407.61C19869.4 8442.43 19877.5 8470.37 19873.5 8475.23Z" fill="#455A64"/>
<path d="M18001 8127.79L23758.6 9233.71C24169.2 9312.67 24427.6 9687.66 24381 10114.9C24380.3 10120.9 24379.3 10126.8 24377.8 10132.7C24358.6 10233.7 24319.5 10329.9 24262.9 10415.6C24206.2 10501.4 24133.1 10575 24047.7 10632.3C23962.3 10689.5 23866.4 10729.2 23765.5 10749C23664.6 10768.9 23560.8 10768.5 23460.1 10747.8L17817.5 9609.1L16573.1 8614.54L18001 8127.79Z" fill="#1FBD59"/>
<path d="M18001 8127.79C18001 8127.79 18315.2 8245.63 18250.4 8546.91C18185.6 8848.19 17881.5 8835.64 17881.5 8835.64C17881.5 8835.64 18177.1 8901.24 18095.3 9323.61C18042.3 9595.74 17817.5 9609.91 17817.5 9609.91L16573.1 8614.54L18001 8127.79Z" fill="#E0E0E0"/>
<path d="M16843.6 8830.78C16965.1 8770.44 17007.6 8609.68 16965.1 8481.31L16574.3 8614.54L16843.6 8830.78Z" fill="#455A64"/>
<path d="M23680 10010.8L23665 10008.8L23620.5 10001.5L23450.8 9971.13C23303.4 9944.4 23090.8 9904.31 22827.6 9853.69C22301.2 9752.45 21576.7 9607.07 20776.5 9441.85L18728.3 9015.84L18107.5 8885.86L17939 8849.81L17895.3 8839.69C17890.2 8838.95 17885.1 8837.59 17880.3 8835.64C17885.5 8835.84 17890.6 8836.52 17895.7 8837.67L17939.8 8845.36L18109.1 8877.76L18732.3 9001.67L20782.2 9421.61C21582 9586.83 22306.8 9734.63 22832.1 9839.52L23453.7 9963.43L23622.5 9997.85L23666.7 10007.2C23671.2 10007.8 23675.7 10009.1 23680 10010.8Z" fill="#455A64"/>
<path d="M23460.1 10747.8C23560.8 10768.5 23664.6 10768.9 23765.5 10749C23866.4 10729.2 23962.3 10689.5 24047.7 10632.3C24133.1 10575 24206.2 10501.4 24262.9 10415.6C24319.5 10329.9 24358.6 10233.7 24377.8 10132.7C24379.3 10126.8 24380.3 10120.9 24381 10114.9C24427.6 9687.66 24169.2 9312.68 23758.6 9233.71L23460.1 10747.8Z" fill="#455A64"/>
<path d="M21171.8 8358.2C21171.8 8358.2 20821.5 9463.32 20723.9 9487.61C20178 9626.92 19556.4 9538.23 19337.3 9498.95C19312.6 9478.7 19283.5 9453.6 19251.5 9423.63C19223.9 9397.28 19200.9 9366.48 19183.4 9332.52C19160.2 9291.12 19142.9 9246.69 19132 9200.5C19131.6 9191.18 19128.2 9182.23 19122.4 9174.93C19116.6 9167.64 19108.6 9162.38 19099.6 9159.9C19090.6 9157.43 19081.1 9157.87 19072.3 9161.16C19063.6 9164.46 19056.1 9170.43 19051 9178.23C19032 9213.06 19044.9 9332.52 19119.9 9451.57C19119.9 9451.57 18680.9 9730.18 18584.9 9727.75C18489 9725.32 18214 9718.44 18242.7 9756.5C18271.5 9794.57 18584.9 9846.81 18584.9 9846.81L19151.9 10039.2C19151.9 10039.2 21231.7 10598.8 21516.4 9694.95C21690.5 9140.98 21811.2 8814.99 21838.3 8682.57L21171.8 8358.2Z" fill="#FFBE9D"/>
<path d="M21389.2 7609.85C21389.2 7609.85 21846.8 7690.84 21864.6 8440C21873.1 8895.59 21774.9 9346.84 21577.9 9757.71L20772.9 9334.95C20953.7 8973.12 21089.7 8590.58 21177.8 8195.82L21386.8 7609.45L21389.2 7609.85Z" fill="#263238"/>
<path d="M21154.3 8237.53C21154.4 8253.07 21152.6 8268.56 21149.1 8283.69C21144.6 8312.85 21136.9 8354.96 21125.6 8405.18C21095.9 8539.91 21058.4 8672.82 21013.4 8803.24C20968.2 8933.66 20915.3 9061.3 20855.1 9185.52C20832 9233.3 20812.2 9271.37 20797.6 9296.88C20790.9 9311.21 20782.8 9324.78 20773.3 9337.38C20777 9322.36 20782.7 9307.92 20790.3 9294.45C20804.1 9263.27 20821.5 9225.2 20841.7 9180.66C20884.6 9084.28 20940.5 8949.43 20993.6 8797.57C21046.6 8645.72 21085.1 8505.2 21111 8402.75C21122.9 8354.96 21133 8314.47 21141.4 8281.26C21143.9 8266.21 21148.3 8251.53 21154.3 8237.53Z" fill="#455A64"/>
</svg>
