<svg width="14083" height="8522" viewBox="0 0 14083 8522" fill="none" xmlns="http://www.w3.org/2000/svg">
<path d="M3728.22 5027.55C3728.22 5027.55 4730.42 5127.55 5238.42 5747.55C5238.42 5747.55 5775.02 5027.55 6738.42 5042.55C6973.92 4758.41 7123.86 4413.21 7170.78 4047.16C7217.7 3681.11 7159.67 3309.26 7003.46 2974.91C6847.24 2640.56 6599.27 2357.46 6288.4 2158.57C5977.53 1959.69 5616.56 1853.2 5247.51 1851.51C4878.47 1849.82 4516.54 1952.99 4203.86 2149.02C3891.18 2345.05 3640.62 2625.86 3481.35 2958.77C3322.07 3291.67 3260.64 3662.98 3304.21 4029.44C3347.77 4395.91 3494.54 4742.46 3727.42 5028.75L3728.22 5027.55Z" fill="#1FBD59"/>
<path opacity="0.4" d="M3728.22 5027.55C3728.22 5027.55 4730.42 5127.55 5238.42 5747.55C5238.42 5747.55 5775.02 5027.55 6738.42 5042.55C6973.92 4758.41 7123.86 4413.21 7170.78 4047.16C7217.7 3681.11 7159.67 3309.26 7003.46 2974.91C6847.24 2640.56 6599.27 2357.46 6288.4 2158.57C5977.53 1959.69 5616.56 1853.2 5247.51 1851.51C4878.47 1849.82 4516.54 1952.99 4203.86 2149.02C3891.18 2345.05 3640.62 2625.86 3481.35 2958.77C3322.07 3291.67 3260.64 3662.98 3304.21 4029.44C3347.77 4395.91 3494.54 4742.46 3727.42 5028.75L3728.22 5027.55Z" fill="#FFBDA7"/>
<path d="M4291.62 4323.75C4791.62 4482.15 5103.22 4947.55 5184.42 5081.75L5177.02 8392.95H5320.42L5300.42 5488.55C5409.62 5323.35 5721.82 4910.95 6204.22 4763.55C6204.22 4763.55 5631.42 4899.35 5296.82 5355.95L5278.22 4660.55C5360.62 4528.35 5683.22 4060.55 6204.22 3900.55C6204.22 3900.55 5604.22 4042.55 5274.42 4524.35L5255.62 3824.35L5256.82 3833.75C5256.82 3833.75 5595.22 3224.75 6204.22 3038.75C6204.22 3038.75 5577.22 3187.55 5252.22 3696.55L5206.22 2753.35L5191.82 4105.35C4873.42 3620.95 4291.82 3478.55 4291.82 3478.55C4804.82 3640.95 5118.62 4125.35 5190.22 4245.95L5185.42 4942.95C4865.62 4464.75 4291.62 4323.75 4291.62 4323.75Z" fill="#263238"/>
<path d="M4291.62 4323.75C4791.62 4482.15 5103.22 4947.55 5184.42 5081.75L5177.02 8392.95H5320.42L5300.42 5488.55C5409.62 5323.35 5721.82 4910.95 6204.22 4763.55C6204.22 4763.55 5631.42 4899.35 5296.82 5355.95L5278.22 4660.55C5360.62 4528.35 5683.22 4060.55 6204.22 3900.55C6204.22 3900.55 5604.22 4042.55 5274.42 4524.35L5255.62 3824.35L5256.82 3833.75C5256.82 3833.75 5595.22 3224.75 6204.22 3038.75C6204.22 3038.75 5577.22 3187.55 5252.22 3696.55L5206.22 2753.35L5191.82 4105.35C4873.42 3620.95 4291.82 3478.55 4291.82 3478.55C4804.82 3640.95 5118.62 4125.35 5190.22 4245.95L5185.42 4942.95C4865.62 4464.75 4291.62 4323.75 4291.62 4323.75Z" fill="#263238"/>
<path d="M7736.02 5583.75C7736.02 5583.75 8572.62 5666.55 8996.02 6184.95C8996.02 6184.95 9444.02 5584.95 10248.6 5596.55C10445.2 5359.36 10570.3 5071.22 10609.4 4765.68C10648.6 4460.14 10600.1 4149.77 10469.7 3870.7C10339.3 3591.63 10132.3 3355.35 9872.8 3189.36C9613.31 3023.37 9312.01 2934.5 9003.98 2933.11C8695.94 2931.71 8393.85 3017.84 8132.87 3181.47C7871.88 3345.1 7662.75 3579.49 7529.81 3857.37C7396.88 4135.24 7345.61 4445.16 7381.97 4751.04C7418.34 5056.93 7540.84 5346.19 7735.22 5585.15L7736.02 5583.75Z" fill="#1FBD59"/>
<path opacity="0.4" d="M7736.02 5583.75C7736.02 5583.75 8572.62 5666.55 8996.02 6184.95C8996.02 6184.95 9444.02 5584.95 10248.6 5596.55C10445.2 5359.36 10570.3 5071.22 10609.4 4765.68C10648.6 4460.14 10600.1 4149.77 10469.7 3870.7C10339.3 3591.63 10132.3 3355.35 9872.8 3189.36C9613.31 3023.37 9312.01 2934.5 9003.98 2933.11C8695.94 2931.71 8393.85 3017.84 8132.87 3181.47C7871.88 3345.1 7662.75 3579.49 7529.81 3857.37C7396.88 4135.24 7345.61 4445.16 7381.97 4751.04C7418.34 5056.93 7540.84 5346.19 7735.22 5585.15L7736.02 5583.75Z" fill="#FFBDA7"/>
<path d="M8206.42 4996.15C8624.42 5128.55 8883.82 5516.15 8951.62 5628.95L8945.42 8392.95H9065.42L9047.22 5968.55C9138.42 5830.55 9399.02 5486.35 9801.62 5363.35C9801.62 5363.35 9323.42 5476.75 9044.22 5857.75L9028.62 5277.75C9097.42 5167.55 9366.82 4776.55 9801.62 4643.55C9801.62 4643.55 9301.62 4762.15 9025.62 5163.55L9010.22 4579.55L9011.22 4587.35C9011.22 4587.35 9293.62 4078.95 9802.02 3923.75C9802.02 3923.75 9278.62 4047.95 9007.22 4472.75L8969.02 3685.35L8957.02 4813.95C8691.02 4409.75 8206.42 4290.75 8206.42 4290.75C8634.62 4426.35 8896.42 4830.75 8956.22 4930.75L8952.42 5512.55C8685.42 5113.95 8206.42 4996.15 8206.42 4996.15Z" fill="#263238"/>
<path d="M8206.42 4996.15C8624.42 5128.55 8883.82 5516.15 8951.62 5628.95L8945.42 8392.95H9065.42L9047.22 5968.55C9138.42 5830.55 9399.02 5486.35 9801.62 5363.35C9801.62 5363.35 9323.42 5476.75 9044.22 5857.75L9028.62 5277.75C9097.42 5167.55 9366.82 4776.55 9801.62 4643.55C9801.62 4643.55 9301.62 4762.15 9025.62 5163.55L9010.22 4579.55L9011.22 4587.35C9011.22 4587.35 9293.62 4078.95 9802.02 3923.75C9802.02 3923.75 9278.62 4047.95 9007.22 4472.75L8969.02 3685.35L8957.02 4813.95C8691.02 4409.75 8206.42 4290.75 8206.42 4290.75C8634.62 4426.35 8896.42 4830.75 8956.22 4930.75L8952.42 5512.55C8685.42 5113.95 8206.42 4996.15 8206.42 4996.15Z" fill="#263238"/>
<path d="M365.421 5583.75C365.421 5583.75 1202.02 5666.55 1625.42 6184.95C1625.42 6184.95 2073.42 5584.95 2878.02 5596.55C3074.56 5359.36 3199.68 5071.22 3238.82 4765.68C3277.96 4460.14 3229.5 4149.77 3099.09 3870.7C2968.68 3591.63 2761.68 3355.35 2502.2 3189.36C2242.71 3023.37 1941.41 2934.5 1633.38 2933.11C1325.34 2931.71 1023.25 3017.84 762.267 3181.47C501.285 3345.1 292.151 3579.49 159.214 3857.37C26.277 4135.24 -24.9936 4445.16 11.3712 4751.04C47.7361 5056.93 170.24 5346.19 364.621 5585.15L365.421 5583.75Z" fill="#1FBD59"/>
<path opacity="0.4" d="M365.421 5583.75C365.421 5583.75 1202.02 5666.55 1625.42 6184.95C1625.42 6184.95 2073.42 5584.95 2878.02 5596.55C3074.56 5359.36 3199.68 5071.22 3238.82 4765.68C3277.96 4460.14 3229.5 4149.77 3099.09 3870.7C2968.68 3591.63 2761.68 3355.35 2502.2 3189.36C2242.71 3023.37 1941.41 2934.5 1633.38 2933.11C1325.34 2931.71 1023.25 3017.84 762.267 3181.47C501.285 3345.1 292.151 3579.49 159.214 3857.37C26.277 4135.24 -24.9936 4445.16 11.3712 4751.04C47.7361 5056.93 170.24 5346.19 364.621 5585.15L365.421 5583.75Z" fill="#FFBDA7"/>
<path d="M835.821 4996.15C1253.82 5128.55 1513.22 5516.15 1581.02 5628.95L1575.02 8392.95H1695.02L1676.82 5968.55C1768.02 5830.55 2028.62 5486.35 2431.22 5363.35C2431.22 5363.35 1953.02 5476.75 1673.82 5857.75L1658.22 5277.75C1727.02 5167.55 1996.42 4776.55 2431.22 4643.55C2431.22 4643.55 1931.22 4762.15 1655.22 5163.55L1640.42 4579.55L1641.62 4587.35C1641.62 4587.35 1924.02 4078.95 2432.22 3923.75C2432.22 3923.75 1909.02 4047.95 1637.62 4472.75L1599.22 3685.35L1587.22 4813.95C1320.42 4409.15 835.821 4290.15 835.821 4290.15C1264.02 4425.75 1526.02 4830.15 1585.62 4930.15L1581.82 5511.95C1314.82 5113.95 835.821 4996.15 835.821 4996.15Z" fill="#263238"/>
<path d="M835.821 4996.15C1253.82 5128.55 1513.22 5516.15 1581.02 5628.95L1575.02 8392.95H1695.02L1676.82 5968.55C1768.02 5830.55 2028.62 5486.35 2431.22 5363.35C2431.22 5363.35 1953.02 5476.75 1673.82 5857.75L1658.22 5277.75C1727.02 5167.55 1996.42 4776.55 2431.22 4643.55C2431.22 4643.55 1931.22 4762.15 1655.22 5163.55L1640.42 4579.55L1641.62 4587.35C1641.62 4587.35 1924.02 4078.95 2432.22 3923.75C2432.22 3923.75 1909.02 4047.95 1637.62 4472.75L1599.22 3685.35L1587.22 4813.95C1320.42 4409.15 835.821 4290.15 835.821 4290.15C1264.02 4425.75 1526.02 4830.15 1585.62 4930.15L1581.82 5511.95C1314.82 5113.95 835.821 4996.15 835.821 4996.15Z" fill="#263238"/>
<path d="M10629 5032.35C10629 5032.35 11629 5131.35 12137 5752.35C12137 5752.35 12672.8 5033.55 13635.4 5048.35C13870.6 4764.61 14020.3 4419.92 14067.1 4054.4C14113.9 3688.88 14056 3317.58 13900 2983.72C13744 2649.85 13496.4 2367.17 13186 2168.58C12875.6 1969.99 12515.1 1863.65 12146.6 1861.96C11778.1 1860.27 11416.7 1963.29 11104.5 2159.03C10792.3 2354.76 10542.1 2635.16 10383 2967.57C10223.9 3299.99 10162.6 3670.75 10206.1 4036.68C10249.6 4402.61 10396.1 4748.66 10628.6 5034.55L10629 5032.35Z" fill="#1FBD59"/>
<path opacity="0.4" d="M10629 5032.35C10629 5032.35 11629 5131.35 12137 5752.35C12137 5752.35 12672.8 5033.55 13635.4 5048.35C13870.6 4764.61 14020.3 4419.92 14067.1 4054.4C14113.9 3688.88 14056 3317.58 13900 2983.72C13744 2649.85 13496.4 2367.17 13186 2168.58C12875.6 1969.99 12515.1 1863.65 12146.6 1861.96C11778.1 1860.27 11416.7 1963.29 11104.5 2159.03C10792.3 2354.76 10542.1 2635.16 10383 2967.57C10223.9 3299.99 10162.6 3670.75 10206.1 4036.68C10249.6 4402.61 10396.1 4748.66 10628.6 5034.55L10629 5032.35Z" fill="#FFBDA7"/>
<path d="M11191.6 4329.55C11691.6 4487.75 12002 4952.35 12083 5086.55L12075.8 8392.95H12220.4L12198.8 5492.95C12307.8 5327.75 12618.8 4915.95 13101.2 4768.75C13101.2 4768.75 12529.2 4904.55 12195.2 5360.35L12176.4 4665.95C12258.8 4534.15 12581 4065.95 13101.2 3907.35C13101.2 3907.35 12503 4049.15 12172.8 4530.15L12154 3830.15L12155.4 3839.35C12155.4 3839.35 12492.4 3231.55 13100.4 3045.75C13100.4 3045.75 12474.4 3194.35 12149.8 3702.55L12103.8 2760.75L12089.6 4110.75C11771.4 3627.15 11191.6 3484.95 11191.6 3484.95C11703.8 3646.95 12017.2 4130.75 12088.6 4251.35L12084 4947.15C11764.8 4470.35 11191.6 4329.55 11191.6 4329.55Z" fill="#263238"/>
<path d="M11191.6 4329.55C11691.6 4487.75 12002 4952.35 12083 5086.55L12075.8 8392.95H12220.4L12198.8 5492.95C12307.8 5327.75 12618.8 4915.95 13101.2 4768.75C13101.2 4768.75 12529.2 4904.55 12195.2 5360.35L12176.4 4665.95C12258.8 4534.15 12581 4065.95 13101.2 3907.35C13101.2 3907.35 12503 4049.15 12172.8 4530.15L12154 3830.15L12155.4 3839.35C12155.4 3839.35 12492.4 3231.55 13100.4 3045.75C13100.4 3045.75 12474.4 3194.35 12149.8 3702.55L12103.8 2760.75L12089.6 4110.75C11771.4 3627.15 11191.6 3484.95 11191.6 3484.95C11703.8 3646.95 12017.2 4130.75 12088.6 4251.35L12084 4947.15C11764.8 4470.35 11191.6 4329.55 11191.6 4329.55Z" fill="#263238"/>
<path d="M7583.62 419.548C7579.22 405.948 7574.62 392.548 7569.82 379.548C7389.82 -121.652 6551.22 -156.252 6551.22 459.548C6551.22 578.148 6266.42 459.548 6159.62 613.748C6052.82 767.948 6171.62 862.748 6029.22 910.148C5886.82 957.548 5875.02 839.148 5697.02 850.148C5519.02 861.148 5542.82 1028.15 5483.62 1075.55C5424.42 1122.95 5423.62 1099.15 5293.82 1111.15C5164.02 1123.15 5140.42 1218.35 5140.42 1218.35H8260.42C8260.42 1218.35 8379.02 862.348 8165.42 731.948C7951.82 601.548 7951.82 779.348 7785.42 708.148C7647.62 649.348 7622.02 537.748 7583.62 419.548Z" stroke="#B2B2B2" stroke-linecap="round" stroke-linejoin="round"/>
<path d="M7691.42 1088.55C7691.42 1088.55 7756.02 888.548 7597.42 741.748C7438.82 594.948 7274.42 677.148 7227.42 741.748C7180.42 806.348 7180.42 929.948 7104.02 941.748C7027.62 953.548 7045.22 812.548 6880.62 847.748C6716.02 882.948 6780.62 1047.75 6704.42 1082.75C6628.22 1117.75 6628.02 988.748 6522.42 1029.95C6416.82 1071.15 6422.42 1147.35 6422.42 1147.35" stroke="#B2B2B2" stroke-linecap="round" stroke-linejoin="round"/>
<path d="M6847.62 689.348C6804.46 658.695 6753.91 640.107 6701.18 635.502C6648.45 630.896 6595.44 640.44 6547.62 663.148C6377.42 741.748 6456.02 905.148 6377.42 944.348C6298.82 983.548 6259.82 937.948 6161.62 984.348C6063.42 1030.75 6070.02 1095.55 6070.02 1095.55" stroke="#B2B2B2" stroke-linecap="round" stroke-linejoin="round"/>
<path d="M4020.42 1303.15C4018.42 1297.35 4016.62 1291.35 4014.42 1285.55C3935.22 1067.55 3570.42 1052.35 3570.42 1319.55C3570.42 1371.15 3446.62 1319.55 3400.22 1386.75C3353.82 1453.95 3405.22 1494.95 3343.42 1515.75C3281.62 1536.55 3276.22 1484.75 3198.82 1489.95C3121.42 1495.15 3131.82 1567.35 3106.02 1587.95C3080.22 1608.55 3080.22 1598.35 3023.42 1603.35C3008.77 1603.18 2994.43 1607.58 2982.39 1615.93C2970.35 1624.28 2961.2 1636.17 2956.22 1649.95H4313.62C4313.62 1649.95 4365.22 1494.95 4272.22 1438.35C4179.22 1381.75 4179.42 1458.35 4107.22 1427.95C4047.42 1403.15 4036.22 1354.55 4020.42 1303.15Z" stroke="#B2B2B2" stroke-linecap="round" stroke-linejoin="round"/>
<path d="M4066.62 1594.15C4074.1 1567.66 4074.24 1539.63 4067.02 1513.07C4059.79 1486.5 4045.49 1462.4 4025.62 1443.35C3956.62 1379.55 3885.62 1415.35 3865.62 1443.35C3845.62 1471.35 3845.62 1525.15 3812.02 1530.35C3778.42 1535.55 3786.42 1474.15 3714.82 1489.35C3643.22 1504.55 3671.42 1576.35 3638.22 1591.75C3605.02 1607.15 3604.82 1551.75 3558.22 1568.55C3511.62 1585.35 3514.42 1619.55 3514.42 1619.55" stroke="#B2B2B2" stroke-linecap="round" stroke-linejoin="round"/>
<path d="M3700.42 1420.55C3681.59 1407.13 3659.51 1399 3636.47 1397C3613.44 1395 3590.29 1399.19 3569.42 1409.15C3495.42 1443.35 3529.42 1514.55 3495.42 1531.55C3461.42 1548.55 3444.22 1528.75 3401.62 1548.55C3359.02 1568.35 3361.62 1596.95 3361.62 1596.95" stroke="#B2B2B2" stroke-linecap="round" stroke-linejoin="round"/>
<path d="M10990.6 1276.75C10988.8 1270.95 10986.8 1265.15 10984.6 1259.15C10906.2 1041.15 10541.6 1026.15 10541.4 1293.95C10541.4 1345.55 10417.6 1293.95 10371.2 1361.15C10324.8 1428.35 10376.4 1469.55 10314.4 1490.15C10252.4 1510.75 10247.4 1459.15 10170 1464.35C10092.6 1469.55 10102.8 1541.75 10077 1562.35C10051.2 1582.95 10051.2 1572.75 9994.42 1577.95C9979.81 1577.72 9965.49 1582.07 9953.47 1590.39C9941.46 1598.71 9932.35 1610.59 9927.42 1624.35H11284.6C11284.6 1624.35 11336.2 1469.55 11243.4 1412.75C11150.6 1355.95 11150.4 1432.75 11078.2 1402.35C11018.6 1376.75 11007.4 1328.35 10990.6 1276.75Z" stroke="#B2B2B2" stroke-linecap="round" stroke-linejoin="round"/>
<path d="M11037.6 1567.95C11045.2 1541.46 11045.3 1513.42 11038.1 1486.84C11030.9 1460.26 11016.5 1436.17 10996.6 1417.15C10927.6 1353.15 10856.6 1388.95 10836.6 1417.15C10816.6 1445.35 10816.6 1498.95 10783 1503.95C10749.4 1508.95 10757.4 1447.75 10685.8 1463.95C10614.2 1480.15 10642.4 1550.75 10609.2 1566.15C10576 1581.55 10576 1525.15 10529.2 1543.15C10482.4 1561.15 10485.6 1594.15 10485.6 1594.15" stroke="#B2B2B2" stroke-linecap="round" stroke-linejoin="round"/>
<path d="M10670.4 1394.15C10651.6 1380.77 10629.6 1372.66 10606.6 1370.66C10583.6 1368.65 10560.5 1372.83 10539.6 1382.75C10465.6 1416.95 10499.6 1488.15 10465.6 1505.15C10431.6 1522.15 10414.4 1502.35 10371.6 1522.35C10328.8 1542.35 10331.6 1570.75 10331.6 1570.75" stroke="#B2B2B2" stroke-linecap="round" stroke-linejoin="round"/>
<path d="M9406.22 7749.55C9406.22 7749.55 9330.42 8147.35 9326.22 8170.95C9322.02 8194.55 9297.82 8388.75 9297.82 8388.75L9662.42 8383.95L9624.62 8080.95L9719.22 7806.35L9406.22 7749.55Z" fill="#FFBDA7" stroke="#263238" stroke-linecap="round" stroke-linejoin="round"/>
<path d="M9856.02 5950.15C9856.02 5950.15 9373.02 7503.35 9354.02 7612.15C9335.02 7720.95 9339.82 7763.75 9339.82 7763.75L9760.42 7867.95L9916.82 7474.95L9921.42 5831.75L9856.02 5950.15Z" fill="#1FBD59" stroke="#263238" stroke-linecap="round" stroke-linejoin="round"/>
<path d="M9743.02 8392.95L9835.42 7656.95L11791 7684.15L11843.2 8389.15L9743.02 8392.95Z" fill="#263238" stroke="#263238" stroke-linecap="round" stroke-linejoin="round"/>
<path d="M9820.42 7616.75L9809.82 7818.15C9809.82 7818.15 10035 8009.15 10713.6 8003.75C11392.2 7998.35 11617.6 7913.55 11686.6 7892.35C11755.6 7871.15 11803.2 7844.55 11803.2 7796.95C11798.1 7738.11 11789.2 7679.66 11776.6 7621.95C11776.6 7621.95 11161.8 7701.95 10695.2 7717.35C10400.4 7724.61 10105.9 7690.75 9820.42 7616.75Z" fill="#1FBD59" stroke="#263238" stroke-linecap="round" stroke-linejoin="round"/>
<path d="M10517.6 4435.15C10517.6 4435.15 10129.8 4698.15 10104.8 4783.55C10079.8 4868.95 9813.62 5681.75 9828.62 5797.35C9843.62 5912.95 9853.82 6253.95 9853.82 6253.95C9853.82 6253.95 9733.82 7573.95 9773.82 7649.15C9813.82 7724.35 10245.6 7844.75 10873.8 7824.75C11502 7804.75 11767 7709.35 11792.2 7684.75C11817.4 7660.15 11847.4 7614.55 11837.2 7534.35C11827 7454.15 11827.2 6931.95 11827.2 6931.95L12208.6 6791.95C12208.6 6791.95 12038 4709.15 11972.8 4598.75C11907.6 4488.35 11355.6 4322.75 11270.2 4327.75C11184.8 4332.75 10517.6 4435.15 10517.6 4435.15Z" fill="#1FBD59" stroke="#263238" stroke-linecap="round" stroke-linejoin="round"/>
<path d="M10263.2 6066.15L10731.6 6354.95" stroke="#263238" stroke-linecap="round" stroke-linejoin="round"/>
<path d="M10103.8 5967.75L10212.4 6034.75" stroke="#263238" stroke-linecap="round" stroke-linejoin="round"/>
<path d="M10863.4 6363.55L10919.8 6396.75" stroke="#263238" stroke-linecap="round" stroke-linejoin="round"/>
<path d="M10564.2 6187.55L10794.6 6323.15" stroke="#263238" stroke-linecap="round" stroke-linejoin="round"/>
<path d="M10229.6 2803.35C10229.6 2803.35 10152.8 3121.95 10152.8 3156.55C10152.8 3191.15 10179.6 3267.95 10175.8 3287.15C10172 3306.35 9960.42 3517.55 9987.62 3548.15C10014.8 3578.75 10079.8 3674.95 10079.8 3674.95C10079.8 3674.95 10172 4078.15 10206.4 4078.15C10240.8 4078.15 10532.8 4008.95 10532.8 4008.95L10517.6 4435.15L10437.6 4515.15C10437.6 4515.15 10387.8 4972.15 10449.2 4964.55C10510.6 4956.95 11294 4380.75 11305.4 4350.15C11316.8 4319.55 11297.8 4300.15 11274.8 4288.75C11251.8 4277.35 11194.8 4181.15 11194.8 4181.15C11194.8 4181.15 11156.4 3704.95 11156.4 3693.55C11156.4 3682.15 11252.2 3271.15 11260 3259.55C11267.8 3247.95 11313.8 3044.55 10995 2899.55C10676.2 2754.55 10303.8 2715.15 10273.2 2726.75C10242.6 2738.35 10229.6 2803.35 10229.6 2803.35Z" fill="#FFBDA7" stroke="#263238" stroke-linecap="round" stroke-linejoin="round"/>
<path d="M10532.8 4008.95L10735.8 3977.55L10540.6 4193.35L10532.8 4008.95Z" fill="#263238" stroke="#263238" stroke-linecap="round" stroke-linejoin="round"/>
<path d="M10180.4 3686.35C10180.4 3686.35 10299.4 3697.95 10380.4 3613.55C10380.4 3613.55 10376.6 3759.35 10322.8 3778.55C10269 3797.75 10180.4 3686.35 10180.4 3686.35Z" fill="#263238" stroke="#263238" stroke-linecap="round" stroke-linejoin="round"/>
<path d="M10294.8 3275.55C10294.8 3300.95 10285.4 3321.75 10273.6 3321.75C10261.8 3321.75 10253.6 3301.75 10253.6 3275.55C10253.6 3249.35 10263 3229.55 10273.6 3229.55C10284.2 3229.55 10294.8 3250.15 10294.8 3275.55Z" fill="#263238"/>
<path d="M10221.8 3118.35C10221.8 3118.35 10276.8 3078.35 10371.6 3118.35" stroke="#263238" stroke-linecap="round" stroke-linejoin="round"/>
<path d="M10668.6 2343.55C10668.6 2343.55 10478.4 2208.55 10337.2 2208.55C10196 2208.55 10085.6 2312.95 10085.6 2392.55C10085.6 2472.15 10116.2 2533.75 10079.4 2564.55C10042.6 2595.35 9956.62 2503.15 9907.62 2631.95C9858.62 2760.75 10067.6 2889.75 10110.2 2901.95C10152.8 2914.15 10220.6 2821.95 10257.4 2852.95C10294.2 2883.95 10312.6 2951.15 10404.6 2951.15C10496.6 2951.15 10582.6 2877.55 10607.2 2914.35C10631.8 2951.15 10570.4 3061.55 10613.4 3092.35C10656.4 3123.15 10742.2 3196.55 10742.2 3196.55C10742.2 3196.55 10699.2 3313.15 10730 3325.55L10760.6 3337.75C10760.6 3337.75 10815.8 3208.95 10895.6 3221.15C10975.4 3233.35 11000.4 3264.15 11000.4 3399.55C11000.4 3534.95 10853 3583.55 10853 3583.55C10853 3583.55 10994.2 3749.35 11037.2 3761.55C11080.2 3773.75 11147.6 3816.75 11172.2 3773.95C11196.8 3731.15 11332.2 3466.95 11356.4 3436.35C11380.6 3405.75 11558.8 3399.55 11596.4 3258.35C11634 3117.15 11529 3049.75 11572 3006.75C11615 2963.75 11792 2945.35 11737.6 2755.15C11683.2 2564.95 11535 2552.55 11479.8 2535.15C11424.6 2517.75 11357.2 2375.15 11271.2 2338.75C11185.2 2302.35 11136.2 2326.55 11117.8 2332.75C11099.4 2338.95 11087 2246.75 10909.2 2265.15C10731.4 2283.55 10668.6 2343.55 10668.6 2343.55Z" fill="#263238" stroke="#263238" stroke-linecap="round" stroke-linejoin="round"/>
<path d="M10242 3430.15C10193.4 3430.15 10134.4 3411.75 10114.6 3388.35C10088.2 3357.75 10070.6 3198.55 10088 3148.35C10089.5 3141.89 10092.7 3135.96 10097.4 3131.2C10102 3126.44 10107.8 3123.03 10114.2 3121.35C10119.4 3121.35 10132.8 3117.75 10339 3129.95C10347.1 3130.4 10355 3132.51 10362.2 3136.16C10369.4 3139.82 10375.8 3144.92 10380.9 3151.17C10386 3157.41 10389.8 3164.64 10392 3172.42C10394.2 3180.2 10394.7 3188.35 10393.6 3196.35C10388.8 3232.15 10382.2 3281.15 10379.8 3297.35C10366.3 3347.1 10335.6 3390.42 10293 3419.55C10277.1 3427.17 10259.6 3430.81 10242 3430.15ZM10126 3160.55C10114.6 3187.95 10124.2 3335.75 10146 3362.55C10162.8 3382.55 10247.8 3399.75 10274.6 3384.75C10306 3361.53 10329.3 3329.08 10341.2 3291.95C10343.6 3275.75 10350.2 3226.95 10355 3191.95C10355.6 3186.81 10354.2 3181.65 10351 3177.55C10347.6 3173.7 10342.8 3171.33 10337.6 3170.95C10206.2 3162.35 10143.4 3159.55 10126 3160.55Z" fill="#263238"/>
<path d="M10373.8 3193.75L10820.8 3252.55L10782.4 3287.15L10498.4 3264.15L10448.4 3287.15L10360 3294.75L10373.8 3193.75Z" fill="#263238" stroke="#263238" stroke-linecap="round" stroke-linejoin="round"/>
<path d="M9810.02 6469.55C9810.02 6469.55 9661.02 6317.35 9686.42 6298.35C9701.55 6288.09 9719.92 6283.72 9738.05 6286.08C9756.18 6288.44 9772.82 6297.36 9784.82 6311.15C9813.22 6342.75 9964.82 6526.75 9964.82 6526.75L9810.02 6469.55Z" fill="#FFBDA7" stroke="#263238" stroke-linecap="round" stroke-linejoin="round"/>
<path d="M10003.6 6609.15C10003.6 6609.15 9848.22 6532.95 9816.42 6513.95C9784.62 6494.95 9623.02 6393.95 9642.02 6371.35C9661.02 6348.75 9715.02 6339.55 9753.02 6377.55C9791.02 6415.55 9943.22 6485.55 9953.02 6488.55C9962.82 6491.55 10038.6 6596.35 10038.6 6596.35L10003.6 6609.15Z" fill="#FFBDA7" stroke="#263238" stroke-linecap="round" stroke-linejoin="round"/>
<path d="M10802.6 6605.95C10802.6 6605.95 10583.8 6517.15 10568 6507.75C10552.2 6498.35 10517.2 6425.15 10466.4 6387.75C10415.6 6350.35 10355.4 6340.15 10304.8 6321.15C10248.4 6297.46 10193.3 6270.75 10139.8 6241.15C10124 6231.55 10059.8 6279.15 10146.2 6345.75C10232.6 6412.35 10295.2 6459.95 10295.2 6459.95C10295.2 6459.95 10168.4 6466.15 10127.2 6472.55C10086 6478.95 9997.22 6469.35 9984.42 6452.55C9971.62 6435.75 9879.82 6309.95 9851.42 6284.55C9823.02 6259.15 9759.42 6249.55 9746.62 6290.75C9733.82 6331.95 9781.62 6328.95 9854.42 6430.75C9927.22 6532.55 10025.8 6668.55 10076.4 6665.35C10127 6662.15 10501.4 6703.55 10501.4 6703.55L10834.4 6855.75L10802.6 6605.95Z" fill="#FFBDA7" stroke="#263238" stroke-linecap="round" stroke-linejoin="round"/>
<path d="M11555 5104.75C11555 5104.75 11424.6 5561.35 11459.6 5696.95C11494.6 5832.55 11705.6 6539.55 11705.6 6539.55C11705.6 6539.55 10993 6554.55 10907.6 6554.55C10863.9 6553.6 10820.2 6557.02 10777.2 6564.75L10772.2 7006.35C10772.2 7006.35 11389.4 7166.35 11796 7126.35C12202.6 7086.35 12453.4 7026.35 12468.4 6955.75C12477.6 6906.11 12481 6855.56 12478.4 6805.15C12478.4 6805.15 12232.6 5334.75 12167.2 5093.95C12101.8 4853.15 12031.8 4576.95 11976.6 4536.75C11921.4 4496.55 11610.2 4441.55 11610.2 4441.55" fill="#1FBD59"/>
<path d="M11555 5104.75C11555 5104.75 11424.6 5561.35 11459.6 5696.95C11494.6 5832.55 11705.6 6539.55 11705.6 6539.55C11705.6 6539.55 10993 6554.55 10907.6 6554.55C10863.9 6553.6 10820.2 6557.02 10777.2 6564.75L10772.2 7006.35C10772.2 7006.35 11389.4 7166.35 11796 7126.35C12202.6 7086.35 12453.4 7026.35 12468.4 6955.75C12477.6 6906.11 12481 6855.56 12478.4 6805.15C12478.4 6805.15 12232.6 5334.75 12167.2 5093.95C12101.8 4853.15 12031.8 4576.95 11976.6 4536.75C11921.4 4496.55 11610.2 4441.55 11610.2 4441.55" stroke="#263238" stroke-linecap="round" stroke-linejoin="round"/>
<path d="M12970.2 514.548H11298.8C11247.5 514.548 11198.2 534.945 11161.9 571.252C11125.6 607.559 11105.2 656.802 11105.2 708.148V1641.15C11105.2 1692.49 11125.6 1741.74 11161.9 1778.04C11198.2 1814.35 11247.5 1834.75 11298.8 1834.75H11924.6L11773.4 2234.75L12145.8 1834.75H12970.2C13021.6 1834.75 13070.8 1814.35 13107.1 1778.04C13143.4 1741.74 13163.8 1692.49 13163.8 1641.15V708.148C13163.8 656.802 13143.4 607.559 13107.1 571.252C13070.8 534.945 13021.6 514.548 12970.2 514.548Z" fill="#FFBDA7" stroke="#263238" stroke-linecap="round" stroke-linejoin="round"/>
<path d="M11778.6 1147.15C11778.7 1128.78 11773.3 1110.8 11763.2 1095.48C11753 1080.17 11738.6 1068.21 11721.6 1061.13C11704.7 1054.04 11686 1052.15 11668 1055.68C11649.9 1059.22 11633.4 1068.02 11620.3 1080.99C11607.3 1093.95 11598.4 1110.48 11594.8 1128.5C11591.2 1146.51 11593 1165.19 11600 1182.17C11607.1 1199.15 11619 1213.67 11634.2 1223.88C11649.5 1234.1 11667.4 1239.55 11685.8 1239.55C11710.4 1239.55 11733.9 1229.83 11751.3 1212.51C11768.7 1195.19 11778.5 1171.69 11778.6 1147.15Z" fill="#263238"/>
<path d="M12227.2 1147.15C12227.3 1128.78 12221.9 1110.8 12211.8 1095.48C12201.6 1080.17 12187.2 1068.21 12170.2 1061.13C12153.3 1054.04 12134.6 1052.15 12116.6 1055.68C12098.5 1059.22 12082 1068.02 12068.9 1080.99C12055.9 1093.95 12047 1110.48 12043.4 1128.5C12039.8 1146.51 12041.6 1165.19 12048.6 1182.17C12055.7 1199.15 12067.6 1213.67 12082.8 1223.88C12098.1 1234.1 12116 1239.55 12134.4 1239.55C12159 1239.55 12182.5 1229.83 12199.9 1212.51C12217.3 1195.19 12227.1 1171.69 12227.2 1147.15Z" fill="#263238"/>
<path d="M12676 1147.15C12676.1 1128.72 12670.8 1110.67 12660.6 1095.3C12650.5 1079.92 12636 1067.91 12619 1060.78C12602 1053.66 12583.3 1051.74 12565.2 1055.28C12547.1 1058.81 12530.5 1067.64 12517.4 1080.65C12504.3 1093.65 12495.4 1110.24 12491.8 1128.31C12488.2 1146.37 12490 1165.11 12497.1 1182.14C12504.2 1199.16 12516.1 1213.71 12531.4 1223.93C12546.8 1234.15 12564.8 1239.59 12583.2 1239.55C12607.8 1239.55 12631.3 1229.83 12648.7 1212.51C12666.1 1195.19 12675.9 1171.69 12676 1147.15Z" fill="#263238"/>
<path d="M8394.02 8392.95C8399.22 8297.95 8405.82 8146.55 8399.22 8089.95C8389.22 8005.15 8182.62 7398.55 8182.62 7398.55L5788.82 7396.15L5724.82 8392.95H8394.02Z" fill="#263238" stroke="#263238" stroke-linecap="round" stroke-linejoin="round"/>
<path d="M8354.22 7461.15L8280.42 7530.95L8135.62 7650.95L8400.22 8090.95C8400.22 8090.95 8505.02 7981.15 8520.22 7936.35C8535.42 7891.55 8570.02 7756.35 8570.02 7756.35L8600.02 7686.55L8354.22 7461.15Z" fill="#FFBDA7" stroke="#263238" stroke-linecap="round" stroke-linejoin="round"/>
<path d="M6485.22 4226.35C6485.22 4226.35 5639.82 4486.35 5608.02 4614.15C5576.22 4741.95 5093.02 6050.75 5093.02 6050.75L5862.22 6133.35C5862.22 6133.35 5690.62 7423.95 5722.22 7462.15C5753.82 7500.35 6790.22 7538.35 6980.82 7544.75C7171.42 7551.15 8157.02 7442.95 8182.42 7398.55C8207.82 7354.15 8201.42 7252.35 8201.42 7252.35L8169.62 6311.35L8176.02 5923.75L8525.62 6610.15C8525.62 6610.15 8627.42 6692.95 8811.62 6667.35C8995.82 6641.75 9129.62 6559.35 9091.62 6305.15C9053.62 6050.95 8551.62 4887.55 8494.02 4715.75C8436.42 4543.95 8380.42 4461.55 8290.62 4416.95C8200.82 4372.35 7337.02 4156.95 7337.02 4156.95L6485.22 4226.35Z" fill="#1FBD59" stroke="#263238" stroke-linecap="round" stroke-linejoin="round"/>
<path d="M8176.22 5923.75L8201.62 5078.15" stroke="#263238" stroke-linecap="round" stroke-linejoin="round"/>
<path d="M8201.62 5586.75L8284.22 5116.35" stroke="#263238" stroke-linecap="round" stroke-linejoin="round"/>
<path d="M5862.22 6133.35L5957.62 4989.15" stroke="#263238" stroke-linecap="round" stroke-linejoin="round"/>
<path d="M5900.42 5459.55L5830.42 5001.95" stroke="#263238" stroke-linecap="round" stroke-linejoin="round"/>
<path d="M6491.62 4035.55C6491.62 4035.55 6300.82 4188.15 6307.22 4219.95C6313.62 4251.75 6313.62 4391.55 6383.42 4423.35C6453.22 4455.15 6898.42 4804.75 6898.42 4804.75L6491.62 4035.55Z" fill="#1FBD59" stroke="#263238" stroke-linecap="round" stroke-linejoin="round"/>
<path d="M6408.82 3510.75L6504.22 4296.35L6898.42 4804.75L7368.82 4104.75L7375.22 3615.15C7375.22 3615.15 7330.62 3761.55 7057.42 3748.75C6784.22 3735.95 6408.82 3510.75 6408.82 3510.75Z" fill="#FFBDA7" stroke="#263238" stroke-linecap="round" stroke-linejoin="round"/>
<path d="M6897.22 3929.55L6491.62 4035.55L6393.62 3432.15L6897.22 3929.55Z" fill="#263238" stroke="#263238" stroke-linecap="round" stroke-linejoin="round"/>
<path d="M6898.42 4804.75C6898.42 4804.75 7038.42 4353.55 7051.02 4289.95C7063.62 4226.35 7388.02 3971.95 7388.02 3971.95C7396.41 3971.78 7404.74 3973.32 7412.52 3976.46C7420.3 3979.6 7427.37 3984.28 7433.29 3990.22C7439.21 3996.17 7443.87 4003.24 7446.99 4011.03C7450.1 4018.82 7451.61 4027.16 7451.42 4035.55C7451.42 4099.15 7457.82 4175.55 7457.82 4175.55L6898.42 4804.75Z" fill="#1FBD59" stroke="#263238" stroke-linecap="round" stroke-linejoin="round"/>
<path d="M7464.22 3047.15C7464.22 3047.15 7553.22 2977.15 7597.62 3085.15C7642.02 3193.15 7502.42 3365.15 7470.62 3396.75L7438.82 3428.55C7438.82 3428.55 7418.82 3250.55 7418.82 3186.95C7418.82 3123.35 7407.02 3034.35 7464.22 3047.15Z" fill="#FFBDA7" stroke="#263238" stroke-linecap="round" stroke-linejoin="round"/>
<path d="M6263.02 3141.95C6263.02 3141.95 6167.62 3154.55 6167.42 3237.35C6167.22 3320.15 6218.22 3434.35 6281.82 3472.55C6320.36 3495.56 6363.99 3508.68 6408.82 3510.75C6408.82 3510.75 6427.82 3663.35 6516.62 3765.15C6605.42 3866.95 6720.02 3943.35 6776.62 3981.55C6833.22 4019.75 6960.82 4076.95 7036.62 4045.35C7112.42 4013.75 7227.42 3899.35 7227.42 3899.35C7264.15 3880.73 7296.65 3854.75 7322.91 3823.03C7349.16 3791.3 7368.6 3754.51 7380.02 3714.95C7424.62 3574.95 7475.82 3333.75 7475.82 3212.95C7475.82 3092.15 7444.22 2945.95 7438.02 2907.75C7431.82 2869.55 7330.02 2723.35 7031.22 2723.15C6732.42 2722.95 6491.22 2817.95 6446.22 2887.95C6401.22 2957.95 6263.02 3141.95 6263.02 3141.95Z" fill="#FFBDA7" stroke="#263238" stroke-linecap="round" stroke-linejoin="round"/>
<path d="M6340.42 3099.55L6377.22 3255.95C6377.22 3255.95 6414.02 3260.55 6414.02 3232.95C6414.02 3205.35 6376.82 3046.95 6376.82 3046.95L6340.42 3099.55Z" fill="#263238" stroke="#263238" stroke-linecap="round" stroke-linejoin="round"/>
<path d="M6880.42 3422.15C6880.42 3422.15 6874.02 3473.15 6943.82 3492.15C7013.62 3511.15 7115.42 3492.15 7128.22 3454.15C7134.94 3426.65 7132.77 3397.73 7122.02 3371.55" stroke="#263238" stroke-linecap="round" stroke-linejoin="round"/>
<path d="M6796.62 3587.35C6858.79 3614.71 6926.79 3626.17 6994.49 3620.69C7062.19 3615.2 7127.47 3592.96 7184.42 3555.95" stroke="#263238" stroke-linecap="round" stroke-linejoin="round"/>
<path d="M6787.22 3250.55C6810.09 3250.55 6828.62 3223.51 6828.62 3190.15C6828.62 3156.79 6810.09 3129.75 6787.22 3129.75C6764.36 3129.75 6745.82 3156.79 6745.82 3190.15C6745.82 3223.51 6764.36 3250.55 6787.22 3250.55Z" fill="#263238"/>
<path d="M7257.62 3190.15C7257.62 3223.55 7239.02 3250.15 7216.22 3250.15C7193.42 3250.15 7175.02 3223.15 7175.02 3190.15C7175.02 3157.15 7193.42 3130.15 7216.22 3130.15C7239.02 3130.15 7257.62 3156.75 7257.62 3190.15Z" fill="#263238"/>
<path d="M6644.22 3097.95C6676.11 3070.16 6714.22 3050.46 6755.34 3040.5C6796.45 3030.55 6839.35 3030.63 6880.42 3040.75" stroke="#263238" stroke-width="2" stroke-linecap="round" stroke-linejoin="round"/>
<path d="M7120.42 3027.95C7158.42 3017.76 7198.26 3016.49 7236.84 3024.23C7275.41 3031.96 7311.68 3048.5 7342.82 3072.55" stroke="#263238" stroke-width="2" stroke-linecap="round" stroke-linejoin="round"/>
<path d="M6377.22 3047.15C6377.22 3047.15 6313.62 3142.35 6262.82 3142.35C6212.02 3142.35 6040.22 3008.95 6027.42 2894.55C6014.62 2780.15 6275.42 2691.15 6370.82 2551.15C6466.22 2411.15 6720.42 2176.15 6923.82 2214.35C7127.22 2252.55 7260.82 2474.35 7388.02 2513.15C7515.22 2551.95 7718.42 2678.35 7700.42 2805.55C7682.42 2932.75 7630.42 2989.95 7580.42 2996.15C7530.42 3002.35 7466.02 2964.35 7466.02 2964.35C7466.02 2964.35 7288.02 2754.75 7033.82 2722.95C6779.62 2691.15 6690.42 2754.75 6601.42 2849.95C6531.38 2920.84 6456.47 2986.73 6377.22 3047.15Z" fill="#263238" stroke="#263238" stroke-linecap="round" stroke-linejoin="round"/>
<path d="M6377.22 3047.15C6409.27 3059.8 6443.88 3064.58 6478.15 3061.1C6512.43 3057.62 6545.37 3045.98 6574.22 3027.15C6682.22 2963.55 6745.82 2798.35 7012.82 2842.95C7279.82 2887.55 7311.62 2976.35 7375.22 2989.15C7438.82 3001.95 7464.22 2995.35 7438.82 2906.35C7413.42 2817.35 7190.82 2658.55 6968.42 2646.35C6746.02 2634.15 6389.82 2856.35 6377.22 3047.15Z" fill="#263238" stroke="#263238" stroke-linecap="round" stroke-linejoin="round"/>
<path d="M6315.82 5587.35C6315.82 5587.35 6393.02 5357.75 6415.82 5330.35C6438.62 5302.95 6587.62 5246.35 6587.62 5246.35L6685.22 5203.15C6688.41 5201.73 6691.88 5201.04 6695.37 5201.11C6698.86 5201.18 6702.29 5202.02 6705.42 5203.56C6708.55 5205.11 6711.3 5207.32 6713.48 5210.05C6715.66 5212.78 6717.21 5215.95 6718.02 5219.35C6728.62 5262.95 6725.02 5271.15 6700.02 5294.75C6670.42 5322.55 6553.62 5376.75 6553.62 5376.75L6769.62 5329.75L7128.62 5255.75C7132.39 5254.94 7136.3 5254.95 7140.07 5255.77C7143.84 5256.6 7147.38 5258.22 7150.47 5260.53C7153.56 5262.84 7156.12 5265.79 7157.97 5269.17C7159.83 5272.56 7160.94 5276.3 7161.22 5280.15C7162.42 5295.15 6858.62 5412.15 6858.62 5412.15L6863.62 5441.95L7104.82 5419.95L7206.62 5404.15C7215.97 5402.7 7225.52 5404.84 7233.35 5410.15C7241.18 5415.45 7246.71 5423.53 7248.82 5432.75C7250.85 5441.21 7249.86 5450.12 7246.02 5457.93C7242.19 5465.74 7235.75 5471.97 7227.82 5475.55C7191.42 5491.95 7132.22 5518.75 7125.42 5520.95C7118.62 5523.15 6885.42 5567.75 6885.42 5567.75L7016.22 5604.95L7238.02 5602.75C7244.23 5602.75 7250.2 5605.17 7254.64 5609.51C7259.09 5613.84 7261.66 5619.74 7261.82 5625.95C7261.95 5630.21 7260.89 5634.43 7258.77 5638.14C7256.66 5641.84 7253.56 5644.89 7249.82 5646.95C7221.1 5663.89 7191.23 5678.8 7160.42 5691.55C7128.62 5701.55 7020.42 5720.35 6992.82 5724.95C6965.22 5729.55 6872.82 5734.75 6865.82 5735.35C6858.82 5735.95 7025.82 5759.95 7033.42 5761.75C7041.02 5763.55 7133.42 5768.75 7132.42 5778.95C7131.42 5789.15 7134.42 5803.75 7117.42 5810.15C7067.34 5819.59 7016.3 5822.88 6965.42 5819.95C6897.62 5817.95 6807.42 5817.55 6807.42 5817.55C6807.42 5817.55 6624.22 5844.95 6549.62 5850.95C6475.02 5856.95 6374.02 5877.75 6374.02 5877.75L6235.82 5933.95L6175.82 5633.95L6315.82 5587.35Z" fill="#FFBDA7" stroke="#263238" stroke-linecap="round" stroke-linejoin="round"/>
<path d="M6267.82 5599.55L6342.82 5939.55C6342.82 5939.55 5400.42 6647.55 5384.42 6647.55C5368.42 6647.55 5269.62 6662.55 5144.42 6552.75C5019.22 6442.95 4989.82 6288.15 5009.62 6188.35C5029.42 6088.55 5129.62 5963.75 5179.42 5918.75C5229.22 5873.75 6267.82 5599.55 6267.82 5599.55Z" fill="#1FBD59" stroke="#263238" stroke-linecap="round" stroke-linejoin="round"/>
<path d="M8783.42 6343.15C8783.42 6343.15 8603.42 6492.75 8563.42 6563.15C8523.42 6633.55 8318.82 7481.55 8318.82 7481.55L8633.42 7755.95L8798.02 7531.35C8798.02 7531.35 9182.42 6667.95 9198.02 6607.95C9213.62 6547.95 9138.02 6323.55 9058.02 6213.75" fill="#1FBD59"/>
<path d="M8783.42 6343.15C8783.42 6343.15 8603.42 6492.75 8563.42 6563.15C8523.42 6633.55 8318.82 7481.55 8318.82 7481.55L8633.42 7755.95L8798.02 7531.35C8798.02 7531.35 9182.42 6667.95 9198.02 6607.95C9213.62 6547.95 9138.02 6323.55 9058.02 6213.75" stroke="#263238" stroke-linecap="round" stroke-linejoin="round"/>
<path d="M9154.22 1057.35H7483.02C7431.68 1057.35 7382.43 1077.74 7346.13 1114.05C7309.82 1150.36 7289.42 1199.6 7289.42 1250.95V2183.95C7289.42 2235.29 7309.82 2284.54 7346.13 2320.84C7382.43 2357.15 7431.68 2377.55 7483.02 2377.55H8108.82L7957.62 2777.55L8330.02 2377.55H9154.22C9205.57 2377.55 9254.81 2357.15 9291.12 2320.84C9327.42 2284.54 9347.82 2235.29 9347.82 2183.95V1250.95C9347.82 1199.6 9327.42 1150.36 9291.12 1114.05C9254.81 1077.74 9205.57 1057.35 9154.22 1057.35Z" fill="#FFBDA7" stroke="#263238" stroke-linecap="round" stroke-linejoin="round"/>
<path d="M7975.62 1719.55C7975.66 1701.14 7970.23 1683.13 7960.03 1667.8C7949.83 1652.48 7935.3 1640.53 7918.3 1633.47C7901.3 1626.4 7882.59 1624.54 7864.53 1628.12C7846.47 1631.71 7829.88 1640.57 7816.86 1653.59C7803.84 1666.61 7794.98 1683.19 7791.4 1701.25C7787.82 1719.31 7789.67 1738.03 7796.74 1755.03C7803.8 1772.03 7815.75 1786.55 7831.08 1796.76C7846.4 1806.96 7864.41 1812.39 7882.82 1812.35C7907.43 1812.35 7931.04 1802.57 7948.44 1785.17C7965.84 1767.76 7975.62 1744.16 7975.62 1719.55Z" fill="#263238"/>
<path d="M8424.22 1719.55C8424.22 1701.19 8418.78 1683.25 8408.58 1667.99C8398.38 1652.73 8383.89 1640.84 8366.93 1633.81C8349.98 1626.79 8331.32 1624.95 8313.32 1628.53C8295.32 1632.11 8278.78 1640.95 8265.8 1653.93C8252.82 1666.91 8243.98 1683.44 8240.4 1701.44C8236.82 1719.45 8238.66 1738.1 8245.69 1755.06C8252.71 1772.02 8264.6 1786.51 8279.86 1796.71C8295.13 1806.91 8313.07 1812.35 8331.42 1812.35C8356.03 1812.35 8379.64 1802.57 8397.04 1785.17C8414.44 1767.76 8424.22 1744.16 8424.22 1719.55Z" fill="#263238"/>
<path d="M8872.82 1719.55C8872.82 1701.19 8867.38 1683.25 8857.18 1667.99C8846.98 1652.73 8832.49 1640.84 8815.53 1633.81C8798.58 1626.79 8779.92 1624.95 8761.92 1628.53C8743.91 1632.11 8727.38 1640.95 8714.4 1653.93C8701.42 1666.91 8692.58 1683.44 8689 1701.44C8685.42 1719.45 8687.26 1738.1 8694.28 1755.06C8701.31 1772.02 8713.2 1786.51 8728.46 1796.71C8743.72 1806.91 8761.67 1812.35 8780.02 1812.35C8804.63 1812.35 8828.24 1802.57 8845.64 1785.17C8863.04 1767.76 8872.82 1744.16 8872.82 1719.55Z" fill="#263238"/>
<path d="M2773.62 2242.35C2773.62 2242.35 2237.62 2606.55 2230.82 2730.35C2224.02 2854.15 2210.82 3197.55 2141.42 3259.55C2072.02 3321.55 1941.42 3424.35 1941.42 3499.55C1941.42 3574.75 1968.82 3671.35 1968.82 3705.75C1968.82 3740.15 1886.42 3801.95 1879.42 3877.55C1872.42 3953.15 1920.82 4097.55 1920.82 4138.75C1920.82 4179.95 1810.82 4248.75 1797.02 4303.55C1783.22 4358.35 1817.02 4392.95 1783.22 4447.95C1749.42 4502.95 1680.22 4592.35 1680.22 4592.35C1680.22 4592.35 1803.82 4743.35 2236.82 4812.35C2669.82 4881.35 3295.22 4901.75 3556.82 4846.75C3818.42 4791.75 4320.42 4455.15 4320.42 4455.15C4320.42 4455.15 4272.22 4427.75 4272.22 4352.15C4272.22 4276.55 4368.42 4159.75 4320.42 4070.35C4272.42 3980.95 4162.22 3974.15 4162.22 3843.55C4162.22 3712.95 4210.42 3733.55 4162.22 3637.35C4114.02 3541.15 4011.02 3527.55 3997.42 3451.95C3983.82 3376.35 4073.02 3280.15 4017.42 3163.15C3961.82 3046.15 3845.62 2963.15 3825.02 2908.95C3804.42 2854.75 3866.22 2702.75 3797.42 2613.55C3728.62 2524.35 3254.62 2249.15 3096.42 2214.95C2938.22 2180.75 2773.62 2242.35 2773.62 2242.35Z" fill="#263238" stroke="#263238" stroke-linecap="round" stroke-linejoin="round"/>
<path d="M3661.82 3622.55C3610.62 3950.15 3344.62 4174.95 3344.62 4174.95V4348.95L3146.42 4325.75L2648.82 4267.15V3827.15C2614.55 3826.3 2580.39 3822.89 2546.62 3816.95C2485.22 3806.75 2413.42 3694.35 2474.82 3479.35C2536.22 3264.35 2648.82 3519.35 2648.82 3519.35C2648.82 3519.35 2688.82 3529.55 2833.02 3253.35C2977.22 2977.15 3047.82 2599.55 3047.82 2599.55L3590.22 2896.35C3590.22 2896.35 3712.82 3295.15 3661.82 3622.55Z" fill="#FFBDA7" stroke="#263238" stroke-linecap="round" stroke-linejoin="round"/>
<path d="M3418.22 3195.95C3418.22 3195.95 3385.02 3290.75 3385.02 3319.35C3385.02 3347.95 3460.82 3660.75 3470.42 3679.35C3480.02 3697.95 3285.42 3726.75 3285.42 3726.75" stroke="#263238" stroke-linecap="round" stroke-linejoin="round"/>
<path d="M3465.62 3803.15C3465.62 3803.15 3271.22 3878.95 3157.42 3765.15" stroke="#263238" stroke-linecap="round" stroke-linejoin="round"/>
<path d="M3214.22 3119.55C3214.22 3119.55 3048.22 3090.95 2962.82 3195.35" stroke="#263238" stroke-linecap="round" stroke-linejoin="round"/>
<path d="M3460.42 3129.55C3460.42 3129.55 3579.02 3096.35 3626.42 3172.35" stroke="#263238" stroke-linecap="round" stroke-linejoin="round"/>
<path d="M3148.02 3340.55C3148.02 3380.55 3129.22 3413.15 3106.02 3413.15C3082.82 3413.15 3064.22 3380.55 3064.22 3340.55C3064.22 3300.55 3083.02 3267.95 3106.02 3267.95C3129.02 3267.95 3148.02 3300.55 3148.02 3340.55Z" fill="#263238"/>
<path d="M3586.02 3340.55C3586.02 3380.55 3567.22 3413.15 3544.22 3413.15C3521.22 3413.15 3502.22 3380.55 3502.22 3340.55C3502.22 3300.55 3521.02 3267.95 3544.22 3267.95C3567.42 3267.95 3586.02 3300.55 3586.02 3340.55Z" fill="#263238"/>
<path d="M3344.62 4174.95V4348.95L3146.42 4325.75C2999.22 4201.35 2862.82 3977.75 2852.82 3960.95C3020.42 4211.15 3344.62 4174.95 3344.62 4174.95Z" fill="#263238" stroke="#263238" stroke-linecap="round" stroke-linejoin="round"/>
<path d="M3919.02 4727.95C3919.02 4727.95 4488.22 6784.95 4529.62 6991.15C4571.02 7197.35 4673.82 8114.75 4673.82 8114.75L4704.82 8382.75H4364.82L4437.02 7990.95L4035.02 6650.95C4035.02 6650.95 3890.62 5661.35 3880.22 5382.95C3869.82 5104.55 3919.02 4727.95 3919.02 4727.95Z" fill="#FFBDA7" stroke="#263238" stroke-linecap="round" stroke-linejoin="round"/>
<path d="M3919.02 4727.95C3919.02 4727.95 3869.82 5104.55 3879.02 5382.95C3888.22 5661.35 4033.82 6650.95 4033.82 6650.95L4193.02 7179.55L4551.02 7122.95C4543.02 7067.55 4535.62 7021.95 4529.62 6991.95C4488.22 6784.95 3919.02 4727.95 3919.02 4727.95Z" fill="#1FBD59" stroke="#263238" stroke-linecap="round" stroke-linejoin="round"/>
<path d="M2632.82 4692.35L3127.62 5228.35L3509.02 4681.95L3302.82 4537.75L2746.22 4506.75L2632.82 4692.35Z" fill="#FFBDA7" stroke="#263238" stroke-linecap="round" stroke-linejoin="round"/>
<path d="M3271.82 4630.55L3601.82 4723.15L4086.22 7609.55L4168.82 8392.95H1973.02L2220.42 4846.95L2677.42 4578.95L3271.82 4630.55Z" fill="#C9C9C9" stroke="#263238" stroke-linecap="round" stroke-linejoin="round"/>
<path d="M2818.42 5929.35L3591.42 5960.15" stroke="#263238" stroke-linecap="round" stroke-linejoin="round"/>
<path d="M3220.42 5939.55L3189.42 6362.35" stroke="#263238" stroke-linecap="round" stroke-linejoin="round"/>
<path d="M3302.82 5970.55L3292.62 6743.75" stroke="#263238" stroke-linecap="round" stroke-linejoin="round"/>
<path d="M3385.22 6186.95L3406.02 6578.75" stroke="#263238" stroke-linecap="round" stroke-linejoin="round"/>
<path d="M2491.82 4551.35C2491.82 4551.35 1990.22 4819.35 1969.62 4908.75C1949.02 4998.15 1705.02 6125.15 1705.02 6145.75C1705.02 6166.35 1949.02 6805.75 1949.02 6805.75L1898.42 7810.75C1898.42 7810.75 2145.82 7865.75 2297.02 7858.95C2448.22 7852.15 2675.02 7838.95 2675.02 7838.95L2711.82 4552.15L2491.82 4551.35Z" fill="#1FBD59" stroke="#263238" stroke-linecap="round" stroke-linejoin="round"/>
<path d="M2179.22 6475.55L2272.02 5661.35" stroke="#263238" stroke-linecap="round" stroke-linejoin="round"/>
<path d="M2182.62 6351.95L1653.42 5039.55C1653.42 5039.55 1577.82 4833.35 1516.02 4778.35C1454.22 4723.35 1385.42 4682.15 1344.22 4640.95C1303.02 4599.75 1296.22 4503.55 1268.62 4606.55C1241.02 4709.55 1351.22 4785.35 1351.22 4785.35L1420.42 4901.95L980.421 4819.55C980.421 4819.55 753.621 4709.75 733.021 4757.75C712.421 4805.75 829.221 4847.15 925.421 4922.75C1021.62 4998.35 1076.62 5066.95 1234.62 5122.75C1337.4 5161.01 1432.75 5216.84 1516.42 5287.75C1516.42 5287.75 1550.82 6682.75 1633.22 6744.75C1715.62 6806.75 1997.62 6971.35 2100.62 6833.95C2203.62 6696.55 2203.22 6571.95 2182.62 6351.95Z" fill="#FFBDA7" stroke="#263238" stroke-linecap="round" stroke-linejoin="round"/>
<path d="M2182.62 6351.95L2097.22 6139.55L1564.42 6319.55C1582.02 6544.35 1604.42 6722.35 1632.82 6743.75C1715.42 6805.55 1997.22 6970.35 2100.22 6832.95C2203.22 6695.55 2203.22 6571.95 2182.62 6351.95Z" fill="#1FBD59" stroke="#263238" stroke-linecap="round" stroke-linejoin="round"/>
<path d="M1160.42 5059.55C1160.42 5059.55 978.821 4949.35 945.821 4894.35C912.821 4839.35 797.221 4624.75 835.821 4619.35C874.421 4613.95 975.821 4770.95 978.821 4795.35C981.821 4819.75 1094.42 4927.35 1094.42 4927.35" fill="#FFBDA7"/>
<path d="M1160.42 5059.55C1160.42 5059.55 978.821 4949.35 945.821 4894.35C912.821 4839.35 797.221 4624.75 835.821 4619.35C874.421 4613.95 975.821 4770.95 978.821 4795.35C981.821 4819.75 1094.42 4927.35 1094.42 4927.35" stroke="#263238" stroke-linecap="round" stroke-linejoin="round"/>
<path d="M1176.02 5103.15C1124.87 5066.98 1084.83 5017.25 1060.42 4959.55C1016.42 4860.55 966.821 4722.95 966.821 4645.95C966.821 4568.95 1010.82 4596.55 1026.82 4651.55C1042.82 4706.55 1098.82 4839.55 1120.42 4866.55C1142.02 4893.55 1220.42 5004.15 1220.42 5004.15" fill="#FFBDA7"/>
<path d="M1176.02 5103.15C1124.87 5066.98 1084.83 5017.25 1060.42 4959.55C1016.42 4860.55 966.821 4722.95 966.821 4645.95C966.821 4568.95 1010.82 4596.55 1026.82 4651.55C1042.82 4706.55 1098.82 4839.55 1120.42 4866.55C1142.02 4893.55 1220.42 5004.15 1220.42 5004.15" stroke="#263238" stroke-linecap="round" stroke-linejoin="round"/>
<path d="M1600.42 5158.15C1594.82 5141.55 1523.42 5026.15 1501.42 5020.55C1479.42 5014.95 1330.82 5053.55 1330.82 5053.55L1230.82 4976.55C1230.82 4976.55 1225.22 4811.55 1225.22 4750.95C1225.22 4690.35 1142.62 4838.95 1137.22 4937.95C1131.82 5036.95 1208.82 5141.55 1208.82 5141.55C1208.82 5141.55 1296.82 5158.15 1313.22 5163.55C1329.62 5168.95 1515.82 5286.75 1515.82 5286.75" fill="#FFBDA7"/>
<path d="M1600.42 5158.15C1594.82 5141.55 1523.42 5026.15 1501.42 5020.55C1479.42 5014.95 1330.82 5053.55 1330.82 5053.55L1230.82 4976.55C1230.82 4976.55 1225.22 4811.55 1225.22 4750.95C1225.22 4690.35 1142.62 4838.95 1137.22 4937.95C1131.82 5036.95 1208.82 5141.55 1208.82 5141.55C1208.82 5141.55 1296.82 5158.15 1313.22 5163.55C1329.62 5168.95 1515.82 5286.75 1515.82 5286.75" stroke="#263238" stroke-linecap="round" stroke-linejoin="round"/>
<path d="M2519.42 4551.35L2450.62 6564.95L2746.22 6558.15L2677.42 4578.95L2519.42 4551.35Z" fill="#858585" stroke="#263238" stroke-linecap="round" stroke-linejoin="round"/>
<path d="M2519.42 4551.35L2656.82 6723.15L3083.02 6716.15L2801.22 4572.15L2519.42 4551.35Z" fill="#858585" stroke="#263238" stroke-linecap="round" stroke-linejoin="round"/>
<path d="M3416.22 4651.15L3418.82 4689.95L3632.62 7784.75L4200.42 7747.75L4045.62 6310.75C4045.62 6310.75 3950.42 4748.55 3919.62 4727.95C3888.82 4707.35 3416.22 4599.55 3416.22 4599.55V4651.15Z" fill="#1FBD59" stroke="#263238" stroke-linecap="round" stroke-linejoin="round"/>
<path d="M2588.22 4152.75C2588.22 4152.75 3288.22 4290.35 3351.02 4290.35C3413.82 4290.35 3454.02 4331.55 3440.22 4379.55C3428.67 4417.49 3421.95 4456.73 3420.22 4496.35C3420.22 4523.95 3495.82 4633.95 3434.02 4688.95C3372.22 4743.95 2726.22 4640.75 2636.82 4633.95C2547.42 4627.15 2465.02 4620.15 2465.02 4571.95C2465.02 4523.75 2568.02 4441.55 2568.02 4407.15C2568.02 4372.75 2485.02 4269.75 2588.22 4152.75Z" fill="#858585" stroke="#263238" stroke-linecap="round" stroke-linejoin="round"/>
<path d="M753.621 544.748H2615.22C2672.26 544.748 2726.98 567.353 2767.39 607.613C2807.8 647.873 2830.61 702.506 2830.82 759.548V1799.55C2830.82 1856.73 2808.11 1911.57 2767.67 1952C2727.24 1992.43 2672.4 2015.15 2615.22 2015.15H1918.22L2086.62 2461.35L1671.82 2015.15H753.621C696.441 2015.15 641.602 1992.43 601.169 1952C560.736 1911.57 538.021 1856.73 538.021 1799.55V759.548C538.233 702.506 561.041 647.873 601.451 607.613C641.861 567.353 696.579 544.748 753.621 544.748Z" fill="#FFBDA7" stroke="#263238" stroke-linecap="round" stroke-linejoin="round"/>
<path d="M1331.82 1285.75C1331.62 1267.44 1326.01 1249.6 1315.7 1234.47C1305.38 1219.34 1290.82 1207.6 1273.85 1200.73C1256.87 1193.86 1238.25 1192.16 1220.31 1195.86C1202.38 1199.55 1185.93 1208.46 1173.06 1221.48C1160.18 1234.5 1151.44 1251.03 1147.94 1269.01C1144.44 1286.98 1146.33 1305.59 1153.39 1322.49C1160.44 1339.39 1172.33 1353.82 1187.57 1363.98C1202.81 1374.13 1220.71 1379.55 1239.02 1379.55C1251.29 1379.55 1263.44 1377.12 1274.77 1372.39C1286.09 1367.66 1296.37 1360.74 1305 1352.02C1313.63 1343.29 1320.44 1332.94 1325.05 1321.57C1329.65 1310.19 1331.95 1298.02 1331.82 1285.75Z" fill="#263238"/>
<path d="M1780.42 1285.75C1780.42 1267.39 1774.98 1249.45 1764.78 1234.19C1754.58 1218.93 1740.09 1207.04 1723.13 1200.01C1706.18 1192.99 1687.52 1191.15 1669.52 1194.73C1651.52 1198.31 1634.98 1207.15 1622 1220.13C1609.02 1233.11 1600.19 1249.64 1596.6 1267.64C1593.02 1285.65 1594.86 1304.3 1601.89 1321.26C1608.91 1338.22 1620.8 1352.71 1636.06 1362.91C1651.33 1373.11 1669.27 1378.55 1687.62 1378.55C1712.23 1378.55 1735.84 1368.77 1753.24 1351.37C1770.64 1333.96 1780.42 1310.36 1780.42 1285.75Z" fill="#263238"/>
<path d="M2229.02 1285.75C2229.02 1267.39 2223.58 1249.45 2213.38 1234.19C2203.18 1218.93 2188.69 1207.04 2171.73 1200.01C2154.78 1192.99 2136.12 1191.15 2118.12 1194.73C2100.12 1198.31 2083.58 1207.15 2070.6 1220.13C2057.62 1233.11 2048.79 1249.64 2045.2 1267.64C2041.62 1285.65 2043.46 1304.3 2050.49 1321.26C2057.51 1338.22 2069.4 1352.71 2084.66 1362.91C2099.93 1373.11 2117.87 1378.55 2136.22 1378.55C2160.83 1378.55 2184.44 1368.77 2201.84 1351.37C2219.24 1333.96 2229.02 1310.36 2229.02 1285.75Z" fill="#263238"/>
<path d="M200.821 8392.95H13749.4" stroke="#263238" stroke-linecap="round" stroke-linejoin="round"/>
</svg>
