<svg width="1563" height="1140" viewBox="0 0 1563 1140" fill="none" xmlns="http://www.w3.org/2000/svg">
<path d="M1535.26 1123.57H28.8857V1139.38H1535.26V1123.57Z" fill="#263238"/>
<path d="M1155.78 225.035H421.482C420.15 225.035 418.873 225.564 417.931 226.506C416.989 227.448 416.46 228.725 416.46 230.057V595.781C416.46 597.113 416.989 598.39 417.931 599.332C418.873 600.274 420.15 600.803 421.482 600.803H1155.78C1157.11 600.803 1158.39 600.274 1159.33 599.332C1160.27 598.39 1160.8 597.113 1160.8 595.781V230.02C1160.79 228.694 1160.26 227.427 1159.32 226.493C1158.38 225.559 1157.1 225.035 1155.78 225.035ZM1150.61 235.042V574.418H426.504V235.042H1150.61Z" fill="#1FBD59"/>
<path d="M556.895 306.552C551.289 306.526 545.876 308.595 541.716 312.353C537.556 316.111 534.949 321.287 534.408 326.866C534.369 327.59 534.369 328.316 534.408 329.04C534.417 333.782 535.926 338.4 538.718 342.233L535.907 350.553L544.602 347.78C548.006 350.015 551.95 351.292 556.018 351.476C560.086 351.661 564.128 350.747 567.721 348.83C571.314 346.912 574.324 344.063 576.436 340.581C578.547 337.099 579.681 333.112 579.72 329.04C579.72 328.44 579.72 327.878 579.72 327.279C579.272 321.566 576.661 316.24 572.419 312.388C568.177 308.536 562.624 306.449 556.895 306.552ZM570.088 338.298C569.62 339.105 568.982 339.802 568.219 340.339C567.455 340.876 566.584 341.241 565.665 341.408C564.429 341.408 564.429 342.42 557.72 339.797C553.121 337.614 549.226 334.186 546.476 329.902C545.435 328.537 544.636 327.003 544.115 325.367C543.911 324.634 543.798 323.879 543.777 323.118C543.771 322.096 543.974 321.083 544.374 320.142C544.773 319.201 545.361 318.352 546.101 317.646C546.325 317.399 546.596 317.198 546.899 317.057C547.201 316.915 547.529 316.835 547.863 316.822H549.1C549.512 316.822 550.074 316.597 550.599 317.909C551.123 319.221 552.473 322.444 552.66 322.781C552.752 322.954 552.8 323.147 552.8 323.343C552.8 323.539 552.752 323.732 552.66 323.905C552.546 324.179 552.408 324.443 552.248 324.693L551.985 325.03C551.648 325.405 551.311 325.854 551.011 326.154C550.711 326.454 550.336 326.829 550.711 327.503C551.73 329.191 552.993 330.72 554.459 332.038C556.026 333.432 557.828 334.536 559.781 335.299C560.456 335.599 560.831 335.562 561.205 335.112C561.58 334.662 562.854 333.2 563.304 332.563C563.754 331.926 564.204 332.001 564.803 332.226C565.403 332.451 568.551 334.025 569.301 334.362C570.05 334.699 570.388 334.849 570.575 335.112C570.732 336.198 570.562 337.307 570.088 338.298Z" fill="#1FBD59"/>
<path d="M554.984 279.567C545.086 279.567 535.411 282.503 527.182 288.002C518.953 293.502 512.54 301.319 508.754 310.463C504.968 319.608 503.979 329.671 505.913 339.377C507.847 349.084 512.616 358 519.617 364.996C526.618 371.992 535.537 376.754 545.245 378.68C554.954 380.607 565.015 379.611 574.157 375.818C583.299 372.025 591.111 365.606 596.604 357.373C602.098 349.14 605.026 339.462 605.019 329.565C605.009 316.301 599.733 303.584 590.35 294.209C580.968 284.834 568.247 279.567 554.984 279.567ZM556.895 355.763C552.335 355.776 547.846 354.628 543.852 352.427L528.861 357.187L533.733 342.833C531.244 338.665 529.947 333.894 529.985 329.04C529.985 328.628 529.985 328.253 529.985 327.878C530.406 320.986 533.456 314.519 538.507 309.811C543.557 305.103 550.222 302.512 557.126 302.575C564.031 302.637 570.648 305.348 575.612 310.147C580.576 314.946 583.509 321.467 583.805 328.366V329.04C583.796 332.562 583.091 336.048 581.733 339.298C580.375 342.548 578.39 345.498 575.89 347.98C573.391 350.462 570.427 352.427 567.167 353.763C563.908 355.098 560.417 355.778 556.895 355.763Z" fill="#1FBD59"/>
<path d="M744.629 319.146L760.933 309.889L744.629 300.594V319.146Z" fill="#1FBD59"/>
<path d="M751.001 259.854C744.318 259.671 737.665 260.829 731.437 263.26C725.209 265.692 719.531 269.347 714.739 274.009C709.947 278.672 706.138 284.247 703.537 290.407C700.937 296.566 699.597 303.184 699.597 309.87C699.597 316.556 700.937 323.174 703.537 329.333C706.138 335.493 709.947 341.068 714.739 345.731C719.531 350.393 725.209 354.048 731.437 356.48C737.665 358.911 744.318 360.069 751.001 359.886C757.684 360.069 764.337 358.911 770.565 356.48C776.793 354.048 782.471 350.393 787.263 345.731C792.055 341.068 795.864 335.493 798.464 329.333C801.065 323.174 802.405 316.556 802.405 309.87C802.405 303.184 801.065 296.566 798.464 290.407C795.864 284.247 792.055 278.672 787.263 274.009C782.471 269.347 776.793 265.692 770.565 263.26C764.337 260.829 757.684 259.671 751.001 259.854ZM780.984 324.993C780.632 326.319 779.938 327.529 778.971 328.503C778.004 329.476 776.799 330.179 775.475 330.54C759.281 332.289 742.946 332.289 726.752 330.54C725.428 330.179 724.222 329.476 723.256 328.503C722.289 327.529 721.594 326.319 721.242 324.993C719.493 314.987 719.493 304.753 721.242 294.747C721.594 293.421 722.289 292.211 723.256 291.237C724.222 290.264 725.428 289.561 726.752 289.2C742.946 287.451 759.281 287.451 775.475 289.2C776.799 289.561 778.004 290.264 778.971 291.237C779.938 292.211 780.632 293.421 780.984 294.747C782.734 304.753 782.734 314.987 780.984 324.993Z" fill="#1FBD59"/>
<path d="M708.574 392.718C698.676 392.71 688.999 395.639 680.766 401.132C672.533 406.625 666.114 414.437 662.321 423.579C658.528 432.721 657.532 442.783 659.458 452.491C661.385 462.199 666.147 471.118 673.143 478.12C680.139 485.121 689.054 489.89 698.761 491.824C708.468 493.757 718.53 492.768 727.675 488.983C736.82 485.197 744.637 478.784 750.136 470.555C755.636 462.326 758.571 452.65 758.571 442.753C758.571 429.489 753.305 416.768 743.93 407.386C734.554 398.004 721.838 392.728 708.574 392.718ZM694.856 463.929H684.475V430.422H694.856V463.929ZM689.609 426.037C688.383 426.052 687.18 425.702 686.153 425.031C685.127 424.361 684.322 423.4 683.843 422.272C683.363 421.143 683.23 419.897 683.46 418.693C683.69 417.488 684.273 416.38 685.135 415.507C685.997 414.635 687.099 414.038 688.3 413.794C689.502 413.549 690.749 413.667 691.883 414.133C693.018 414.598 693.988 415.391 694.671 416.409C695.354 417.428 695.718 418.627 695.719 419.853C695.723 420.66 695.569 421.46 695.265 422.208C694.961 422.956 694.512 423.636 693.945 424.21C693.377 424.784 692.703 425.241 691.959 425.555C691.215 425.868 690.417 426.032 689.609 426.037ZM733.648 463.854H723.341V446.163C723.341 441.329 721.504 438.667 717.681 438.667C713.859 438.667 711.385 441.441 711.385 446.163V463.704H701.453V430.422H711.385V434.92C712.449 433.211 713.936 431.806 715.703 430.841C717.469 429.876 719.454 429.383 721.467 429.41C728.55 429.41 733.648 433.72 733.648 442.678V463.854Z" fill="#1FBD59"/>
<path d="M681.343 314.006L597.203 324.695L597.675 328.413L681.815 317.724L681.343 314.006Z" fill="#1FBD59"/>
<path d="M668.059 330.69L666.597 327.241L686.986 318.509L653.667 307.04L654.904 303.479L697.405 318.096L668.059 330.69Z" fill="#1FBD59"/>
<path d="M572.337 386.291L570.388 389.477L636.365 429.839L638.314 426.653L572.337 386.291Z" fill="#1FBD59"/>
<path d="M646.321 430.647L620.91 427.986L621.322 424.275L640.924 426.337L633.54 404.186L637.101 403.024L646.321 430.647Z" fill="#1FBD59"/>
<path d="M830.157 445.339V297.146L1028.8 302.955L1034.72 441.628L830.157 445.339ZM837.653 304.866V437.731L1026.77 433.983L1021.45 310.301L837.653 304.866Z" fill="#1FBD59"/>
<path d="M903.408 344.135L903.166 351.627L961.266 353.504L961.508 346.012L903.408 344.135Z" fill="#1FBD59"/>
<path d="M1006.2 372.361L873.162 374.172L873.264 381.667L1006.3 379.856L1006.2 372.361Z" fill="#1FBD59"/>
<path d="M909.228 394.734L908.674 402.209L959.282 405.961L959.836 398.486L909.228 394.734Z" fill="#1FBD59"/>
<g opacity="0.3">
<path d="M1155.78 225.035H421.482C420.15 225.035 418.873 225.564 417.931 226.506C416.989 227.448 416.46 228.725 416.46 230.057V595.781C416.46 597.113 416.989 598.39 417.931 599.332C418.873 600.274 420.15 600.803 421.482 600.803H1155.78C1157.11 600.803 1158.39 600.274 1159.33 599.332C1160.27 598.39 1160.8 597.113 1160.8 595.781V230.02C1160.79 228.694 1160.26 227.427 1159.32 226.493C1158.38 225.559 1157.1 225.035 1155.78 225.035ZM1150.61 235.042V574.418H426.504V235.042H1150.61Z" fill="black"/>
<path d="M556.895 306.552C551.289 306.526 545.876 308.595 541.716 312.353C537.556 316.111 534.949 321.287 534.408 326.866C534.369 327.59 534.369 328.316 534.408 329.04C534.417 333.782 535.926 338.4 538.718 342.233L535.907 350.553L544.602 347.78C548.006 350.015 551.95 351.292 556.018 351.476C560.086 351.661 564.128 350.747 567.721 348.83C571.314 346.912 574.324 344.063 576.436 340.581C578.547 337.099 579.681 333.112 579.72 329.04C579.72 328.44 579.72 327.878 579.72 327.279C579.272 321.566 576.661 316.24 572.419 312.388C568.177 308.536 562.624 306.449 556.895 306.552ZM570.088 338.298C569.62 339.105 568.982 339.802 568.219 340.339C567.455 340.876 566.584 341.241 565.665 341.408C564.429 341.408 564.429 342.42 557.72 339.797C553.121 337.614 549.226 334.186 546.476 329.902C545.435 328.537 544.636 327.003 544.115 325.367C543.911 324.634 543.798 323.879 543.777 323.118C543.771 322.096 543.974 321.083 544.374 320.142C544.773 319.201 545.361 318.352 546.101 317.646C546.325 317.399 546.596 317.198 546.899 317.057C547.201 316.915 547.529 316.835 547.863 316.822H549.1C549.512 316.822 550.074 316.597 550.599 317.909C551.123 319.221 552.473 322.444 552.66 322.781C552.752 322.954 552.8 323.147 552.8 323.343C552.8 323.539 552.752 323.732 552.66 323.905C552.546 324.179 552.408 324.443 552.248 324.693L551.985 325.03C551.648 325.405 551.311 325.854 551.011 326.154C550.711 326.454 550.336 326.829 550.711 327.503C551.73 329.191 552.993 330.72 554.459 332.038C556.026 333.432 557.828 334.536 559.781 335.299C560.456 335.599 560.831 335.562 561.205 335.112C561.58 334.662 562.854 333.2 563.304 332.563C563.754 331.926 564.204 332.001 564.803 332.226C565.403 332.451 568.551 334.025 569.301 334.362C570.05 334.699 570.388 334.849 570.575 335.112C570.732 336.198 570.562 337.307 570.088 338.298Z" fill="black"/>
<path d="M554.984 279.567C545.086 279.567 535.411 282.503 527.182 288.002C518.953 293.502 512.54 301.319 508.754 310.463C504.968 319.608 503.979 329.671 505.913 339.377C507.847 349.084 512.616 358 519.617 364.996C526.618 371.992 535.537 376.754 545.245 378.68C554.954 380.607 565.015 379.611 574.157 375.818C583.299 372.025 591.111 365.606 596.604 357.373C602.098 349.14 605.026 339.462 605.019 329.565C605.009 316.301 599.733 303.584 590.35 294.209C580.968 284.834 568.247 279.567 554.984 279.567ZM556.895 355.763C552.335 355.776 547.846 354.628 543.852 352.427L528.861 357.187L533.733 342.833C531.244 338.665 529.947 333.894 529.985 329.04C529.985 328.628 529.985 328.253 529.985 327.878C530.406 320.986 533.456 314.519 538.507 309.811C543.557 305.103 550.222 302.512 557.126 302.575C564.031 302.637 570.648 305.348 575.612 310.147C580.576 314.946 583.509 321.467 583.805 328.366V329.04C583.796 332.562 583.091 336.048 581.733 339.298C580.375 342.548 578.39 345.498 575.89 347.98C573.391 350.462 570.427 352.427 567.167 353.763C563.908 355.098 560.417 355.778 556.895 355.763Z" fill="black"/>
<path d="M744.629 319.146L760.933 309.889L744.629 300.594V319.146Z" fill="black"/>
<path d="M751.001 259.854C744.318 259.671 737.665 260.829 731.437 263.26C725.209 265.692 719.531 269.347 714.739 274.009C709.947 278.672 706.138 284.247 703.537 290.407C700.937 296.566 699.597 303.184 699.597 309.87C699.597 316.556 700.937 323.174 703.537 329.333C706.138 335.493 709.947 341.068 714.739 345.731C719.531 350.393 725.209 354.048 731.437 356.48C737.665 358.911 744.318 360.069 751.001 359.886C757.684 360.069 764.337 358.911 770.565 356.48C776.793 354.048 782.471 350.393 787.263 345.731C792.055 341.068 795.864 335.493 798.464 329.333C801.065 323.174 802.405 316.556 802.405 309.87C802.405 303.184 801.065 296.566 798.464 290.407C795.864 284.247 792.055 278.672 787.263 274.009C782.471 269.347 776.793 265.692 770.565 263.26C764.337 260.829 757.684 259.671 751.001 259.854ZM780.984 324.993C780.632 326.319 779.938 327.529 778.971 328.503C778.004 329.476 776.799 330.179 775.475 330.54C759.281 332.289 742.946 332.289 726.752 330.54C725.428 330.179 724.222 329.476 723.256 328.503C722.289 327.529 721.594 326.319 721.242 324.993C719.493 314.987 719.493 304.753 721.242 294.747C721.594 293.421 722.289 292.211 723.256 291.237C724.222 290.264 725.428 289.561 726.752 289.2C742.946 287.451 759.281 287.451 775.475 289.2C776.799 289.561 778.004 290.264 778.971 291.237C779.938 292.211 780.632 293.421 780.984 294.747C782.734 304.753 782.734 314.987 780.984 324.993Z" fill="black"/>
<path d="M708.574 392.718C698.676 392.71 688.999 395.639 680.766 401.132C672.533 406.625 666.114 414.437 662.321 423.579C658.528 432.721 657.532 442.783 659.458 452.491C661.385 462.199 666.147 471.118 673.143 478.12C680.139 485.121 689.054 489.89 698.761 491.824C708.468 493.757 718.53 492.768 727.675 488.983C736.82 485.197 744.637 478.784 750.136 470.555C755.636 462.326 758.571 452.65 758.571 442.753C758.571 429.489 753.305 416.768 743.93 407.386C734.554 398.004 721.838 392.728 708.574 392.718ZM694.856 463.929H684.475V430.422H694.856V463.929ZM689.609 426.037C688.383 426.052 687.18 425.702 686.153 425.031C685.127 424.361 684.322 423.4 683.843 422.272C683.363 421.143 683.23 419.897 683.46 418.693C683.69 417.488 684.273 416.38 685.135 415.507C685.997 414.635 687.099 414.038 688.3 413.794C689.502 413.549 690.749 413.667 691.883 414.133C693.018 414.598 693.988 415.391 694.671 416.409C695.354 417.428 695.718 418.627 695.719 419.853C695.723 420.66 695.569 421.46 695.265 422.208C694.961 422.956 694.512 423.636 693.945 424.21C693.377 424.784 692.703 425.241 691.959 425.555C691.215 425.868 690.417 426.032 689.609 426.037ZM733.648 463.854H723.341V446.163C723.341 441.329 721.504 438.667 717.681 438.667C713.859 438.667 711.385 441.441 711.385 446.163V463.704H701.453V430.422H711.385V434.92C712.449 433.211 713.936 431.806 715.703 430.841C717.469 429.876 719.454 429.383 721.467 429.41C728.55 429.41 733.648 433.72 733.648 442.678V463.854Z" fill="black"/>
<path d="M681.343 314.006L597.203 324.695L597.675 328.413L681.815 317.724L681.343 314.006Z" fill="black"/>
<path d="M668.059 330.69L666.597 327.241L686.986 318.509L653.667 307.04L654.904 303.479L697.405 318.096L668.059 330.69Z" fill="black"/>
<path d="M572.337 386.291L570.388 389.477L636.365 429.839L638.314 426.653L572.337 386.291Z" fill="black"/>
<path d="M646.321 430.647L620.91 427.986L621.322 424.275L640.924 426.337L633.54 404.186L637.101 403.024L646.321 430.647Z" fill="black"/>
<path d="M830.157 445.339V297.146L1028.8 302.955L1034.72 441.628L830.157 445.339ZM837.653 304.866V437.731L1026.77 433.983L1021.45 310.301L837.653 304.866Z" fill="black"/>
<path d="M903.408 344.135L903.166 351.627L961.266 353.504L961.508 346.012L903.408 344.135Z" fill="black"/>
<path d="M1006.2 372.361L873.162 374.172L873.264 381.667L1006.3 379.856L1006.2 372.361Z" fill="black"/>
<path d="M909.228 394.734L908.674 402.209L959.282 405.961L959.836 398.486L909.228 394.734Z" fill="black"/>
</g>
<path d="M32.0341 787.226C37.2812 789.55 50.2115 789.25 50.249 789.25C50.2865 789.25 47.4755 780.78 47.2132 780.293C44.3648 774.333 35.4072 764.551 28.0987 765.526C26.8922 765.728 25.7417 766.182 24.7218 766.857C23.7018 767.532 22.8351 768.415 22.1779 769.446C21.5206 770.478 21.0875 771.637 20.9066 772.846C20.7257 774.056 20.8009 775.291 21.1276 776.47C22.0441 778.953 23.4965 781.205 25.3815 783.064C27.2665 784.923 29.5378 786.344 32.0341 787.226Z" fill="#263238"/>
<path d="M201.366 743.337C193.87 742.55 185.325 752.595 182.626 758.591C182.401 759.116 179.703 767.661 179.853 767.661C178.466 769.236 177.004 770.922 175.43 772.834C172.544 776.357 169.359 780.33 166.173 784.94C162.665 789.836 159.461 794.943 156.578 800.231C153.293 806.131 150.546 812.315 148.37 818.708V818.933C148.37 816.759 148.37 810.725 148.37 810.275C147.508 803.754 142.036 791.536 134.803 790.299C133.597 790.114 132.366 790.184 131.189 790.504C130.012 790.824 128.914 791.387 127.968 792.156C127.022 792.926 126.247 793.885 125.694 794.973C125.142 796.06 124.823 797.251 124.758 798.47C124.867 801.116 125.55 803.707 126.76 806.063C127.97 808.418 129.679 810.483 131.767 812.112C136.856 815.424 142.416 817.951 148.258 819.608C146.217 826.194 144.602 832.904 143.423 839.697C142.711 843.632 142.149 847.642 141.586 851.653C141.586 849.779 141.586 848.092 141.586 847.905C140.724 841.383 135.252 829.165 128.019 827.928C126.819 827.732 125.592 827.789 124.416 828.095C123.24 828.4 122.14 828.948 121.187 829.703C120.235 830.458 119.45 831.404 118.884 832.479C118.318 833.554 117.983 834.736 117.899 835.949C118.001 838.593 118.677 841.183 119.881 843.539C121.085 845.895 122.788 847.96 124.871 849.591C129.801 852.899 135.211 855.427 140.912 857.087C140.912 858.624 140.5 860.161 140.312 861.697C139.45 869.193 138.588 876.464 137.539 883.698C137.164 886.246 136.714 888.72 136.264 891.193C136.264 889.507 136.264 888.12 136.264 887.933C135.44 881.374 129.968 869.193 122.734 867.956C121.499 867.723 120.229 867.76 119.009 868.065C117.79 868.369 116.652 868.935 115.672 869.722C114.692 870.51 113.895 871.5 113.335 872.625C112.775 873.75 112.465 874.983 112.428 876.239C112.529 878.878 113.206 881.462 114.41 883.812C115.614 886.162 117.317 888.221 119.399 889.844C124.178 893.055 129.424 895.507 134.953 897.115C134.428 899.626 133.903 902.175 133.266 904.611C132.779 906.26 132.441 907.909 131.879 909.521L130.305 914.356C129.218 917.429 128.094 920.54 126.932 923.501C126.145 925.562 125.358 927.474 124.571 929.422C124.983 926.911 125.658 921.927 125.658 921.514C125.581 915.732 124.02 910.066 121.123 905.061C121.16 904.424 121.16 903.786 121.123 903.149C120.981 901.925 120.582 900.744 119.951 899.685C119.321 898.626 118.473 897.712 117.464 897.004C116.455 896.296 115.308 895.81 114.097 895.577C112.887 895.344 111.641 895.37 110.441 895.653C103.32 897.527 98.8225 910.008 98.4852 916.604C98.4852 916.979 98.7101 921.214 98.9349 923.875C98.5601 922.339 98.2228 920.802 97.848 919.228C97.0984 916.08 96.2739 912.969 95.3744 909.596L93.9127 904.724C93.4255 903.112 92.7508 901.425 92.1886 899.739C90.7644 895.991 89.1528 892.056 87.4288 888.233C93.1982 887.047 98.7487 884.974 103.882 882.086C106.081 880.615 107.934 878.683 109.313 876.424C110.691 874.166 111.562 871.634 111.865 869.006C111.895 867.784 111.668 866.57 111.2 865.442C110.731 864.313 110.031 863.296 109.144 862.455C108.257 861.614 107.204 860.969 106.052 860.561C104.901 860.153 103.676 859.991 102.458 860.086C94.9621 860.873 88.778 872.566 87.4662 878.825C87.4662 879.2 86.9415 883.922 86.7541 886.546C85.7422 884.26 84.6928 881.974 83.5684 879.687C80.2702 873.091 76.7846 866.532 73.299 859.936C72.2121 857.949 71.2002 855.925 70.1508 853.902C76.1073 852.671 81.8438 850.548 87.1664 847.605C89.3674 846.135 91.2217 844.204 92.6004 841.945C93.9791 839.686 94.849 837.154 95.1495 834.525C95.1794 833.303 94.9526 832.089 94.4839 830.961C94.0151 829.832 93.3147 828.815 92.4281 827.974C91.5414 827.133 90.4882 826.488 89.3366 826.08C88.1849 825.672 86.9604 825.51 85.7422 825.605C78.2463 826.392 72.0622 838.048 70.7504 844.344C70.7504 844.831 70.0383 851.653 69.9634 853.377C67.6771 848.954 65.4284 844.494 63.367 840.034C60.551 833.956 58.1469 827.695 56.171 821.294C62.1659 820.074 67.9409 817.951 73.299 814.998C75.5 813.528 77.3544 811.597 78.7331 809.338C80.1117 807.079 80.9816 804.547 81.2822 801.918C81.318 800.695 81.0952 799.478 80.6284 798.346C80.1617 797.215 79.4615 796.195 78.5736 795.354C77.6856 794.512 76.63 793.867 75.4757 793.461C74.3213 793.055 73.0943 792.897 71.8748 792.998C64.379 793.785 58.1949 805.441 56.8831 811.737C56.8831 812.262 56.1335 819.57 56.096 820.92L55.7212 819.795C53.8907 813.386 52.6364 806.826 51.9733 800.194C51.561 796.446 51.3736 793.035 51.2987 789.587C57.2476 789.037 63.0757 787.57 68.5767 785.239C70.9249 784.024 72.9798 782.312 74.5981 780.221C76.2164 778.13 77.3591 775.711 77.9465 773.133C78.1093 771.922 78.0171 770.69 77.6759 769.517C77.3346 768.343 76.7518 767.254 75.9648 766.318C75.1779 765.383 74.2042 764.623 73.1061 764.086C72.0081 763.549 70.8099 763.248 69.5886 763.201C62.0927 763.201 54.5968 774.108 52.573 780.367C52.573 780.704 51.7484 784.115 51.2237 786.888C51.2237 785.352 51.2237 783.74 51.2237 782.278C51.2237 776.694 51.561 771.597 51.9358 767.099C51.9358 764.513 52.3856 762.189 52.6479 760.053C57.6407 756.825 62.1142 752.856 65.9156 748.285C67.4227 746.129 68.4472 743.674 68.9194 741.087C69.3915 738.5 69.3002 735.842 68.6516 733.293C68.2421 732.14 67.5941 731.087 66.7499 730.202C65.9057 729.317 64.8843 728.62 63.7525 728.157C62.6206 727.694 61.4036 727.474 60.1812 727.513C58.9588 727.552 57.7583 727.849 56.6582 728.383C50.0993 731.756 48.3753 744.912 49.4622 751.395C49.4622 751.958 52.0482 760.578 52.1607 760.503C51.8608 762.602 51.5985 764.813 51.3361 767.249C50.8864 771.784 50.3992 776.881 50.2867 782.466C50.0771 788.49 50.2148 794.522 50.699 800.531C51.2354 807.263 52.3642 813.936 54.0721 820.47C54.0559 820.544 54.0559 820.621 54.0721 820.695C52.9103 818.858 49.4997 813.911 49.1998 813.536C44.8897 808.551 33.6459 801.505 26.7122 804.354C25.612 804.88 24.6336 805.63 23.8395 806.555C23.0454 807.481 22.4531 808.562 22.1004 809.729C21.7477 810.897 21.6423 812.125 21.7911 813.336C21.9398 814.546 22.3394 815.712 22.9643 816.759C24.519 818.903 26.5205 820.683 28.8307 821.978C31.1409 823.272 33.7045 824.049 36.3444 824.255C41.8164 825.08 53.36 821.707 54.2595 821.444C56.179 828.047 58.52 834.519 61.2682 840.821C62.8423 844.569 64.5663 848.13 66.3279 851.765C65.2785 850.229 64.304 848.879 64.1541 848.692C59.844 843.707 48.6376 836.624 41.8539 839.509C40.7467 840.023 39.7605 840.764 38.9599 841.685C38.1594 842.606 37.5626 843.686 37.2087 844.854C36.8548 846.022 36.7518 847.251 36.9064 848.462C37.061 849.672 37.4698 850.836 38.1059 851.878C39.653 854.02 41.6478 855.8 43.9518 857.095C46.2559 858.389 48.8139 859.167 51.4486 859.373C57.3589 859.371 63.2347 858.474 68.8765 856.712C69.5886 858.099 70.2632 859.486 70.9379 860.873C74.311 867.506 77.6467 874.14 80.7575 880.737C81.8444 883.061 82.8563 885.384 83.8308 887.708C82.8938 886.359 82.1067 885.197 81.9568 885.047C77.6467 880.062 66.4403 872.978 59.6566 875.864C58.5482 876.382 57.5614 877.127 56.7606 878.051C55.9599 878.976 55.3632 880.059 55.0094 881.229C54.6557 882.4 54.553 883.632 54.7079 884.846C54.8629 886.059 55.272 887.226 55.9086 888.27C57.4539 890.414 59.4483 892.196 61.7526 893.491C64.057 894.785 66.616 895.562 69.2513 895.766C75.008 895.794 80.7347 894.935 86.2294 893.217C87.1664 895.654 88.1409 898.052 88.928 900.451C89.4527 902.062 90.0898 903.637 90.5021 905.286C90.9144 906.935 91.439 908.584 91.8888 910.196C92.6384 913.344 93.4255 916.604 94.1001 919.678C94.5499 921.814 94.9621 923.876 95.4119 925.937C94.325 923.613 92.1512 919.116 91.9263 918.741C88.4407 913.194 78.3962 904.461 71.2752 906.298C70.032 906.609 68.8729 907.191 67.8809 908.002C66.8889 908.813 66.0885 909.834 65.537 910.991C64.9855 912.147 64.6965 913.412 64.6907 914.693C64.6848 915.975 64.9624 917.242 65.5034 918.404C66.7018 920.765 68.4036 922.834 70.4888 924.466C72.574 926.098 74.9918 927.252 77.5717 927.848C83.5465 928.757 89.6244 928.757 95.5993 927.848C96.3114 931.259 96.9485 934.595 97.4732 937.743C99.4222 948.687 100.622 957.869 101.221 964.278C101.221 965.44 101.484 966.452 101.596 967.426H79.5206L87.6162 1125.33H125.395L133.491 967.426H112.84L113.29 966.452C116.138 960.568 120.036 952.097 124.308 941.716C125.658 938.417 127.007 934.894 128.394 931.259C134.297 932.635 140.377 933.102 146.421 932.646C149.028 932.231 151.514 931.255 153.708 929.786C155.901 928.318 157.75 926.39 159.127 924.138C159.671 923.04 159.977 921.841 160.027 920.617C160.077 919.393 159.869 918.173 159.417 917.035C158.965 915.897 158.278 914.866 157.401 914.011C156.525 913.156 155.478 912.494 154.329 912.069C147.358 909.746 136.714 917.654 132.779 922.976C132.554 923.276 130.455 926.949 129.031 929.272C129.593 927.773 130.155 926.349 130.68 924.812C131.804 921.777 132.816 918.703 133.941 915.405L135.402 910.533C135.927 908.921 136.264 907.16 136.714 905.436C137.651 901.463 138.438 897.378 139.113 893.217C144.573 895.4 150.338 896.727 156.203 897.153C158.848 897.148 161.459 896.565 163.855 895.445C166.25 894.325 168.372 892.695 170.071 890.669C170.776 889.668 171.261 888.531 171.496 887.33C171.731 886.129 171.71 884.892 171.434 883.7C171.158 882.507 170.634 881.387 169.895 880.411C169.156 879.436 168.22 878.627 167.147 878.038C160.588 874.665 148.857 880.887 144.21 885.534C143.91 885.834 140.949 889.544 139.338 891.606C139.75 889.132 140.162 886.621 140.462 884.11C141.362 876.801 142.074 869.381 142.786 861.997C143.011 859.711 143.236 857.462 143.498 855.213C144.435 855.551 155.641 859.748 161.151 859.336C163.795 859.331 166.406 858.749 168.802 857.629C171.197 856.509 173.319 854.878 175.018 852.852C175.723 851.852 176.209 850.714 176.444 849.513C176.679 848.312 176.657 847.075 176.381 845.883C176.105 844.691 175.581 843.57 174.842 842.595C174.104 841.619 173.167 840.81 172.095 840.222C165.573 836.848 153.842 843.07 149.157 847.717C148.82 848.092 144.547 853.414 143.535 854.839C144.06 849.854 144.622 844.906 145.372 839.847C146.462 833.333 147.977 826.898 149.907 820.582C155.541 822.824 161.478 824.213 167.522 824.705C170.169 824.696 172.783 824.107 175.178 822.981C177.574 821.854 179.694 820.217 181.39 818.184C182.094 817.183 182.58 816.046 182.815 814.845C183.05 813.644 183.029 812.407 182.753 811.215C182.477 810.022 181.952 808.902 181.214 807.926C180.475 806.951 179.539 806.142 178.466 805.553C171.907 802.18 160.176 808.402 155.529 813.049C155.154 813.424 150.582 819.158 149.794 820.245C149.794 819.87 149.794 819.495 150.094 819.121C152.122 812.772 154.706 806.614 157.815 800.718C159.464 797.458 161.263 794.422 163.062 791.498C168.335 794.339 174.009 796.361 179.89 797.495C182.522 797.771 185.182 797.472 187.687 796.617C190.192 795.763 192.48 794.375 194.395 792.548C195.204 791.629 195.811 790.551 196.176 789.383C196.541 788.215 196.657 786.983 196.516 785.768C196.374 784.552 195.979 783.379 195.355 782.326C194.732 781.273 193.894 780.363 192.896 779.655C186.749 775.57 174.381 780.479 169.246 784.565L164.524 789.287L166.997 785.539C170.108 780.892 173.219 776.844 175.993 773.283C177.567 771.259 179.066 769.535 180.49 767.811C186.43 767.86 192.343 767.013 198.03 765.3C200.513 764.316 202.75 762.799 204.583 760.857C206.415 758.914 207.799 756.592 208.637 754.056C208.926 752.871 208.964 751.638 208.748 750.437C208.531 749.236 208.065 748.093 207.38 747.083C206.695 746.073 205.806 745.218 204.77 744.573C203.734 743.928 202.575 743.507 201.366 743.337ZM120.261 940.067C115.838 950.261 111.79 958.581 109.017 964.353L107.405 967.501H106.918C106.918 966.377 106.581 965.14 106.393 963.754C105.531 957.27 104.107 948.012 101.933 937.031C101.259 933.545 100.434 929.835 99.5721 926.049C103.022 924.674 106.389 923.097 109.654 921.327C114.089 925.142 119.034 928.321 124.346 930.772C122.884 933.995 121.572 937.143 120.261 940.067Z" fill="#263238"/>
<path d="M162.762 790.186C162.762 790.186 165.123 781.604 165.198 781.041C166.098 774.52 164.036 761.402 157.402 758.217C156.285 757.714 155.075 757.452 153.85 757.448C152.625 757.444 151.413 757.698 150.293 758.193C149.172 758.687 148.168 759.412 147.346 760.321C146.524 761.229 145.903 762.3 145.522 763.464C144.931 766.042 144.907 768.717 145.45 771.305C145.994 773.893 147.092 776.333 148.67 778.455C151.818 783.478 162.762 790.186 162.762 790.186Z" fill="#263238"/>
<path d="M875.582 925.037L904.479 1130.57C904.544 1131.05 904.709 1131.51 904.963 1131.92C905.217 1132.33 905.554 1132.69 905.954 1132.96C906.353 1133.23 906.805 1133.42 907.281 1133.5C907.756 1133.59 908.244 1133.57 908.714 1133.46C909.541 1133.27 910.269 1132.79 910.76 1132.09C911.251 1131.4 911.47 1130.55 911.375 1129.71L890.986 921.589L875.582 925.037Z" fill="#263238" stroke="#263238" stroke-linecap="round" stroke-linejoin="round"/>
<path d="M710.485 925.037L681.589 1130.57C681.524 1131.05 681.359 1131.51 681.105 1131.92C680.851 1132.33 680.513 1132.69 680.114 1132.96C679.714 1133.23 679.262 1133.42 678.787 1133.5C678.311 1133.59 677.823 1133.57 677.354 1133.46C676.527 1133.27 675.798 1132.79 675.307 1132.09C674.817 1131.4 674.598 1130.55 674.693 1129.71L695.081 921.589L710.485 925.037Z" fill="#263238" stroke="#263238" stroke-linecap="round" stroke-linejoin="round"/>
<path d="M699.617 946.026L689.722 709.906C689.58 706.573 690.114 703.247 691.292 700.126C692.469 697.005 694.265 694.155 696.572 691.746C698.88 689.337 701.65 687.42 704.717 686.109C707.785 684.799 711.085 684.122 714.421 684.12H879.78C883.188 684.126 886.558 684.835 889.679 686.202C892.8 687.569 895.606 689.566 897.921 692.067C900.235 694.568 902.009 697.52 903.131 700.738C904.253 703.955 904.699 707.37 904.441 710.768L886.114 945.876L699.617 946.026Z" fill="#263238" stroke="#263238" stroke-linecap="round" stroke-linejoin="round"/>
<path d="M901.818 894.305H682.376V946.026H901.818V894.305Z" fill="#1FBD59" stroke="#263238" stroke-linecap="round" stroke-linejoin="round"/>
<path d="M699.616 946.026H683.013L671.395 848.842C671.395 846.989 671.76 845.153 672.471 843.441C673.181 841.729 674.223 840.173 675.535 838.864C676.848 837.555 678.406 836.518 680.12 835.812C681.834 835.106 683.67 834.745 685.524 834.75C689.262 834.75 692.846 836.235 695.489 838.878C698.132 841.52 699.616 845.105 699.616 848.842V946.026Z" fill="#263238" stroke="#263238" stroke-linecap="round" stroke-linejoin="round"/>
<path d="M886.114 946.026H902.717L914.486 848.842C914.486 846.989 914.12 845.153 913.409 843.441C912.699 841.729 911.658 840.173 910.345 838.864C909.032 837.555 907.474 836.518 905.76 835.812C904.046 835.106 902.21 834.745 900.356 834.75C898.502 834.745 896.666 835.106 894.952 835.812C893.237 836.518 891.68 837.555 890.367 838.864C889.054 840.173 888.013 841.729 887.302 843.441C886.592 845.153 886.226 846.989 886.226 848.842L886.114 946.026Z" fill="#263238" stroke="#263238" stroke-linecap="round" stroke-linejoin="round"/>
<path d="M721.542 763.239L729.375 843.183H853.207L861.04 763.239H721.542Z" fill="white" stroke="#263238" stroke-linecap="round" stroke-linejoin="round"/>
<path d="M772.064 632.323L705.988 669.39L670.195 778.643H928.241C928.241 778.643 887.013 672.464 878.843 666.917C870.672 661.37 807.257 631.724 807.257 631.724L772.064 632.323Z" fill="white" stroke="#263238" stroke-linecap="round" stroke-linejoin="round"/>
<path d="M820.037 595.294C820.037 595.294 826.859 590.346 828.095 595.294C829.332 600.241 828.095 610.735 823.748 612.572C822.464 613.091 821.049 613.194 819.703 612.864C818.358 612.534 817.15 611.789 816.252 610.735L819.325 597.767L820.037 595.294Z" fill="white" stroke="#263238" stroke-linecap="round" stroke-linejoin="round"/>
<path d="M759.546 595.294C759.546 595.294 752.762 590.346 751.525 595.294C750.288 600.241 751.525 610.735 755.835 612.572C757.12 613.085 758.534 613.185 759.878 612.856C761.222 612.526 762.429 611.785 763.331 610.735L760.258 597.767L759.546 595.294Z" fill="white" stroke="#263238" stroke-linecap="round" stroke-linejoin="round"/>
<path d="M769.44 623.066C766.474 625.323 764.138 628.304 762.657 631.724C761.42 636.034 757.072 671.227 757.072 671.227C757.072 671.227 780.534 655.786 787.318 654.549C794.102 653.312 827.459 673.701 827.459 673.701C827.459 673.701 819.438 633.561 813.254 624.978C807.07 616.395 779.935 613.172 769.44 623.066Z" fill="white" stroke="#263238" stroke-linecap="round" stroke-linejoin="round"/>
<path d="M773.151 637.309C773.151 637.309 789.792 693.528 791.029 687.306C792.265 681.084 807.107 639.145 807.107 639.145C807.107 639.145 779.297 641.581 773.151 637.309Z" fill="white" stroke="#263238" stroke-linecap="round" stroke-linejoin="round"/>
<path d="M762.02 602.078C763.703 611.676 765.969 621.164 768.803 630.487C771.914 638.508 783.008 655.186 791.666 653.312C800.323 651.438 814.491 633.561 816.365 626.777C818.671 613.139 820.111 599.369 820.675 585.549C820.675 579.403 814.491 570.108 795.376 575.692C776.262 581.277 762.657 589.747 762.02 602.078Z" fill="white" stroke="#263238" stroke-linecap="round" stroke-linejoin="round"/>
<path d="M808.944 581.689C801.169 588.642 792.915 595.042 784.245 600.841C768.803 611.335 755.236 607.025 755.836 603.914C756.555 601.295 757.6 598.777 758.946 596.418C758.946 596.418 753.362 598.255 752.163 587.76C750.963 577.266 748.415 553.804 760.183 544.547C771.952 535.289 798.45 531.579 810.181 535.289C821.912 539 826.859 556.278 826.859 564.298C826.525 572.43 825.75 580.538 824.535 588.585C824.535 588.585 827.009 592.333 820.188 595.369C813.366 598.405 808.457 595.369 809.693 589.822C810.129 588.487 810.288 587.077 810.159 585.678C810.03 584.279 809.616 582.922 808.944 581.689Z" fill="#263238" stroke="#263238" stroke-linecap="round" stroke-linejoin="round"/>
<path d="M681.139 748.997C681.139 748.997 688.635 745.924 701.528 750.871C714.421 755.818 740.431 763.202 744.104 763.202C747.777 763.202 768.803 765.076 768.803 765.076L769.44 778.643C769.44 778.643 675.742 780.517 670.045 778.643C664.348 776.769 666.335 758.892 681.139 748.997Z" fill="white" stroke="#263238" stroke-linecap="round" stroke-linejoin="round"/>
<path d="M747.065 771.035C747.065 771.035 763.519 756.83 768.541 753.644C773.563 750.459 787.768 772.871 788.217 774.708C788.667 776.544 784.47 777.444 784.47 777.444L771.202 774.708C768.916 774.221 766.629 776.507 760.67 776.507H744.179" fill="white"/>
<path d="M747.065 771.035C747.065 771.035 763.519 756.83 768.541 753.644C773.563 750.459 787.768 772.871 788.217 774.708C788.667 776.544 784.47 777.444 784.47 777.444L771.202 774.708C768.916 774.221 766.629 776.507 760.67 776.507H744.179" stroke="#263238" stroke-linecap="round" stroke-linejoin="round"/>
<path d="M919.658 748.997C919.658 748.997 912.162 745.924 899.269 750.871C886.376 755.818 860.403 763.202 856.692 763.202C852.982 763.202 831.994 765.076 831.994 765.076L831.356 778.643C831.356 778.643 925.055 780.517 930.789 778.643C936.524 776.769 934.462 758.892 919.658 748.997Z" fill="white" stroke="#263238" stroke-linecap="round" stroke-linejoin="round"/>
<path d="M848.185 771.035C848.185 771.035 831.731 756.83 826.709 753.644C821.687 750.459 807.482 772.871 807.032 774.708C806.583 776.544 810.78 777.444 810.78 777.444L824.048 774.708C826.334 774.221 828.658 776.507 834.58 776.507H851.071" fill="white"/>
<path d="M848.185 771.035C848.185 771.035 831.731 756.83 826.709 753.644C821.687 750.459 807.482 772.871 807.032 774.708C806.583 776.544 810.78 777.444 810.78 777.444L824.048 774.708C826.334 774.221 828.658 776.507 834.58 776.507H851.071" stroke="#263238" stroke-linecap="round" stroke-linejoin="round"/>
<path d="M848.484 843.183H729.375V894.904H848.484V843.183Z" fill="white" stroke="#263238" stroke-linecap="round" stroke-linejoin="round"/>
<path d="M740.356 840.071C740.356 840.071 774.838 849.479 781.097 874.552" stroke="#263238" stroke-linecap="round" stroke-linejoin="round"/>
<path d="M840.651 843.182C840.651 843.182 812.467 841.608 803.172 872.978" stroke="#263238" stroke-linecap="round" stroke-linejoin="round"/>
<path d="M753.661 872.904C754.38 863.717 751.69 854.588 746.103 847.259C740.517 839.931 732.427 834.917 723.378 833.176C717.459 832.069 711.343 832.828 705.875 835.35C682.376 846.331 705.313 1102.8 705.313 1102.8H724.053C724.053 1102.8 748.714 951.123 753.661 872.904Z" fill="white" stroke="#263238" stroke-linecap="round" stroke-linejoin="round"/>
<path d="M703.252 1087.51L697.705 1111.31L679.003 1123.23H726.602L727.389 1087.51H703.252Z" fill="white" stroke="#263238" stroke-linecap="round" stroke-linejoin="round"/>
<path d="M697.705 1111.31C697.705 1111.31 709.586 1103.81 718.094 1111.31Z" fill="white"/>
<path d="M697.705 1111.31C697.705 1111.31 709.586 1103.81 718.094 1111.31" stroke="#263238" stroke-linecap="round" stroke-linejoin="round"/>
<path d="M832.031 872.903C831.312 863.717 834.003 854.587 839.589 847.259C845.175 839.93 853.265 834.916 862.314 833.175C868.233 832.071 874.348 832.83 879.817 835.349C903.317 846.33 880.379 1102.8 880.379 1102.8H861.639C861.639 1102.8 837.016 951.123 832.031 872.903Z" fill="white" stroke="#263238" stroke-linecap="round" stroke-linejoin="round"/>
<path d="M882.516 1087.51L888.063 1111.31L906.765 1123.23H859.166L858.341 1087.51H882.516Z" fill="white" stroke="#263238" stroke-linecap="round" stroke-linejoin="round"/>
<path d="M888.25 1111.31C888.25 1111.31 876.332 1103.81 867.824 1111.31Z" fill="white"/>
<path d="M888.25 1111.31C888.25 1111.31 876.332 1103.81 867.824 1111.31" stroke="#263238" stroke-linecap="round" stroke-linejoin="round"/>
<path d="M1150.87 776.957H1018.38C1017.88 776.956 1017.39 776.811 1016.97 776.538C1016.55 776.265 1016.22 775.877 1016.02 775.42L979.362 691.766C979.15 691.369 979.047 690.923 979.063 690.474C979.079 690.024 979.213 689.586 979.453 689.206C979.693 688.825 980.03 688.515 980.428 688.306C980.827 688.097 981.274 687.998 981.723 688.018H1114.18C1114.68 688.014 1115.17 688.157 1115.59 688.431C1116.01 688.704 1116.34 689.095 1116.54 689.555L1153.23 773.171C1153.44 773.571 1153.54 774.018 1153.52 774.469C1153.51 774.919 1153.37 775.358 1153.13 775.74C1152.89 776.123 1152.56 776.436 1152.16 776.65C1151.76 776.863 1151.32 776.969 1150.87 776.957Z" fill="white" stroke="#263238" stroke-linecap="round" stroke-linejoin="round"/>
<path d="M1138.46 770.435H1025.42C1025 770.427 1024.58 770.3 1024.23 770.068C1023.87 769.836 1023.58 769.509 1023.4 769.123L992.105 697.913C991.953 697.578 991.888 697.21 991.917 696.844C991.945 696.477 992.066 696.124 992.269 695.817C992.471 695.51 992.747 695.259 993.073 695.088C993.398 694.917 993.762 694.832 994.129 694.839H1107.17C1107.6 694.839 1108.01 694.962 1108.37 695.195C1108.73 695.428 1109.02 695.76 1109.19 696.151L1140.49 767.362C1140.63 767.697 1140.68 768.062 1140.65 768.425C1140.62 768.787 1140.5 769.136 1140.3 769.44C1140.1 769.744 1139.82 769.994 1139.5 770.168C1139.18 770.341 1138.83 770.433 1138.46 770.435Z" fill="#1FBD59" stroke="#263238" stroke-linecap="round" stroke-linejoin="round"/>
<path d="M1016.54 777.894H1215.59V771.372H1016.54V777.894Z" fill="white" stroke="#263238" stroke-linecap="round" stroke-linejoin="round"/>
<path d="M1016.58 777.894H1113.05V771.372H1016.58V777.894Z" fill="white" stroke="#263238" stroke-linecap="round" stroke-linejoin="round"/>
<path d="M1088.39 646.266C1073.1 646.217 1058.46 640.125 1047.64 629.319C1036.83 618.514 1030.73 603.871 1030.67 588.585C1030.65 580.981 1032.12 573.446 1035.01 566.411C1037.89 559.377 1042.14 552.979 1047.5 547.585C1052.86 542.19 1059.23 537.904 1066.24 534.972C1073.26 532.039 1080.79 530.517 1088.39 530.492C1096.01 530.497 1103.55 532.005 1110.58 534.929C1117.61 537.853 1124 542.135 1129.38 547.532C1134.75 552.928 1139.01 559.332 1141.91 566.377C1144.8 573.421 1146.28 580.968 1146.26 588.585C1146.21 603.9 1140.09 618.571 1129.24 629.383C1118.4 640.195 1103.7 646.266 1088.39 646.266Z" fill="#263238" stroke="#263238" stroke-linecap="round" stroke-linejoin="round"/>
<path d="M1088.39 562.349C1096.86 562.349 1097.87 562.349 1101.21 562.537C1103.23 562.563 1105.24 562.944 1107.13 563.661C1108.54 564.147 1109.83 564.956 1110.88 566.022C1111.95 567.066 1112.76 568.351 1113.24 569.77C1113.95 571.651 1114.33 573.642 1114.36 575.654C1114.36 579.028 1114.36 580.002 1114.36 588.51C1114.36 597.018 1114.36 597.955 1114.36 601.328C1114.33 603.34 1113.95 605.331 1113.24 607.212C1112.76 608.631 1111.95 609.916 1110.88 610.96C1109.82 612.024 1108.54 612.843 1107.13 613.359C1105.23 614.038 1103.23 614.405 1101.21 614.446C1097.87 614.446 1096.86 614.446 1088.39 614.446C1079.92 614.446 1078.91 614.446 1075.57 614.446C1073.56 614.401 1071.58 614.034 1069.69 613.359C1068.27 612.863 1066.98 612.041 1065.94 610.96C1064.87 609.908 1064.05 608.627 1063.54 607.212C1062.87 605.321 1062.5 603.335 1062.45 601.328C1062.45 597.955 1062.27 596.98 1062.27 588.51C1062.27 580.039 1062.27 579.028 1062.45 575.654C1062.5 573.647 1062.87 571.661 1063.54 569.77C1064.05 568.355 1064.87 567.074 1065.94 566.022C1066.98 564.94 1068.26 564.129 1069.69 563.661C1071.57 562.946 1073.56 562.566 1075.57 562.537C1078.91 562.537 1079.92 562.349 1088.39 562.349ZM1088.39 556.652C1079.77 556.652 1078.72 556.652 1075.31 556.84C1072.68 556.886 1070.09 557.381 1067.63 558.301C1065.52 559.125 1063.61 560.376 1062.01 561.975C1060.41 563.575 1059.15 565.489 1058.33 567.596C1057.43 569.996 1056.94 572.53 1056.87 575.092C1056.87 578.503 1056.68 579.59 1056.68 588.21C1056.68 596.83 1056.68 597.88 1056.87 601.29C1056.92 603.916 1057.41 606.514 1058.33 608.974C1059.15 611.081 1060.41 612.995 1062.01 614.594C1063.61 616.194 1065.52 617.445 1067.63 618.268C1070.09 619.189 1072.68 619.683 1075.31 619.73C1078.72 619.73 1079.77 619.73 1088.39 619.73C1097.01 619.73 1098.1 619.73 1101.47 619.73C1104.15 619.805 1106.83 619.412 1109.38 618.568C1111.49 617.745 1113.4 616.494 1115 614.894C1116.6 613.294 1117.85 611.381 1118.67 609.273C1119.58 606.809 1120.07 604.214 1120.13 601.59C1120.13 598.18 1120.32 597.093 1120.32 588.51C1120.32 579.927 1120.32 578.803 1120.13 575.392C1120.05 572.832 1119.56 570.301 1118.67 567.896C1117.85 565.789 1116.6 563.875 1115 562.275C1113.4 560.676 1111.49 559.425 1109.38 558.601C1106.91 557.677 1104.3 557.183 1101.66 557.14C1098.28 557.14 1097.2 556.952 1088.58 556.952" fill="#1FBD59"/>
<path d="M1088.39 572.095C1085.16 572.095 1082.01 573.051 1079.33 574.842C1076.65 576.634 1074.56 579.18 1073.33 582.159C1072.09 585.138 1071.77 588.416 1072.4 591.579C1073.03 594.742 1074.58 597.646 1076.86 599.927C1079.14 602.207 1082.05 603.759 1085.21 604.389C1088.37 605.018 1091.65 604.695 1094.63 603.461C1097.61 602.227 1100.15 600.137 1101.95 597.456C1103.74 594.775 1104.69 591.623 1104.69 588.398C1104.7 586.256 1104.28 584.134 1103.46 582.153C1102.64 580.173 1101.44 578.374 1099.93 576.859C1098.41 575.344 1096.61 574.143 1094.63 573.326C1092.65 572.508 1090.53 572.09 1088.39 572.095ZM1088.39 598.967C1086.29 598.967 1084.24 598.344 1082.49 597.177C1080.75 596.01 1079.39 594.351 1078.59 592.411C1077.79 590.471 1077.58 588.336 1077.99 586.278C1078.4 584.219 1079.42 582.329 1080.9 580.847C1082.39 579.366 1084.28 578.358 1086.34 577.953C1088.4 577.548 1090.54 577.764 1092.47 578.572C1094.41 579.381 1096.07 580.746 1097.23 582.495C1098.39 584.245 1099 586.299 1099 588.398C1099 589.789 1098.72 591.167 1098.19 592.452C1097.65 593.736 1096.87 594.903 1095.89 595.885C1094.9 596.867 1093.73 597.645 1092.45 598.174C1091.16 598.703 1089.78 598.972 1088.39 598.967Z" fill="#1FBD59"/>
<path d="M1109.15 571.457C1109.15 572.198 1108.93 572.923 1108.52 573.539C1108.11 574.156 1107.52 574.636 1106.84 574.92C1106.15 575.203 1105.4 575.277 1104.67 575.133C1103.95 574.988 1103.28 574.631 1102.75 574.107C1102.23 573.583 1101.87 572.915 1101.73 572.188C1101.58 571.461 1101.66 570.708 1101.94 570.023C1102.23 569.338 1102.71 568.752 1103.32 568.341C1103.94 567.929 1104.66 567.709 1105.41 567.709C1106.4 567.709 1107.35 568.104 1108.06 568.807C1108.76 569.51 1109.15 570.463 1109.15 571.457Z" fill="#1FBD59"/>
<path d="M1074.75 645.067L1085.39 716.615L1097.57 642.031" fill="#263238"/>
<path d="M1074.75 645.067L1085.39 716.615L1097.57 642.031" stroke="#263238" stroke-linecap="round" stroke-linejoin="round"/>
<path d="M725.065 688.28H859.99C862.475 688.28 864.859 689.267 866.616 691.025C868.373 692.782 869.36 695.165 869.36 697.65V779.543H715.845V697.65C715.844 695.191 716.811 692.83 718.536 691.077C720.261 689.324 722.606 688.32 725.065 688.28Z" fill="white" stroke="#263238" stroke-linecap="round" stroke-linejoin="round"/>
<path d="M901.63 582.551C886.311 582.551 871.617 576.481 860.764 565.67C849.911 554.859 843.784 540.189 843.724 524.87C843.734 509.519 849.839 494.8 860.698 483.949C871.556 473.098 886.279 467.002 901.63 467.002C916.971 467.012 931.68 473.113 942.524 483.964C953.369 494.816 959.46 509.529 959.46 524.87C959.401 540.176 953.284 554.835 942.447 565.644C931.611 576.453 916.935 582.531 901.63 582.551Z" fill="#263238" stroke="#263238" stroke-linecap="round" stroke-linejoin="round"/>
<path d="M892.448 559.651H906.54V524.383H916.36L917.409 512.577H906.54V505.831C906.54 503.057 907.102 502.083 909.801 502.083H917.296V489.827H907.552C897.058 489.827 892.335 494.437 892.335 503.282V512.727H884.839V524.683H892.335L892.448 559.651Z" fill="#1FBD59"/>
<path d="M886.001 579.627L858.604 666.354L905.79 576.554" fill="#263238"/>
<path d="M886.001 579.627L858.604 666.354L905.79 576.554" stroke="#263238" stroke-linecap="round" stroke-linejoin="round"/>
<path d="M496.815 776.957H629.305C629.805 776.956 630.294 776.811 630.713 776.538C631.132 776.265 631.463 775.877 631.666 775.42L668.358 691.766C668.559 691.368 668.653 690.925 668.631 690.48C668.61 690.034 668.474 689.602 668.236 689.225C667.999 688.848 667.668 688.539 667.275 688.327C666.883 688.116 666.443 688.009 665.997 688.018H533.508C533.007 688.014 532.515 688.157 532.095 688.431C531.675 688.704 531.345 689.095 531.146 689.555L494.454 773.171C494.245 773.571 494.144 774.018 494.161 774.468C494.177 774.919 494.312 775.358 494.551 775.74C494.789 776.123 495.124 776.436 495.521 776.65C495.918 776.863 496.365 776.969 496.815 776.957Z" fill="white" stroke="#263238" stroke-linecap="round" stroke-linejoin="round"/>
<path d="M509.221 770.435H622.146C622.575 770.441 622.997 770.319 623.357 770.086C623.717 769.852 624 769.517 624.17 769.123L655.465 697.913C655.616 697.581 655.681 697.217 655.654 696.853C655.627 696.49 655.51 696.139 655.312 695.833C655.114 695.527 654.843 695.276 654.522 695.102C654.202 694.928 653.843 694.838 653.479 694.839H540.516C540.091 694.831 539.674 694.952 539.319 695.186C538.964 695.421 538.689 695.757 538.53 696.151L507.234 767.362C507.084 767.694 507.019 768.058 507.045 768.421C507.072 768.784 507.19 769.135 507.388 769.441C507.585 769.747 507.857 769.999 508.177 770.172C508.498 770.346 508.856 770.436 509.221 770.435Z" fill="#1FBD59" stroke="#263238" stroke-linecap="round" stroke-linejoin="round"/>
<path d="M631.179 771.409H432.126V777.931H631.179V771.409Z" fill="white" stroke="#263238" stroke-linecap="round" stroke-linejoin="round"/>
<path d="M631.141 771.409H534.669V777.931H631.141V771.409Z" fill="white" stroke="#263238" stroke-linecap="round" stroke-linejoin="round"/>
<path d="M552.772 646.266C537.457 646.266 522.766 640.195 511.919 629.383C501.072 618.571 494.953 603.9 494.904 588.585C494.904 573.234 500.999 558.511 511.851 547.653C522.702 536.795 537.421 530.69 552.772 530.68C568.123 530.69 582.842 536.795 593.693 547.653C604.544 558.511 610.64 573.234 610.64 588.585C610.59 603.9 604.472 618.571 593.625 629.383C582.778 640.195 568.087 646.266 552.772 646.266Z" fill="#263238" stroke="#263238" stroke-linecap="round" stroke-linejoin="round"/>
<path d="M521.964 607.737C527.515 611.256 533.925 613.186 540.496 613.319C547.067 613.452 553.549 611.782 559.239 608.491C564.928 605.201 569.607 600.414 572.769 594.652C575.93 588.89 577.452 582.371 577.171 575.805C579.636 574.002 581.766 571.782 583.467 569.246C581.157 570.269 578.706 570.939 576.197 571.232C578.838 569.667 580.812 567.186 581.743 564.261C579.26 565.718 576.548 566.744 573.723 567.297C571.813 565.277 569.291 563.941 566.546 563.496C563.802 563.05 560.987 563.52 558.536 564.833C556.085 566.146 554.134 568.229 552.984 570.76C551.834 573.292 551.549 576.131 552.172 578.841C547.117 578.612 542.167 577.319 537.646 575.046C533.125 572.772 529.135 569.57 525.937 565.648C524.32 568.431 523.827 571.727 524.559 574.862C525.29 577.996 527.191 580.733 529.872 582.514C527.86 582.468 525.891 581.927 524.138 580.94C524.089 583.886 525.075 586.755 526.924 589.05C528.773 591.344 531.368 592.917 534.257 593.495C532.4 594.005 530.451 594.082 528.56 593.72C529.369 596.233 530.941 598.431 533.057 600.009C535.172 601.588 537.727 602.468 540.366 602.528C535.152 606.609 528.544 608.48 521.964 607.737Z" fill="#1FBD59"/>
<path d="M552.772 646.266L566.377 712.043L569.413 638.958L552.772 646.266Z" fill="#263238" stroke="#263238" stroke-linecap="round" stroke-linejoin="round"/>
<path d="M1074.49 805.141L1101.88 1129.41C1102.06 1130.26 1102.55 1131.01 1103.25 1131.52C1103.95 1132.02 1104.81 1132.25 1105.67 1132.16C1106.53 1132.07 1107.32 1131.66 1107.9 1131.01C1108.47 1130.36 1108.79 1129.53 1108.78 1128.66L1090.04 805.141H1074.49Z" fill="#263238" stroke="#263238" stroke-linecap="round" stroke-linejoin="round"/>
<path d="M1257.57 805.141L1284.89 1130.5C1284.96 1130.98 1285.13 1131.45 1285.38 1131.87C1285.64 1132.28 1285.98 1132.64 1286.38 1132.92C1286.78 1133.2 1287.24 1133.39 1287.72 1133.48C1288.2 1133.58 1288.69 1133.57 1289.17 1133.46C1289.99 1133.26 1290.71 1132.77 1291.19 1132.08C1291.67 1131.39 1291.89 1130.55 1291.79 1129.71L1273.05 805.141H1257.57Z" fill="#263238" stroke="#263238" stroke-linecap="round" stroke-linejoin="round"/>
<path d="M502.213 805.141L487.858 1126.6C487.822 1127.43 488.065 1128.25 488.546 1128.93C489.028 1129.61 489.722 1130.11 490.519 1130.35C490.991 1130.46 491.482 1130.48 491.96 1130.39C492.438 1130.3 492.891 1130.11 493.291 1129.84C493.691 1129.56 494.028 1129.2 494.28 1128.79C494.532 1128.37 494.694 1127.91 494.754 1127.43L517.766 805.104L502.213 805.141Z" fill="#263238" stroke="#263238" stroke-linecap="round" stroke-linejoin="round"/>
<path d="M333.555 805.141L319.201 1125.51C319.167 1126.35 319.415 1127.17 319.904 1127.85C320.393 1128.53 321.096 1129.03 321.899 1129.26C322.369 1129.38 322.858 1129.39 323.334 1129.3C323.809 1129.21 324.261 1129.02 324.658 1128.75C325.055 1128.47 325.388 1128.11 325.637 1127.7C325.885 1127.28 326.042 1126.82 326.097 1126.34L349.072 805.104L333.555 805.141Z" fill="#263238" stroke="#263238" stroke-linecap="round" stroke-linejoin="round"/>
<path d="M1293.14 787.188H323.249V815.036H1293.14V787.188Z" fill="#1FBD59" stroke="#263238" stroke-linecap="round" stroke-linejoin="round"/>
<path d="M1293.14 787.188H323.249V796.746H1293.14V787.188Z" fill="#263238" stroke="#263238" stroke-linecap="round" stroke-linejoin="round"/>
<path d="M1293.14 787.188H1050.46V815.036H1293.14V787.188Z" fill="#263238" stroke="#263238" stroke-linecap="round" stroke-linejoin="round"/>
<path d="M1301.83 777.894H314.628V788.5H1301.83V777.894Z" fill="#1FBD59" stroke="#263238" stroke-linecap="round" stroke-linejoin="round"/>
<path d="M1301.8 777.894H1060.58V788.5H1301.8V777.894Z" fill="#263238" stroke="#263238" stroke-linecap="round" stroke-linejoin="round"/>
<path d="M979.1 726.172H943.982V778.043H979.1V726.172Z" fill="white" stroke="#263238" stroke-linecap="round" stroke-linejoin="round"/>
<path d="M977.526 770.96H973.778C973.013 770.96 972.278 770.656 971.737 770.115C971.196 769.573 970.892 768.839 970.892 768.074C970.892 767.309 971.196 766.575 971.737 766.033C972.278 765.492 973.013 765.188 973.778 765.188H977.526C978.977 765.188 980.369 764.612 981.395 763.585C982.421 762.559 982.998 761.167 982.998 759.716V747.123C982.998 745.672 982.421 744.28 981.395 743.254C980.369 742.228 978.977 741.651 977.526 741.651H972.803C972.09 741.57 971.431 741.229 970.953 740.693C970.475 740.158 970.21 739.465 970.21 738.746C970.21 738.028 970.475 737.335 970.953 736.8C971.431 736.264 972.09 735.923 972.803 735.842H977.526C980.508 735.842 983.368 737.026 985.476 739.135C987.585 741.244 988.77 744.104 988.77 747.086V759.679C988.775 761.158 988.487 762.624 987.925 763.993C987.362 765.361 986.534 766.605 985.49 767.654C984.445 768.702 983.204 769.533 981.837 770.101C980.471 770.668 979.006 770.96 977.526 770.96Z" fill="white" stroke="#263238" stroke-linecap="round" stroke-linejoin="round"/>
<path d="M1211.4 601.74C1211.4 601.74 1226.39 635.846 1235.91 650.725C1245.43 665.605 1256.9 667.366 1262.14 661.969L1277.14 646.978L1295.5 663.581L1311.28 639.969C1303.99 630.457 1297.27 620.52 1291.15 610.21C1285.01 598.966 1269.27 571.719 1241.27 576.104C1213.27 580.489 1209.67 593.869 1211.4 601.74Z" fill="white" stroke="#263238" stroke-linecap="round" stroke-linejoin="round"/>
<path d="M1237.67 585.999C1237.67 585.999 1212.3 615.72 1193.89 610.473C1175.49 605.225 1181.68 569.245 1215.78 549.231C1249.89 529.217 1284.03 534.24 1296.29 556.24C1308.54 578.24 1304.16 608.711 1301.53 618.343C1298.91 627.975 1292.76 635.846 1281.41 629.587C1271.9 623.596 1263.1 616.556 1255.17 608.599C1255.17 608.599 1254.27 626.064 1249.89 619.093C1247 613.661 1245.22 607.713 1244.64 601.59C1244.64 601.59 1228.9 601.74 1237.67 585.999Z" fill="#263238" stroke="#263238" stroke-linecap="round" stroke-linejoin="round"/>
<path d="M1256.04 620.967C1256.04 620.967 1252.55 600.841 1261.28 603.464C1270.01 606.088 1269.15 617.482 1264.77 625.352" fill="white"/>
<path d="M1256.04 620.967C1256.04 620.967 1252.55 600.841 1261.28 603.464C1270.01 606.088 1269.15 617.482 1264.77 625.352" stroke="#263238" stroke-linecap="round" stroke-linejoin="round"/>
<path d="M1193.07 908.134L1233.06 1095.53L1254.31 1096.8L1238.05 905.66L1193.07 908.134Z" fill="white" stroke="#263238" stroke-linecap="round" stroke-linejoin="round"/>
<path d="M1233.06 1095.53L1189.32 1124.28H1258.06L1254.31 1096.8L1233.06 1095.53Z" fill="white" stroke="#263238" stroke-linecap="round" stroke-linejoin="round"/>
<path d="M1301.53 823.955L1293.66 842.32C1293.66 842.32 1232.42 853.564 1199.97 860.723C1167.51 867.881 1130.85 880.849 1130.85 888.72C1130.85 896.59 1158.21 1096.54 1158.21 1096.54L1174.82 1097.4L1178.08 915.817C1178.08 915.817 1278.71 908.846 1306.71 907.947C1334.7 907.047 1357.45 911.47 1377.58 886.958C1397.71 862.447 1384.55 823.243 1384.55 823.243L1301.53 823.955Z" fill="white" stroke="#263238" stroke-linecap="round" stroke-linejoin="round"/>
<path d="M1158.29 1096.5L1155.48 1098.15L1101.77 1129.45H1176.84L1174.89 1097.4L1158.29 1096.5Z" fill="white" stroke="#263238" stroke-linecap="round" stroke-linejoin="round"/>
<path d="M1206 750.046C1201.22 749.027 1196.37 748.4 1191.5 748.172C1185.84 748.172 1173.88 762.639 1173.88 764.55C1173.88 766.462 1174.52 769.573 1177.63 767.699C1180.74 765.825 1188.31 760.765 1188.31 760.765L1219.83 770.21L1222.98 756.98L1206 750.046Z" fill="white" stroke="#263238" stroke-linecap="round" stroke-linejoin="round"/>
<path d="M1206 756.979C1206 756.979 1185.2 758.254 1180.81 758.853C1176.43 759.453 1174.52 764.55 1180.18 764.55C1185.84 764.55 1193.41 763.913 1193.41 763.913C1197.08 766.589 1201.46 768.127 1206 768.336C1214.17 768.935 1216.08 768.935 1216.08 768.935" fill="white"/>
<path d="M1206 756.979C1206 756.979 1185.2 758.254 1180.81 758.853C1176.43 759.453 1174.52 764.55 1180.18 764.55C1185.84 764.55 1193.41 763.913 1193.41 763.913C1197.08 766.589 1201.46 768.127 1206 768.336C1214.17 768.935 1216.08 768.935 1216.08 768.935" stroke="#263238" stroke-linecap="round" stroke-linejoin="round"/>
<path d="M1223.02 756.979L1219.87 770.21L1326.31 804.841L1328.82 773.995L1223.02 756.979Z" fill="white" stroke="#263238" stroke-linecap="round" stroke-linejoin="round"/>
<path d="M1323.39 641.056C1323.39 641.056 1291.04 676.061 1284.03 688.317C1277.02 700.573 1298.01 757.429 1299.77 774.07C1301.54 790.711 1306.78 801.167 1298.91 809.938C1291.04 818.708 1298.01 823.917 1302.4 827.441C1306.78 830.964 1344.41 845.805 1364.54 843.182C1384.66 840.558 1389.01 826.541 1390.77 804.691C1392.53 782.84 1390.77 705.82 1373.27 674.3C1355.77 642.78 1338.26 627.113 1323.39 641.056Z" fill="white" stroke="#263238" stroke-linecap="round" stroke-linejoin="round"/>
<path d="M1312.03 630.599L1276.16 677.861L1280.55 690.978C1280.55 690.978 1301.76 668.491 1310.53 663.281C1319.3 658.071 1342.99 637.045 1342.99 637.045C1342.99 637.045 1328.63 620.105 1312.03 630.599Z" fill="white" stroke="#263238" stroke-linecap="round" stroke-linejoin="round"/>
<path d="M1313.79 673.476C1313.79 673.476 1293.66 683.108 1283.17 697.088C1272.68 711.067 1230.7 781.978 1230.7 781.978L1137.94 765.338L1137.08 777.593C1137.08 777.593 1191.31 805.59 1216.68 811.7C1242.06 817.809 1258.7 826.691 1263.08 818.708C1267.47 810.725 1306.82 745.211 1306.82 745.211L1335.68 723.361" fill="white"/>
<path d="M1313.79 673.476C1313.79 673.476 1293.66 683.108 1283.17 697.088C1272.68 711.067 1230.7 781.978 1230.7 781.978L1137.94 765.338L1137.08 777.593C1137.08 777.593 1191.31 805.59 1216.68 811.7C1242.06 817.809 1258.7 826.691 1263.08 818.708C1267.47 810.725 1306.82 745.211 1306.82 745.211L1335.68 723.361" stroke="#263238" stroke-linecap="round" stroke-linejoin="round"/>
<path d="M1306.78 745.211L1340.89 734.717" stroke="#263238" stroke-linecap="round" stroke-linejoin="round"/>
<path d="M1137.9 765.338C1137.9 765.338 1117.81 755.705 1110.8 754.843C1103.79 753.981 1090.68 767.099 1091.54 771.484C1092.4 775.869 1105.56 767.961 1105.56 767.961C1105.56 767.961 1108.18 772.346 1118.67 775.832C1124.55 777.94 1130.87 778.546 1137.04 777.593L1137.9 765.338Z" fill="white" stroke="#263238" stroke-linecap="round" stroke-linejoin="round"/>
<path d="M1343.77 925.037L1314.84 1130.57C1314.78 1131.05 1314.61 1131.51 1314.36 1131.92C1314.1 1132.33 1313.76 1132.69 1313.37 1132.96C1312.97 1133.23 1312.51 1133.42 1312.04 1133.5C1311.56 1133.59 1311.07 1133.57 1310.61 1133.46C1309.79 1133.26 1309.07 1132.77 1308.58 1132.08C1308.1 1131.39 1307.89 1130.55 1307.98 1129.71L1328.33 921.589L1343.77 925.037Z" fill="#263238" stroke="#263238" stroke-linecap="round" stroke-linejoin="round"/>
<path d="M1426.83 926.724L1475.14 1128.59C1475.25 1129.05 1475.27 1129.54 1475.19 1130.01C1475.1 1130.49 1474.92 1130.94 1474.65 1131.34C1474.38 1131.73 1474.04 1132.07 1473.63 1132.33C1473.22 1132.58 1472.77 1132.75 1472.29 1132.82C1471.47 1132.92 1470.65 1132.72 1469.97 1132.27C1469.28 1131.82 1468.78 1131.14 1468.54 1130.35L1412.32 934.444L1426.83 926.724Z" fill="#263238" stroke="#263238" stroke-linecap="round" stroke-linejoin="round"/>
<path d="M1339.05 924.25L1369.82 1129.49C1369.9 1129.96 1369.87 1130.45 1369.74 1130.92C1369.62 1131.38 1369.4 1131.81 1369.09 1132.19C1368.79 1132.56 1368.41 1132.87 1367.98 1133.09C1367.55 1133.31 1367.08 1133.43 1366.6 1133.46C1365.74 1133.55 1364.88 1133.32 1364.19 1132.8C1363.49 1132.29 1363.02 1131.53 1362.85 1130.69L1323.83 930.659L1339.05 924.25Z" fill="#263238" stroke="#263238" stroke-linecap="round" stroke-linejoin="round"/>
<path d="M1230.17 925.037L1201.28 1130.57C1201.21 1131.05 1201.05 1131.51 1200.79 1131.92C1200.54 1132.33 1200.2 1132.69 1199.8 1132.96C1199.4 1133.23 1198.95 1133.42 1198.48 1133.5C1198 1133.59 1197.51 1133.57 1197.04 1133.46C1196.22 1133.27 1195.49 1132.79 1195 1132.09C1194.51 1131.4 1194.29 1130.55 1194.38 1129.71L1214.77 921.589L1230.17 925.037Z" fill="#263238" stroke="#263238" stroke-linecap="round" stroke-linejoin="round"/>
<path d="M1472.59 711.817L1437.4 940.666H1187.07C1187.07 940.666 1183.32 874.702 1194.57 851.39C1205.81 828.078 1341.83 878.075 1346.73 876.839C1350.48 875.939 1345.01 757.767 1338.34 711.592C1337.85 708.335 1338.08 705.012 1338.99 701.85C1339.91 698.687 1341.5 695.76 1343.65 693.269C1345.81 690.778 1348.47 688.781 1351.47 687.415C1354.47 686.05 1357.72 685.347 1361.01 685.357H1450.1C1453.4 685.376 1456.65 686.107 1459.64 687.5C1462.63 688.892 1465.28 690.914 1467.42 693.426C1469.55 695.939 1471.12 698.883 1472.01 702.057C1472.91 705.231 1473.1 708.56 1472.59 711.817Z" fill="#1FBD59" stroke="#263238" stroke-linecap="round" stroke-linejoin="round"/>
<path d="M1194.42 851.39C1205.48 828.078 1341.68 878.075 1346.59 876.838C1350.33 875.939 1344.86 757.766 1338.19 711.592C1337.61 708.386 1337.74 705.092 1338.58 701.944C1339.42 698.795 1340.94 695.87 1343.03 693.376C1345.13 690.881 1347.75 688.878 1350.7 687.51C1353.66 686.141 1356.88 685.441 1360.14 685.457C1363.4 685.474 1366.61 686.208 1369.55 687.607C1372.49 689.006 1375.09 691.035 1377.16 693.552C1379.23 696.068 1380.72 699.008 1381.52 702.165C1382.33 705.322 1382.43 708.617 1381.82 711.817L1346.59 940.666H1187.07C1187.07 940.666 1183.36 874.702 1194.42 851.39Z" fill="#263238" stroke="#263238" stroke-linecap="round" stroke-linejoin="round"/>
<path d="M364.963 658.746L343.263 674.488L325.535 658.746L355.106 631.124L364.963 658.746Z" fill="white" stroke="#263238" stroke-linecap="round" stroke-linejoin="round"/>
<path d="M475.565 863.272C452.29 859.524 357.43 875.827 357.43 875.827C357.43 875.827 349.184 907.085 366.387 904.461C383.59 901.838 443.595 902.437 443.595 902.437C443.595 902.437 405.066 992.201 395.434 1040.36C390.224 1066.6 375.607 1080.54 372.272 1091.75C368.936 1102.95 378.98 1098.45 389.062 1105.16C400.827 1112.57 414.306 1116.8 428.191 1117.46C440.522 1117.46 406.94 1094.97 406.94 1077.17C406.94 1059.36 447.68 999.809 467.694 966.377C496.741 917.879 477.776 948.987 484.372 931.259C486.792 928.031 488.655 924.421 489.882 920.577C497.04 897.303 498.839 866.87 475.565 863.272Z" fill="white" stroke="#263238" stroke-linecap="round" stroke-linejoin="round"/>
<path d="M394.685 1114.65C392.736 1108.42 380.817 1109.29 380.817 1109.29C377.594 1113.56 379.73 1122.1 379.73 1122.1H373.321C373.321 1122.1 373.321 1105.01 367.999 1099.62C362.677 1094.22 369.049 1094.29 369.049 1094.29L377.182 1096.36C385.127 1099.09 399.669 1105.91 401.019 1107.94C402.652 1110.31 404.665 1112.4 406.978 1114.12C410.726 1116.44 425.043 1116.93 428.791 1116.71C432.539 1116.48 432.314 1117.16 431.377 1118.81C430.155 1120.26 428.601 1121.4 426.847 1122.13C425.093 1122.86 423.189 1123.16 421.295 1123H400.644C398.082 1120.68 396.05 1117.83 394.685 1114.65Z" fill="#263238" stroke="#263238" stroke-linecap="round" stroke-linejoin="round"/>
<path d="M395.509 1103.1C395.509 1101.53 410.051 1087.62 410.051 1087.62C412.123 1088.13 414.058 1089.09 415.717 1090.43C417.375 1091.77 418.717 1093.46 419.646 1095.38L420.245 1100.18L405.253 1109.1C405.253 1109.1 395.734 1106.85 395.509 1103.1Z" fill="#263238" stroke="#263238" stroke-linecap="round" stroke-linejoin="round"/>
<path d="M405.366 834.15C405.366 834.15 490.407 827.628 498.278 837.485C506.148 847.342 544.527 1072.33 544.527 1072.33C544.527 1072.33 565.778 1108.57 569.376 1111.91C572.974 1115.24 578.746 1116.89 575.598 1118.54C572.449 1120.19 556.558 1120.45 552.848 1118.09C549.137 1115.73 536.657 1103.85 532.684 1101.9C528.711 1099.95 521.852 1101.9 519.903 1095.98C519.481 1092.44 520.203 1088.85 521.965 1085.75C523.684 1081.94 524.622 1077.82 524.725 1073.65C524.828 1069.47 524.093 1065.31 522.564 1061.42C516.717 1046.43 505.136 1008.47 495.579 996.36C480.775 977.621 461.061 917.092 463.047 886.546L386.627 893.292C375.795 894.267 390.562 840.071 405.366 834.15Z" fill="white" stroke="#263238" stroke-linecap="round" stroke-linejoin="round"/>
<path d="M541.341 1117.04C539.392 1110.86 527.474 1111.72 527.474 1111.72C524.251 1115.99 526.387 1124.54 526.387 1124.54H519.978C519.978 1124.54 519.978 1107.45 514.656 1102.05C509.334 1096.66 515.705 1096.73 515.705 1096.73L523.839 1098.79C531.784 1101.57 546.326 1108.39 547.675 1110.37C549.309 1112.75 551.322 1114.84 553.635 1116.56C557.383 1118.92 571.7 1119.37 575.448 1119.14C579.195 1118.92 578.971 1119.59 578.034 1121.24C576.815 1122.7 575.263 1123.85 573.509 1124.59C571.754 1125.33 569.849 1125.63 567.952 1125.48H547.188C544.665 1123.11 542.672 1120.24 541.341 1117.04Z" fill="#263238" stroke="#263238" stroke-linecap="round" stroke-linejoin="round"/>
<path d="M543.44 1107.94C543.44 1106.36 557.982 1092.46 557.982 1092.46C559.667 1093.16 561.185 1094.21 562.438 1095.55C563.69 1096.88 564.649 1098.45 565.253 1100.18L567.127 1106.74L552.135 1115.66C552.135 1115.66 543.777 1111.68 543.44 1107.94Z" fill="#263238" stroke="#263238" stroke-linecap="round" stroke-linejoin="round"/>
<path d="M411.775 753.194L428.753 746.261C433.53 745.245 438.38 744.618 443.258 744.387C448.917 744.387 460.873 758.854 460.873 760.765C460.873 762.677 460.274 765.787 457.125 763.913C453.977 762.039 446.406 756.98 446.406 756.98L414.924 766.425L308.445 801.056L305.934 770.21L411.775 753.194Z" fill="white" stroke="#263238" stroke-linecap="round" stroke-linejoin="round"/>
<path d="M428.753 753.194C428.753 753.194 449.554 754.469 453.939 755.106C458.325 755.743 460.273 760.765 454.577 760.765C448.88 760.765 441.346 760.128 441.346 760.128C437.699 762.881 433.316 764.486 428.753 764.738C420.583 765.375 418.671 765.375 418.671 765.375" fill="white"/>
<path d="M428.753 753.194C428.753 753.194 449.554 754.469 453.939 755.106C458.325 755.743 460.273 760.765 454.577 760.765C448.88 760.765 441.346 760.128 441.346 760.128C437.699 762.881 433.316 764.486 428.753 764.738C420.583 765.375 418.671 765.375 418.671 765.375" stroke="#263238" stroke-linecap="round" stroke-linejoin="round"/>
<path d="M330.445 655.785C330.445 655.785 351.171 667.591 356.081 690.266C360.99 712.941 362.002 755.33 360.016 765.225C358.03 775.119 334.418 790.823 334.418 790.823L327.484 834.187C327.484 834.187 440.597 828.452 446.518 828.452C452.44 828.452 449.479 860.985 448.505 871.816C447.53 882.648 437.261 905.547 437.261 905.547C437.261 905.547 378.531 911.807 350.271 913.306C316.54 915.105 301.885 915.854 276.25 913.868C250.614 911.881 235.847 892.167 233.86 865.707C231.874 839.246 243.718 832.2 246.678 806.564C249.639 780.929 254.587 731.606 257.51 697.162C260.433 662.719 287.081 648.889 330.445 655.785Z" fill="white" stroke="#263238" stroke-linecap="round" stroke-linejoin="round"/>
<path d="M418.184 607.324C416.26 620.369 412.261 633.021 406.341 644.803C397.458 660.545 372.834 670.402 366.912 670.402C360.991 670.402 350.159 645.778 350.159 645.778C350.159 645.778 381.717 600.428 398.47 595.518C415.223 590.608 418.184 607.324 418.184 607.324Z" fill="white" stroke="#263238" stroke-linecap="round" stroke-linejoin="round"/>
<path d="M387.601 625.24C387.601 625.24 386.626 618.343 409.301 618.343C431.976 618.343 449.704 596.643 451.69 572.993C453.677 549.344 428.041 547.358 411.288 547.358C394.534 547.358 372.834 533.565 348.21 542.448C323.586 551.33 323.549 578.915 322.574 596.643C321.6 614.371 320.588 619.131 282.171 633.11C243.755 647.09 221.117 671.564 214.146 707.02C207.175 742.475 245.704 769.123 275.275 754.319C304.846 739.514 304.846 671.564 326.509 663.656C348.172 655.748 376.769 654.811 387.601 625.24Z" fill="#263238" stroke="#263238" stroke-linecap="round" stroke-linejoin="round"/>
<path d="M324.561 721.824C324.561 721.824 374.82 829.24 381.717 829.24C388.613 829.24 467.432 775.981 467.432 775.981C470.979 777.033 474.754 777.033 478.301 775.981C482.728 772.557 486.696 768.576 490.107 764.138C490.107 764.138 505.886 775.981 503.899 767.886C502.382 763.518 499.61 759.694 495.93 756.894C492.25 754.094 487.825 752.442 483.211 752.145C474.328 752.145 461.548 772.833 461.548 772.833L392.548 797.457C392.548 797.457 374.82 720.587 365.938 701.885C357.055 683.183 348.21 671.339 343.45 674.262" fill="white"/>
<path d="M324.561 721.824C324.561 721.824 374.82 829.24 381.717 829.24C388.613 829.24 467.432 775.981 467.432 775.981C470.979 777.033 474.754 777.033 478.301 775.981C482.728 772.557 486.696 768.576 490.107 764.138C490.107 764.138 505.886 775.981 503.899 767.886C502.382 763.518 499.61 759.694 495.93 756.894C492.25 754.094 487.825 752.442 483.211 752.145C474.328 752.145 461.548 772.833 461.548 772.833L392.548 797.457C392.548 797.457 374.82 720.587 365.938 701.885C357.055 683.183 348.21 671.339 343.45 674.262" stroke="#263238" stroke-linecap="round" stroke-linejoin="round"/>
<path d="M483.211 752.37C474.328 752.37 461.548 773.059 461.548 773.059L392.548 797.683C392.548 797.683 390.299 787.975 387.001 774.595L359.042 792.286C369.536 812.524 378.981 829.24 381.529 829.24C388.425 829.24 467.244 776.02 467.244 776.02C470.791 777.071 474.567 777.071 478.113 776.02C482.541 772.595 486.509 768.614 489.919 764.176C489.919 764.176 505.698 776.02 503.712 767.924C502.177 763.619 499.421 759.854 495.78 757.091C492.138 754.329 487.77 752.688 483.211 752.37Z" fill="white" stroke="#263238" stroke-linecap="round" stroke-linejoin="round"/>
<path d="M262.007 925.037L290.904 1130.57C290.969 1131.05 291.134 1131.51 291.388 1131.92C291.642 1132.33 291.98 1132.69 292.379 1132.96C292.778 1133.23 293.23 1133.42 293.706 1133.5C294.181 1133.59 294.67 1133.57 295.139 1133.46C295.966 1133.27 296.694 1132.79 297.185 1132.09C297.676 1131.4 297.895 1130.55 297.8 1129.71L277.336 921.664L262.007 925.037Z" fill="#263238" stroke="#263238" stroke-linecap="round" stroke-linejoin="round"/>
<path d="M178.953 926.724L130.605 1128.59C130.49 1129.06 130.475 1129.55 130.562 1130.02C130.648 1130.5 130.833 1130.95 131.105 1131.35C131.377 1131.75 131.73 1132.08 132.141 1132.34C132.552 1132.59 133.012 1132.76 133.491 1132.82C134.307 1132.92 135.13 1132.72 135.816 1132.27C136.502 1131.82 137.006 1131.14 137.239 1130.35L193.458 934.444L178.953 926.724Z" fill="#263238" stroke="#263238" stroke-linecap="round" stroke-linejoin="round"/>
<path d="M266.692 924.25L236.109 1129.49C236.041 1129.97 236.073 1130.45 236.203 1130.92C236.333 1131.38 236.559 1131.82 236.865 1132.19C237.172 1132.56 237.553 1132.87 237.984 1133.09C238.415 1133.31 238.887 1133.43 239.37 1133.46C240.228 1133.55 241.09 1133.32 241.784 1132.8C242.478 1132.29 242.954 1131.53 243.118 1130.69L282.134 930.659L266.692 924.25Z" fill="#263238" stroke="#263238" stroke-linecap="round" stroke-linejoin="round"/>
<path d="M375.57 925.037L404.504 1130.57C404.569 1131.05 404.734 1131.51 404.988 1131.92C405.242 1132.33 405.58 1132.69 405.979 1132.96C406.378 1133.23 406.83 1133.42 407.306 1133.5C407.781 1133.59 408.27 1133.57 408.739 1133.46C409.563 1133.27 410.288 1132.78 410.772 1132.09C411.257 1131.4 411.467 1130.55 411.363 1129.71L391.011 921.589L375.57 925.037Z" fill="#263238" stroke="#263238" stroke-linecap="round" stroke-linejoin="round"/>
<path d="M133.153 711.817L168.384 940.666H418.671C418.671 940.666 422.419 874.702 411.175 851.39C399.932 828.078 263.882 878.075 258.972 876.839C255.224 875.939 260.696 757.767 267.405 711.592C267.884 708.336 267.656 705.015 266.736 701.856C265.816 698.696 264.226 695.772 262.075 693.282C259.923 690.792 257.259 688.796 254.266 687.428C251.273 686.06 248.02 685.354 244.73 685.356H155.791C152.481 685.354 149.21 686.069 146.204 687.453C143.197 688.836 140.526 690.855 138.374 693.37C136.223 695.884 134.642 698.836 133.74 702.021C132.839 705.205 132.639 708.547 133.153 711.817Z" fill="#1FBD59" stroke="#263238" stroke-linecap="round" stroke-linejoin="round"/>
<path d="M411.363 851.39C400.306 828.078 264.069 878.075 259.159 876.838C255.411 875.939 260.883 757.766 267.592 711.592C268.171 708.386 268.038 705.092 267.201 701.944C266.364 698.795 264.844 695.87 262.749 693.376C260.654 690.881 258.035 688.878 255.079 687.51C252.123 686.141 248.901 685.441 245.644 685.457C242.386 685.474 239.172 686.208 236.23 687.607C233.288 689.006 230.69 691.035 228.621 693.552C226.552 696.068 225.062 699.008 224.258 702.165C223.453 705.322 223.354 708.617 223.966 711.817L259.159 940.666H418.671C418.671 940.666 422.382 874.702 411.363 851.39Z" fill="#263238" stroke="#263238" stroke-linecap="round" stroke-linejoin="round"/>
</svg>
