<svg width="1552" height="1167" viewBox="0 0 1552 1167" fill="none" xmlns="http://www.w3.org/2000/svg">
<path d="M1499.69 235.338H527.018V769.902H1499.69V235.338Z" fill="#263238" stroke="#263238" stroke-linecap="round" stroke-linejoin="round"/>
<path d="M1482.01 250.759H544.656V754.482H1482.01V250.759Z" fill="white"/>
<mask id="mask0_228_4220" style="mask-type:luminance" maskUnits="userSpaceOnUse" x="544" y="250" width="939" height="505">
<path d="M1482.01 250.759H544.656V754.482H1482.01V250.759Z" fill="white"/>
</mask>
<g mask="url(#mask0_228_4220)">
<path d="M1471.46 807.088C1602.56 688.065 1602.56 495.091 1471.46 376.068C1340.36 257.045 1127.8 257.046 996.694 376.068C865.59 495.091 865.59 688.065 996.694 807.088C1127.8 926.111 1340.36 926.111 1471.46 807.088Z" fill="#1FBD59"/>
<mask id="mask1_228_4220" style="mask-type:luminance" maskUnits="userSpaceOnUse" x="898" y="286" width="672" height="611">
<path d="M1471.46 807.088C1602.56 688.065 1602.56 495.091 1471.46 376.068C1340.36 257.045 1127.8 257.046 996.694 376.068C865.59 495.091 865.59 688.065 996.694 807.088C1127.8 926.111 1340.36 926.111 1471.46 807.088Z" fill="white"/>
</mask>
<g mask="url(#mask1_228_4220)">
<path opacity="0.5" d="M1471.46 807.088C1602.56 688.065 1602.56 495.091 1471.46 376.068C1340.36 257.045 1127.8 257.046 996.694 376.068C865.59 495.091 865.59 688.065 996.694 807.088C1127.8 926.111 1340.36 926.111 1471.46 807.088Z" fill="white"/>
</g>
<path d="M1217.59 457.786L1226.94 469.092L1247.97 476.172L1252.66 491.037L1239.39 496.004V498.821L1262.79 507.31L1273.69 505.197L1279.12 497.413L1277.57 483.957L1263.57 479.027L1254.99 466.275L1223.84 453.561L1217.59 457.786Z" fill="white"/>
<path d="M1420.15 780.356L1395.24 771.163L1364.87 761.229H1340.69L1318.12 757.003L1293.17 761.822L1279.16 762.526H1270.59L1254.26 771.015L1238.62 776.65L1217.59 764.639L1223.06 744.845L1209.79 739.878H1194.23L1191.87 733.502L1193.42 720.787L1187.99 713.707L1177.09 715.116L1173.94 722.196L1160.71 722.9L1149.03 710.186L1144.34 693.208L1156.06 673.377L1178.64 674.785L1184.88 679.752H1194.23L1205.91 673.377L1216.04 676.231L1230.04 698.139L1235.51 697.434L1233.96 681.161L1229.27 672.858L1230.82 659.439L1259.65 648.096L1263.73 621.926L1276.18 612.733L1286.31 596.46L1294.11 595.051L1312.03 584.449L1312.81 578.778L1300.56 579.482L1298.19 573.848H1289.66L1276.39 576.665L1282.63 567.472L1309.91 560.392L1316.11 554.016L1327.06 569.585L1334.04 575.961L1344.94 573.144L1340.29 563.951L1323.95 553.312L1305.25 534.222L1285.78 522.212L1267.08 519.357L1257.73 510.869L1245.27 508.051L1243.72 510.869L1242.17 531.405L1245.27 538.485L1238.25 561.096L1222.69 549.79L1225.02 539.893L1208.69 532.813L1201.67 525.029L1205.75 507.347L1228.33 492.52L1229.88 475.542L1221.31 476.247L1215.87 469.908L1213.55 459.269L1208.08 458.565L1204.97 469.908L1196.4 471.317L1192.32 446.555L1186.11 442.848L1174.76 438.696L1162.3 444.368L1177.9 457.787L1181.01 469.834L1152.95 450.706L1133.48 431.616L1131.93 412.526L1111.51 406.854L1095.91 416.047C1092.14 418.132 1088.24 420.025 1084.24 421.719C1078.09 423.069 1071.84 424.01 1065.54 424.536L1062.43 436.583L1044.51 437.288L1046.06 445.072L1074.89 449.298L1089.71 464.125V488.887L1081.13 510.794L1082.68 534.148L1060.84 568.807L1056.35 620.48L1063.37 650.135L1073.5 672.747L1085.18 674.155L1081.3 662.849L1075.01 654.324L1071.13 638.755L1078.11 637.346L1089.01 662.812L1096.81 685.461V703.995L1111.63 720.268L1138.13 737.95L1178.64 747.847L1191.09 758.449L1200.44 769.755L1214.49 777.539L1231.59 781.802L1248.74 781.098C1248.74 781.098 1247.97 788.178 1247.97 791.699C1247.97 795.221 1237.07 807.268 1237.07 807.268L1228.49 821.428L1234.74 836.96L1251.89 843.336L1276.02 865.985L1286.92 870.21V880.812L1288.31 885.779C1348.89 876.863 1405.48 852.663 1451.63 815.942L1452.04 810.79L1473.07 776.13L1462.94 769.755L1420.15 780.356Z" fill="white"/>
<path d="M1501.4 500.934L1492.83 487.515L1481.93 471.946L1478.83 450.706L1492.83 452.856L1493.61 445.776L1483.48 445.072L1492.05 441.365L1501.4 436.435V429.355L1492.05 418.234L1490.05 402.999C1444.76 352.705 1382.62 317.213 1313.08 301.917C1243.54 286.622 1170.4 292.361 1104.77 318.26L1122.74 329.789L1111.84 342.54L1097.02 345.357L1095.46 364.448L1089.22 366.598L1081.46 374.345L1082.24 387.097L1095.46 388.505L1090.03 400.552H1103.26L1125.84 374.345L1128.21 363.039L1150.01 361.63L1155.44 353.142L1178.07 351.029L1180.39 338.982L1196.73 338.277C1201.19 336.008 1205.88 334.121 1210.73 332.643C1215.24 333.521 1219.68 334.698 1224 336.164L1235.68 344.653H1252.01L1266.02 336.869L1283.94 338.277C1286.5 339.839 1289.45 340.818 1292.51 341.132C1297.91 340.046 1303.15 338.378 1308.11 336.164L1330.69 348.916L1340.04 355.255V365.856L1351.72 367.302L1355.8 360.926L1365.93 365.152L1365.15 370.823L1341.47 376.31L1354.74 391.878L1382.75 406.001L1394.47 420.162L1411.62 421.57L1415.5 414.49L1421.74 413.082L1401.33 398.921L1389.08 397.513L1399.33 394.844L1389.98 382.797L1403.25 382.092L1420.36 390.581L1424.44 407.558L1433.01 416.751L1440 437.287L1457.14 448.593V471.946L1475.07 482.548L1474.29 490.332L1471.97 499.525L1476.62 512.277L1478.21 518.615L1491.44 520.765L1497.69 508.718L1501.4 500.934Z" fill="white"/>
<path d="M1331.34 425.24L1279.94 404.741L1257.32 405.446L1251.89 418.901L1242.54 409.708L1225.39 413.23L1223.84 436.583L1237.84 445.776L1247.97 432.32L1259.69 442.922L1283.82 462.049L1288.51 482.548L1308.77 505.901L1341.47 500.934L1340.69 490.332L1333.67 478.322L1332.12 450.002L1339.92 437.992L1331.34 425.24Z" fill="white"/>
<path d="M1373.4 440.808L1361.72 437.991L1351.6 445.776L1357.07 466.274H1367.19L1373.4 440.808Z" fill="white"/>
<path d="M1445.88 454.265L1419.38 441.513L1413.95 433.024L1407.7 435.174L1413.17 449.297L1417.82 467.683L1429.5 471.946L1431.87 469.092L1424.85 458.49L1445.1 465.571L1445.88 454.265Z" fill="white"/>
<path d="M1218.37 709.629L1215.26 712.446L1238.62 718.822L1247.97 728.719L1262.79 730.128L1268.22 722.343L1250.3 719.526L1218.37 709.629Z" fill="white"/>
<path d="M1287.7 723.048L1271.36 727.311L1273.69 732.945H1293.94L1297.82 727.311L1290.84 728.015L1287.7 723.048Z" fill="white"/>
<path d="M595.899 747.18H754.568C782.904 461.753 1015.23 294.5 1015.23 294.5C720.556 376.792 595.899 747.18 595.899 747.18Z" fill="#1FBD59"/>
<path d="M946.105 277.077C638.486 258.543 376.433 564.098 376.433 564.098L524.649 615.475C663.147 357.96 946.105 277.077 946.105 277.077Z" fill="#1FBD59"/>
<g opacity="0.5">
<path d="M595.899 747.179H754.568C782.904 461.752 1015.23 294.499 1015.23 294.499C720.556 376.791 595.899 747.179 595.899 747.179Z" fill="white"/>
<path d="M946.105 277.077C638.486 258.543 376.433 564.098 376.433 564.098L524.649 615.475C663.147 357.96 946.105 277.077 946.105 277.077Z" fill="white"/>
</g>
<path d="M1167.53 738.246H1397.49V711.816H1134.78L1167.53 738.246Z" fill="#263238"/>
<path d="M1042.59 711.816L1075.34 738.246H1142.05L1109.27 711.816H1042.59Z" fill="#263238"/>
<path d="M956.925 711.816L989.672 738.246H1056.39L1023.6 711.816H956.925Z" fill="#263238"/>
</g>
<path d="M1482.01 250.759H544.656V754.482H1482.01V250.759Z" stroke="#263238" stroke-linecap="round" stroke-linejoin="round"/>
<path d="M150.516 620.034C166.195 604.54 181.915 590.825 184.732 568.806C186.978 551.421 181.466 530.44 158.07 530.625C126.385 530.885 116.79 571.808 118.709 594.531C119.893 608.469 122.792 627.152 124.589 638.606C119.281 627.115 115.279 617.403 112.829 610.99C111.604 607.876 110.747 605.504 110.257 604.169C109.664 594.405 109.909 584.614 110.992 574.885C112.013 553.83 114.34 534.11 100.948 515.576C90.3315 500.748 71.2635 488.108 53.4612 501.897C29.371 520.432 51.0114 557.5 68.5687 573.81C80.8179 585.264 99.4368 600.277 108.134 607.172C110.502 613.51 115.932 627.559 124.221 644.796C115.157 640.014 102.254 628.301 98.7018 625.447C81.3079 611.509 66.0371 597.534 41.5386 595.384C22.3073 593.679 -0.639657 599.091 0.0136365 620.331C0.911916 649.096 46.1117 656.992 71.1002 654.805C89.2291 653.248 114.585 649.393 125.528 647.688C134.031 665.401 143.881 682.556 155.008 699.027C155.661 699.991 156.355 700.992 157.09 701.956C147.046 699.435 131.081 690.835 126.793 688.834C106.378 679.196 87.4325 669.076 63.3423 672.449C44.2335 675.081 23.4505 685.497 29.8201 705.811C38.5171 733.464 84.4927 731.017 108.134 723.307C125.201 717.747 148.72 708.48 158.887 704.254C164.929 712.261 172.647 721.083 181.425 731.055C190.204 741.026 199.962 752.184 209.762 764.416C203.147 767.085 178.2 753.481 172.728 750.923C152.313 741.323 133.367 731.203 109.236 734.539C90.1682 737.208 69.3853 747.587 75.7549 767.901C84.411 795.554 130.427 793.107 154.028 785.434C176.076 778.243 208.864 764.713 209.762 764.342V765.343C209.723 765.035 209.723 764.724 209.762 764.416C221.261 778.76 231.63 793.822 240.793 809.491C232.055 811.308 208.986 805.414 203.596 804.376C180.894 800.002 159.907 794.701 137.573 803.709C119.934 810.789 102.867 825.765 114.953 843.965C131.285 868.616 174.974 855.271 195.553 842.223C211.885 831.881 234.301 815.274 241.161 810.159C251.892 828.627 260.25 848.154 266.068 868.356C256.472 869.394 235.322 864.019 230.177 863.018C207.516 858.644 186.488 853.343 164.195 862.314C146.556 869.431 129.488 884.555 141.533 902.607C157.866 927.221 201.555 913.913 222.134 900.865C237.527 891.116 258.351 875.807 266.435 869.765C274.118 897.611 276.589 926.432 273.744 955.022L276.847 955.282C279.712 926.548 277.269 897.582 269.62 869.579C275.173 864.205 301.264 860.72 306.939 859.608C329.641 855.16 351.159 852.194 367.491 835.736C380.394 822.688 389.213 802.671 369.982 790.549C343.973 774.165 310.124 802.523 297.222 822.095C286.524 838.331 272.723 863.389 269.538 869.246C269.538 868.764 269.252 868.282 269.13 867.8L269.865 867.244C269.617 867.396 269.358 867.532 269.089 867.652C263.199 847.162 254.718 827.359 243.815 808.639C249.49 802.523 272.396 795.072 277.663 793.07C298.977 784.73 319.474 778.02 331.969 758.967C341.809 743.917 346.219 722.751 324.782 714.225C295.752 702.734 268.599 736.467 260.106 757.966C253.451 774.795 245.815 799.817 243.406 807.86C233.941 791.771 223.23 776.312 211.354 761.599C216.948 754.185 234.464 743.324 238.548 740.396C256.799 727.385 274.724 716.153 281.42 694.876C286.728 678.01 285.013 656.51 261.903 653.285C230.586 648.874 213.886 687.833 211.722 710.556C210.211 726.495 209.762 748.884 209.639 759.449C200.616 748.328 191.715 738.135 183.63 728.942C175.546 719.749 167.502 710.407 161.581 702.734L163.705 701.882C162.881 702.147 162.003 702.248 161.132 702.178L160.846 701.77C165.134 694.839 186.284 683.607 190.939 680.79C210.17 669.002 228.952 658.993 237.363 638.198C244.019 621.74 244.019 600.166 221.031 595.421C190.163 588.971 170.36 626.707 166.399 649.207C163.296 666.852 160.846 692.652 160.111 701.103C159.132 699.769 158.192 698.471 157.294 697.174C146.38 681 136.694 664.169 128.304 646.798L130.55 646.464C129.695 646.533 128.834 646.445 128.018 646.205C127.692 645.575 127.406 644.944 127.12 644.314C131.897 636.678 147.046 623.482 150.516 620.034Z" fill="#1FBD59"/>
<path opacity="0.5" d="M150.516 620.034C166.195 604.54 181.915 590.825 184.732 568.806C186.978 551.421 181.466 530.44 158.07 530.625C126.385 530.885 116.79 571.808 118.709 594.531C119.893 608.469 122.792 627.152 124.589 638.606C119.281 627.115 115.279 617.403 112.829 610.99C111.604 607.876 110.747 605.504 110.257 604.169C109.664 594.405 109.909 584.614 110.992 574.885C112.013 553.83 114.34 534.11 100.948 515.576C90.3315 500.748 71.2635 488.108 53.4612 501.897C29.371 520.432 51.0114 557.5 68.5687 573.81C80.8179 585.264 99.4368 600.277 108.134 607.172C110.502 613.51 115.932 627.559 124.221 644.796C115.157 640.014 102.254 628.301 98.7018 625.447C81.3079 611.509 66.0371 597.534 41.5386 595.384C22.3073 593.679 -0.639657 599.091 0.0136365 620.331C0.911916 649.096 46.1117 656.992 71.1002 654.805C89.2291 653.248 114.585 649.393 125.528 647.688C134.031 665.401 143.881 682.556 155.008 699.027C155.661 699.991 156.355 700.992 157.09 701.956C147.046 699.435 131.081 690.835 126.793 688.834C106.378 679.196 87.4325 669.076 63.3423 672.449C44.2335 675.081 23.4505 685.497 29.8201 705.811C38.5171 733.464 84.4927 731.017 108.134 723.307C125.201 717.747 148.72 708.48 158.887 704.254C164.929 712.261 172.647 721.083 181.425 731.055C190.204 741.026 199.962 752.184 209.762 764.416C203.147 767.085 178.2 753.481 172.728 750.923C152.313 741.323 133.367 731.203 109.236 734.539C90.1682 737.208 69.3853 747.587 75.7549 767.901C84.411 795.554 130.427 793.107 154.028 785.434C176.076 778.243 208.864 764.713 209.762 764.342V765.343C209.723 765.035 209.723 764.724 209.762 764.416C221.261 778.76 231.63 793.822 240.793 809.491C232.055 811.308 208.986 805.414 203.596 804.376C180.894 800.002 159.907 794.701 137.573 803.709C119.934 810.789 102.867 825.765 114.953 843.965C131.285 868.616 174.974 855.271 195.553 842.223C211.885 831.881 234.301 815.274 241.161 810.159C251.892 828.627 260.25 848.154 266.068 868.356C256.472 869.394 235.322 864.019 230.177 863.018C207.516 858.644 186.488 853.343 164.195 862.314C146.556 869.431 129.488 884.555 141.533 902.607C157.866 927.221 201.555 913.913 222.134 900.865C237.527 891.116 258.351 875.807 266.435 869.765C274.118 897.611 276.589 926.432 273.744 955.022L276.847 955.282C279.712 926.548 277.269 897.582 269.62 869.579C275.173 864.205 301.264 860.72 306.939 859.608C329.641 855.16 351.159 852.194 367.491 835.736C380.394 822.688 389.213 802.671 369.982 790.549C343.973 774.165 310.124 802.523 297.222 822.095C286.524 838.331 272.723 863.389 269.538 869.246C269.538 868.764 269.252 868.282 269.13 867.8L269.865 867.244C269.617 867.396 269.358 867.532 269.089 867.652C263.199 847.162 254.718 827.359 243.815 808.639C249.49 802.523 272.396 795.072 277.663 793.07C298.977 784.73 319.474 778.02 331.969 758.967C341.809 743.917 346.219 722.751 324.782 714.225C295.752 702.734 268.599 736.467 260.106 757.966C253.451 774.795 245.815 799.817 243.406 807.86C233.941 791.771 223.23 776.312 211.354 761.599C216.948 754.185 234.464 743.324 238.548 740.396C256.799 727.385 274.724 716.153 281.42 694.876C286.728 678.01 285.013 656.51 261.903 653.285C230.586 648.874 213.886 687.833 211.722 710.556C210.211 726.495 209.762 748.884 209.639 759.449C200.616 748.328 191.715 738.135 183.63 728.942C175.546 719.749 167.502 710.407 161.581 702.734L163.705 701.882C162.881 702.147 162.003 702.248 161.132 702.178L160.846 701.77C165.134 694.839 186.284 683.607 190.939 680.79C210.17 669.002 228.952 658.993 237.363 638.198C244.019 621.74 244.019 600.166 221.031 595.421C190.163 588.971 170.36 626.707 166.399 649.207C163.296 666.852 160.846 692.652 160.111 701.103C159.132 699.769 158.192 698.471 157.294 697.174C146.38 681 136.694 664.169 128.304 646.798L130.55 646.464C129.695 646.533 128.834 646.445 128.018 646.205C127.692 645.575 127.406 644.944 127.12 644.314C131.897 636.678 147.046 623.482 150.516 620.034Z" fill="white"/>
<path d="M358.141 685.274C335.602 680.307 314.166 676.823 298.324 659.957C285.83 646.612 277.582 626.595 297.14 614.733C323.639 598.979 356.63 628.152 368.961 648.095C376.515 660.29 385.579 677.268 391.051 687.721C388.438 675.488 385.824 665.48 383.946 658.845C383.966 658.784 383.966 658.72 383.946 658.659C383.048 655.471 382.313 653.099 381.905 651.69C376.421 643.271 370.223 635.252 363.367 627.707C349.648 610.767 335.684 595.569 335.48 573.402C335.48 555.906 343.36 535.592 366.593 538.113C398.033 541.486 402.647 583.077 398.033 605.466C394.807 621.257 388.56 643.054 385.579 653.21C387.499 659.697 391.541 674.117 395.256 692.614C399.829 684.088 403.423 667.815 404.607 663.664C410.527 643.313 414.814 623.889 433.678 609.877C448.622 598.757 471.038 591.677 483.492 609.655C500.314 634.009 467.568 663.404 445.438 674.191C429.432 682.012 405.995 691.65 395.869 695.728C399.628 714.75 401.934 733.985 402.769 753.295C402.769 754.407 402.769 755.593 402.769 756.78C409.588 749.588 417.591 734.538 419.918 730.572C431.188 712.038 440.579 694.319 462.668 684.941C480.144 677.527 503.826 675.637 511.012 695.876C520.73 723.233 481.001 744.399 456.625 749.922C439.027 753.888 413.753 757.966 402.769 759.671C402.769 769.383 401.626 780.615 400.442 793.292C399.258 805.969 397.951 820.241 397.339 835.476C404.443 834.364 416.856 810.455 419.877 805.562C431.106 787.027 440.497 769.309 462.627 759.93C480.103 752.517 503.744 750.663 510.93 771.051C520.689 798.407 480.92 819.574 456.584 825.097C433.882 830.249 398.319 835.55 397.339 835.698L397.951 836.514C397.739 836.264 397.492 836.04 397.216 835.847C396.42 853.582 397.02 871.345 399.013 889.003C407.179 886.074 422.981 869.542 426.819 865.946C443.151 850.896 457.238 835.884 481.287 832.103C500.314 829.1 523.669 832.955 524.772 854.158C526.242 882.886 481.777 893.822 456.666 893.377C436.781 893.006 407.955 890.523 399.094 889.67C401.508 910.433 406.522 930.879 414.039 950.611C422.654 946.644 436.945 931.52 440.619 928.11C456.952 913.023 470.998 898.01 495.047 894.229C514.074 891.227 537.429 895.082 538.532 916.47C540.002 945.199 495.537 956.171 470.467 955.689C451.685 955.318 425.022 953.094 414.569 952.167C425.227 979.192 440.825 1004.39 460.708 1026.71L458.258 1028.49C438.289 1006.04 422.585 980.72 411.793 953.576C403.913 951.945 380.067 962.176 374.678 964.14C353.078 971.888 333.357 980.302 309.716 974.816C291.015 970.479 271.416 958.284 279.991 938.526C291.587 911.763 337.154 918.287 359.774 928.036C378.638 936.117 405.423 950.017 411.67 953.279C411.67 952.798 411.303 952.353 411.14 951.871H410.16H411.058C403.436 931.865 398.367 911.132 395.95 890.078C387.498 887.854 363.776 893.266 358.264 894.192C335.48 897.899 314.33 902.755 292.281 893.229C274.846 885.815 258.269 870.283 270.886 852.453C287.953 828.248 331.193 842.63 351.363 856.16C367.206 866.799 388.928 883.739 395.828 889.188C393.854 871.046 393.295 852.8 394.154 834.586C385.008 831.287 363.735 830.879 358.59 830.879C335.439 829.248 313.676 828.952 295.057 814.643C280.317 803.3 268.599 784.544 285.83 770.161C309.185 750.7 347.076 774.684 362.633 792.402C373.616 804.857 387.703 823.28 394.276 831.991C394.93 818.165 396.114 805.228 397.216 793.514C398.36 781.096 399.38 770.087 399.503 760.598L397.216 760.931C398.069 760.771 398.867 760.427 399.544 759.93V759.448C391.704 755.742 367.246 757.187 361.653 757.15C338.461 757.15 316.739 758.225 296.976 745.177C281.42 734.835 268.395 716.931 284.237 701.436C305.959 680.53 345.484 701.918 362.633 718.636C375.984 731.721 393.827 751.998 399.38 758.522C399.38 756.928 399.38 755.334 399.38 753.851C398.549 734.903 396.298 716.029 392.643 697.359L390.561 698.174C391.318 697.806 391.985 697.301 392.521 696.692C392.521 695.987 392.235 695.32 392.112 694.653C383.701 689.723 363.041 686.387 358.141 685.274Z" fill="#1FBD59"/>
<path opacity="0.5" d="M358.141 685.274C335.602 680.307 314.166 676.823 298.324 659.957C285.83 646.612 277.582 626.595 297.14 614.733C323.639 598.979 356.63 628.152 368.961 648.095C376.515 660.29 385.579 677.268 391.051 687.721C388.438 675.488 385.824 665.48 383.946 658.845C383.966 658.784 383.966 658.72 383.946 658.659C383.048 655.471 382.313 653.099 381.905 651.69C376.421 643.271 370.223 635.252 363.367 627.707C349.648 610.767 335.684 595.569 335.48 573.402C335.48 555.906 343.36 535.592 366.593 538.113C398.033 541.486 402.647 583.077 398.033 605.466C394.807 621.257 388.56 643.054 385.579 653.21C387.499 659.697 391.541 674.117 395.256 692.614C399.829 684.088 403.423 667.815 404.607 663.664C410.527 643.313 414.814 623.889 433.678 609.877C448.622 598.757 471.038 591.677 483.492 609.655C500.314 634.009 467.568 663.404 445.438 674.191C429.432 682.012 405.995 691.65 395.869 695.728C399.628 714.75 401.934 733.985 402.769 753.295C402.769 754.407 402.769 755.593 402.769 756.78C409.588 749.588 417.591 734.538 419.918 730.572C431.188 712.038 440.579 694.319 462.668 684.941C480.144 677.527 503.826 675.637 511.012 695.876C520.73 723.233 481.001 744.399 456.625 749.922C439.027 753.888 413.753 757.966 402.769 759.671C402.769 769.383 401.626 780.615 400.442 793.292C399.258 805.969 397.951 820.241 397.339 835.476C404.443 834.364 416.856 810.455 419.877 805.562C431.106 787.027 440.497 769.309 462.627 759.93C480.103 752.517 503.744 750.663 510.93 771.051C520.689 798.407 480.92 819.574 456.584 825.097C433.882 830.249 398.319 835.55 397.339 835.698L397.951 836.514C397.739 836.264 397.492 836.04 397.216 835.847C396.42 853.582 397.02 871.345 399.013 889.003C407.179 886.074 422.981 869.542 426.819 865.946C443.151 850.896 457.238 835.884 481.287 832.103C500.314 829.1 523.669 832.955 524.772 854.158C526.242 882.886 481.777 893.822 456.666 893.377C436.781 893.006 407.955 890.523 399.094 889.67C401.508 910.433 406.522 930.879 414.039 950.611C422.654 946.644 436.945 931.52 440.619 928.11C456.952 913.023 470.998 898.01 495.047 894.229C514.074 891.227 537.429 895.082 538.532 916.47C540.002 945.199 495.537 956.171 470.467 955.689C451.685 955.318 425.022 953.094 414.569 952.167C425.227 979.192 440.825 1004.39 460.708 1026.71L458.258 1028.49C438.289 1006.04 422.585 980.72 411.793 953.576C403.913 951.945 380.067 962.176 374.678 964.14C353.078 971.888 333.357 980.302 309.716 974.816C291.015 970.479 271.416 958.284 279.991 938.526C291.587 911.763 337.154 918.287 359.774 928.036C378.638 936.117 405.423 950.017 411.67 953.279C411.67 952.798 411.303 952.353 411.14 951.871H410.16H411.058C403.436 931.865 398.367 911.132 395.95 890.078C387.498 887.854 363.776 893.266 358.264 894.192C335.48 897.899 314.33 902.755 292.281 893.229C274.846 885.815 258.269 870.283 270.886 852.453C287.953 828.248 331.193 842.63 351.363 856.16C367.206 866.799 388.928 883.739 395.828 889.188C393.854 871.046 393.295 852.8 394.154 834.586C385.008 831.287 363.735 830.879 358.59 830.879C335.439 829.248 313.676 828.952 295.057 814.643C280.317 803.3 268.599 784.544 285.83 770.161C309.185 750.7 347.076 774.684 362.633 792.402C373.616 804.857 387.703 823.28 394.276 831.991C394.93 818.165 396.114 805.228 397.216 793.514C398.36 781.096 399.38 770.087 399.503 760.598L397.216 760.931C398.069 760.771 398.867 760.427 399.544 759.93V759.448C391.704 755.742 367.246 757.187 361.653 757.15C338.461 757.15 316.739 758.225 296.976 745.177C281.42 734.835 268.395 716.931 284.237 701.436C305.959 680.53 345.484 701.918 362.633 718.636C375.984 731.721 393.827 751.998 399.38 758.522C399.38 756.928 399.38 755.334 399.38 753.851C398.549 734.903 396.298 716.029 392.643 697.359L390.561 698.174C391.318 697.806 391.985 697.301 392.521 696.692C392.521 695.987 392.235 695.32 392.112 694.653C383.701 689.723 363.041 686.387 358.141 685.274Z" fill="white"/>
<path d="M1511.57 1002.77H81.5122C59.5257 1002.77 41.7021 1018.95 41.7021 1038.91V1129.73C41.7021 1149.69 59.5257 1165.87 81.5122 1165.87H1511.57C1533.56 1165.87 1551.38 1149.69 1551.38 1129.73V1038.91C1551.38 1018.95 1533.56 1002.77 1511.57 1002.77Z" fill="#263238"/>
<mask id="mask2_228_4220" style="mask-type:luminance" maskUnits="userSpaceOnUse" x="41" y="1002" width="1511" height="164">
<path d="M1511.57 1002.77H81.5122C59.5257 1002.77 41.7021 1018.95 41.7021 1038.91V1129.73C41.7021 1149.69 59.5257 1165.87 81.5122 1165.87H1511.57C1533.56 1165.87 1551.38 1149.69 1551.38 1129.73V1038.91C1551.38 1018.95 1533.56 1002.77 1511.57 1002.77Z" fill="white"/>
</mask>
<g mask="url(#mask2_228_4220)">
<path opacity="0.25" d="M153.987 1002.77L41.7021 1110.27V1129.87C41.7081 1139.04 45.5632 1147.85 52.4815 1154.52L211.15 1002.77H153.987Z" fill="white"/>
<path opacity="0.25" d="M1398.84 1002.77H1377.28L1206.52 1165.87H1228.25L1398.84 1002.77Z" fill="white"/>
<path opacity="0.25" d="M1522.64 1004.21C1519.04 1003.26 1515.32 1002.77 1511.57 1002.77H1467.19L1296.43 1165.87H1353.6L1522.64 1004.21Z" fill="white"/>
<path opacity="0.25" d="M209.436 1165.87H231.198L401.749 1002.77H380.231L209.436 1165.87Z" fill="white"/>
</g>
<path d="M1511.57 1002.77H81.5122C59.5257 1002.77 41.7021 1018.95 41.7021 1038.91V1129.73C41.7021 1149.69 59.5257 1165.87 81.5122 1165.87H1511.57C1533.56 1165.87 1551.38 1149.69 1551.38 1129.73V1038.91C1551.38 1018.95 1533.56 1002.77 1511.57 1002.77Z" stroke="#263238" stroke-linecap="round" stroke-linejoin="round"/>
<path d="M928.957 1029.86L715.901 1043.06L879.797 1097.62L1109.23 1087.73L928.957 1029.86Z" fill="white" stroke="#263238" stroke-linecap="round" stroke-linejoin="round"/>
<path d="M1096.49 1031.49L885.227 1054.66L1071.01 1115.82L1278.59 1094.33L1096.49 1031.49Z" fill="white" stroke="#263238" stroke-linecap="round" stroke-linejoin="round"/>
<path d="M946.678 902.163C943.248 882.702 916.626 800.076 896.864 727.57C880.123 666.111 815.202 626.336 751.547 608.284C724.068 600.5 701.733 589.75 675.969 590.38C675.969 590.38 580.955 623.482 549.189 632.823C517.423 642.165 472.1 670.188 472.958 709.147C473.815 748.106 502.764 1011.33 502.764 1011.33H809.282C809.282 1011.33 788.662 941.159 798.992 917.769C807.689 897.974 829.534 872.805 839.823 846.634C846.315 868.208 855.829 901.607 863.464 913.876C876.408 934.672 891.801 946.608 908.133 943.531C924.466 940.455 950.189 921.661 946.678 902.163Z" fill="#1FBD59" stroke="#263238" stroke-linecap="round" stroke-linejoin="round"/>
<path d="M839.946 846.634C839.946 846.634 852.399 812.493 838.803 785.285C825.206 758.077 830.636 707.441 830.636 707.441" fill="#1FBD59"/>
<path d="M839.946 846.634C839.946 846.634 852.399 812.493 838.803 785.285C825.206 758.077 830.636 707.441 830.636 707.441" stroke="#263238" stroke-linecap="round" stroke-linejoin="round"/>
<path d="M675.969 590.379C675.969 590.379 636.2 604.577 597.125 618.144C608.843 636.381 634.24 665.258 679.358 668.742C722.067 672.004 748.485 636.9 761.959 611.36L751.547 608.283C724.068 600.499 701.733 589.601 675.969 590.379Z" fill="white" stroke="#263238" stroke-linecap="round" stroke-linejoin="round"/>
<path d="M535.96 863.24C541.813 872.152 549.652 879.855 558.976 885.855C568.3 891.856 578.901 896.021 590.102 898.085" stroke="#263238" stroke-linecap="round" stroke-linejoin="round"/>
<path d="M708.674 677.936C696.14 680.873 683.04 681.227 670.334 678.973C670.334 678.973 642.12 730.165 642.12 744.51C642.12 758.856 668.048 781.357 697.405 775.203C726.762 769.05 728.967 747.55 728.967 733.242C728.967 718.933 708.674 677.936 708.674 677.936Z" fill="white" stroke="#263238" stroke-linecap="round" stroke-linejoin="round"/>
<path d="M818.265 873.693C818.265 873.693 798.421 900.716 730.968 906.128" stroke="#263238" stroke-linecap="round" stroke-linejoin="round"/>
<path d="M691.28 760.228C706.445 782.917 711.43 810.028 705.204 835.958" stroke="#263238" stroke-linecap="round" stroke-linejoin="round"/>
<path d="M509.951 653.174C509.951 653.174 495.007 657.4 477 679.122C458.994 700.844 451.236 759.412 451.236 792.922C451.236 826.432 457.238 941.455 457.238 960.916C457.238 980.377 484.146 1006.47 505.582 1002.77C527.018 999.06 534.531 947.942 534.531 912.097C534.531 876.252 532.816 769.013 531.958 744.066C531.101 719.119 520.771 717.562 520.771 717.562" fill="#1FBD59"/>
<path d="M509.951 653.174C509.951 653.174 495.007 657.4 477 679.122C458.994 700.844 451.236 759.412 451.236 792.922C451.236 826.432 457.238 941.455 457.238 960.916C457.238 980.377 484.146 1006.47 505.582 1002.77C527.018 999.06 534.531 947.942 534.531 912.097C534.531 876.252 532.816 769.013 531.958 744.066C531.101 719.119 520.771 717.562 520.771 717.562" stroke="#263238" stroke-linecap="round" stroke-linejoin="round"/>
<path d="M472.223 947.163C472.223 947.163 504.887 921.549 541.839 934.449C578.791 947.349 637.424 973.111 672.988 982.045C708.552 990.978 757.957 984.936 768.246 985.492C778.536 986.048 804.423 1011.44 813.487 1017.56C822.551 1023.67 825.124 1037.68 824.92 1040.8C824.716 1043.91 820.347 1045.25 816.998 1043.5C813.65 1041.76 808.383 1030.57 808.383 1030.57L798.625 1021.3C798.625 1021.3 804.708 1034.13 800.952 1038.61C799.31 1040.6 797.183 1042.21 794.739 1043.32C792.295 1044.43 789.6 1045.02 786.865 1045.02C782.782 1044.8 766.123 1047.06 757.549 1046.62C751.017 1045.81 744.713 1043.89 738.971 1040.95C738.971 1040.95 712.553 1037.24 700.794 1032.68C689.035 1028.12 682.134 1015.3 682.134 1015.3C682.134 1015.3 626.359 1013.15 564.786 1007.55C503.213 1001.95 467.895 1010.7 459.483 967.328" fill="#1FBD59"/>
<path d="M472.223 947.163C472.223 947.163 504.887 921.549 541.839 934.449C578.791 947.349 637.424 973.111 672.988 982.045C708.552 990.978 757.957 984.936 768.246 985.492C778.536 986.048 804.423 1011.44 813.487 1017.56C822.551 1023.67 825.124 1037.68 824.92 1040.8C824.716 1043.91 820.347 1045.25 816.998 1043.5C813.65 1041.76 808.383 1030.57 808.383 1030.57L798.625 1021.3C798.625 1021.3 804.708 1034.13 800.952 1038.61C799.31 1040.6 797.183 1042.21 794.739 1043.32C792.295 1044.43 789.6 1045.02 786.865 1045.02C782.782 1044.8 766.123 1047.06 757.549 1046.62C751.017 1045.81 744.713 1043.89 738.971 1040.95C738.971 1040.95 712.553 1037.24 700.794 1032.68C689.035 1028.12 682.134 1015.3 682.134 1015.3C682.134 1015.3 626.359 1013.15 564.786 1007.55C503.213 1001.95 467.895 1010.7 459.483 967.328" stroke="#263238" stroke-linecap="round" stroke-linejoin="round"/>
<path d="M813.487 1017.59C804.423 1011.63 778.536 986.048 768.247 985.529C757.957 985.01 708.552 990.978 672.988 982.082C642.978 974.668 596.635 955.096 560.663 941.307C551.029 943.14 541.557 945.618 532.326 948.72C497.089 960.731 494.108 985.233 496.191 1000.62C513.136 1004.58 535.878 1004.84 564.705 1007.44C626.278 1013.03 682.053 1015.18 682.053 1015.18C682.053 1015.18 688.953 1028.05 700.713 1032.57C712.472 1037.09 738.889 1040.84 738.889 1040.84C744.632 1043.78 750.936 1045.7 757.467 1046.51C766.042 1046.95 782.497 1044.69 786.784 1044.91C789.518 1044.93 792.221 1044.38 794.68 1043.29C797.138 1042.21 799.285 1040.62 800.952 1038.65C804.709 1034.16 798.625 1021.34 798.625 1021.34L808.384 1030.46C808.384 1030.46 813.692 1041.58 816.999 1043.39C820.306 1045.21 824.716 1043.8 824.92 1040.69C825.124 1037.57 822.593 1023.49 813.487 1017.59Z" fill="white" stroke="#263238" stroke-linecap="round" stroke-linejoin="round"/>
<path d="M736.603 1022.86C736.603 1022.86 753.302 1030.75 759.999 1033.46C766.695 1036.16 766.042 1047.25 766.042 1047.25" fill="white"/>
<path d="M736.603 1022.86C736.603 1022.86 753.302 1030.75 759.999 1033.46C766.695 1036.16 766.042 1047.25 766.042 1047.25" stroke="#263238" stroke-linecap="round" stroke-linejoin="round"/>
<path d="M754.487 1012.11C754.487 1012.11 780.088 1029.05 784.906 1034.01C786.32 1035.53 787.244 1037.37 787.575 1039.33C787.907 1041.3 787.633 1043.31 786.784 1045.14" fill="white"/>
<path d="M754.487 1012.11C754.487 1012.11 780.088 1029.05 784.906 1034.01C786.32 1035.53 787.244 1037.37 787.575 1039.33C787.907 1041.3 787.633 1043.31 786.784 1045.14" stroke="#263238" stroke-linecap="round" stroke-linejoin="round"/>
<path d="M798.625 1021.3C798.625 1021.3 774.126 998.17 770.941 997.206Z" fill="white"/>
<path d="M798.625 1021.3C798.625 1021.3 774.126 998.17 770.941 997.206" stroke="#263238" stroke-linecap="round" stroke-linejoin="round"/>
<path d="M874.652 928.63C874.652 928.63 888.044 952.205 960.927 985.678C1008.56 1007.24 1057.83 1025.68 1108.37 1040.84C1122.82 1045.07 1137.86 1047.43 1153.04 1047.84C1171.04 1047.84 1206.12 1050.99 1207.14 1046.28C1208.16 1041.58 1189.95 1037.72 1184.8 1036.94C1178.93 1035.53 1173.18 1033.71 1167.61 1031.49C1167.61 1031.49 1205.42 1036.17 1216.61 1043.17C1227.8 1050.18 1245.8 1055.66 1250.09 1054.11C1254.38 1052.55 1239.8 1034.61 1228.61 1023.71C1217.43 1012.81 1199.26 1000.28 1182.92 1000.28C1166.59 1000.28 1104.24 1004.66 1094.77 1004.66C1085.3 1004.66 1081.58 998.726 1038.67 960.546C995.756 922.365 968.154 884.147 937.246 871.767" fill="#1FBD59"/>
<path d="M874.652 928.63C874.652 928.63 888.044 952.205 960.927 985.678C1008.56 1007.24 1057.83 1025.68 1108.37 1040.84C1122.82 1045.07 1137.86 1047.43 1153.04 1047.84C1171.04 1047.84 1206.12 1050.99 1207.14 1046.28C1208.16 1041.58 1189.95 1037.72 1184.8 1036.94C1178.93 1035.53 1173.18 1033.71 1167.61 1031.49C1167.61 1031.49 1205.42 1036.17 1216.61 1043.17C1227.8 1050.18 1245.8 1055.66 1250.09 1054.11C1254.38 1052.55 1239.8 1034.61 1228.61 1023.71C1217.43 1012.81 1199.26 1000.28 1182.92 1000.28C1166.59 1000.28 1104.24 1004.66 1094.77 1004.66C1085.3 1004.66 1081.58 998.726 1038.67 960.546C995.756 922.365 968.154 884.147 937.246 871.767" stroke="#263238" stroke-linecap="round" stroke-linejoin="round"/>
<path d="M1182.92 1000.28C1166.59 1000.28 1104.24 1004.66 1094.77 1004.66C1085.3 1004.66 1081.58 998.726 1038.67 960.545C1016.42 940.713 998.247 920.993 981.506 904.942C930.508 913.283 918.422 944.495 915.809 962.362C930.256 970.972 945.254 978.795 960.723 985.789C1008.35 1007.35 1057.63 1025.79 1108.16 1040.95C1122.61 1045.18 1137.65 1047.54 1152.83 1047.95C1170.84 1047.95 1205.91 1051.1 1206.93 1046.4C1207.95 1041.69 1189.74 1037.83 1184.6 1037.05C1178.72 1035.64 1172.98 1033.82 1167.41 1031.61C1167.41 1031.61 1205.22 1036.28 1216.41 1043.28C1227.59 1050.29 1245.6 1055.77 1249.89 1054.22C1254.17 1052.66 1239.6 1034.72 1228.41 1023.82C1217.22 1012.92 1199.26 1000.28 1182.92 1000.28Z" fill="white" stroke="#263238" stroke-linecap="round" stroke-linejoin="round"/>
<path d="M1189.09 1021.3C1198.95 1023.27 1208.48 1026.42 1217.43 1030.68C1227.42 1036.17 1235.93 1043.64 1242.33 1052.51" fill="white"/>
<path d="M1189.09 1021.3C1198.95 1023.27 1208.48 1026.42 1217.43 1030.68C1227.42 1036.17 1235.93 1043.64 1242.33 1052.51" stroke="#263238" stroke-linecap="round" stroke-linejoin="round"/>
<path d="M1201.09 1012.74C1201.09 1012.74 1229.43 1020.52 1245.76 1041.58Z" fill="white"/>
<path d="M1201.09 1012.74C1201.09 1012.74 1229.43 1020.52 1245.76 1041.58" stroke="#263238" stroke-linecap="round" stroke-linejoin="round"/>
<path d="M722.843 760.376C719.918 760.383 717.056 759.602 714.62 758.132C712.184 756.662 710.283 754.569 709.158 752.118C708.033 749.666 707.734 746.967 708.3 744.362C708.866 741.756 710.27 739.362 712.336 737.482C714.401 735.601 717.035 734.319 719.903 733.799C722.771 733.278 725.745 733.541 728.449 734.556C731.152 735.571 733.463 737.29 735.089 739.498C736.715 741.705 737.583 744.301 737.583 746.957C737.583 750.509 736.031 753.917 733.268 756.432C730.505 758.948 726.756 760.366 722.843 760.376ZM722.843 737.282C720.723 737.275 718.649 737.839 716.884 738.903C715.119 739.968 713.741 741.484 712.926 743.26C712.112 745.036 711.896 746.992 712.308 748.879C712.719 750.767 713.739 752.501 715.237 753.861C716.736 755.222 718.646 756.147 720.725 756.521C722.804 756.895 724.958 756.699 726.915 755.959C728.871 755.22 730.541 753.969 731.714 752.366C732.886 750.764 733.507 748.881 733.499 746.957C733.499 745.686 733.224 744.428 732.688 743.254C732.153 742.081 731.368 741.014 730.378 740.116C729.389 739.217 728.214 738.505 726.921 738.018C725.628 737.532 724.242 737.282 722.843 737.282Z" fill="#263238"/>
<path d="M729.702 763.415C728.389 763.414 727.111 763.032 726.053 762.326C724.995 761.619 724.214 760.624 723.823 759.486L715.861 736.17C715.379 734.759 715.534 733.232 716.292 731.925C717.05 730.619 718.349 729.639 719.903 729.201C721.457 728.764 723.139 728.904 724.578 729.593C726.018 730.281 727.097 731.46 727.579 732.871L735.745 756.187C736.217 757.603 736.052 759.13 735.287 760.436C734.522 761.742 733.219 762.72 731.662 763.156C731.031 763.346 730.367 763.434 729.702 763.415Z" fill="#263238"/>
<path d="M642.487 632.452C642.487 632.452 645.917 582.558 639.058 542.042H724.802C724.802 542.042 716.187 595.828 724.802 627.003" fill="white"/>
<path d="M642.487 632.452C642.487 632.452 645.917 582.558 639.058 542.042H724.802C724.802 542.042 716.187 595.828 724.802 627.003" stroke="#263238" stroke-linecap="round" stroke-linejoin="round"/>
<path d="M671.723 315.961C671.723 315.961 619.622 300.17 589.081 340.241C572.463 362.037 565.807 398.253 550.169 436.619C543.111 453.989 541.929 472.877 546.774 490.861C551.619 508.845 562.27 525.105 577.362 537.557C605.658 561.169 649.592 559.575 649.592 559.575C649.592 559.575 614.437 506.864 616.397 467.534C618.357 428.205 677.929 408.521 682.788 376.272C685.262 355.627 681.434 334.763 671.723 315.961Z" fill="#263238" stroke="#263238" stroke-linecap="round" stroke-linejoin="round"/>
<path d="M567.44 514.463C569.306 519.569 571.627 524.527 574.382 529.29" stroke="white" stroke-linecap="round" stroke-linejoin="round"/>
<path d="M637.874 351.548C637.874 351.548 630.647 369.637 590.714 410.857C578.926 422.72 570.313 436.893 565.547 452.272C560.781 467.652 559.989 483.823 563.235 499.525" stroke="white" stroke-linecap="round" stroke-linejoin="round"/>
<path d="M606.434 446.183C606.434 446.183 593.531 432.95 589.244 447.74C584.957 462.531 587.529 479.693 592.674 487.515C594.354 489.809 596.666 491.663 599.382 492.892C602.097 494.122 605.12 494.683 608.149 494.521L606.434 446.183Z" fill="white" stroke="#263238" stroke-linecap="round" stroke-linejoin="round"/>
<path d="M652.123 378.348C652.123 378.348 604.065 418.864 604.065 430.577C604.065 442.291 601.452 493.594 610.068 510.868C618.683 528.142 657.268 573.217 678.745 577.109C700.222 581.001 746.565 528.92 750.893 516.317C755.221 503.714 756.895 447.703 752.608 433.691C748.321 419.679 665.679 372.862 652.123 378.348Z" fill="white" stroke="#263238" stroke-linecap="round" stroke-linejoin="round"/>
<path d="M655.349 462.531C655.349 467.238 653.43 471.093 651.266 471.093C649.102 471.093 646.979 467.386 646.979 462.531C646.979 457.675 648.898 453.931 651.266 453.931C653.634 453.931 655.349 457.86 655.349 462.531Z" fill="#263238"/>
<path d="M710.308 471.093C712.676 471.093 714.595 467.26 714.595 462.531C714.595 457.801 712.676 453.968 710.308 453.968C707.94 453.968 706.021 457.801 706.021 462.531C706.021 467.26 707.94 471.093 710.308 471.093Z" fill="#263238"/>
<path d="M627.87 441.476C627.87 441.476 635.628 428.205 661.392 432.135" stroke="#263238" stroke-linecap="round" stroke-linejoin="round"/>
<path d="M730.927 441.476C730.927 441.476 723.21 428.205 697.446 432.135" stroke="#263238" stroke-linecap="round" stroke-linejoin="round"/>
<path d="M681.114 499.933C683.923 500.183 686.742 499.546 689.093 498.127C691.444 496.709 693.183 494.597 694.016 492.148C694.016 492.148 684.258 465.273 692.71 443.181" stroke="#263238" stroke-linecap="round" stroke-linejoin="round"/>
<path d="M657.921 515.538C657.921 515.538 680.256 527.215 712.022 515.538C712.022 515.538 698.303 534.072 683.686 534.072C669.068 534.072 657.921 515.538 657.921 515.538Z" fill="#263238" stroke="#263238" stroke-linecap="round" stroke-linejoin="round"/>
<path d="M657.921 515.538C657.921 515.538 658.534 516.502 659.555 517.91C666.423 522.503 674.669 525.089 683.196 525.324C693.495 525.743 703.579 522.559 711.369 516.428L712.022 515.575C680.256 527.215 657.921 515.538 657.921 515.538Z" fill="white" stroke="#263238" stroke-width="0.5" stroke-linecap="round" stroke-linejoin="round"/>
<path d="M683.686 534.221C688.573 533.988 693.263 532.396 697.119 529.661C687.98 530.355 678.783 530.056 669.722 528.771C673.52 532.03 678.468 533.961 683.686 534.221Z" fill="white" stroke="#263238" stroke-width="0.5" stroke-linecap="round" stroke-linejoin="round"/>
<path d="M651.838 372.306C667.902 393.598 686.663 413.106 707.735 430.429C740.114 456.377 749.587 491.74 740.89 526.473C736.194 545.341 704.959 561.726 713.084 566.73C721.209 571.734 783.885 566.063 820.347 538.076C856.809 510.089 859.749 471.872 850.848 424.498C841.946 377.125 770.084 307.732 729.702 307.732C689.321 307.732 639.874 317.778 651.838 372.306Z" fill="#263238" stroke="#263238" stroke-linecap="round" stroke-linejoin="round"/>
<path d="M750.118 558.538C743.76 560.626 737.104 561.874 730.355 562.245" stroke="white" stroke-linecap="round" stroke-linejoin="round"/>
<path d="M684.176 375.383C694.625 386.253 706.484 395.937 719.494 404.222C763.061 432.209 801.156 468.462 790.254 509.645C787.396 522.739 780.966 534.974 771.554 545.231" stroke="white" stroke-linecap="round" stroke-linejoin="round"/>
<path d="M663.271 346.654C665.626 351.576 668.498 356.28 671.845 360.703" stroke="white" stroke-linecap="round" stroke-linejoin="round"/>
<path d="M705.204 346.654C705.204 346.654 808.587 402.665 832.188 448.778C855.788 494.891 835.822 526.177 810.425 541.004" stroke="white" stroke-linecap="round" stroke-linejoin="round"/>
<path d="M443.6 1075.57L548.004 1047.43V1041.32L226.951 1047.43L107.072 1075.57H443.6Z" fill="white" stroke="#263238" stroke-linecap="round" stroke-linejoin="round"/>
<path d="M443.6 1069.45L548.004 1041.32H226.951L107.072 1069.45H443.6Z" fill="white" stroke="#263238" stroke-linecap="round" stroke-linejoin="round"/>
<path d="M379.046 854.975H70.7325C68.7851 854.973 66.862 855.367 65.1048 856.129C63.3476 856.891 61.801 858.001 60.5788 859.378C59.3565 860.754 58.4898 862.362 58.0424 864.082C57.5949 865.803 57.5781 867.593 57.9932 869.32L106.99 1075.57H441.803L391.541 864.279C390.923 861.674 389.351 859.337 387.082 857.647C384.813 855.957 381.981 855.015 379.046 854.975Z" fill="white"/>
<mask id="mask3_228_4220" style="mask-type:luminance" maskUnits="userSpaceOnUse" x="57" y="854" width="385" height="222">
<path d="M379.046 854.975H70.7325C68.7851 854.973 66.862 855.367 65.1048 856.129C63.3476 856.891 61.801 858.001 60.5788 859.378C59.3565 860.754 58.4898 862.362 58.0424 864.082C57.5949 865.803 57.5781 867.593 57.9932 869.32L106.99 1075.57H441.803L391.541 864.279C390.923 861.674 389.351 859.337 387.082 857.647C384.813 855.957 381.981 855.015 379.046 854.975Z" fill="white"/>
</mask>
<g mask="url(#mask3_228_4220)">
<path d="M405.137 920.475C346.749 918.325 250.225 924.664 207.842 983.825C171.666 1034.28 129.488 1046.29 100.375 1047.25L107.072 1075.46H441.885L405.137 920.475Z" fill="#1FBD59"/>
</g>
<path d="M379.046 854.975H70.7325C68.7851 854.973 66.862 855.367 65.1048 856.129C63.3476 856.891 61.801 858.001 60.5788 859.378C59.3565 860.754 58.4898 862.362 58.0424 864.082C57.5949 865.803 57.5781 867.593 57.9932 869.32L106.99 1075.57H441.803L391.541 864.279C390.923 861.674 389.351 859.337 387.082 857.647C384.813 855.957 381.981 855.015 379.046 854.975Z" stroke="#263238" stroke-linecap="round" stroke-linejoin="round"/>
<path d="M268.313 962.325C268.313 973.075 256.064 981.749 240.997 981.749C225.93 981.749 213.681 973.075 213.681 962.325C213.681 951.575 225.93 942.901 240.997 942.901C256.064 942.901 268.313 951.612 268.313 962.325Z" fill="#263238"/>
</svg>
