<svg width="1351" height="1178" viewBox="0 0 1351 1178" fill="none" xmlns="http://www.w3.org/2000/svg">
<path d="M631.864 1177.36C960.595 1177.36 1227.08 1148.58 1227.08 1113.08C1227.08 1077.58 960.595 1048.8 631.864 1048.8C303.134 1048.8 36.645 1077.58 36.645 1113.08C36.645 1148.58 303.134 1177.36 631.864 1177.36Z" fill="#1FBD59"/>
<path opacity="0.5" d="M631.864 1177.36C960.595 1177.36 1227.08 1148.58 1227.08 1113.08C1227.08 1077.58 960.595 1048.8 631.864 1048.8C303.134 1048.8 36.645 1077.58 36.645 1113.08C36.645 1148.58 303.134 1177.36 631.864 1177.36Z" fill="white"/>
<path d="M1350 285.846H1059.87V1051.91H1350V285.846Z" fill="white" stroke="#263238" stroke-width="0.75" stroke-miterlimit="10"/>
<path d="M1328.79 306.201H1081.08V503.456H1328.79V306.201Z" stroke="#263238" stroke-width="0.75" stroke-miterlimit="10"/>
<path d="M1329.88 549.879H1082.17V747.134H1329.88V549.879Z" stroke="#263238" stroke-width="0.75" stroke-miterlimit="10"/>
<path d="M1329.88 793.556H1082.17V990.81H1329.88V793.556Z" stroke="#263238" stroke-width="0.75" stroke-miterlimit="10"/>
<path d="M1237.31 324.024H1172.59V369.832H1237.31V324.024Z" fill="#263238"/>
<path d="M1237.31 573.449H1172.59V619.256H1237.31V573.449Z" fill="#263238"/>
<path d="M1237.31 822.84H1172.59V868.647H1237.31V822.84Z" fill="#263238"/>
<path d="M923.197 118.696H334.272V558.123H923.197V118.696Z" fill="#263238" stroke="#263238" stroke-linecap="round" stroke-linejoin="round"/>
<path d="M906.502 132.757H351.035V544.029H906.502V132.757Z" fill="white" stroke="#263238" stroke-linecap="round" stroke-linejoin="round"/>
<path d="M406.318 191.632L401.734 243.597L447.336 248.147L451.886 188.896L406.318 191.632Z" fill="white" stroke="#263238" stroke-linecap="round" stroke-linejoin="round"/>
<path d="M548.529 280.954V319.269L592.283 322.896L594.097 285.538L548.529 280.954Z" fill="white" stroke="#263238" stroke-linecap="round" stroke-linejoin="round"/>
<path d="M535.871 217.666V255.947L579.626 259.607L581.439 222.216L535.871 217.666Z" fill="white" stroke="#263238" stroke-linecap="round" stroke-linejoin="round"/>
<path d="M485.206 361.998V400.279L528.961 403.939L530.808 366.548L485.206 361.998Z" fill="white" stroke="#263238" stroke-linecap="round" stroke-linejoin="round"/>
<path d="M466.459 186.159L598.681 168.849L599.57 189.819L472.857 207.13L466.459 186.159Z" fill="#1FBD59" stroke="#263238" stroke-linecap="round" stroke-linejoin="round"/>
<path d="M616.265 462.165L748.247 480.81L743.526 501.267L616.812 484.094L616.265 462.165Z" fill="white" stroke="#263238" stroke-linecap="round" stroke-linejoin="round"/>
<path d="M457.359 265.457V316.532H502.038L500.19 264.567L457.359 265.457Z" fill="#1FBD59" stroke="#263238" stroke-linecap="round" stroke-linejoin="round"/>
<path d="M822.003 328.78V379.821H866.682L864.834 327.856L822.003 328.78Z" fill="#1FBD59" stroke="#263238" stroke-linecap="round" stroke-linejoin="round"/>
<path d="M677.979 169.738V236.311L721.734 241.75V167.925L677.979 169.738Z" fill="#1FBD59" stroke="#263238" stroke-linecap="round" stroke-linejoin="round"/>
<path d="M803.77 238.124L755.465 230.837L749.991 280.954L795.559 288.275L803.77 238.124Z" fill="white" stroke="#263238" stroke-linecap="round" stroke-linejoin="round"/>
<path d="M705.313 342.053L727.208 398.568L780.096 373.047L752.728 323.819L705.313 342.053Z" fill="#1FBD59" stroke="#263238" stroke-linecap="round" stroke-linejoin="round"/>
<path d="M602.307 239.047L615.067 360.288L672.506 355.738L661.559 231.727L602.307 239.047Z" fill="white" stroke="#263238" stroke-linecap="round" stroke-linejoin="round"/>
<path d="M426.365 353.89L417.231 422.275L459.172 425.936L469.196 356.626L426.365 353.89Z" fill="#1FBD59" stroke="#263238" stroke-linecap="round" stroke-linejoin="round"/>
<path d="M597.347 355.908L550.855 362.306L562.692 429.768L611.92 421.557L597.347 355.908Z" fill="#1FBD59" stroke="#263238" stroke-linecap="round" stroke-linejoin="round"/>
<path d="M847.969 300.694C846.668 292.555 843.526 284.821 838.783 278.08C834.041 271.339 827.822 265.77 820.601 261.797" stroke="#263238" stroke-linecap="round" stroke-linejoin="round"/>
<path d="M817.693 271.889L814.819 257.452L837.877 258.923" stroke="#263238" stroke-linecap="round" stroke-linejoin="round"/>
<path d="M714.003 185.475L688.072 220.027" stroke="#263238" stroke-linecap="round" stroke-linejoin="round"/>
<path d="M688.072 188.348L714.003 214.279" stroke="#263238" stroke-linecap="round" stroke-linejoin="round"/>
<path d="M411.552 263.233C412.345 272.664 416.358 281.534 422.917 288.355C429.477 295.176 438.183 299.533 447.575 300.693" stroke="#263238" stroke-linecap="round" stroke-linejoin="round"/>
<path d="M443.231 289.165L454.759 303.567L433.173 309.315" stroke="#263238" stroke-linecap="round" stroke-linejoin="round"/>
<path d="M663.612 201.314C663.612 201.314 616.06 191.051 594.473 221.464" stroke="#263238" stroke-linecap="round" stroke-linejoin="round"/>
<path d="M588.726 212.808L587.255 231.555L608.876 222.9" stroke="#263238" stroke-linecap="round" stroke-linejoin="round"/>
<path d="M214.366 827.731C214.366 827.731 168.182 864.404 145.946 902.617C123.709 940.83 124.53 966.761 124.53 966.761C124.53 966.761 189.529 920.133 204.445 888.659C213.348 869.666 216.783 848.568 214.366 827.731Z" fill="#1FBD59"/>
<path d="M19.3692 776.587C19.3692 776.587 9.10621 842.441 33.4979 882.98C57.8896 923.519 124.394 965.7 124.394 965.7C124.394 965.7 134.007 936.108 99.0442 891.156C64.0816 846.204 19.3692 776.587 19.3692 776.587Z" fill="#1FBD59"/>
<path d="M127.849 892.696C125.604 856.309 114.595 821.005 95.7599 789.792C64.2868 737.554 26.6216 684.631 17.7612 662.121C11.8718 646.516 7.10448 630.51 3.49564 614.227C3.49564 614.227 -9.60678 657.673 14.9218 715.454C39.4503 773.234 127.849 892.696 127.849 892.696Z" fill="#1FBD59"/>
<path d="M125.42 871.862C149.595 840.24 170.631 806.337 188.229 770.635C213.853 716.617 209.782 660.547 209.782 660.547C209.782 660.547 161.614 722.98 146.288 771.695C136.487 804.428 129.506 837.939 125.42 871.862Z" fill="#1FBD59"/>
<path d="M118.133 765.264C118.133 765.264 109.376 687.676 88.4733 644.606C67.571 601.535 24.7401 535.134 24.7401 535.134C24.7401 535.134 19.3692 609.335 53.1344 668.792C72.0097 702.744 93.7554 735.019 118.133 765.264Z" fill="#1FBD59"/>
<path d="M116.389 720.518C116.389 720.518 159.904 655.69 171.809 609.335C183.714 562.981 194.08 484.503 194.08 484.503C194.08 484.503 141.875 537.939 129.081 605.025C121.574 643.091 117.328 681.729 116.389 720.518Z" fill="#1FBD59"/>
<path d="M138.009 440.68C138.009 440.68 96.9574 470.853 103.594 534.107C110.231 597.361 116.252 618.708 116.252 618.708C109.82 575.433 138.009 440.68 138.009 440.68Z" fill="#1FBD59"/>
<g opacity="0.5">
<path d="M214.366 827.731C214.366 827.731 168.182 864.404 145.946 902.617C123.709 940.83 124.53 966.761 124.53 966.761C124.53 966.761 189.529 920.133 204.445 888.659C213.348 869.666 216.783 848.568 214.366 827.731Z" fill="white"/>
<path d="M19.3692 776.587C19.3692 776.587 9.10621 842.441 33.4979 882.98C57.8896 923.519 124.394 965.7 124.394 965.7C124.394 965.7 134.007 936.108 99.0442 891.156C64.0816 846.204 19.3692 776.587 19.3692 776.587Z" fill="white"/>
<path d="M127.849 892.696C125.604 856.309 114.595 821.005 95.7599 789.792C64.2868 737.554 26.6216 684.631 17.7612 662.121C11.8718 646.516 7.10448 630.51 3.49564 614.227C3.49564 614.227 -9.60678 657.673 14.9218 715.454C39.4503 773.234 127.849 892.696 127.849 892.696Z" fill="white"/>
<path d="M125.42 871.862C149.595 840.24 170.631 806.337 188.229 770.635C213.853 716.617 209.782 660.547 209.782 660.547C209.782 660.547 161.614 722.98 146.288 771.695C136.487 804.428 129.506 837.939 125.42 871.862Z" fill="white"/>
<path d="M118.133 765.264C118.133 765.264 109.376 687.676 88.4733 644.606C67.571 601.535 24.7401 535.134 24.7401 535.134C24.7401 535.134 19.3692 609.335 53.1344 668.792C72.0097 702.744 93.7554 735.019 118.133 765.264Z" fill="white"/>
<path d="M116.389 720.518C116.389 720.518 159.904 655.69 171.809 609.335C183.714 562.981 194.08 484.503 194.08 484.503C194.08 484.503 141.875 537.939 129.081 605.025C121.574 643.091 117.328 681.729 116.389 720.518Z" fill="white"/>
<path d="M138.009 440.68C138.009 440.68 96.9574 470.853 103.594 534.107C110.231 597.361 116.252 618.708 116.252 618.708C109.82 575.433 138.009 440.68 138.009 440.68Z" fill="white"/>
</g>
<path d="M123.572 986.876C123.572 986.876 127.336 976.853 127.336 900.53C127.336 824.208 117.346 794.171 117.346 719.217C117.346 644.263 112.317 574.064 112.317 574.064" stroke="#1FBD59" stroke-width="0.75" stroke-miterlimit="10"/>
<path d="M117.859 757.704C117.859 757.704 90.4914 699.102 79.1337 677.105C68.4944 656.579 56.1104 623.737 56.1104 623.737" stroke="#1FBD59" stroke-width="0.75" stroke-miterlimit="10"/>
<path d="M58.2314 767.111C58.2314 767.111 118.988 880.004 127.849 892.696" stroke="#1FBD59" stroke-width="0.75" stroke-miterlimit="10"/>
<path d="M127.302 862.352L176.461 745.148" stroke="#1FBD59" stroke-width="0.75" stroke-miterlimit="10"/>
<path d="M68.6997 892.696C80.1943 911.512 127.301 960.706 127.301 960.706C127.301 960.706 158.672 927.214 178.616 896.87" stroke="#1FBD59" stroke-width="0.75" stroke-miterlimit="10"/>
<path d="M117.859 709.57L148.204 607.009" stroke="#1FBD59" stroke-width="0.75" stroke-miterlimit="10"/>
<path d="M157.064 973.637H88.5757V998.097H95.0414L103.354 1051.91H142.251L150.598 998.097H157.064V973.637Z" fill="#1FBD59"/>
<path d="M157.064 973.637H88.5757V998.097H95.0414L103.354 1051.91H142.251L150.598 998.097H157.064V973.637Z" fill="#1FBD59"/>
<path d="M901.61 1067.51C901.61 1067.51 859.498 1090.02 859.019 1094.88C858.54 1099.74 884.95 1099.77 904.518 1097.31C924.086 1094.84 941.225 1091.94 938.283 1083.62C935.341 1075.31 904.073 1066.52 904.073 1066.52L901.61 1067.51Z" fill="#1FBD59" stroke="#263238" stroke-linecap="round" stroke-linejoin="round"/>
<path d="M1060.65 1088.07C1060.65 1088.07 1078.24 1110.07 1080.22 1121.32C1082.2 1132.58 1072.39 1131.58 1051.83 1121.83C1039.84 1116.31 1029.41 1107.89 1021.48 1097.34L1060.65 1088.07Z" fill="#1FBD59" stroke="#263238" stroke-linecap="round" stroke-linejoin="round"/>
<path d="M893.263 612.894C893.263 612.894 887.892 655.451 894.255 718.089C900.618 780.728 909.41 860.505 909.41 915.789C909.41 971.072 902.089 1027.86 900.139 1045.96C899.403 1054.91 897.764 1063.77 895.247 1072.4C895.247 1072.4 911.873 1079.24 927.541 1083.66C943.209 1088.07 973.519 1090.5 973.519 1090.5C973.519 1090.5 976.94 1051.84 976.94 983.832C976.94 915.823 972.048 858.555 972.048 858.555C972.048 858.555 988.195 955.917 993.087 1004.87C996.048 1034.8 996.38 1064.93 994.08 1094.91C994.08 1094.91 995.551 1100.28 1025.89 1098.81C1043.31 1098.16 1060.5 1094.69 1076.8 1088.55C1076.8 1088.55 1062.77 988.724 1061.61 946.578C1060.45 904.431 1043.03 861.908 1030.82 833.685C1018.61 805.462 1016.62 795.506 1020.56 779.872C1024.49 764.238 1047.45 688.361 1047.45 653.125C1047.45 617.888 1045.5 608.652 1045.5 608.652C1045.5 608.652 1040.61 601.296 980.909 599.346C921.212 597.397 893.263 612.894 893.263 612.894Z" fill="#263238" stroke="#263238" stroke-linecap="round" stroke-linejoin="round"/>
<path d="M967.909 845.624C970.338 854.211 972.048 858.555 972.048 858.555" stroke="white" stroke-linecap="round" stroke-linejoin="round"/>
<path d="M952.001 638.688C952.001 638.688 950.052 732.628 955.901 782.575C957.903 800.192 960.976 817.672 965.104 834.916" stroke="white" stroke-linecap="round" stroke-linejoin="round"/>
<path d="M1041.7 873.744C1043.56 878.04 1045.07 882.479 1046.22 887.018" stroke="white" stroke-linecap="round" stroke-linejoin="round"/>
<path d="M1039 650.011C1037.01 672.399 1033.53 694.628 1028.56 716.549C1016.73 768.617 1006.05 800.603 1007.25 812.337C1008.17 821.471 1026.82 843.4 1038.48 866.56" stroke="white" stroke-linecap="round" stroke-linejoin="round"/>
<path d="M993.19 185.063C993.19 185.063 982.927 164.88 1006.05 147.432C1029.18 129.985 1067.15 149.28 1070.37 167.651C1073.58 186.021 1061.17 199.808 1066.23 209.455C1071.29 219.102 1094.25 222.763 1106.19 236.823C1118.12 250.883 1122.71 274.454 1115.83 288.72C1108.96 302.985 1095.61 314.446 1103.89 323.169C1112.17 331.893 1133.28 349.819 1133.28 369.558C1133.28 389.297 1115.35 409.96 1100.2 417.794C1085.04 425.628 1057.5 415.023 1043.24 407.223C1028.97 399.423 1017.07 376.434 1021.21 354.848C1025.35 333.261 1040.95 331.448 1033.63 319.509C1026.31 307.569 1012.48 298.983 1018.92 287.351C1025.35 275.72 1034.52 267.133 1033.15 257.041C1031.78 246.949 1017.55 238.226 1017.55 238.226C1017.55 238.226 1001.91 203.297 998.698 196.421C995.482 189.545 993.19 185.063 993.19 185.063Z" fill="#263238" stroke="#263238" stroke-linecap="round" stroke-linejoin="round"/>
<path d="M1015.67 186.603C1015.67 186.603 1022.3 162.177 1044.54 165.495C1066.78 168.814 1047.96 194.369 1052.3 213.389C1056.65 232.41 1101.19 231.179 1103.41 263.404C1105.64 295.63 1066.74 311.298 1073.41 335.622C1080.08 359.945 1120.07 358.953 1111.21 385.602C1102.35 412.252 1092.3 414.51 1083.44 404.521" stroke="white" stroke-width="0.75" stroke-linecap="round" stroke-linejoin="round"/>
<path d="M1042.25 248.694C1042.25 248.694 1074.47 260.907 1073.34 278.696C1072.22 296.486 1040.02 302.028 1052.24 328.677" stroke="white" stroke-width="0.75" stroke-linecap="round" stroke-linejoin="round"/>
<path d="M973.04 320.74C973.04 320.74 903.56 335.895 899.147 341.266C894.734 346.637 828.674 442.049 828.674 442.049L743.149 393.607L732.886 413.21L822.311 491.585L897.197 449.028L905.989 488.643C905.989 488.643 892.305 571.841 890.355 590.931C888.405 610.02 887.892 619.325 887.892 619.325C913.05 626.207 939.179 628.855 965.206 627.159C992.828 625.602 1019.98 619.307 1045.46 608.549C1045.46 608.549 1026.37 551.281 1018.54 531.234C1010.71 511.187 1002.39 487.685 1002.39 487.685L1027.37 431.888L1058.15 504.071L1101.74 488.403C1101.74 488.403 1068.35 351.563 1064.93 346.261C1061.51 340.958 1010.6 323.238 1010.6 323.238L973.04 320.74Z" fill="#1FBD59" stroke="#263238" stroke-linecap="round" stroke-linejoin="round"/>
<path d="M907.46 394.155L899.421 367.3" stroke="#263238" stroke-linecap="round" stroke-linejoin="round"/>
<path d="M962.162 366.103C954.707 385.89 948.38 406.083 943.209 426.586C934.93 459.735 940.849 472.769 940.849 494.082C940.849 515.395 945.604 621.925 945.604 621.925" stroke="#263238" stroke-linecap="round" stroke-linejoin="round"/>
<path d="M897.197 448.959C897.197 448.959 887.413 420.086 889.842 412.252C892.271 404.418 906.502 395.626 907.46 394.155C908.418 392.684 914.815 377.05 914.815 377.05" stroke="#263238" stroke-linecap="round" stroke-linejoin="round"/>
<path d="M1010.71 393.334L1027.37 431.82L1008.35 411.089" stroke="#263238" stroke-linecap="round" stroke-linejoin="round"/>
<path d="M976.461 311.435C976.461 311.435 962.264 313.898 958.843 319.269C955.422 324.64 937.804 363.297 937.804 363.297L970.577 349.134L991.103 377.015C991.103 377.015 1018.03 327.582 1018.47 323.682C1018.92 319.782 1001.85 309.006 1000.37 309.006C998.903 309.006 976.461 311.435 976.461 311.435Z" fill="white" stroke="#263238" stroke-linecap="round" stroke-linejoin="round"/>
<path d="M967.67 308.493C968.46 318.272 968.46 328.1 967.67 337.879C966.198 348.142 961.306 362.818 963.735 362.339C966.164 361.86 996.03 328.574 999.964 321.732C1003.9 314.89 1004.34 296.759 1004.34 296.759C1004.34 296.759 980.396 310.956 967.67 308.493Z" fill="white" stroke="#263238" stroke-linecap="round" stroke-linejoin="round"/>
<path d="M1026.72 248.9C1026.72 248.9 1029.93 206.65 1017.07 194.164C1004.21 181.677 972.972 178.085 954.601 194.609C936.231 211.132 943.586 265.355 946.357 280.51C949.128 295.665 963.804 314.925 975.298 314.48C986.793 314.035 1001.91 299.77 1006.09 295.186C1010.26 290.602 1012.93 277.739 1012.93 277.739C1012.93 277.739 1026.27 272.676 1028.56 264.876C1029.72 259.492 1029.07 253.876 1026.72 248.9Z" fill="white" stroke="#263238" stroke-linecap="round" stroke-linejoin="round"/>
<path d="M964.796 240.997C965.154 245.264 964.262 249.543 962.23 253.313C958.98 257.828 955.08 258.478 955.73 261.078C956.38 263.678 962.88 265.799 962.88 265.799" stroke="#263238" stroke-linecap="round" stroke-linejoin="round"/>
<path d="M965.48 282.665C965.48 282.665 967.738 289.883 972.698 289.883C977.659 289.883 974.956 280.852 974.956 280.852C971.941 282.051 968.725 282.666 965.48 282.665Z" fill="#263238"/>
<path d="M961.341 280.578C961.341 280.578 971.056 285.094 977.522 278.628" stroke="#263238" stroke-linecap="round" stroke-linejoin="round"/>
<path d="M953.541 250.404C954.618 250.404 955.491 248.229 955.491 245.546C955.491 242.863 954.618 240.688 953.541 240.688C952.464 240.688 951.591 242.863 951.591 245.546C951.591 248.229 952.464 250.404 953.541 250.404Z" fill="#263238"/>
<path d="M978.822 247.496C978.822 250.199 977.967 252.354 976.906 252.354C975.846 252.354 974.956 250.199 974.956 247.496C974.956 244.794 975.812 242.639 976.906 242.639C978.001 242.639 978.822 244.828 978.822 247.496Z" fill="#263238"/>
<path d="M946.459 235.832C946.831 234.856 947.391 233.964 948.109 233.206C948.827 232.448 949.688 231.84 950.643 231.417C951.597 230.994 952.625 230.765 953.669 230.741C954.712 230.718 955.75 230.902 956.722 231.282" stroke="#263238" stroke-linecap="round" stroke-linejoin="round"/>
<path d="M970.406 230.631C971.976 230.006 973.665 229.734 975.351 229.835C977.038 229.935 978.682 230.405 980.167 231.211C981.653 232.017 982.942 233.14 983.945 234.5C984.948 235.86 985.64 237.424 985.972 239.081" stroke="#263238" stroke-linecap="round" stroke-linejoin="round"/>
<path d="M1017.07 194.266C1004.21 181.847 972.972 178.187 954.601 194.71C951.06 198.186 948.418 202.471 946.904 207.197C953.837 203.488 961.47 201.274 969.312 200.697C985.39 199.294 1001.47 210.344 1006.05 221.223C1010.64 232.102 1011.46 257.178 1011.46 257.178C1011.46 257.178 1017.45 247.53 1021.11 246.607C1022.15 246.351 1023.24 246.436 1024.24 246.848C1025.23 247.26 1026.06 247.979 1026.61 248.899C1026.61 248.899 1029.93 206.65 1017.07 194.266Z" fill="#263238" stroke="#263238" stroke-linecap="round" stroke-linejoin="round"/>
<path d="M1070.03 478.551L959.938 528.839L963.838 543.036C963.838 543.036 1108.96 512.247 1108.96 508.176C1108.96 504.105 1096.98 472.188 1096.98 472.188" fill="#1FBD59"/>
<path d="M1070.03 478.551L959.938 528.839L963.838 543.036C963.838 543.036 1108.96 512.247 1108.96 508.176C1108.96 504.105 1096.98 472.188 1096.98 472.188" stroke="#263238" stroke-linecap="round" stroke-linejoin="round"/>
<path d="M930.962 464.216C933.454 468.008 935.217 472.231 936.162 476.669C938.728 485.974 941.841 514.471 943.004 521.723C944.167 528.976 956.449 564.178 956.449 564.178L947.657 566.265L917.073 475.608C917.073 475.608 921.144 461.103 930.962 464.216Z" fill="white" stroke="#263238" stroke-linecap="round" stroke-linejoin="round"/>
<path d="M859.6 489.19L887.994 586.586L951.591 570.917L926.652 475.506L859.6 489.19Z" fill="white" stroke="#263238" stroke-linecap="round" stroke-linejoin="round"/>
<path d="M859.6 489.19C859.6 489.19 853.785 492.201 853.785 486.488C853.785 480.775 856.385 478.722 862.611 478.209C868.837 477.696 910.778 469.417 920.597 465.243C930.415 461.07 930.86 464.217 930.86 464.217C929.095 465.453 927.742 467.188 926.973 469.201C926.205 471.213 926.057 473.409 926.549 475.506L859.6 489.19Z" fill="white" stroke="#263238" stroke-linecap="round" stroke-linejoin="round"/>
<path d="M959.938 528.839C959.938 528.839 936.915 523.947 935.444 523.947C933.973 523.947 905.613 544.028 905.613 544.028L908.041 552.341C909.813 552.745 911.632 552.906 913.447 552.82C917.347 552.82 931.544 551.828 931.544 551.828L912.455 556.584L913.926 560.005C913.926 560.005 940.336 555.113 943.791 554.599C947.246 554.086 963.838 542.865 963.838 542.865L959.938 528.839Z" fill="white" stroke="#263238" stroke-linecap="round" stroke-linejoin="round"/>
<path d="M737.163 375.065L716.124 367.607L692.621 351.084L690.671 355.497L709.487 376.331L701.448 394.633L717.595 406.88L732.271 414.68L743.047 393.641L737.163 375.065Z" fill="white" stroke="#263238" stroke-linecap="round" stroke-linejoin="round"/>
<path d="M742.055 391.691C742.055 391.691 739.626 374.586 736.205 370.652C732.079 366.721 727.653 363.118 722.966 359.876L717.595 351.084C717.595 351.084 714.653 351.563 714.653 354.026C715.815 359.217 717.453 364.29 719.545 369.181C720.818 372.561 722.645 375.706 724.95 378.486C724.95 378.486 721.529 386.32 723.479 391.212C725.138 394.726 727.462 397.886 730.321 400.517" fill="white"/>
<path d="M742.055 391.691C742.055 391.691 739.626 374.586 736.205 370.652C732.079 366.721 727.653 363.118 722.966 359.876L717.595 351.084C717.595 351.084 714.653 351.563 714.653 354.026C715.815 359.217 717.453 364.29 719.545 369.181C720.818 372.561 722.645 375.706 724.95 378.486C724.95 378.486 721.529 386.32 723.479 391.212C725.138 394.726 727.462 397.886 730.321 400.517" stroke="#263238" stroke-linecap="round" stroke-linejoin="round"/>
<path d="M703.569 367.231C703.569 367.231 693.785 393.642 695.256 395.626C696.727 397.61 709.932 401.476 711.403 400.005C712.874 398.534 720.708 379.479 720.708 379.479L703.569 367.231Z" fill="white" stroke="#263238" stroke-linecap="round" stroke-linejoin="round"/>
<path d="M1040.3 626.577C1040.3 626.577 1040.3 630.34 1039.92 637.148" stroke="white" stroke-linecap="round" stroke-linejoin="round"/>
<path d="M374.571 338.667C374.571 338.667 404.3 424.671 411.21 446.428C418.121 468.186 424.894 506.433 423.389 512.283C421.884 518.132 393.66 489.43 381.995 493.707C370.329 497.983 371.39 505.92 371.39 505.92L358.048 471.915L374.571 338.667Z" fill="#1FBD59" stroke="#263238" stroke-linecap="round" stroke-linejoin="round"/>
<path d="M368.584 475.78C368.584 475.78 383.945 458.675 401.392 462.404" stroke="#263238" stroke-linecap="round" stroke-linejoin="round"/>
<path d="M367.729 469.862C367.729 469.862 376.453 447.42 396.397 447.42" stroke="#263238" stroke-linecap="round" stroke-linejoin="round"/>
<path d="M385.724 522.888C385.724 522.888 374.024 517.038 371.39 511.222C368.755 505.406 369.234 486.249 376.145 480.433C383.055 474.617 404.3 475.644 409.602 477.765C414.905 479.886 422.328 493.159 425.544 501.13C428.76 509.101 428.726 519.706 424.449 523.948C422.783 525.868 420.643 527.32 418.243 528.16C415.843 529 413.266 529.199 410.765 528.737C405.942 527.677 385.724 522.888 385.724 522.888Z" fill="#1FBD59" stroke="#263238" stroke-linecap="round" stroke-linejoin="round"/>
<path d="M243.957 309.999C243.957 309.999 175.537 347.63 171.74 357.893C167.943 368.156 216.213 567.6 216.213 567.6C217.046 569.749 218.499 571.602 220.388 572.924C222.276 574.245 224.514 574.976 226.818 575.024C234.789 575.024 347.887 572.903 351.582 571.842C355.277 570.782 356.919 565 356.919 562.298C356.919 559.595 377.068 344.072 374.434 338.77C371.8 333.467 289.628 300.01 289.628 300.01L260.412 301.07L243.957 309.999Z" fill="#1FBD59" stroke="#263238" stroke-linecap="round" stroke-linejoin="round"/>
<path d="M255.11 281.33C248.876 286.624 243.149 292.488 238.005 298.846C231.163 307.877 234.823 321.664 239.065 331.756C243.307 341.848 256.581 370.003 256.581 370.003C256.581 370.003 286.857 342.395 288.465 341.335C290.072 340.274 335.161 349.819 335.161 349.819C335.161 349.819 329.859 321.664 314.464 300.454C299.07 279.243 282.067 274.42 275.191 273.907C268.315 273.394 255.11 281.33 255.11 281.33Z" fill="#1FBD59" stroke="#263238" stroke-linecap="round" stroke-linejoin="round"/>
<path d="M243.41 260.086C243.41 260.086 250.252 284.512 251.928 290.875C253.605 297.238 263.594 315.301 270.504 324.332C277.415 333.364 292.809 346.637 293.87 341.848C294.93 337.058 304.475 264.875 299.685 253.723C294.896 242.57 254.049 210.174 243.957 216.092C233.865 222.01 243.41 260.086 243.41 260.086Z" fill="white" stroke="#263238" stroke-linecap="round" stroke-linejoin="round"/>
<path d="M337.521 258.513C337.521 258.513 331.706 270.178 310.461 261.694C289.217 253.21 280.185 240.997 277.551 233.026L273.036 219.342C277.312 214.279 283.299 208.874 282.854 204.392C282.515 201.501 281.418 198.751 279.672 196.422L309.401 182.738C309.401 182.738 317.885 179.043 314.19 168.404C310.495 157.764 287.643 144.457 257.915 154.72C228.186 164.983 214.365 189.477 220.592 210.721C226.818 231.966 246.078 265.457 246.078 265.457C246.078 265.457 253.502 268.126 257.231 264.397C260.959 260.668 256.17 246.368 256.17 246.368L257.846 245C261.267 252.321 269.615 269.255 272.112 275.036C275.293 282.46 276.354 287.762 289.627 289.37C302.901 290.978 336.871 299.462 340.053 287.762C343.234 276.062 337.521 258.513 337.521 258.513Z" fill="#263238" stroke="#263238" stroke-linecap="round" stroke-linejoin="round"/>
<path d="M265.681 193.377C256.994 194.403 248.732 197.707 241.734 202.956C228.837 212.021 227.4 220.061 227.4 220.061L253.228 207.164C253.228 207.164 235.029 222.934 232.702 227.245C230.376 231.555 251.86 218.145 251.86 218.145L240.365 232.513L254.255 227.245" stroke="white" stroke-width="0.5" stroke-linecap="round" stroke-linejoin="round"/>
<path d="M262.02 193.206C262.02 193.206 274.746 200.629 272.112 207.54C269.478 214.45 262.533 222.387 263.081 224.645C263.628 226.903 278.475 261.831 284.291 267.647C290.106 273.462 329.961 278.286 335.811 272.436C341.661 266.586 331.569 235.01 324.111 214.484C316.653 193.959 311.385 176.854 311.385 176.854L262.02 193.206Z" fill="white" stroke="#263238" stroke-linecap="round" stroke-linejoin="round"/>
<path d="M318.672 203.503L312.891 210.003L324.454 235.25L313.609 241.031" stroke="#263238" stroke-linecap="round" stroke-linejoin="round"/>
<path d="M300.951 220.711C301.84 222.934 301.533 225.124 300.301 225.603C299.069 226.082 297.393 224.679 296.504 222.49C295.614 220.3 295.922 218.077 297.154 217.598C298.385 217.119 300.096 218.521 300.951 220.711Z" fill="#263238"/>
<path d="M320.075 212.603C320.964 214.792 320.69 216.982 319.459 217.461C318.227 217.94 316.517 216.571 315.627 214.348C314.738 212.124 315.046 209.969 316.277 209.456C317.509 208.943 319.219 210.379 320.075 212.603Z" fill="#263238"/>
<path d="M301.601 249.823L315.011 251.26" stroke="#263238" stroke-linecap="round" stroke-linejoin="round"/>
<path d="M301.122 212.5H284.394" stroke="#263238" stroke-linecap="round" stroke-linejoin="round"/>
<path d="M261.302 252.766C259.728 250.645 252.818 236.311 245.907 239.082C238.997 241.853 242.213 253.416 248.028 260.839C253.844 268.263 265.578 261.352 265.578 261.352" fill="white"/>
<path d="M261.302 252.766C259.728 250.645 252.818 236.311 245.907 239.082C238.997 241.853 242.213 253.416 248.028 260.839C253.844 268.263 265.578 261.352 265.578 261.352" stroke="#263238" stroke-linecap="round" stroke-linejoin="round"/>
<path d="M186.621 353.001C186.621 353.001 172.937 359.843 168.559 367.882C164.18 375.922 163.803 392.821 165.377 399.732C166.951 406.642 237.594 494.22 237.594 494.22L267.323 464.491L232.292 377.427" fill="#1FBD59"/>
<path d="M186.621 353.001C186.621 353.001 172.937 359.843 168.559 367.882C164.18 375.922 163.803 392.821 165.377 399.732C166.951 406.642 237.594 494.22 237.594 494.22L267.323 464.491L232.292 377.427" stroke="#263238" stroke-linecap="round" stroke-linejoin="round"/>
<path d="M270.504 438.491C270.504 438.491 249.26 442.733 243.957 449.644C238.655 456.554 225.381 485.188 225.381 498.461C225.381 511.735 256.17 521.827 268.383 521.827C280.596 521.827 297.564 515.464 299.685 501.643C301.806 487.822 292.843 464.012 290.141 460.249C287.438 456.486 270.504 438.491 270.504 438.491Z" fill="#1FBD59" stroke="#263238" stroke-linecap="round" stroke-linejoin="round"/>
<path d="M296.47 294.604L301.259 259.573L324.077 260.086C324.077 260.086 326.745 262.207 324.624 263.815C322.503 265.423 310.29 266.997 310.29 266.997L309.743 273.36L326.198 271.239C328.057 273.91 329.661 276.751 330.987 279.723C331.535 281.844 327.293 295.665 327.293 295.665L323.017 296.725L321.443 289.302L314.019 292.483C314.019 292.483 312.411 310.546 310.804 312.12C307.757 314.436 304.569 316.562 301.259 318.483C301.259 318.483 295.409 468.733 295.409 475.643C295.409 494.219 284.257 501.13 271.462 502.704C258.668 504.277 251.278 492.646 249.705 483.067C248.131 473.488 296.47 294.604 296.47 294.604Z" fill="white" stroke="#263238" stroke-linecap="round" stroke-linejoin="round"/>
<path d="M156.893 1072.92C156.893 1072.92 110.71 1111.13 105.92 1118.59C101.131 1126.04 113.344 1126.01 120.801 1123.89C128.259 1121.77 141.327 1119.65 150.53 1113.25C156.343 1109.1 161.843 1104.52 166.985 1099.56L167.498 1106.99C167.498 1106.99 176.016 1104.32 176.53 1102.75C177.043 1101.17 179.301 1084.17 179.301 1084.17L156.893 1072.92Z" fill="#1FBD59" stroke="#263238" stroke-linecap="round" stroke-linejoin="round"/>
<path d="M415.452 1072.92C415.452 1072.92 461.635 1111.13 466.391 1118.59C471.146 1126.04 458.967 1126.01 451.543 1123.89C444.12 1121.77 430.846 1119.65 421.815 1113.25C415.994 1109.11 410.493 1104.53 405.36 1099.56L404.813 1106.99C404.813 1106.99 396.329 1104.32 395.781 1102.75C395.234 1101.17 393.044 1084.17 393.044 1084.17L415.452 1072.92Z" fill="#1FBD59" stroke="#263238" stroke-linecap="round" stroke-linejoin="round"/>
<path d="M411.415 951.88C410.902 929.028 394.515 893.997 394.515 892.389C394.515 890.781 370.945 681.621 370.945 681.621L356.063 567.497L285.112 568.489L214.126 567.497L199.279 681.621C199.279 681.621 175.708 890.816 175.708 892.389C175.708 893.963 159.287 929.028 158.603 951.88C157.919 974.733 152.788 1076.1 152.788 1076.1L179.437 1084.07C179.437 1084.07 227.092 920.544 234.755 889.071C242.418 857.598 257.299 781.309 262.944 752.641C268.588 723.973 283.949 677.79 283.949 677.79L285.249 677.482L286.514 677.79C286.514 677.79 301.909 723.973 307.519 752.641C313.13 781.309 328.045 857.769 335.708 889.071C343.371 920.373 391.06 1084.07 391.06 1084.07L417.71 1076.1C417.71 1076.1 411.928 974.698 411.415 951.88Z" fill="#263238" stroke="#263238" stroke-linecap="round" stroke-linejoin="round"/>
<path d="M316.654 635.575L292.98 666.741" stroke="white" stroke-linecap="round" stroke-linejoin="round"/>
<path d="M229.418 596.952L265.578 628.117" stroke="white" stroke-linecap="round" stroke-linejoin="round"/>
<path d="M223.192 605.676L249.363 623.123" stroke="white" stroke-linecap="round" stroke-linejoin="round"/>
<path d="M296.709 577.008L282.991 610.67L295.477 620.626L289.251 640.57" stroke="white" stroke-linecap="round" stroke-linejoin="round"/>
<path d="M410.115 538.282C410.115 538.282 420.754 521.177 418.086 510.162C415.418 499.146 398.997 489.978 386.237 494.22C373.476 498.462 372.963 515.464 372.963 525.556C372.963 535.648 368.174 579.71 368.174 579.71L349.598 611.56L363.932 628.015C363.932 628.015 378.813 599.86 389.965 581.284C397.806 567.504 404.544 553.125 410.115 538.282Z" fill="white" stroke="#263238" stroke-linecap="round" stroke-linejoin="round"/>
<path d="M366.053 585.525L344.364 596.678L329.517 617.922L332.151 620.591C335.715 618.202 339.442 616.064 343.303 614.193C348.093 612.072 356.577 608.891 356.577 608.891" fill="white"/>
<path d="M366.053 585.525L344.364 596.678L329.517 617.922L332.151 620.591C335.715 618.202 339.442 616.064 343.303 614.193C348.093 612.072 356.577 608.891 356.577 608.891" stroke="#263238" stroke-linecap="round" stroke-linejoin="round"/>
</svg>
