<svg width="3685" height="3005" viewBox="0 0 3685 3005" fill="none" xmlns="http://www.w3.org/2000/svg">
<path d="M1834.06 3004.95C2846.99 3004.95 3668.13 2931.05 3668.13 2839.89C3668.13 2748.72 2846.99 2674.82 1834.06 2674.82C821.138 2674.82 0 2748.72 0 2839.89C0 2931.05 821.138 3004.95 1834.06 3004.95Z" fill="#1FBD59"/>
<path opacity="0.5" d="M1834.06 3004.95C2846.99 3004.95 3668.13 2931.05 3668.13 2839.89C3668.13 2748.72 2846.99 2674.82 1834.06 2674.82C821.138 2674.82 0 2748.72 0 2839.89C0 2931.05 821.138 3004.95 1834.06 3004.95Z" fill="white"/>
<path d="M3096.03 253.1C3064.91 236.274 3050.69 250.24 3039.41 236.274C3028.14 222.308 3070.54 185.29 2985.57 148.525C2985.57 148.525 2979.93 69.1889 2863.83 66.4126C2747.73 63.6362 2778.94 145.664 2747.81 165.435C2716.69 185.206 2708.19 154.162 2677.06 173.848C2645.93 193.535 2660.23 233.329 2634.57 238.966C2608.91 244.603 2575.09 213.727 2543.96 233.329C2512.84 252.932 2512.84 270.095 2498.7 270.095C2484.57 270.095 2456.22 258.821 2439.22 270.095C2422.23 281.368 2402.46 295.334 2402.46 295.334H3118.67C3118.67 295.334 3127.16 270.01 3096.03 253.1Z" fill="#1FBD59"/>
<path opacity="0.7" d="M3096.03 253.1C3064.91 236.274 3050.69 250.24 3039.41 236.274C3028.14 222.308 3070.54 185.29 2985.57 148.525C2985.57 148.525 2979.93 69.1889 2863.83 66.4126C2747.73 63.6362 2778.94 145.664 2747.81 165.435C2716.69 185.206 2708.19 154.162 2677.06 173.848C2645.93 193.535 2660.23 233.329 2634.57 238.966C2608.91 244.603 2575.09 213.727 2543.96 233.329C2512.84 252.932 2512.84 270.095 2498.7 270.095C2484.57 270.095 2456.22 258.821 2439.22 270.095C2422.23 281.368 2402.46 295.334 2402.46 295.334H3118.67C3118.67 295.334 3127.16 270.01 3096.03 253.1Z" fill="white"/>
<path d="M2655.27 115.209C2636 104.693 2627.25 113.442 2620.27 104.693C2613.29 95.9431 2639.54 73.2276 2587.04 50.5122C2587.04 50.5122 2583.59 1.54773 2511.83 0.0333648C2440.06 -1.481 2459.41 48.9978 2440.15 61.281C2420.88 73.5642 2415.66 54.2139 2396.4 66.4971C2377.13 78.7803 2385.88 103.178 2370.15 106.712C2354.42 110.245 2333.47 90.9793 2314.2 103.178C2294.94 115.377 2294.94 125.978 2286.19 125.978C2277.44 125.978 2260.02 118.995 2249.5 125.978C2238.99 132.961 2226.79 141.711 2226.79 141.711H2669.24C2669.24 141.711 2674.45 125.726 2655.27 115.209Z" fill="#1FBD59"/>
<path opacity="0.7" d="M2655.27 115.209C2636 104.693 2627.25 113.442 2620.27 104.693C2613.29 95.9431 2639.54 73.2276 2587.04 50.5122C2587.04 50.5122 2583.59 1.54773 2511.83 0.0333648C2440.06 -1.481 2459.41 48.9978 2440.15 61.281C2420.88 73.5642 2415.66 54.2139 2396.4 66.4971C2377.13 78.7803 2385.88 103.178 2370.15 106.712C2354.42 110.245 2333.47 90.9793 2314.2 103.178C2294.94 115.377 2294.94 125.978 2286.19 125.978C2277.44 125.978 2260.02 118.995 2249.5 125.978C2238.99 132.961 2226.79 141.711 2226.79 141.711H2669.24C2669.24 141.711 2674.45 125.726 2655.27 115.209Z" fill="white"/>
<path d="M519.091 504.905C499.909 494.389 491.159 503.139 484.176 494.389C477.193 485.639 503.358 462.924 450.524 440.208C450.524 440.208 446.99 391.244 375.31 389.73C303.63 388.215 322.812 438.694 303.546 450.977C284.28 463.26 279.064 443.91 259.798 456.193C240.532 468.477 249.366 492.959 233.633 496.408C217.9 499.858 196.868 480.676 177.601 492.959C158.335 505.242 158.419 515.674 149.67 515.674C140.92 515.674 123.421 508.691 112.904 515.674C102.388 522.657 90.189 531.407 90.189 531.407H532.72C532.72 531.407 538.357 515.422 519.091 504.905Z" fill="#1FBD59"/>
<path opacity="0.7" d="M519.091 504.905C499.909 494.389 491.159 503.139 484.176 494.389C477.193 485.639 503.358 462.924 450.524 440.208C450.524 440.208 446.99 391.244 375.31 389.73C303.63 388.215 322.812 438.694 303.546 450.977C284.28 463.26 279.064 443.91 259.798 456.193C240.532 468.477 249.366 492.959 233.633 496.408C217.9 499.858 196.868 480.676 177.601 492.959C158.335 505.242 158.419 515.674 149.67 515.674C140.92 515.674 123.421 508.691 112.904 515.674C102.388 522.657 90.189 531.407 90.189 531.407H532.72C532.72 531.407 538.357 515.422 519.091 504.905Z" fill="white"/>
<path d="M3124.81 2581.6H3684.95C3674.19 2513.04 3630.18 2525.15 3624.38 2418.98C3621.43 2365.47 3670.9 2299.34 3666.45 2229.09C3663 2171.21 3605.87 2111.9 3601.5 2045.69C3597.46 1985.95 3646.17 1919.49 3641.46 1855.3C3637 1794.47 3579.12 1736 3574.15 1672.82C3569.19 1611.07 3616.89 1544.1 3611.25 1481.76C3605.62 1419.41 3546.81 1362.04 3540.5 1300.54C3534.11 1237.27 3580.29 1169.21 3573.23 1108.72C3565.74 1044.44 3505.08 988.998 3496.92 929.769C3487.75 863.894 3530.57 793.561 3520.65 736.267C3508.28 666.606 3443.41 616.128 3429.78 564.723C3404.54 468.982 3407.57 376.605 3377.54 370.632C3345.4 364.154 3338.16 454.764 3313.85 555.721C3301.65 606.2 3238.13 658.025 3227.78 727.77C3219.37 784.222 3264.13 852.957 3256.81 918.58C3250.25 977.472 3191.19 1033.84 3185.38 1097.7C3180 1157.77 3227.95 1223.89 3223.24 1286.82C3218.61 1347.9 3161.32 1406.12 3157.37 1468.13C3153.41 1530.13 3202.88 1595.16 3199.43 1656.41C3195.98 1719.17 3139.7 1778.4 3136.84 1838.81C3133.81 1902.66 3184.2 1967.11 3181.76 2026.42C3178.99 2092.04 3123.55 2152.62 3121.44 2209.58C3119 2279.24 3170.15 2343.6 3168.56 2396.6C3165.19 2511.78 3112.44 2487.88 3110.59 2580.59L3124.81 2581.6Z" fill="#1FBD59"/>
<path opacity="0.5" d="M3124.81 2581.6H3684.95C3674.19 2513.04 3630.18 2525.15 3624.38 2418.98C3621.43 2365.47 3670.9 2299.34 3666.45 2229.09C3663 2171.21 3605.87 2111.9 3601.5 2045.69C3597.46 1985.95 3646.17 1919.49 3641.46 1855.3C3637 1794.47 3579.12 1736 3574.15 1672.82C3569.19 1611.07 3616.89 1544.1 3611.25 1481.76C3605.62 1419.41 3546.81 1362.04 3540.5 1300.54C3534.11 1237.27 3580.29 1169.21 3573.23 1108.72C3565.74 1044.44 3505.08 988.998 3496.92 929.769C3487.75 863.894 3530.57 793.561 3520.65 736.267C3508.28 666.606 3443.41 616.128 3429.78 564.723C3404.54 468.982 3407.57 376.605 3377.54 370.632C3345.4 364.154 3338.16 454.764 3313.85 555.721C3301.65 606.2 3238.13 658.025 3227.78 727.77C3219.37 784.222 3264.13 852.957 3256.81 918.58C3250.25 977.472 3191.19 1033.84 3185.38 1097.7C3180 1157.77 3227.95 1223.89 3223.24 1286.82C3218.61 1347.9 3161.32 1406.12 3157.37 1468.13C3153.41 1530.13 3202.88 1595.16 3199.43 1656.41C3195.98 1719.17 3139.7 1778.4 3136.84 1838.81C3133.81 1902.66 3184.2 1967.11 3181.76 2026.42C3178.99 2092.04 3123.55 2152.62 3121.44 2209.58C3119 2279.24 3170.15 2343.6 3168.56 2396.6C3165.19 2511.78 3112.44 2487.88 3110.59 2580.59L3124.81 2581.6Z" fill="white"/>
<path d="M3365.25 555.048V2555.78" stroke="black" stroke-miterlimit="10"/>
<path d="M3452.75 764.787L3361.55 843.534L3286.93 744.091" stroke="black" stroke-miterlimit="10"/>
<path d="M3452.75 1113.01L3361.55 1191.84L3286.93 1092.31" stroke="black" stroke-miterlimit="10"/>
<path d="M3452.75 1440.53L3361.55 1519.28L3286.93 1419.83" stroke="black" stroke-miterlimit="10"/>
<path d="M3452.75 1830.23L3361.55 1908.97L3286.93 1809.53" stroke="black" stroke-miterlimit="10"/>
<path d="M3452.75 2224.05L3361.55 2302.88L3286.93 2203.35" stroke="black" stroke-miterlimit="10"/>
<path d="M139.658 2581.6H642.511C632.836 2520.1 593.379 2531.13 588.078 2435.64C585.47 2387.6 630.144 2328.2 626.022 2265.19C622.909 2213.19 571.673 2159.94 567.719 2100.54C564.101 2046.95 607.765 1987.38 603.559 1929.67C599.52 1874.98 547.611 1822.57 543.068 1765.78C538.525 1710.42 581.348 1650.27 576.721 1594.32C572.094 1538.38 518.838 1486.8 513.286 1431.61C507.481 1374.82 548.873 1313.83 542.563 1259.4C535.833 1201.77 481.484 1151.96 474.08 1098.87C465.667 1039.98 504.368 976.546 495.366 925.478C484.344 862.884 426.126 817.622 413.842 771.434C391.043 685.451 393.819 602.582 366.897 597.198C338.124 591.393 331.562 672.916 309.772 763.525C298.835 809.124 241.878 855.313 232.455 917.99C224.883 968.469 265.182 1030.31 258.536 1089.2C252.647 1141.95 199.644 1192.68 194.512 1249.97C189.632 1303.9 232.623 1363.38 228.164 1419.83C224.042 1474.6 172.638 1526.93 169.273 1582.54C165.907 1638.15 210.16 1696.54 207.132 1751.56C204.103 1806.59 153.456 1860.93 150.848 1915.28C148.156 1972.66 193.418 2030.46 191.147 2083.55C188.707 2142.44 138.901 2196.45 137.05 2247.94C134.863 2310.53 180.799 2368.25 179.116 2416.2C176.003 2519.52 128.637 2498.15 127.039 2581.27L139.658 2581.6Z" fill="#1FBD59"/>
<path opacity="0.5" d="M139.658 2581.6H642.511C632.836 2520.1 593.379 2531.13 588.078 2435.64C585.47 2387.6 630.144 2328.2 626.022 2265.19C622.909 2213.19 571.673 2159.94 567.719 2100.54C564.101 2046.95 607.765 1987.38 603.559 1929.67C599.52 1874.98 547.611 1822.57 543.068 1765.78C538.525 1710.42 581.348 1650.27 576.721 1594.32C572.094 1538.38 518.838 1486.8 513.286 1431.61C507.481 1374.82 548.873 1313.83 542.563 1259.4C535.833 1201.77 481.484 1151.96 474.08 1098.87C465.667 1039.98 504.368 976.546 495.366 925.478C484.344 862.884 426.126 817.622 413.842 771.434C391.043 685.451 393.819 602.582 366.897 597.198C338.124 591.393 331.562 672.916 309.772 763.525C298.835 809.124 241.878 855.313 232.455 917.99C224.883 968.469 265.182 1030.31 258.536 1089.2C252.647 1141.95 199.644 1192.68 194.512 1249.97C189.632 1303.9 232.623 1363.38 228.164 1419.83C224.042 1474.6 172.638 1526.93 169.273 1582.54C165.907 1638.15 210.16 1696.54 207.132 1751.56C204.103 1806.59 153.456 1860.93 150.848 1915.28C148.156 1972.66 193.418 2030.46 191.147 2083.55C188.707 2142.44 138.901 2196.45 137.05 2247.94C134.863 2310.53 180.799 2368.25 179.116 2416.2C176.003 2519.52 128.637 2498.15 127.039 2581.27L139.658 2581.6Z" fill="white"/>
<path d="M355.455 762.432V2558.38" stroke="black" stroke-miterlimit="10"/>
<path d="M434.034 950.718L352.174 1021.47L285.121 932.125" stroke="black" stroke-miterlimit="10"/>
<path d="M434.034 1263.35L352.174 1334.02L285.121 1244.76" stroke="black" stroke-miterlimit="10"/>
<path d="M434.034 1557.3L352.174 1628.06L285.121 1538.71" stroke="black" stroke-miterlimit="10"/>
<path d="M434.034 1907.12L352.174 1977.88L285.121 1888.53" stroke="black" stroke-miterlimit="10"/>
<path d="M434.034 2260.64L352.174 2331.4L285.121 2242.05" stroke="black" stroke-miterlimit="10"/>
<path d="M2972.7 2698.13L2858.45 2617.11C2858.03 2616.87 2857.57 2616.7 2857.1 2616.6C2867.11 2569.91 2938.88 2227.07 2931.14 2045.27C2925.84 1922.18 2910.61 1694.86 2900.09 1544.18C2918.29 1510.32 2934.07 1475.2 2947.29 1439.1C2962.01 1391.23 2975.47 1327.63 2963.27 1218.51C2950.65 1104.43 2926.93 898.136 2926.93 898.136C2926.84 897.673 2926.7 897.221 2926.51 896.79C2926.17 896.147 2925.68 895.597 2925.08 895.191L2854.32 846.9C2854.32 834.28 2853.9 822.754 2853.06 815.771C2851.55 804.161 2837.41 794.486 2821.85 787.251L2821.43 775.725C2844.14 754.355 2863.5 720.955 2865.93 704.381C2866.98 694.209 2867.32 683.977 2866.94 673.758C2874.35 668.878 2880.83 662.905 2880.83 656.931C2880.83 650.958 2873.09 637.076 2865.35 625.887C2864.93 615.37 2864.42 604.602 2863.83 594.253C2870.49 589.315 2875.09 582.094 2876.75 573.975C2878.41 565.855 2877.01 557.408 2872.83 550.253C2874.89 548.493 2876.73 546.486 2878.3 544.279C2886.72 532.333 2886.72 515.338 2877.8 492.286C2875.81 486.003 2872.55 480.2 2868.2 475.247C2863.86 470.294 2858.53 466.298 2852.56 463.513C2840.19 459.055 2826.65 459.055 2814.28 463.513C2809 456.264 2801.76 450.677 2793.42 447.412C2785.07 444.147 2775.96 443.341 2767.16 445.088C2760.3 446.244 2753.69 448.608 2747.65 452.071C2744.68 448.204 2740.85 445.076 2736.48 442.931C2732.1 440.785 2727.28 439.681 2722.41 439.704C2714.55 439.495 2706.92 442.357 2701.14 447.682C2695.36 453.008 2691.88 460.377 2691.45 468.225C2689.57 465.853 2687.2 463.922 2684.49 462.57C2681.79 461.218 2678.82 460.477 2675.8 460.4C2663.43 460.4 2653.42 472.768 2653.42 487.995C2652.24 487.908 2651.06 487.908 2649.89 487.995C2641.43 488.26 2633.42 491.857 2627.6 498.004C2621.79 504.151 2618.64 512.347 2618.84 520.807C2618.81 529.045 2621.81 537.007 2627.25 543.186C2623.97 547.711 2622.21 553.159 2622.21 558.75C2622.04 565.291 2624.42 571.639 2628.85 576.458C2633.28 581.276 2639.4 584.188 2645.93 584.578C2642.21 589.392 2640.22 595.321 2640.29 601.405C2640.11 608.043 2642.55 614.485 2647.09 619.336C2651.62 624.186 2657.89 627.054 2664.52 627.317C2652.33 633.29 2646.69 648.434 2650.22 666.775C2653.76 685.115 2664.69 701.1 2680.68 706.148C2682.43 710.241 2684.66 714.11 2687.32 717.674C2693.8 726.087 2700.28 734.5 2706.76 742.409L2708.78 776.987C2695.57 778.585 2676.05 783.717 2671.68 799.029C2669 807.844 2665.3 816.315 2660.65 824.269L2646.86 832.682C2646.19 832.484 2645.5 832.434 2644.81 832.536C2644.13 832.638 2643.48 832.889 2642.9 833.271L2618.67 849.424L2537.91 896.874C2536.56 897.715 2504.84 917.318 2498.28 966.535C2496.77 977.724 2492.98 1014.32 2489.03 1060.51C2467.4 1108.97 2439.64 1172.4 2428.79 1203.53C2408.09 1262.42 2420.96 1389.8 2425.34 1427.49C2430.64 1472.08 2445.95 1532.23 2518.39 1539.47C2523.55 1539.97 2528.76 1540.23 2534.04 1540.23C2546.59 1540.16 2559.1 1538.83 2571.39 1536.27C2571.39 1557.05 2572.06 1575.81 2572.06 1588.69C2572.06 1638.16 2631.8 2578.49 2634.66 2622.83L2626.24 2700.15C2625.84 2703.92 2626.24 2707.73 2627.41 2711.34C2628.58 2714.95 2630.5 2718.27 2633.04 2721.09C2635.58 2723.91 2638.68 2726.16 2642.15 2727.69C2645.62 2729.23 2649.37 2730.02 2653.17 2730.01H2962.43C2965.93 2730.04 2969.35 2728.99 2972.22 2726.98C2975.09 2724.98 2977.26 2722.13 2978.44 2718.84C2979.61 2715.55 2979.73 2711.97 2978.78 2708.6C2977.83 2705.24 2975.85 2702.25 2973.12 2700.06L2972.7 2698.13ZM2783.82 2668.01L2727.2 2618.87C2728.88 2585.98 2747.98 2207.22 2747.98 2108.03C2747.98 2035.59 2752.02 1840.07 2754.46 1729.44C2764.39 1832.5 2779.7 2003.37 2779.7 2037.44C2779.7 2087 2788.11 2616.01 2788.11 2621.4C2788.11 2621.4 2788.11 2621.4 2788.11 2621.99L2783.82 2668.01Z" fill="#263238"/>
<path d="M2622.21 228.702H661.777V2764.17H2622.21V228.702Z" fill="white"/>
<mask id="mask0_228_2556" style="mask-type:luminance" maskUnits="userSpaceOnUse" x="661" y="228" width="1962" height="2537">
<path d="M2622.21 228.702H661.777V2764.17H2622.21V228.702Z" fill="white"/>
</mask>
<g mask="url(#mask0_228_2556)">
<path d="M2622.21 609.396L661.777 2663.46V2764.17H2622.21V609.396Z" fill="#1FBD59"/>
<path opacity="0.7" d="M2622.21 609.396L661.777 2663.46V2764.17H2622.21V609.396Z" fill="white"/>
</g>
<path d="M2622.21 228.702H661.777V2764.17H2622.21V228.702Z" stroke="#263238" stroke-linecap="round" stroke-linejoin="round"/>
<path d="M2622.21 228.702H661.777V341.102H2622.21V228.702Z" fill="#263238"/>
<path d="M2666.96 228.702H605.746V296.933H2666.96V228.702Z" fill="white" stroke="#263238" stroke-linecap="round" stroke-linejoin="round"/>
<path d="M2666.96 2738.17H605.746V2806.4H2666.96V2738.17Z" fill="#263238" stroke="#263238" stroke-linecap="round" stroke-linejoin="round"/>
<path d="M3100.07 2672.72L3207.26 2748.44C3209.04 2749.95 3210.31 2751.97 3210.91 2754.24C3211.5 2756.5 3211.37 2758.89 3210.55 2761.08C3209.73 2763.27 3208.26 2765.16 3206.33 2766.48C3204.4 2767.8 3202.11 2768.49 3199.77 2768.46H3054.64C3051.7 2768.46 3048.8 2767.85 3046.11 2766.66C3043.43 2765.47 3041.02 2763.72 3039.05 2761.54C3037.09 2759.36 3035.6 2756.79 3034.69 2753.99C3033.78 2751.2 3033.47 2748.25 3033.78 2745.32L3041.35 2672.38L3100.07 2672.72Z" fill="white" stroke="#263238" stroke-linecap="round" stroke-linejoin="round"/>
<path d="M3207.26 2748.77L3033.78 2745.66" stroke="#263238" stroke-linecap="round" stroke-linejoin="round"/>
<path d="M2767 1027.87C2767 1027.87 2696.33 1181.99 2677.06 1236.51C2657.79 1291.03 2667.47 1406.71 2673.86 1461.31C2680.26 1515.91 2699.61 1564.04 2763.8 1570.68C2827.99 1577.33 2898.41 1541.82 2924.32 1509.69C2950.23 1477.55 2930.72 1134.04 2930.72 1079.52C2930.72 1025.01 2801.91 934.733 2767 1027.87Z" fill="white" stroke="#263238" stroke-linecap="round" stroke-linejoin="round"/>
<path d="M3172.76 928.086C3172.76 928.086 3196.74 1136.98 3209.61 1252.58C3222.48 1368.18 3206.41 1432.37 3193.54 1474.1C3180.67 1515.83 3135.74 1599.29 3135.74 1599.29L3113.28 1384.16L3172.76 928.086Z" fill="white" stroke="#263238" stroke-linecap="round" stroke-linejoin="round"/>
<path d="M2914.65 852.62L2785.17 928.675L2817.9 1434.98L3134.73 1430.77L3172.76 928.086L3049.76 844.207L2914.65 852.62Z" fill="white" stroke="#263238" stroke-linecap="round" stroke-linejoin="round"/>
<path d="M2862.91 883.412C2862.91 883.412 2946.36 1075.99 2946.36 1117.72C2946.36 1159.45 2765.9 1476.71 2765.9 1476.71L2779.2 1521.04C2779.2 1521.04 2988.09 1121.34 2988.09 1108.8C2988.09 1096.26 2891.76 864.819 2891.76 864.819L2862.91 883.412Z" fill="#263238" stroke="#263238" stroke-linecap="round" stroke-linejoin="round"/>
<path d="M2785.17 928.675C2785.17 928.675 2753.7 947.604 2747.31 995.98C2740.92 1044.36 2715.17 1326.7 2731.24 1365.23C2747.31 1403.76 2779.45 1378.02 2805.11 1365.23C2830.77 1352.44 2859.54 1063.2 2859.54 1063.2C2859.54 1063.2 2849.87 1005.4 2827.4 970.067" fill="white"/>
<path d="M2785.17 928.675C2785.17 928.675 2753.7 947.604 2747.31 995.98C2740.92 1044.36 2715.17 1326.7 2731.24 1365.23C2747.31 1403.76 2779.45 1378.02 2805.11 1365.23C2830.77 1352.44 2859.54 1063.2 2859.54 1063.2C2859.54 1063.2 2849.87 1005.4 2827.4 970.067" stroke="#263238" stroke-linecap="round" stroke-linejoin="round"/>
<path d="M2968.15 807.61C2968.15 807.61 2928.7 807.61 2923.14 827.297C2918.52 841.347 2911.86 854.642 2903.37 866.754L2987.5 948.362L3032.51 894.854L3097.3 936.92C3097.3 936.92 3100.07 866.586 3097.3 844.375C3094.52 822.165 3026.96 805.002 3026.96 805.002L2968.15 807.61Z" fill="white" stroke="#263238" stroke-linecap="round" stroke-linejoin="round"/>
<path d="M2956.88 734.416L2962.52 832.934L3032.85 908.989L3066.67 835.794L3063.9 748.466L2956.88 734.416Z" fill="white" stroke="#263238" stroke-linecap="round" stroke-linejoin="round"/>
<path d="M3034.45 516.095C3034.45 516.095 3112.02 536.539 3112.02 589.626C3112.02 642.713 3112.61 713.131 3091.66 741.062C3061.88 780.183 3030.41 818.631 2997.68 818.631C2964.96 818.631 2923.14 754.86 2919.02 730.378C2915.74 710.775 2921.46 618.062 2923.4 577.595C2923.74 570.24 2925.54 563.026 2928.69 556.369C2931.84 549.712 2936.27 543.745 2941.74 538.811C2957.81 524.088 2986.58 509.196 3034.45 516.095Z" fill="white" stroke="#263238" stroke-linecap="round" stroke-linejoin="round"/>
<path d="M2935.26 626.139C2938.51 625.745 2941.81 626.097 2944.91 627.167C2948.01 628.237 2950.83 629.997 2953.14 632.315C2955.46 634.633 2957.22 637.448 2958.29 640.546C2959.36 643.645 2959.71 646.946 2959.32 650.2C2959.32 676.954 2940.64 711.785 2948.64 719.777C2956.51 725.551 2965.71 729.253 2975.39 730.546V759.992C2975.39 759.992 2991.46 778.669 3020.9 749.223" stroke="#263238" stroke-linecap="round" stroke-linejoin="round"/>
<path d="M2988.93 639.515C2988.93 639.515 2997.35 612.677 3034.45 634.131" stroke="#263238" stroke-linecap="round" stroke-linejoin="round"/>
<path d="M3005 671.569C3005 678.973 3007.44 685.03 3010.39 685.03C3013.33 685.03 3015.77 678.973 3015.77 671.569C3015.77 664.166 3013.33 658.192 3010.39 658.192C3007.44 658.192 3005 664.25 3005 671.569Z" fill="#263238"/>
<path d="M2940.81 671.569C2940.81 678.973 2943.17 685.03 2946.11 685.03C2949.06 685.03 2951.5 678.973 2951.5 671.569C2951.5 664.166 2949.06 658.192 2946.11 658.192C2943.17 658.192 2940.81 664.25 2940.81 671.569Z" fill="#263238"/>
<path d="M3109.5 680.908C3109.5 680.908 3086.95 692.182 3081.4 683.769C3075.84 675.356 3078.53 652.808 3075.76 635.898C3072.98 618.988 3058.93 610.659 3050.52 599.301C3042.11 587.943 3056.16 565.648 3056.16 557.235C3056.16 548.822 3002.73 582.475 2955.2 582.475C2907.66 582.475 2890.42 562.788 2907.33 517.778C2924.24 472.767 2969.25 492.538 2969.25 492.538C2973.83 485.043 2980.61 479.136 2988.66 475.615C2996.71 472.095 3005.64 471.13 3014.26 472.851C3045.3 478.404 3050.86 500.951 3050.86 500.951C3050.86 500.951 3124.05 523.499 3124.05 557.235C3124.05 590.972 3109.5 680.908 3109.5 680.908Z" fill="#263238" stroke="#263238" stroke-linecap="round" stroke-linejoin="round"/>
<path d="M3089.81 700.679C3089.81 700.679 3086.95 644.395 3115.05 655.584C3143.15 666.774 3126.32 728.778 3092.5 728.778" fill="white"/>
<path d="M3089.81 700.679C3089.81 700.679 3086.95 644.395 3115.05 655.584C3143.15 666.774 3126.32 728.778 3092.5 728.778" stroke="#263238" stroke-linecap="round" stroke-linejoin="round"/>
<path d="M3134.73 1430.77C3134.73 1430.77 3154.25 1474.35 3161.32 1576.32C3162.33 1590.2 3149.21 1635.21 3150.21 1650.35C3160.31 1796.91 3172.34 1982 3176.97 2089.77C3185.38 2288.32 3101.25 2672.72 3101.25 2672.72H3042.36C3042.36 2672.72 3033.95 2132.01 3033.95 2081.36C3033.95 2030.71 3000.29 1688.47 3000.29 1688.47C3000.29 1688.47 2991.88 2047.54 2991.88 2153.12C2991.88 2258.71 2970.76 2672.72 2970.76 2672.72H2885.45C2885.45 2672.72 2822.1 1675.76 2822.1 1625.12C2822.1 1574.47 2817.9 1434.98 2817.9 1434.98L3134.73 1430.77Z" fill="#263238" stroke="#263238" stroke-linecap="round" stroke-linejoin="round"/>
<path d="M2929.79 1117.89L2974.63 1099.21C2978.2 1097.59 2982.18 1097.08 2986.04 1097.75C2989.91 1098.41 2993.48 1100.22 2996.31 1102.93C2999.14 1105.65 3001.08 1109.15 3001.9 1112.99C3002.71 1116.83 3002.36 1120.82 3000.88 1124.45C2999.39 1127.76 2997.11 1130.65 2994.24 1132.86C2991.22 1135.02 2988.88 1138 2987.49 1141.44C2986.11 1144.88 2985.73 1148.65 2986.41 1152.3C2988.68 1163 2987.81 1174.14 2983.9 1184.37C2979.99 1194.59 2973.21 1203.47 2964.37 1209.93C2960.31 1212.68 2955.85 1214.81 2951.16 1216.24C2933.23 1221.5 2915.91 1228.67 2899.5 1237.61L2878.22 1176.53L2929.79 1117.89Z" fill="white" stroke="#263238" stroke-linecap="round" stroke-linejoin="round"/>
<path d="M2878.22 1176.19C2878.22 1176.19 2734.44 1310.38 2728.04 1326.45C2721.65 1342.52 2711.97 1384.25 2760.18 1409.91C2808.39 1435.57 2899.5 1237.27 2899.5 1237.27L2878.22 1176.19Z" fill="white" stroke="#263238" stroke-linecap="round" stroke-linejoin="round"/>
<path d="M2970.01 2672.72L3064.65 2754.91C3066.56 2756.58 3067.91 2758.79 3068.51 2761.25C3069.11 2763.7 3068.94 2766.29 3068.02 2768.64C3067.1 2771 3065.48 2773.01 3063.37 2774.41C3061.26 2775.81 3058.77 2776.52 3056.24 2776.45H2899.76C2896.56 2776.46 2893.4 2775.8 2890.48 2774.49C2887.57 2773.19 2884.96 2771.28 2882.84 2768.9C2880.71 2766.51 2879.12 2763.7 2878.16 2760.65C2877.21 2757.6 2876.91 2754.38 2877.29 2751.21L2885.71 2672.38L2970.01 2672.72Z" fill="white" stroke="#263238" stroke-linecap="round" stroke-linejoin="round"/>
<path d="M2877.29 2751.55L3053.38 2749.7" stroke="#263238" stroke-linecap="round" stroke-linejoin="round"/>
<path d="M2197.09 1076.49C2191.12 1078.43 2145.77 1094.25 2094.45 1050.83C2043.13 1007.42 2064.84 896.874 2151.66 887.031C2238.48 877.187 2252.62 930.443 2270.12 945.923C2287.62 961.403 2307.56 924.217 2378.65 928.171C2449.74 932.125 2514.6 1023.24 2506.86 1102.15C2499.12 1181.07 2455.54 1185.02 2449.65 1248.21C2443.76 1311.39 2514.77 1338.98 2562.14 1372.47C2609.5 1405.95 2656.87 1494.88 2625.32 1563.95C2593.77 1633.02 2516.79 1682.32 2542.45 1727.67C2568.11 1773.02 2613.46 1875.74 2544.39 1919.15C2475.31 1962.57 2422.06 1954.66 2402.29 1907.29C2382.52 1859.93 2372.67 1447.51 2358.88 1421.85C2345.08 1396.19 2299.98 1374.49 2293.76 1315.26C2287.53 1256.03 2299.65 1230.37 2283.91 1206.73C2268.18 1183.09 2226.7 1133.7 2222.75 1110.06C2220.18 1096.62 2222.26 1082.71 2228.64 1070.61L2197.09 1076.49Z" fill="#263238" stroke="#263238" stroke-linecap="round" stroke-linejoin="round"/>
<path d="M2120.36 958.122C2132.06 934.986 2153.01 914.542 2189.94 922.787C2272.3 941.043 2245.97 1001.28 2307.72 1029.3C2369.48 1057.31 2447.89 1032.16 2484.4 1074.22C2520.91 1116.29 2492.81 1141.53 2492.81 1141.53" stroke="white" stroke-linecap="round" stroke-linejoin="round"/>
<path d="M2105.81 1009.69C2106.86 999.575 2108.86 989.575 2111.78 979.828" stroke="white" stroke-linecap="round" stroke-linejoin="round"/>
<path d="M2285.26 1091.05C2285.26 1091.05 2290.9 1130.26 2358.2 1135.89C2425.51 1141.53 2447.89 1194.78 2428.28 1231.21" stroke="white" stroke-linecap="round" stroke-linejoin="round"/>
<path d="M2468.58 1809.78C2473.77 1820.21 2481.05 1829.46 2489.95 1836.96" stroke="white" stroke-linecap="round" stroke-linejoin="round"/>
<path d="M2411.46 1183.59C2411.46 1183.59 2391.85 1205.97 2377.8 1284.55C2365.02 1356.23 2428.28 1449.95 2489.95 1497.66C2551.62 1545.36 2540.43 1598.61 2495.59 1649.09C2481.6 1665.78 2471.03 1685.06 2464.49 1705.83C2457.95 1726.61 2455.57 1748.46 2457.48 1770.16" stroke="white" stroke-linecap="round" stroke-linejoin="round"/>
<path d="M2422.65 1273.28C2422.65 1273.28 2412.55 1323.25 2433.92 1365.82C2475.99 1449.95 2619.01 1458.37 2613.37 1536.95" stroke="white" stroke-linecap="round" stroke-linejoin="round"/>
<path d="M2238.48 1297.51C2244.08 1325.55 2248.04 1353.89 2250.35 1382.4C2252.36 1417.9 2252.36 1441.29 2252.36 1441.29L2353.32 1401.83C2340.28 1367.81 2329.52 1332.96 2321.1 1297.51C2317.33 1280.6 2314.72 1263.45 2313.28 1246.19L2238.48 1297.51Z" fill="white" stroke="#263238" stroke-linecap="round" stroke-linejoin="round"/>
<path d="M2382.6 1163.32C2370.74 1137.66 2341.12 1135.72 2327.33 1155.41C2320.85 1164.26 2314.92 1173.51 2309.57 1183.09C2309.57 1183.09 2256.24 1129.75 2266.16 1102.15C2276.09 1074.56 2305.62 1052.77 2281.9 1044.95C2258.17 1037.12 2169.66 1062.7 2169.66 1062.7C2169.66 1062.7 2164.7 1104.17 2160.24 1149.94C2160.24 1149.94 2155.11 1170.39 2140.22 1176.36C2125.33 1182.33 2129.7 1194.36 2138.7 1195.79C2143.84 1196.72 2150.48 1198.49 2156.03 1199.92C2154.77 1217.75 2153.93 1233.99 2153.93 1246.19C2153.93 1299.44 2177.57 1329.06 2197.34 1329.06C2217.11 1329.06 2306.13 1300.87 2317.9 1281.19C2326.85 1264.38 2334.07 1246.7 2339.44 1228.44C2339.44 1228.44 2394.38 1188.98 2382.6 1163.32Z" fill="white" stroke="#263238" stroke-linecap="round" stroke-linejoin="round"/>
<path d="M2165.37 1227.26C2170.24 1228.81 2175.46 1228.77 2180.3 1227.15C2185.14 1225.53 2189.34 1222.42 2192.3 1218.26" stroke="#263238" stroke-linecap="round" stroke-linejoin="round"/>
<path d="M2190.78 1151.88C2190.78 1158.94 2188 1164.5 2185.06 1164.41C2182.12 1164.33 2180.1 1158.52 2180.35 1151.54C2180.6 1144.56 2183.12 1138.92 2185.99 1139C2188.85 1139.09 2191.03 1144.89 2190.78 1151.88Z" fill="#263238"/>
<path d="M2174.29 1125.54C2174.29 1125.54 2187.75 1103.08 2201.21 1131.52" stroke="#263238" stroke-linecap="round" stroke-linejoin="round"/>
<path d="M2339.19 1372.47C2339.19 1372.47 2232.59 1437.59 2214.84 1473.43C2197.09 1509.27 2135.93 1609.55 2129.95 1643.12C2123.98 1676.69 2210.89 1773.35 2222.5 1783.2C2234.11 1793.04 2228.39 1860.18 2224.43 1893.75C2220.48 1927.32 2218.54 1962.82 2167.22 1996.3C2115.9 2029.79 2131.97 2191.82 2210.89 2217.06C2289.8 2242.3 2426.01 2219.08 2431.9 2057.21C2437.79 1895.35 2422.06 1597.44 2402.29 1486.97C2382.52 1376.51 2349.03 1352.78 2339.19 1372.47Z" fill="#1FBD59" stroke="#263238" stroke-linecap="round" stroke-linejoin="round"/>
<path d="M1839.87 1925.04C1839.87 1925.04 1755.06 1883.57 1737.31 1954.66C1719.56 2025.75 1591.26 2455.91 1591.26 2455.91C1591.26 2455.91 1500.48 2444.05 1459.01 2428.23C1417.53 2412.42 1400.11 2416.37 1421.57 2445.98C1443.02 2475.6 1508.39 2519.01 1553.74 2544.67C1599.08 2570.33 1601.1 2578.32 1606.99 2570.33C1612.88 2562.34 1650.41 2426.3 1699.54 2339.47C1748.67 2252.65 1792.08 2167.76 1825.73 2112.32C1846.66 2076.41 1860.72 2036.93 1867.21 1995.88" fill="white"/>
<path d="M1839.87 1925.04C1839.87 1925.04 1755.06 1883.57 1737.31 1954.66C1719.56 2025.75 1591.26 2455.91 1591.26 2455.91C1591.26 2455.91 1500.48 2444.05 1459.01 2428.23C1417.53 2412.42 1400.11 2416.37 1421.57 2445.98C1443.02 2475.6 1508.39 2519.01 1553.74 2544.67C1599.08 2570.33 1601.1 2578.32 1606.99 2570.33C1612.88 2562.34 1650.41 2426.3 1699.54 2339.47C1748.67 2252.65 1792.08 2167.76 1825.73 2112.32C1846.66 2076.41 1860.72 2036.93 1867.21 1995.88" stroke="#263238" stroke-linecap="round" stroke-linejoin="round"/>
<path d="M1936.62 2031.97C1936.62 2031.97 1820.18 2024.07 1794.52 2055.62C1768.86 2087.16 1873.44 2513.46 1883.28 2578.58C1893.12 2643.69 1899.1 2698.97 1891.19 2708.81C1883.28 2718.65 1812.27 2801.36 1782.66 2821.3C1753.05 2841.23 1792.5 2848.89 1826.07 2837.11C1859.64 2825.33 1930.65 2785.79 1958.33 2778.22C1986.01 2770.65 1999.72 2762.4 1995.76 2736.74C1991.81 2711.08 1964.22 2730.85 1940.49 2553.25C1930.65 2478.88 1936.62 2296.74 1932.67 2221.69C1928.71 2146.65 1926.69 2107.27 1926.69 2107.27L2003.67 2091.46L1936.62 2031.97Z" fill="white" stroke="#263238" stroke-linecap="round" stroke-linejoin="round"/>
<path d="M1784.59 1994.12C1784.59 1994.12 1940.49 2167.76 1946.46 2155.9C1952.44 2144.04 1952.35 1950.7 1952.35 1950.7C1952.35 1950.7 1799.49 1905.78 1783.25 1915.54" fill="white"/>
<path d="M1784.59 1994.12C1784.59 1994.12 1940.49 2167.76 1946.46 2155.9C1952.44 2144.04 1952.35 1950.7 1952.35 1950.7C1952.35 1950.7 1799.49 1905.78 1783.25 1915.54" stroke="#263238" stroke-linecap="round" stroke-linejoin="round"/>
<path d="M2360.89 2017.76L1912.9 1932.95L1899.1 2155.9C1899.1 2155.9 2147.71 2260.48 2256.24 2252.65C2364.76 2244.83 2418.1 2179.63 2423.99 2106.6" fill="#1FBD59"/>
<path d="M2360.89 2017.76L1912.9 1932.95L1899.1 2155.9C1899.1 2155.9 2147.71 2260.48 2256.24 2252.65C2364.76 2244.83 2418.1 2179.63 2423.99 2106.6" stroke="#263238" stroke-linecap="round" stroke-linejoin="round"/>
<path d="M1881.6 2719.83C1859.47 2745.66 1807.06 2804.72 1782.66 2820.79C1753.05 2840.48 1792.5 2848.39 1826.07 2836.61C1859.64 2824.83 1930.65 2785.29 1958.33 2777.72C1986.01 2770.14 1999.72 2761.9 1995.76 2736.24C1994.17 2725.81 1988.53 2722.95 1980.7 2711L1908.86 2749.87L1881.6 2719.83Z" fill="#1FBD59" stroke="#263238" stroke-linecap="round" stroke-linejoin="round"/>
<path d="M1565.6 2485.44L1586.3 2455.24C1567.03 2452.55 1494.76 2441.86 1459.01 2428.23C1417.61 2412.5 1400.11 2416.37 1421.57 2445.98C1443.02 2475.6 1508.39 2519.01 1553.74 2544.67C1599.08 2570.33 1601.1 2578.32 1606.99 2570.33C1609.35 2567.22 1616.58 2544.25 1627.52 2512.2L1565.6 2485.44Z" fill="#1FBD59" stroke="#263238" stroke-linecap="round" stroke-linejoin="round"/>
<path d="M2372.67 1538.29C2372.67 1538.29 2374.69 1463.25 2315.46 1470.99C2256.23 1478.73 2264.14 1585.49 2264.14 1585.49L2257.24 1876.08L2037.24 1954.49L2141.82 1974.18C2141.82 1974.18 2337.17 1972.24 2349.03 1956.42C2360.89 1940.61 2372.67 1538.29 2372.67 1538.29Z" fill="white" stroke="#263238" stroke-linecap="round" stroke-linejoin="round"/>
<path d="M2105.81 1929.5C2105.81 1929.5 2049.69 1907.12 2032.87 1915.54C2016.04 1923.95 1996.44 1954.74 1999.21 1966.02C2001.99 1977.29 2105.81 1929.5 2105.81 1929.5Z" fill="white" stroke="#263238" stroke-linecap="round" stroke-linejoin="round"/>
<path d="M1999.21 1966.02L2052.47 1915.54L2083.34 1923.95L2037.49 1959.54" stroke="#263238" stroke-linecap="round" stroke-linejoin="round"/>
<path d="M2475.73 2228.93H2041.28C2025.25 2228.93 2012.25 2241.92 2012.25 2257.95V2809.18C2012.25 2825.21 2025.25 2838.2 2041.28 2838.2H2475.73C2491.76 2838.2 2504.76 2825.21 2504.76 2809.18V2257.95C2504.76 2241.92 2491.76 2228.93 2475.73 2228.93Z" fill="white" stroke="#263238" stroke-linecap="round" stroke-linejoin="round"/>
<path d="M894.148 2228.93H459.694C443.664 2228.93 430.668 2241.92 430.668 2257.95V2809.18C430.668 2825.21 443.664 2838.2 459.694 2838.2H894.148C910.178 2838.2 923.173 2825.21 923.173 2809.18V2257.95C923.173 2241.92 910.178 2228.93 894.148 2228.93Z" fill="white" stroke="#263238" stroke-linecap="round" stroke-linejoin="round"/>
<path d="M1386.06 1590.62C1405.44 1574.77 1425.88 1560.27 1447.23 1547.21C1474.91 1531.48 1609.1 1519.61 1609.1 1519.61L1614.99 1594.58C1614.99 1594.58 1526.14 1616.28 1520.25 1618.3C1514.36 1620.32 1492.66 1637.99 1463.04 1641.94C1442.07 1644.33 1420.94 1645 1399.86 1643.96L1386.06 1590.62Z" fill="white" stroke="#263238" stroke-linecap="round" stroke-linejoin="round"/>
<path d="M1468.93 1340.08L1528.16 1671.56L1796.54 1614.35L1731.42 1278.91L1468.93 1340.08Z" fill="white" stroke="#263238" stroke-linecap="round" stroke-linejoin="round"/>
<path d="M821.711 1383.49L1028.93 1667.6L1404.07 1580.78L1411.98 1643.96L1037 1809.7L723.277 1529.46C723.277 1529.46 657.907 1403.18 821.711 1383.49Z" fill="#1FBD59" stroke="#263238" stroke-linecap="round" stroke-linejoin="round"/>
<path d="M819.692 1113.09C811.71 1139.44 801.812 1165.17 790.078 1190.07C783.731 1200.74 778.461 1212.01 774.345 1223.72L861.169 1298.69C861.169 1298.69 884.809 1261.16 906.515 1245.43C918.411 1236.59 930.954 1228.66 944.038 1221.71C921.121 1193.74 905.51 1160.53 898.607 1125.04C884.809 1061.86 884.809 1046.12 884.809 1046.12L819.692 1113.09Z" fill="white" stroke="#263238" stroke-linecap="round" stroke-linejoin="round"/>
<path d="M1092.03 970.993C1092.03 970.993 1131.48 980.921 1133.5 945.754C1135.52 910.587 1084.37 868.437 991.825 856.574C899.28 844.712 829.956 894.097 816.158 941.463C802.361 988.829 812.204 1040.06 812.204 1069.68C812.204 1099.29 800.426 1111.16 816.158 1128.57C831.891 1145.99 891.203 1136.48 891.203 1136.48C891.203 1136.48 954.302 1128.57 958.509 1111.24C962.715 1093.91 952.619 1069.76 970.371 1055.97C988.123 1042.17 1017.74 1028.37 1015.72 1006.66C1015.27 997.335 1013.94 988.068 1011.76 978.986C1011.76 978.986 1053.24 994.802 1067.04 988.829C1076.28 984.275 1084.72 978.252 1092.03 970.993Z" fill="#263238" stroke="#263238" stroke-linecap="round" stroke-linejoin="round"/>
<path d="M967.679 953.242C967.679 953.242 872.358 942.641 818.009 1015.25" stroke="white" stroke-linecap="round" stroke-linejoin="round"/>
<path d="M954.05 981.173C954.05 981.173 872.358 994.802 824.824 1056.05" stroke="white" stroke-linecap="round" stroke-linejoin="round"/>
<path d="M1071.16 1087.68C1083.86 1031.15 1092.03 970.993 1092.03 970.993C1092.03 970.993 991.068 949.287 967.679 953.241C944.291 957.195 961.79 992.699 965.744 1018.36C969.698 1044.02 930.241 1053.86 920.313 1061.77C910.386 1069.68 922.332 1089.45 922.332 1101.23C922.332 1113.01 906.516 1117.04 892.718 1115.11C878.92 1113.17 888.764 1059.84 869.077 1051.93C849.39 1044.02 823.646 1069.68 825.665 1095.34C827.684 1121 863.104 1130.84 863.104 1130.84C863.104 1130.84 865.123 1203.87 888.764 1219.69C912.405 1235.5 983.496 1265.03 1001.25 1261.08C1019 1257.12 1026.49 1215.73 1050.63 1158.52C1052.32 1154.4 1054 1150.11 1055.6 1145.06C1075.28 1146.41 1088.41 1128.23 1082.18 1122.51C1077.89 1118.22 1073.6 1099.88 1071.16 1087.68Z" fill="white" stroke="#263238" stroke-linecap="round" stroke-linejoin="round"/>
<path d="M1052.82 1062.19C1052.82 1062.19 1042.47 1035.1 1014.71 1057.14" stroke="#263238" stroke-linecap="round" stroke-linejoin="round"/>
<path d="M1033.89 1092.9C1032.38 1099.97 1028.76 1105.27 1025.48 1104.68C1022.2 1104.09 1021.35 1097.78 1022.78 1090.63C1024.22 1083.48 1027.92 1078.18 1031.2 1078.85C1034.48 1079.52 1035.24 1085.75 1033.89 1092.9Z" fill="#263238"/>
<path d="M994.096 1162.22C994.096 1162.22 993.591 1186.29 1002.51 1190.74C1011.43 1195.2 1030.69 1172.82 1030.69 1172.82C1030.69 1172.82 1005.03 1170.97 994.096 1162.22Z" fill="#263238"/>
<path d="M769.802 1964.67C769.802 1964.67 1168.42 1994.28 1209.89 2014.05C1251.37 2033.82 1265.08 2069.24 1268.79 2122.58C1272.49 2175.92 1308.24 2708.64 1308.24 2708.64L1253.05 2728.41L1101.2 2150.52L706.451 2184.17C706.451 2184.17 655.215 2176.26 641.333 2107.19C637.161 2087.43 637.666 2066.97 642.808 2047.44C647.95 2027.91 657.586 2009.85 670.948 1994.7" fill="#263238"/>
<path d="M769.802 1964.67C769.802 1964.67 1168.42 1994.28 1209.89 2014.05C1251.37 2033.82 1265.08 2069.24 1268.79 2122.58C1272.49 2175.92 1308.24 2708.64 1308.24 2708.64L1253.05 2728.41L1101.2 2150.52L706.451 2184.17C706.451 2184.17 655.215 2176.26 641.333 2107.19C637.161 2087.43 637.666 2066.97 642.808 2047.44C647.95 2027.91 657.586 2009.85 670.948 1994.7" stroke="#263238" stroke-linecap="round" stroke-linejoin="round"/>
<path d="M460.535 1914.19C460.535 1914.19 454.646 2141.34 478.287 2188.54C501.928 2235.74 717.052 2231.95 760.548 2208.23C804.043 2184.5 831.554 2089.86 817.757 2010.94C803.959 1932.03 821.711 1918.4 790.078 1908.3C758.444 1898.2 460.535 1914.19 460.535 1914.19Z" fill="#263238" stroke="#263238" stroke-linecap="round" stroke-linejoin="round"/>
<path d="M742.712 1211.78C750.115 1216.66 863.104 1337.97 871.012 1367.67C878.92 1397.37 874.966 1557.14 855.195 1626.21C835.424 1695.28 801.94 1780.08 801.94 1809.7C801.94 1839.31 827.18 1898.54 811.784 1920.25C796.388 1941.95 675.659 1957.69 594.725 1953.9C513.79 1950.11 464.489 1930.26 460.114 1914.44C455.74 1898.63 483.839 1598.7 517.324 1492.19C550.808 1385.68 600.277 1312.57 639.735 1279C679.193 1245.43 731.017 1203.87 742.712 1211.78Z" fill="#1FBD59" stroke="#263238" stroke-linecap="round" stroke-linejoin="round"/>
<path d="M606.587 1569.25C606.587 1569.25 638.725 1578.93 748.18 1498.5" stroke="#263238" stroke-linecap="round" stroke-linejoin="round"/>
<path d="M551.902 1643.03C551.902 1643.03 677.342 1639.84 757.855 1511.12" stroke="#263238" stroke-linecap="round" stroke-linejoin="round"/>
<path d="M768.624 1154.99L894.737 1294.65L871.012 1367.67L731.102 1206.31L768.624 1154.99Z" fill="#1FBD59" stroke="#263238" stroke-linecap="round" stroke-linejoin="round"/>
<path d="M700.393 2020.95C700.393 2020.95 1045.33 2027.77 1157.39 2053.43C1269.46 2079.09 1266.77 2113.75 1224.7 2220.51C1205.69 2268.97 864.954 2707.47 864.954 2707.47L815.653 2681.8L1036.67 2227.92C1036.67 2227.92 630.144 2257.53 543.32 2231.87C456.497 2206.21 462.386 2135.2 472.229 2093.73" fill="#263238"/>
<path d="M700.393 2020.95C700.393 2020.95 1045.33 2027.77 1157.39 2053.43C1269.46 2079.09 1266.77 2113.75 1224.7 2220.51C1205.69 2268.97 864.954 2707.47 864.954 2707.47L815.653 2681.8L1036.67 2227.92C1036.67 2227.92 630.144 2257.53 543.32 2231.87C456.497 2206.21 462.386 2135.2 472.229 2093.73" stroke="#263238" stroke-linecap="round" stroke-linejoin="round"/>
<path d="M1201.23 2256.18C1187.18 2280.25 1175.99 2297.07 1175.99 2297.07" stroke="white" stroke-linecap="round" stroke-linejoin="round"/>
<path d="M723.025 2025.24C723.025 2025.24 1154.2 2051.91 1203.08 2065.21C1251.96 2078.5 1265.34 2114.09 1243.12 2171.88C1234.58 2193.34 1224.66 2214.22 1213.43 2234.39" stroke="white" stroke-linecap="round" stroke-linejoin="round"/>
<path d="M643.016 2025.24C643.016 2025.24 558.885 2087.42 545.171 2145.21" stroke="white" stroke-linecap="round" stroke-linejoin="round"/>
<path d="M549.63 2038.54C549.63 2038.54 491.832 2118.54 500.75 2158.59" stroke="white" stroke-linecap="round" stroke-linejoin="round"/>
<path d="M1308.5 2708.98C1308.5 2708.98 1497.96 2671.46 1497.96 2685.34C1497.96 2699.22 1417.02 2752.64 1371.76 2776.12C1326.5 2799.59 1300.76 2827.35 1284.94 2821.46C1269.12 2815.57 1253.39 2728.92 1253.39 2728.92L1308.5 2708.98Z" fill="#1FBD59" stroke="#263238" stroke-linecap="round" stroke-linejoin="round"/>
<path d="M864.954 2707.46C864.954 2707.46 902.477 2762.66 918.21 2780.49C933.942 2798.33 1003.1 2845.61 983.327 2849.56C963.556 2853.52 872.863 2837.7 825.497 2821.88C778.131 2806.07 750.452 2784.45 746.582 2772.58C742.712 2760.72 815.653 2681.8 815.653 2681.8" fill="#1FBD59"/>
<path d="M864.954 2707.46C864.954 2707.46 902.477 2762.66 918.21 2780.49C933.942 2798.33 1003.1 2845.61 983.327 2849.56C963.556 2853.52 872.863 2837.7 825.497 2821.88C778.131 2806.07 750.452 2784.45 746.582 2772.58C742.712 2760.72 815.653 2681.8 815.653 2681.8" stroke="#263238" stroke-linecap="round" stroke-linejoin="round"/>
<path d="M1040.7 1645.9C1040.7 1645.9 796.051 1344.03 762.483 1328.22C728.914 1312.4 677.594 1363.72 663.797 1415.04C649.999 1466.36 677.594 1516 711.162 1539.39C726.054 1549.82 1026.91 1795.9 1042.72 1797.84C1058.54 1799.77 1409.71 1464.34 1409.71 1464.34L1374.2 1430.69L1040.7 1645.9Z" fill="#1FBD59" stroke="#263238" stroke-linecap="round" stroke-linejoin="round"/>
<path d="M1374.2 1430.86C1374.2 1430.86 1388 1334.1 1393.97 1329.9C1399.95 1325.69 1439.32 1284.55 1445.29 1290.44C1451.27 1296.33 1455.14 1304.24 1447.23 1312.15C1438.16 1324.55 1430.25 1337.76 1423.59 1351.6C1423.59 1351.6 1478.78 1306.26 1486.69 1294.39C1494.59 1282.53 1508.39 1264.78 1514.36 1274.71C1520.34 1284.64 1488.7 1359.51 1478.78 1383.24C1468.85 1406.96 1409.71 1464.09 1409.71 1464.09L1374.2 1430.86Z" fill="white" stroke="#263238" stroke-linecap="round" stroke-linejoin="round"/>
<path d="M1404.07 1580.78C1404.07 1580.78 1459.34 1515.66 1465.23 1509.77C1471.12 1503.88 1552.06 1499.93 1552.06 1499.93C1552.06 1499.93 1571.83 1499.93 1561.98 1511.71C1552.14 1523.48 1496.87 1533.41 1496.87 1533.41C1496.87 1533.41 1479.03 1576.82 1465.23 1584.73C1456.34 1590.18 1446.05 1592.93 1435.62 1592.64" fill="white"/>
<path d="M1404.07 1580.78C1404.07 1580.78 1459.34 1515.66 1465.23 1509.77C1471.12 1503.88 1552.06 1499.93 1552.06 1499.93C1552.06 1499.93 1571.83 1499.93 1561.98 1511.71C1552.14 1523.48 1496.87 1533.41 1496.87 1533.41C1496.87 1533.41 1479.03 1576.82 1465.23 1584.73C1456.34 1590.18 1446.05 1592.93 1435.62 1592.64" stroke="#263238" stroke-linecap="round" stroke-linejoin="round"/>
</svg>
