<svg width="6038" height="4563" viewBox="0 0 6038 4563" fill="none" xmlns="http://www.w3.org/2000/svg">
<path d="M5727.71 2872.1C5724.09 2739.02 5734.42 2512.07 5617.75 2418.62C5515.25 2336.58 5435.55 2447.92 5406.78 2537.75C5337.1 2755.64 5369.81 2995.92 5370.02 3220.84C5370.02 3224.25 5370.02 3227.66 5370.02 3231.5C5364.59 3397.08 5344.66 3576.19 5362.77 3741.45C5362.77 3741.45 5344.98 3575.87 5214.99 3646.83C5085 3717.8 5279.99 4090.19 5279.99 4090.19C5279.99 4090.19 5126.34 3977.89 5055.38 4072.5C4984.41 4167.12 5144.03 4273.46 5144.03 4273.46C5144.03 4273.46 4996.24 4232.12 4996.24 4273.46C4996.24 4314.8 5043.55 4350.28 5179.51 4368.08H5912.36C5912.36 4368.08 6030.64 4302.97 6006.98 4232.12C5983.33 4161.26 5859.09 4202.07 5859.09 4202.07C5859.09 4202.07 6048.32 3971.49 6036.5 3871.02C6024.67 3770.54 5782.27 3888.81 5782.27 3888.81C5782.27 3888.81 5971.39 3409.97 5935.91 3197.19C5908 3029.59 5777.9 3143.91 5707.04 3208.7C5723.72 3097.31 5730.64 2984.69 5727.71 2872.1Z" fill="#1FBD59" stroke="white" stroke-linecap="round" stroke-linejoin="round"/>
<path opacity="0.5" d="M5727.71 2872.1C5724.09 2739.02 5734.42 2512.07 5617.75 2418.62C5515.25 2336.58 5435.55 2447.92 5406.78 2537.75C5337.1 2755.64 5369.81 2995.92 5370.02 3220.84C5370.02 3224.25 5370.02 3227.66 5370.02 3231.5C5364.59 3397.08 5344.66 3576.19 5362.77 3741.45C5362.77 3741.45 5344.98 3575.87 5214.99 3646.83C5085 3717.8 5279.99 4090.19 5279.99 4090.19C5279.99 4090.19 5126.34 3977.89 5055.38 4072.5C4984.41 4167.12 5144.03 4273.46 5144.03 4273.46C5144.03 4273.46 4996.24 4232.12 4996.24 4273.46C4996.24 4314.8 5043.55 4350.28 5179.51 4368.08H5912.36C5912.36 4368.08 6030.64 4302.97 6006.98 4232.12C5983.33 4161.26 5859.09 4202.07 5859.09 4202.07C5859.09 4202.07 6048.32 3971.49 6036.5 3871.02C6024.67 3770.54 5782.27 3888.81 5782.27 3888.81C5782.27 3888.81 5971.39 3409.97 5935.91 3197.19C5908 3029.59 5777.9 3143.91 5707.04 3208.7C5723.72 3097.31 5730.64 2984.69 5727.71 2872.1Z" fill="white"/>
<path d="M5492.55 4361.68L5545.83 2736.04" stroke="white" stroke-linecap="round" stroke-linejoin="round"/>
<path d="M5522.17 3681.89L5799.95 3421.8" stroke="white" stroke-linecap="round" stroke-linejoin="round"/>
<path d="M5652.17 3563.62L5711.3 3398.14" stroke="white" stroke-linecap="round" stroke-linejoin="round"/>
<path d="M5291.6 3882.84L5504.38 4113.42" stroke="white" stroke-linecap="round" stroke-linejoin="round"/>
<path d="M5859.09 4012.94L5504.38 4196.21" stroke="white" stroke-linecap="round" stroke-linejoin="round"/>
<path d="M5669.96 4119.28L5799.95 4113.42" stroke="white" stroke-linecap="round" stroke-linejoin="round"/>
<path d="M5492.55 4361.68L5545.83 2736.04" stroke="#1FBD59" stroke-linecap="round" stroke-linejoin="round"/>
<path d="M5522.17 3681.89L5799.95 3421.8" stroke="#1FBD59" stroke-linecap="round" stroke-linejoin="round"/>
<path d="M5652.17 3563.62L5711.3 3398.14" stroke="#1FBD59" stroke-linecap="round" stroke-linejoin="round"/>
<path d="M5291.6 3882.84L5504.38 4113.42" stroke="#1FBD59" stroke-linecap="round" stroke-linejoin="round"/>
<path d="M5859.09 4012.94L5504.38 4196.21" stroke="#1FBD59" stroke-linecap="round" stroke-linejoin="round"/>
<path d="M5669.96 4119.28L5799.95 4113.42" stroke="#1FBD59" stroke-linecap="round" stroke-linejoin="round"/>
<g opacity="0.8">
<path d="M5492.55 4361.68L5545.83 2736.04" stroke="white" stroke-linecap="round" stroke-linejoin="round"/>
<path d="M5522.18 3681.89L5799.95 3421.8" stroke="white" stroke-linecap="round" stroke-linejoin="round"/>
<path d="M5652.17 3563.62L5711.3 3398.14" stroke="white" stroke-linecap="round" stroke-linejoin="round"/>
<path d="M5291.6 3882.84L5504.38 4113.42" stroke="white" stroke-linecap="round" stroke-linejoin="round"/>
<path d="M5859.09 4012.94L5504.38 4196.21" stroke="white" stroke-linecap="round" stroke-linejoin="round"/>
<path d="M5669.96 4119.28L5799.95 4113.42" stroke="white" stroke-linecap="round" stroke-linejoin="round"/>
</g>
<path d="M4477.12 4033.19C4477.12 4198.45 4608.08 4332.49 4608.08 4332.49C4608.08 4332.49 4739.03 4198.45 4739.03 4033.19C4739.03 3867.93 4608.08 3733.89 4608.08 3733.89C4608.08 3733.89 4477.12 3867.82 4477.12 4033.19Z" fill="#1FBD59"/>
<path d="M4386.34 4288.16C4450.27 4359.87 4558.32 4367.65 4558.32 4367.65C4558.32 4367.65 4563.54 4259.07 4500.03 4187.37C4436.53 4115.66 4328.06 4107.88 4328.06 4107.88C4328.06 4107.88 4322.73 4216.45 4386.34 4288.16Z" fill="#1FBD59"/>
<path d="M4720.06 4184.92C4653.25 4253.64 4653.68 4362.32 4653.68 4362.32C4653.68 4362.32 4762.25 4359.45 4828.96 4290.61C4895.66 4221.78 4895.44 4113.21 4895.44 4113.21C4895.44 4113.21 4786.76 4116.08 4720.06 4184.92Z" fill="#1FBD59"/>
<g opacity="0.5">
<path d="M4477.12 4033.19C4477.12 4198.45 4608.08 4332.49 4608.08 4332.49C4608.08 4332.49 4739.03 4198.45 4739.03 4033.19C4739.03 3867.93 4608.08 3733.89 4608.08 3733.89C4608.08 3733.89 4477.12 3867.82 4477.12 4033.19Z" fill="white"/>
<path d="M4608.08 4332.49V3733.89" stroke="white" stroke-linecap="round" stroke-linejoin="round"/>
<path d="M4608.08 3946.67L4534.77 3882.63" stroke="white" stroke-linecap="round" stroke-linejoin="round"/>
<path d="M4609.25 4045.55L4700.03 3914.06" stroke="white" stroke-linecap="round" stroke-linejoin="round"/>
<path d="M4608.08 4102.55L4499.82 4006.02" stroke="white" stroke-linecap="round" stroke-linejoin="round"/>
<path d="M4609.25 4179.37L4716.33 4084.01" stroke="white" stroke-linecap="round" stroke-linejoin="round"/>
<path d="M4609.25 4245.76L4525.39 4179.37" stroke="white" stroke-linecap="round" stroke-linejoin="round"/>
<path d="M4386.34 4288.16C4450.27 4359.87 4558.32 4367.65 4558.32 4367.65C4558.32 4367.65 4563.54 4259.07 4500.03 4187.37C4436.53 4115.66 4328.06 4107.88 4328.06 4107.88C4328.06 4107.88 4322.73 4216.45 4386.34 4288.16Z" fill="white"/>
<path d="M4558.32 4367.65L4328.06 4107.88" stroke="white" stroke-linecap="round" stroke-linejoin="round"/>
<path d="M4409.89 4200.26L4353.42 4200.69" stroke="white" stroke-linecap="round" stroke-linejoin="round"/>
<path d="M4448.46 4242.67L4437.27 4150.71" stroke="white" stroke-linecap="round" stroke-linejoin="round"/>
<path d="M4469.88 4267.92L4385.81 4267.6" stroke="white" stroke-linecap="round" stroke-linejoin="round"/>
<path d="M4499.93 4300.74L4509.62 4218.16" stroke="white" stroke-linecap="round" stroke-linejoin="round"/>
<path d="M4525.5 4329.5L4463.59 4333.02" stroke="white" stroke-linecap="round" stroke-linejoin="round"/>
<path d="M4720.06 4184.91C4653.25 4253.64 4653.68 4362.32 4653.68 4362.32C4653.68 4362.32 4762.25 4359.44 4828.96 4290.61C4895.66 4221.78 4895.44 4113.21 4895.44 4113.21C4895.44 4113.21 4786.76 4116.08 4720.06 4184.91Z" fill="white"/>
<path d="M4653.68 4362.32L4895.44 4113.21" stroke="white" stroke-linecap="round" stroke-linejoin="round"/>
<path d="M4809.46 4201.75L4804.87 4145.49" stroke="white" stroke-linecap="round" stroke-linejoin="round"/>
<path d="M4770.03 4243.41L4860.92 4225.3" stroke="white" stroke-linecap="round" stroke-linejoin="round"/>
<path d="M4746.49 4266.64L4740.52 4182.78" stroke="white" stroke-linecap="round" stroke-linejoin="round"/>
<path d="M4715.91 4299.03L4799.01 4302.65" stroke="white" stroke-linecap="round" stroke-linejoin="round"/>
<path d="M4689.16 4326.63L4681.06 4265.25" stroke="white" stroke-linecap="round" stroke-linejoin="round"/>
</g>
<path d="M4608.08 4332.49V3733.89" stroke="#1FBD59" stroke-linecap="round" stroke-linejoin="round"/>
<path d="M4608.08 3946.67L4534.77 3882.63" stroke="#1FBD59" stroke-linecap="round" stroke-linejoin="round"/>
<path d="M4609.25 4045.55L4700.03 3914.06" stroke="#1FBD59" stroke-linecap="round" stroke-linejoin="round"/>
<path d="M4608.08 4102.55L4499.82 4006.02" stroke="#1FBD59" stroke-linecap="round" stroke-linejoin="round"/>
<path d="M4609.25 4179.37L4716.33 4084.01" stroke="#1FBD59" stroke-linecap="round" stroke-linejoin="round"/>
<path d="M4609.25 4245.76L4525.39 4179.38" stroke="#1FBD59" stroke-linecap="round" stroke-linejoin="round"/>
<g opacity="0.7">
<path d="M4608.08 4332.49V3733.89" stroke="white" stroke-linecap="round" stroke-linejoin="round"/>
<path d="M4608.08 3946.67L4534.77 3882.63" stroke="white" stroke-linecap="round" stroke-linejoin="round"/>
<path d="M4609.25 4045.55L4700.03 3914.06" stroke="white" stroke-linecap="round" stroke-linejoin="round"/>
<path d="M4608.08 4102.55L4499.82 4006.02" stroke="white" stroke-linecap="round" stroke-linejoin="round"/>
<path d="M4609.25 4179.37L4716.33 4084.01" stroke="white" stroke-linecap="round" stroke-linejoin="round"/>
<path d="M4609.25 4245.76L4525.39 4179.37" stroke="white" stroke-linecap="round" stroke-linejoin="round"/>
</g>
<path d="M4558.32 4367.65L4328.06 4107.88" stroke="#1FBD59" stroke-linecap="round" stroke-linejoin="round"/>
<path d="M4409.89 4200.26L4353.42 4200.69" stroke="#1FBD59" stroke-linecap="round" stroke-linejoin="round"/>
<path d="M4448.46 4242.67L4437.27 4150.71" stroke="#1FBD59" stroke-linecap="round" stroke-linejoin="round"/>
<path d="M4469.88 4267.92L4385.81 4267.6" stroke="#1FBD59" stroke-linecap="round" stroke-linejoin="round"/>
<path d="M4499.93 4300.74L4509.62 4218.16" stroke="#1FBD59" stroke-linecap="round" stroke-linejoin="round"/>
<path d="M4525.5 4329.5L4463.59 4333.02" stroke="#1FBD59" stroke-linecap="round" stroke-linejoin="round"/>
<g opacity="0.7">
<path d="M4558.32 4367.65L4328.06 4107.88" stroke="white" stroke-linecap="round" stroke-linejoin="round"/>
<path d="M4409.89 4200.26L4353.42 4200.69" stroke="white" stroke-linecap="round" stroke-linejoin="round"/>
<path d="M4448.46 4242.67L4437.27 4150.71" stroke="white" stroke-linecap="round" stroke-linejoin="round"/>
<path d="M4469.88 4267.92L4385.81 4267.6" stroke="white" stroke-linecap="round" stroke-linejoin="round"/>
<path d="M4499.93 4300.74L4509.62 4218.16" stroke="white" stroke-linecap="round" stroke-linejoin="round"/>
<path d="M4525.5 4329.5L4463.59 4333.02" stroke="white" stroke-linecap="round" stroke-linejoin="round"/>
</g>
<path d="M4653.68 4362.32L4895.44 4113.21" stroke="#1FBD59" stroke-linecap="round" stroke-linejoin="round"/>
<path d="M4809.46 4201.75L4804.87 4145.49" stroke="#1FBD59" stroke-linecap="round" stroke-linejoin="round"/>
<path d="M4770.03 4243.41L4860.92 4225.3" stroke="#1FBD59" stroke-linecap="round" stroke-linejoin="round"/>
<path d="M4746.49 4266.64L4740.52 4182.78" stroke="#1FBD59" stroke-linecap="round" stroke-linejoin="round"/>
<path d="M4715.91 4299.03L4799.01 4302.65" stroke="#1FBD59" stroke-linecap="round" stroke-linejoin="round"/>
<path d="M4689.16 4326.63L4681.06 4265.25" stroke="#1FBD59" stroke-linecap="round" stroke-linejoin="round"/>
<g opacity="0.7">
<path d="M4653.68 4362.32L4895.44 4113.21" stroke="white" stroke-linecap="round" stroke-linejoin="round"/>
<path d="M4809.46 4201.75L4804.87 4145.49" stroke="white" stroke-linecap="round" stroke-linejoin="round"/>
<path d="M4770.03 4243.41L4860.92 4225.3" stroke="white" stroke-linecap="round" stroke-linejoin="round"/>
<path d="M4746.49 4266.64L4740.52 4182.79" stroke="white" stroke-linecap="round" stroke-linejoin="round"/>
<path d="M4715.91 4299.03L4799.01 4302.65" stroke="white" stroke-linecap="round" stroke-linejoin="round"/>
<path d="M4689.16 4326.63L4681.06 4265.25" stroke="white" stroke-linecap="round" stroke-linejoin="round"/>
</g>
<path d="M309.817 2872.1C313.333 2739.02 303.104 2512.07 419.777 2418.62C522.279 2336.58 601.979 2447.92 630.641 2537.75C700.432 2755.64 667.614 2995.92 667.507 3220.84C667.507 3224.25 667.507 3227.66 667.507 3231.5C673.048 3397.08 692.867 3576.19 674.86 3741.45C674.86 3741.45 692.547 3575.87 822.646 3646.83C952.744 3717.8 757.543 4090.19 757.543 4090.19C757.543 4090.19 911.296 3977.89 982.259 4072.5C1053.22 4167.12 893.821 4273.03 893.821 4273.03C893.821 4273.03 1041.61 4231.69 1041.61 4273.03C1041.61 4314.37 994.299 4349.86 858.34 4367.65H125.164C125.164 4367.65 6.89267 4302.55 30.5469 4231.69C54.2012 4160.83 178.333 4202.07 178.333 4202.07C178.333 4202.07 -10.7948 3971.49 1.03233 3871.02C12.8595 3770.54 255.263 3888.81 255.263 3888.81C255.263 3888.81 66.0283 3409.97 101.51 3197.51C129.426 3029.9 259.631 3144.23 330.381 3209.02C313.719 3097.53 306.838 2984.79 309.817 2872.1Z" fill="#1FBD59" stroke="white" stroke-linecap="round" stroke-linejoin="round"/>
<path opacity="0.5" d="M309.817 2872.1C313.333 2739.02 303.104 2512.07 419.777 2418.62C522.279 2336.58 601.979 2447.92 630.641 2537.75C700.432 2755.64 667.614 2995.92 667.507 3220.84C667.507 3224.25 667.507 3227.66 667.507 3231.5C673.048 3397.08 692.867 3576.19 674.86 3741.45C674.86 3741.45 692.547 3575.87 822.646 3646.83C952.744 3717.8 757.543 4090.19 757.543 4090.19C757.543 4090.19 911.296 3977.89 982.259 4072.5C1053.22 4167.12 893.821 4273.03 893.821 4273.03C893.821 4273.03 1041.61 4231.69 1041.61 4273.03C1041.61 4314.37 994.299 4349.86 858.34 4367.65H125.164C125.164 4367.65 6.89267 4302.55 30.5469 4231.69C54.2012 4160.83 178.333 4202.07 178.333 4202.07C178.333 4202.07 -10.7948 3971.49 1.03233 3871.02C12.8595 3770.54 255.263 3888.81 255.263 3888.81C255.263 3888.81 66.0283 3409.97 101.51 3197.51C129.426 3029.9 259.631 3144.23 330.381 3209.02C313.719 3097.53 306.838 2984.79 309.817 2872.1Z" fill="white"/>
<path d="M544.868 4361.68L491.699 2736.04" stroke="white" stroke-linecap="round" stroke-linejoin="round"/>
<path d="M515.353 3681.89L237.469 3421.8" stroke="white" stroke-linecap="round" stroke-linejoin="round"/>
<path d="M385.254 3563.62L326.119 3398.14" stroke="white" stroke-linecap="round" stroke-linejoin="round"/>
<path d="M745.822 3882.84L533.04 4113.42" stroke="white" stroke-linecap="round" stroke-linejoin="round"/>
<path d="M178.333 4012.94L533.041 4196.21" stroke="white" stroke-linecap="round" stroke-linejoin="round"/>
<path d="M367.567 4119.28L237.469 4113.42" stroke="white" stroke-linecap="round" stroke-linejoin="round"/>
<path d="M544.868 4361.68L491.699 2736.04" stroke="#1FBD59" stroke-linecap="round" stroke-linejoin="round"/>
<path d="M515.353 3681.89L237.469 3421.8" stroke="#1FBD59" stroke-linecap="round" stroke-linejoin="round"/>
<path d="M385.254 3563.62L326.119 3398.14" stroke="#1FBD59" stroke-linecap="round" stroke-linejoin="round"/>
<path d="M745.822 3882.84L533.04 4113.42" stroke="#1FBD59" stroke-linecap="round" stroke-linejoin="round"/>
<path d="M178.333 4012.94L533.041 4196.21" stroke="#1FBD59" stroke-linecap="round" stroke-linejoin="round"/>
<path d="M367.567 4119.28L237.469 4113.42" stroke="#1FBD59" stroke-linecap="round" stroke-linejoin="round"/>
<g opacity="0.8">
<path d="M544.868 4361.68L491.699 2736.04" stroke="white" stroke-linecap="round" stroke-linejoin="round"/>
<path d="M515.353 3681.89L237.469 3421.8" stroke="white" stroke-linecap="round" stroke-linejoin="round"/>
<path d="M385.255 3563.62L326.119 3398.14" stroke="white" stroke-linecap="round" stroke-linejoin="round"/>
<path d="M745.822 3882.84L533.041 4113.42" stroke="white" stroke-linecap="round" stroke-linejoin="round"/>
<path d="M178.333 4012.94L533.041 4196.21" stroke="white" stroke-linecap="round" stroke-linejoin="round"/>
<path d="M367.567 4119.28L237.469 4113.42" stroke="white" stroke-linecap="round" stroke-linejoin="round"/>
</g>
<path d="M1581.71 4033.19C1581.71 4198.45 1450.76 4332.49 1450.76 4332.49C1450.76 4332.49 1320.02 4198.45 1320.02 4033.19C1320.02 3867.93 1450.98 3733.89 1450.98 3733.89C1450.98 3733.89 1581.71 3867.82 1581.71 4033.19Z" fill="#1FBD59"/>
<path d="M1672.39 4288.16C1608.46 4359.87 1500.42 4367.65 1500.42 4367.65C1500.42 4367.65 1495.19 4259.07 1558.81 4187.37C1622.42 4115.66 1730.78 4107.88 1730.78 4107.88C1730.78 4107.88 1735.57 4216.45 1672.39 4288.16Z" fill="#1FBD59"/>
<path d="M1338.78 4184.92C1405.48 4253.64 1405.16 4362.32 1405.16 4362.32C1405.16 4362.32 1296.58 4359.45 1229.78 4290.61C1162.97 4221.78 1163.4 4113.21 1163.4 4113.21C1163.4 4113.21 1271.97 4116.08 1338.78 4184.92Z" fill="#1FBD59"/>
<g opacity="0.5">
<path d="M1581.71 4033.19C1581.71 4198.45 1450.76 4332.49 1450.76 4332.49C1450.76 4332.49 1320.02 4198.45 1320.02 4033.19C1320.02 3867.93 1450.98 3733.89 1450.98 3733.89C1450.98 3733.89 1581.71 3867.82 1581.71 4033.19Z" fill="white"/>
<path d="M1450.76 4332.49V3733.89" stroke="white" stroke-linecap="round" stroke-linejoin="round"/>
<path d="M1450.76 3946.67L1524.07 3882.63" stroke="white" stroke-linecap="round" stroke-linejoin="round"/>
<path d="M1449.59 4045.55L1358.81 3914.06" stroke="white" stroke-linecap="round" stroke-linejoin="round"/>
<path d="M1450.76 4102.55L1559.02 4006.02" stroke="white" stroke-linecap="round" stroke-linejoin="round"/>
<path d="M1449.59 4179.37L1342.51 4084.01" stroke="white" stroke-linecap="round" stroke-linejoin="round"/>
<path d="M1449.59 4245.76L1533.34 4179.37" stroke="white" stroke-linecap="round" stroke-linejoin="round"/>
<path d="M1672.39 4288.16C1608.46 4359.87 1500.42 4367.65 1500.42 4367.65C1500.42 4367.65 1495.19 4259.07 1558.81 4187.37C1622.42 4115.66 1730.78 4107.88 1730.78 4107.88C1730.78 4107.88 1735.57 4216.45 1672.39 4288.16Z" fill="white"/>
<path d="M1500.42 4367.65L1730.78 4107.88" stroke="white" stroke-linecap="round" stroke-linejoin="round"/>
<path d="M1648.95 4200.26L1705.31 4200.69" stroke="white" stroke-linecap="round" stroke-linejoin="round"/>
<path d="M1610.38 4242.67L1621.56 4150.71" stroke="white" stroke-linecap="round" stroke-linejoin="round"/>
<path d="M1588.85 4267.92L1673.03 4267.6" stroke="white" stroke-linecap="round" stroke-linejoin="round"/>
<path d="M1558.8 4300.74L1549.11 4218.16" stroke="white" stroke-linecap="round" stroke-linejoin="round"/>
<path d="M1533.34 4329.5L1595.25 4333.02" stroke="white" stroke-linecap="round" stroke-linejoin="round"/>
<path d="M1338.78 4184.91C1405.48 4253.64 1405.16 4362.32 1405.16 4362.32C1405.16 4362.32 1296.58 4359.44 1229.78 4290.61C1162.97 4221.78 1163.4 4113.21 1163.4 4113.21C1163.4 4113.21 1271.97 4116.08 1338.78 4184.91Z" fill="white"/>
<path d="M1405.16 4362.32L1163.4 4113.21" stroke="white" stroke-linecap="round" stroke-linejoin="round"/>
<path d="M1249.27 4201.75L1253.96 4145.49" stroke="white" stroke-linecap="round" stroke-linejoin="round"/>
<path d="M1288.81 4243.41L1197.92 4225.3" stroke="white" stroke-linecap="round" stroke-linejoin="round"/>
<path d="M1312.25 4266.64L1318.32 4182.78" stroke="white" stroke-linecap="round" stroke-linejoin="round"/>
<path d="M1342.83 4299.03L1259.72 4302.65" stroke="white" stroke-linecap="round" stroke-linejoin="round"/>
<path d="M1369.68 4326.63L1377.67 4265.25" stroke="white" stroke-linecap="round" stroke-linejoin="round"/>
</g>
<path d="M1450.76 4332.49V3733.89" stroke="#1FBD59" stroke-linecap="round" stroke-linejoin="round"/>
<path d="M1450.76 3946.67L1524.07 3882.63" stroke="#1FBD59" stroke-linecap="round" stroke-linejoin="round"/>
<path d="M1449.59 4045.55L1358.81 3914.06" stroke="#1FBD59" stroke-linecap="round" stroke-linejoin="round"/>
<path d="M1450.76 4102.55L1559.02 4006.02" stroke="#1FBD59" stroke-linecap="round" stroke-linejoin="round"/>
<path d="M1449.59 4179.37L1342.51 4084.01" stroke="#1FBD59" stroke-linecap="round" stroke-linejoin="round"/>
<path d="M1449.59 4245.76L1533.34 4179.38" stroke="#1FBD59" stroke-linecap="round" stroke-linejoin="round"/>
<g opacity="0.7">
<path d="M1450.76 4332.49V3733.89" stroke="white" stroke-linecap="round" stroke-linejoin="round"/>
<path d="M1450.76 3946.67L1524.07 3882.63" stroke="white" stroke-linecap="round" stroke-linejoin="round"/>
<path d="M1449.59 4045.55L1358.81 3914.06" stroke="white" stroke-linecap="round" stroke-linejoin="round"/>
<path d="M1450.76 4102.55L1559.02 4006.02" stroke="white" stroke-linecap="round" stroke-linejoin="round"/>
<path d="M1449.59 4179.37L1342.51 4084.01" stroke="white" stroke-linecap="round" stroke-linejoin="round"/>
<path d="M1449.59 4245.76L1533.34 4179.37" stroke="white" stroke-linecap="round" stroke-linejoin="round"/>
</g>
<path d="M1500.42 4367.65L1730.78 4107.88" stroke="#1FBD59" stroke-linecap="round" stroke-linejoin="round"/>
<path d="M1648.95 4200.26L1705.31 4200.69" stroke="#1FBD59" stroke-linecap="round" stroke-linejoin="round"/>
<path d="M1610.38 4242.67L1621.56 4150.71" stroke="#1FBD59" stroke-linecap="round" stroke-linejoin="round"/>
<path d="M1588.85 4267.92L1673.03 4267.6" stroke="#1FBD59" stroke-linecap="round" stroke-linejoin="round"/>
<path d="M1558.81 4300.74L1549.11 4218.16" stroke="#1FBD59" stroke-linecap="round" stroke-linejoin="round"/>
<path d="M1533.34 4329.5L1595.25 4333.02" stroke="#1FBD59" stroke-linecap="round" stroke-linejoin="round"/>
<g opacity="0.7">
<path d="M1500.42 4367.65L1730.78 4107.88" stroke="white" stroke-linecap="round" stroke-linejoin="round"/>
<path d="M1648.95 4200.26L1705.31 4200.69" stroke="white" stroke-linecap="round" stroke-linejoin="round"/>
<path d="M1610.38 4242.67L1621.56 4150.71" stroke="white" stroke-linecap="round" stroke-linejoin="round"/>
<path d="M1588.85 4267.92L1673.03 4267.6" stroke="white" stroke-linecap="round" stroke-linejoin="round"/>
<path d="M1558.81 4300.74L1549.11 4218.16" stroke="white" stroke-linecap="round" stroke-linejoin="round"/>
<path d="M1533.34 4329.5L1595.25 4333.02" stroke="white" stroke-linecap="round" stroke-linejoin="round"/>
</g>
<path d="M1405.16 4362.32L1163.4 4113.21" stroke="#1FBD59" stroke-linecap="round" stroke-linejoin="round"/>
<path d="M1249.27 4201.75L1253.96 4145.49" stroke="#1FBD59" stroke-linecap="round" stroke-linejoin="round"/>
<path d="M1288.81 4243.41L1197.92 4225.3" stroke="#1FBD59" stroke-linecap="round" stroke-linejoin="round"/>
<path d="M1312.25 4266.64L1318.32 4182.78" stroke="#1FBD59" stroke-linecap="round" stroke-linejoin="round"/>
<path d="M1342.83 4299.03L1259.72 4302.65" stroke="#1FBD59" stroke-linecap="round" stroke-linejoin="round"/>
<path d="M1369.68 4326.63L1377.67 4265.25" stroke="#1FBD59" stroke-linecap="round" stroke-linejoin="round"/>
<g opacity="0.7">
<path d="M1405.16 4362.32L1163.4 4113.21" stroke="white" stroke-linecap="round" stroke-linejoin="round"/>
<path d="M1249.27 4201.75L1253.96 4145.49" stroke="white" stroke-linecap="round" stroke-linejoin="round"/>
<path d="M1288.81 4243.41L1197.92 4225.3" stroke="white" stroke-linecap="round" stroke-linejoin="round"/>
<path d="M1312.25 4266.64L1318.32 4182.79" stroke="white" stroke-linecap="round" stroke-linejoin="round"/>
<path d="M1342.83 4299.03L1259.72 4302.65" stroke="white" stroke-linecap="round" stroke-linejoin="round"/>
<path d="M1369.68 4326.63L1377.67 4265.25" stroke="white" stroke-linecap="round" stroke-linejoin="round"/>
</g>
<path d="M4531.25 1200.96H1650.87C1650 1200.97 1649.15 1200.82 1648.34 1200.5C1647.54 1200.18 1646.81 1199.7 1646.2 1199.09C1645.59 1198.49 1645.1 1197.77 1644.76 1196.97C1644.43 1196.18 1644.26 1195.32 1644.26 1194.46C1644.26 1192.71 1644.95 1191.03 1646.19 1189.79C1647.43 1188.55 1649.11 1187.85 1650.87 1187.85H4531.25C4532.12 1187.85 4532.97 1188.03 4533.77 1188.36C4534.56 1188.69 4535.28 1189.18 4535.89 1189.8C4536.49 1190.41 4536.97 1191.14 4537.29 1191.94C4537.61 1192.74 4537.77 1193.6 4537.75 1194.46C4537.75 1196.18 4537.07 1197.84 4535.85 1199.06C4534.63 1200.28 4532.98 1200.96 4531.25 1200.96Z" fill="#1FBD59"/>
<g opacity="0.3">
<path d="M4531.25 1200.96H1650.87C1650 1200.97 1649.15 1200.82 1648.34 1200.5C1647.54 1200.18 1646.81 1199.7 1646.2 1199.09C1645.59 1198.49 1645.1 1197.77 1644.76 1196.97C1644.43 1196.18 1644.26 1195.32 1644.26 1194.46C1644.26 1192.71 1644.95 1191.03 1646.19 1189.79C1647.43 1188.55 1649.11 1187.85 1650.87 1187.85H4531.25C4532.12 1187.85 4532.97 1188.03 4533.77 1188.36C4534.56 1188.69 4535.28 1189.18 4535.89 1189.8C4536.49 1190.41 4536.97 1191.14 4537.29 1191.94C4537.61 1192.74 4537.77 1193.6 4537.75 1194.46C4537.75 1196.18 4537.07 1197.84 4535.85 1199.06C4534.63 1200.28 4532.98 1200.96 4531.25 1200.96Z" fill="white"/>
</g>
<path d="M4525.5 2343.4H1645.11C1644.25 2343.41 1643.39 2343.25 1642.59 2342.93C1641.79 2342.61 1641.06 2342.14 1640.45 2341.53C1639.83 2340.93 1639.34 2340.21 1639.01 2339.41C1638.68 2338.61 1638.5 2337.76 1638.51 2336.9C1638.51 2335.15 1639.2 2333.47 1640.44 2332.23C1641.68 2330.99 1643.36 2330.29 1645.11 2330.29H4525.5C4526.36 2330.29 4527.22 2330.46 4528.01 2330.8C4528.81 2331.13 4529.53 2331.62 4530.13 2332.23C4530.74 2332.85 4531.21 2333.58 4531.53 2334.38C4531.86 2335.18 4532.01 2336.04 4532 2336.9C4532 2337.75 4531.83 2338.6 4531.5 2339.39C4531.18 2340.17 4530.7 2340.89 4530.1 2341.49C4529.49 2342.1 4528.77 2342.58 4527.99 2342.9C4527.2 2343.23 4526.35 2343.4 4525.5 2343.4Z" fill="#1FBD59"/>
<g opacity="0.3">
<path d="M4525.5 2343.4H1645.11C1644.25 2343.41 1643.39 2343.25 1642.59 2342.93C1641.79 2342.61 1641.06 2342.14 1640.45 2341.53C1639.83 2340.93 1639.34 2340.21 1639.01 2339.41C1638.68 2338.61 1638.5 2337.76 1638.51 2336.9C1638.51 2335.15 1639.2 2333.47 1640.44 2332.23C1641.68 2330.99 1643.36 2330.29 1645.11 2330.29H4525.5C4526.36 2330.29 4527.22 2330.46 4528.01 2330.8C4528.81 2331.13 4529.53 2331.62 4530.13 2332.23C4530.74 2332.85 4531.21 2333.58 4531.53 2334.38C4531.86 2335.18 4532.01 2336.04 4532 2336.9C4532 2337.75 4531.83 2338.6 4531.5 2339.39C4531.18 2340.17 4530.7 2340.89 4530.1 2341.49C4529.49 2342.1 4528.77 2342.58 4527.99 2342.9C4527.2 2343.23 4526.35 2343.4 4525.5 2343.4Z" fill="white"/>
</g>
<path d="M4525.5 3277.32H1645.11C1643.36 3277.32 1641.68 3276.62 1640.44 3275.38C1639.2 3274.14 1638.51 3272.46 1638.51 3270.71C1638.5 3269.85 1638.68 3268.99 1639.01 3268.2C1639.34 3267.4 1639.83 3266.68 1640.45 3266.08C1641.06 3265.47 1641.79 3264.99 1642.59 3264.67C1643.39 3264.35 1644.25 3264.2 1645.11 3264.21H4525.5C4526.35 3264.21 4527.2 3264.38 4527.99 3264.7C4528.77 3265.03 4529.49 3265.51 4530.1 3266.11C4530.7 3266.72 4531.18 3267.43 4531.5 3268.22C4531.83 3269.01 4532 3269.86 4532 3270.71C4532.01 3271.57 4531.86 3272.43 4531.53 3273.23C4531.21 3274.03 4530.74 3274.76 4530.13 3275.37C4529.53 3275.99 4528.81 3276.48 4528.01 3276.81C4527.22 3277.14 4526.36 3277.32 4525.5 3277.32Z" fill="#1FBD59"/>
<g opacity="0.3">
<path d="M4525.5 3277.32H1645.11C1643.36 3277.32 1641.68 3276.62 1640.44 3275.38C1639.2 3274.14 1638.51 3272.46 1638.51 3270.71C1638.5 3269.85 1638.68 3268.99 1639.01 3268.2C1639.34 3267.4 1639.83 3266.68 1640.45 3266.08C1641.06 3265.47 1641.79 3264.99 1642.59 3264.67C1643.39 3264.35 1644.25 3264.2 1645.11 3264.21H4525.5C4526.35 3264.21 4527.2 3264.38 4527.99 3264.7C4528.77 3265.03 4529.49 3265.51 4530.1 3266.11C4530.7 3266.72 4531.18 3267.43 4531.5 3268.22C4531.83 3269.01 4532 3269.86 4532 3270.71C4532.01 3271.57 4531.86 3272.43 4531.53 3273.23C4531.21 3274.03 4530.74 3274.76 4530.13 3275.37C4529.53 3275.99 4528.81 3276.48 4528.01 3276.81C4527.22 3277.14 4526.36 3277.32 4525.5 3277.32Z" fill="white"/>
</g>
<path d="M2257.46 3435.33V4407.29" stroke="#263238" stroke-width="0.265171" stroke-miterlimit="10"/>
<path d="M2396.29 3435.33V4407.29" stroke="#263238" stroke-width="0.265171" stroke-miterlimit="10"/>
<path d="M2535.13 3435.33V4407.29" stroke="#263238" stroke-width="0.265171" stroke-miterlimit="10"/>
<path d="M2673.97 3435.33V4407.29" stroke="#263238" stroke-width="0.265171" stroke-miterlimit="10"/>
<path d="M2812.8 3435.33V4407.29" stroke="#263238" stroke-width="0.265171" stroke-miterlimit="10"/>
<path d="M2951.64 3435.33V4407.29" stroke="#263238" stroke-width="0.265171" stroke-miterlimit="10"/>
<path d="M3090.47 3435.33V4407.29" stroke="#263238" stroke-width="0.265171" stroke-miterlimit="10"/>
<path d="M3229.31 3435.33V4407.29" stroke="#263238" stroke-width="0.265171" stroke-miterlimit="10"/>
<path d="M3368.14 3435.33V4407.29" stroke="#263238" stroke-width="0.265171" stroke-miterlimit="10"/>
<path d="M3506.98 3435.33V4407.29" stroke="#263238" stroke-width="0.265171" stroke-miterlimit="10"/>
<path d="M3645.82 3435.33V4407.29" stroke="#263238" stroke-width="0.265171" stroke-miterlimit="10"/>
<path d="M3784.65 3435.33V4407.29" stroke="#263238" stroke-width="0.265171" stroke-miterlimit="10"/>
<path d="M2264.38 3525.58H3777.73" stroke="#263238" stroke-width="0.265171" stroke-miterlimit="10"/>
<path d="M2264.38 3657.49H3777.73" stroke="#263238" stroke-width="0.265171" stroke-miterlimit="10"/>
<path d="M2264.38 3789.4H3777.73" stroke="#263238" stroke-width="0.265171" stroke-miterlimit="10"/>
<path d="M2264.38 3921.31H3777.73" stroke="#263238" stroke-width="0.265171" stroke-miterlimit="10"/>
<path d="M2264.38 4053.22H3777.73" stroke="#263238" stroke-width="0.265171" stroke-miterlimit="10"/>
<path d="M2264.38 4185.13H3777.73" stroke="#263238" stroke-width="0.265171" stroke-miterlimit="10"/>
<path d="M2264.38 4317.04H3777.73" stroke="#263238" stroke-width="0.265171" stroke-miterlimit="10"/>
<path d="M2582.33 3776.29L2379.25 4402.39H2804.6L2601.4 3776.29C2600.76 3774.27 2599.48 3772.51 2597.77 3771.26C2596.06 3770.01 2593.99 3769.34 2591.87 3769.34C2589.75 3769.34 2587.68 3770.01 2585.97 3771.26C2584.25 3772.51 2582.98 3774.27 2582.33 3776.29Z" fill="#1FBD59" stroke="#263238" stroke-width="1.06068" stroke-miterlimit="10"/>
<path d="M2969.54 3568.94L2699.22 4402.39H3259.25L2988.61 3568.94C2987.96 3566.93 2986.69 3565.16 2984.98 3563.91C2983.26 3562.66 2981.19 3561.99 2979.07 3561.99C2976.95 3561.99 2974.89 3562.66 2973.17 3563.91C2971.46 3565.16 2970.19 3566.93 2969.54 3568.94Z" fill="#263238" stroke="#263238" stroke-width="1.06068" stroke-miterlimit="10"/>
<path d="M3325.84 3919.5L3169.11 4402.38H3501.55L3344.49 3919.5C3343.75 3917.62 3342.47 3916.01 3340.81 3914.88C3339.15 3913.75 3337.18 3913.14 3335.17 3913.14C3333.15 3913.14 3331.19 3913.75 3329.52 3914.88C3327.86 3916.01 3326.58 3917.62 3325.84 3919.5Z" fill="#1FBD59" stroke="#263238" stroke-width="1.06068" stroke-miterlimit="10"/>
<path d="M3540.54 4085.29L3437.72 4402.38H3662.44L3559.62 4085.29C3558.97 4083.27 3557.69 4081.51 3555.98 4080.26C3554.27 4079.01 3552.2 4078.34 3550.08 4078.34C3547.96 4078.34 3545.89 4079.01 3544.18 4080.26C3542.46 4081.51 3541.19 4083.27 3540.54 4085.29Z" fill="#263238" stroke="#263238" stroke-width="1.06068" stroke-miterlimit="10"/>
<path d="M2239.13 3128.14C2178.21 3128.14 2118.65 3110.08 2067.99 3076.23C2017.34 3042.38 1977.86 2994.27 1954.54 2937.99C1931.23 2881.7 1925.13 2819.76 1937.01 2760.01C1948.9 2700.26 1978.24 2645.37 2021.32 2602.29C2064.4 2559.21 2119.28 2529.87 2179.04 2517.99C2238.79 2506.1 2300.73 2512.2 2357.01 2535.52C2413.3 2558.83 2461.41 2598.31 2495.26 2648.97C2529.1 2699.63 2547.17 2759.18 2547.17 2820.11C2547.09 2901.78 2514.6 2980.08 2456.85 3037.83C2399.1 3095.58 2320.8 3128.06 2239.13 3128.14ZM2239.13 2602.53C2196.1 2602.55 2154.05 2615.33 2118.28 2639.25C2082.52 2663.17 2054.64 2697.16 2038.19 2736.92C2021.74 2776.68 2017.45 2820.42 2025.86 2862.62C2034.26 2904.82 2054.99 2943.58 2085.43 2973.99C2115.86 3004.41 2154.63 3025.12 2196.83 3033.51C2239.03 3041.9 2282.78 3037.58 2322.53 3021.11C2362.28 3004.64 2396.25 2976.75 2420.15 2940.97C2444.06 2905.2 2456.82 2863.13 2456.82 2820.11C2456.76 2762.4 2433.8 2707.07 2392.99 2666.28C2352.17 2625.49 2296.84 2602.56 2239.13 2602.53Z" fill="#263238" stroke="#263238" stroke-width="1.06068" stroke-miterlimit="10"/>
<path d="M2239.13 3128.14C2197.56 3128.27 2156.4 3119.92 2118.16 3103.6C2079.93 3087.27 2045.42 3063.32 2016.76 3033.21L2082.08 2970.66C2102.31 2991.94 2126.68 3008.86 2153.69 3020.38C2180.69 3031.9 2209.77 3037.79 2239.13 3037.68C2267.7 3037.68 2296 3032.06 2322.39 3021.12C2348.79 3010.19 2372.78 2994.16 2392.98 2973.96C2413.19 2953.75 2429.21 2929.77 2440.15 2903.37C2451.08 2876.97 2456.71 2848.68 2456.71 2820.11C2456.71 2791.53 2451.08 2763.24 2440.15 2736.84C2429.21 2710.45 2413.19 2686.46 2392.98 2666.26C2372.78 2646.05 2348.79 2630.03 2322.39 2619.09C2296 2608.16 2267.7 2602.53 2239.13 2602.53V2512.07C2279.58 2512.07 2319.64 2520.04 2357.01 2535.52C2394.39 2551 2428.34 2573.69 2456.95 2602.29C2485.55 2630.89 2508.24 2664.85 2523.72 2702.23C2539.2 2739.6 2547.17 2779.65 2547.17 2820.11C2547.17 2860.56 2539.2 2900.61 2523.72 2937.99C2508.24 2975.36 2485.55 3009.32 2456.95 3037.92C2428.34 3066.53 2394.39 3089.22 2357.01 3104.7C2319.64 3120.18 2279.58 3128.14 2239.13 3128.14Z" fill="#1FBD59" stroke="#263238" stroke-width="1.06068" stroke-miterlimit="10"/>
<path d="M2998.84 3128.14C2937.91 3128.17 2878.34 3110.12 2827.67 3076.28C2777 3042.45 2737.5 2994.35 2714.17 2938.06C2690.84 2881.78 2684.73 2819.84 2696.6 2760.08C2708.47 2700.32 2737.8 2645.42 2780.88 2602.33C2823.95 2559.24 2878.84 2529.89 2938.6 2517.99C2998.35 2506.1 3060.3 2512.19 3116.59 2535.51C3172.88 2558.82 3221 2598.3 3254.85 2648.96C3288.7 2699.62 3306.77 2759.18 3306.77 2820.11C3306.69 2901.76 3274.22 2980.04 3216.49 3037.79C3158.77 3095.54 3080.49 3128.03 2998.84 3128.14ZM2998.84 2602.53C2955.82 2602.57 2913.77 2615.37 2878.02 2639.3C2842.27 2663.23 2814.41 2697.23 2797.98 2736.99C2781.54 2776.75 2777.26 2820.49 2785.68 2862.68C2794.1 2904.88 2814.84 2943.62 2845.28 2974.03C2875.71 3004.44 2914.48 3025.14 2956.68 3033.52C2998.88 3041.9 3042.62 3037.57 3082.36 3021.1C3122.11 3004.63 3156.08 2976.74 3179.98 2940.96C3203.87 2905.19 3216.63 2863.13 3216.63 2820.11C3216.54 2762.39 3193.56 2707.07 3152.73 2666.27C3111.9 2625.48 3056.56 2602.56 2998.84 2602.53Z" fill="#263238" stroke="#263238" stroke-width="1.06068" stroke-miterlimit="10"/>
<path d="M3118.71 3103.85L3083.55 3020.64C3129.75 3001.05 3167.78 2966.1 3191.17 2921.7C3214.57 2877.3 3221.91 2826.18 3211.94 2776.99C3201.98 2727.8 3175.32 2683.57 3136.49 2651.77C3097.65 2619.98 3049.03 2602.59 2998.84 2602.53V2512.07C3069.91 2512.08 3138.8 2536.66 3193.82 2581.66C3248.84 2626.65 3286.6 2689.29 3300.71 2758.95C3314.82 2828.61 3304.41 2901.01 3271.24 2963.87C3238.07 3026.73 3184.18 3076.19 3118.71 3103.85Z" fill="#1FBD59" stroke="#263238" stroke-width="1.06068" stroke-miterlimit="10"/>
<path d="M3758.44 3128.14C3697.52 3128.14 3637.96 3110.08 3587.3 3076.23C3536.65 3042.38 3497.16 2994.27 3473.85 2937.99C3450.53 2881.7 3444.43 2819.76 3456.32 2760.01C3468.21 2700.26 3497.54 2645.37 3540.62 2602.29C3583.7 2559.21 3638.59 2529.87 3698.34 2517.99C3758.1 2506.1 3820.03 2512.2 3876.32 2535.52C3932.61 2558.83 3980.72 2598.31 4014.56 2648.97C4048.41 2699.63 4066.48 2759.18 4066.48 2820.11C4066.39 2901.78 4033.91 2980.08 3976.16 3037.83C3918.41 3095.58 3840.11 3128.06 3758.44 3128.14ZM3758.44 2602.53C3715.41 2602.53 3673.34 2615.29 3637.56 2639.2C3601.78 2663.11 3573.89 2697.09 3557.43 2736.84C3540.96 2776.6 3536.65 2820.35 3545.04 2862.55C3553.44 2904.76 3574.16 2943.53 3604.59 2973.96C3635.02 3004.38 3673.79 3025.11 3715.99 3033.5C3758.2 3041.9 3801.95 3037.59 3841.7 3021.12C3881.46 3004.65 3915.44 2976.77 3939.35 2940.99C3963.26 2905.2 3976.02 2863.14 3976.02 2820.11C3975.96 2762.42 3953.02 2707.11 3912.23 2666.32C3871.44 2625.53 3816.13 2602.59 3758.44 2602.53Z" fill="#263238" stroke="#263238" stroke-width="1.06068" stroke-miterlimit="10"/>
<path d="M3971.75 2776.74C3961.65 2727.64 3934.94 2683.52 3896.13 2651.8C3857.33 2620.07 3808.78 2602.67 3758.65 2602.53V2512.07C3829.65 2512.25 3898.41 2536.87 3953.39 2581.79C4008.36 2626.72 4046.19 2689.2 4060.51 2758.73L3971.75 2776.74Z" fill="#1FBD59" stroke="#263238" stroke-width="1.06068" stroke-miterlimit="10"/>
<path d="M2361.99 2171H3808.63" stroke="#263238" stroke-width="1.06068" stroke-miterlimit="10"/>
<path d="M2361.99 2171V2140.21" stroke="#263238" stroke-width="1.06068" stroke-miterlimit="10"/>
<path d="M2651.27 2171V2140.21" stroke="#263238" stroke-width="1.06068" stroke-miterlimit="10"/>
<path d="M2940.66 2171V2140.21" stroke="#263238" stroke-width="1.06068" stroke-miterlimit="10"/>
<path d="M3229.95 2171V2140.21" stroke="#263238" stroke-width="1.06068" stroke-miterlimit="10"/>
<path d="M3519.23 2171V2140.21" stroke="#263238" stroke-width="1.06068" stroke-miterlimit="10"/>
<path d="M3808.63 2171V2140.21" stroke="#263238" stroke-width="1.06068" stroke-miterlimit="10"/>
<path d="M2610.78 1759.82H2402.47V2006.48H2610.78V1759.82Z" fill="#1FBD59" stroke="#263238" stroke-width="1.06068" stroke-miterlimit="10"/>
<path d="M2900.07 1472.03H2691.76V2047.61H2900.07V1472.03Z" fill="#1FBD59" stroke="#263238" stroke-width="1.06068" stroke-miterlimit="10"/>
<path d="M3189.46 1069.16H2981.15V1710.59H3189.46V1069.16Z" fill="#1FBD59" stroke="#263238" stroke-width="1.06068" stroke-miterlimit="10"/>
<path d="M3478.74 1669.46H3270.44V1792.85H3478.74V1669.46Z" fill="#1FBD59" stroke="#263238" stroke-width="1.06068" stroke-miterlimit="10"/>
<path d="M3768.03 1595.41H3559.72V1916.13H3768.03V1595.41Z" fill="#1FBD59" stroke="#263238" stroke-width="1.06068" stroke-miterlimit="10"/>
<path d="M2610.78 2006.59H2402.47V2171.11H2610.78V2006.59Z" fill="#263238" stroke="#263238" stroke-width="1.06068" stroke-miterlimit="10"/>
<path d="M2900.07 2047.72H2691.76V2171.11H2900.07V2047.72Z" fill="#263238" stroke="#263238" stroke-width="1.06068" stroke-miterlimit="10"/>
<path d="M3189.46 1710.49H2981.15V2171H3189.46V1710.49Z" fill="#263238" stroke="#263238" stroke-width="1.06068" stroke-miterlimit="10"/>
<path d="M3478.74 1792.74H3270.44V2171H3478.74V1792.74Z" fill="#263238" stroke="#263238" stroke-width="1.06068" stroke-miterlimit="10"/>
<path d="M3768.03 1916.13H3559.72V2171H3768.03V1916.13Z" fill="#263238" stroke="#263238" stroke-width="1.06068" stroke-miterlimit="10"/>
<path d="M4194.13 952.697C4191.62 952.715 4189.15 952.111 4186.94 950.939C4184.73 949.768 4182.84 948.065 4181.45 945.984L3733.29 292.402L3278.64 777.208L2814.4 474.604L2365.29 578.81L1909.14 949.288C1905.98 951.859 1901.92 953.068 1897.87 952.648C1893.81 952.229 1890.09 950.215 1887.51 947.05C1884.94 943.885 1883.73 939.828 1884.15 935.772C1884.57 931.715 1886.59 927.992 1889.75 925.42L2351.44 550.468L2820.26 441.68L3273.95 737.465L3737.13 243.495L4206.81 928.617C4208.4 930.916 4209.33 933.607 4209.51 936.398C4209.68 939.19 4209.09 941.976 4207.79 944.455C4206.5 946.935 4204.55 949.013 4202.16 950.466C4199.77 951.918 4197.03 952.69 4194.23 952.697H4194.13Z" fill="#263238"/>
<path d="M1938.02 937.353C1938.02 944.876 1935.79 952.231 1931.61 958.486C1927.43 964.742 1921.49 969.617 1914.54 972.496C1907.59 975.375 1899.94 976.129 1892.56 974.661C1885.18 973.193 1878.4 969.57 1873.08 964.251C1867.76 958.931 1864.14 952.153 1862.67 944.774C1861.21 937.395 1861.96 929.747 1864.84 922.796C1867.72 915.846 1872.59 909.905 1878.85 905.725C1885.1 901.545 1892.46 899.314 1899.98 899.314C1910.07 899.314 1919.74 903.322 1926.88 910.456C1934.01 917.589 1938.02 927.265 1938.02 937.353Z" fill="#1FBD59"/>
<path d="M2358.36 602.678C2379.37 602.678 2396.4 585.647 2396.4 564.639C2396.4 543.631 2379.37 526.601 2358.36 526.601C2337.35 526.601 2320.32 543.631 2320.32 564.639C2320.32 585.647 2337.35 602.678 2358.36 602.678Z" fill="#1FBD59"/>
<path d="M2817.28 496.127C2838.28 496.127 2855.32 479.097 2855.32 458.088C2855.32 437.08 2838.28 420.05 2817.28 420.05C2796.27 420.05 2779.24 437.08 2779.24 458.088C2779.24 479.097 2796.27 496.127 2817.28 496.127Z" fill="#1FBD59"/>
<path d="M3276.19 795.321C3297.2 795.321 3314.23 778.291 3314.23 757.283C3314.23 736.275 3297.2 719.244 3276.19 719.244C3255.18 719.244 3238.15 736.275 3238.15 757.283C3238.15 778.291 3255.18 795.321 3276.19 795.321Z" fill="#1FBD59"/>
<path d="M3773.14 268.002C3773.14 275.525 3770.91 282.879 3766.73 289.135C3762.55 295.39 3756.61 300.266 3749.66 303.145C3742.71 306.024 3735.06 306.777 3727.68 305.309C3720.31 303.842 3713.53 300.219 3708.21 294.899C3702.89 289.579 3699.27 282.801 3697.8 275.422C3696.33 268.044 3697.08 260.395 3699.96 253.445C3702.84 246.494 3707.72 240.553 3713.97 236.374C3720.23 232.194 3727.58 229.963 3735.11 229.963C3745.19 229.963 3754.87 233.971 3762 241.104C3769.14 248.238 3773.14 257.913 3773.14 268.002Z" fill="#1FBD59"/>
<path d="M4232.06 937.353C4232.06 944.876 4229.83 952.231 4225.65 958.486C4221.47 964.742 4215.53 969.617 4208.58 972.496C4201.63 975.375 4193.98 976.129 4186.6 974.661C4179.22 973.193 4172.44 969.57 4167.12 964.251C4161.8 958.931 4158.18 952.153 4156.71 944.774C4155.24 937.395 4156 929.747 4158.88 922.796C4161.76 915.846 4166.63 909.905 4172.89 905.725C4179.14 901.545 4186.5 899.314 4194.02 899.314C4204.11 899.314 4213.78 903.322 4220.92 910.456C4228.05 917.589 4232.06 927.265 4232.06 937.353Z" fill="#1FBD59"/>
<path d="M5014.35 4562.85C5420.51 4562.85 5749.77 4518.63 5749.77 4464.08C5749.77 4409.53 5420.51 4365.31 5014.35 4365.31C4608.2 4365.31 4278.94 4409.53 4278.94 4464.08C4278.94 4518.63 4608.2 4562.85 5014.35 4562.85Z" fill="#1FBD59"/>
<path opacity="0.7" d="M5014.35 4562.85C5420.51 4562.85 5749.77 4518.63 5749.77 4464.08C5749.77 4409.53 5420.51 4365.31 5014.35 4365.31C4608.2 4365.31 4278.94 4409.53 4278.94 4464.08C4278.94 4518.63 4608.2 4562.85 5014.35 4562.85Z" fill="white"/>
<path d="M985.242 4562.85C1360.03 4562.85 1663.86 4518.63 1663.86 4464.08C1663.86 4409.53 1360.03 4365.31 985.242 4365.31C610.449 4365.31 306.62 4409.53 306.62 4464.08C306.62 4518.63 610.449 4562.85 985.242 4562.85Z" fill="#1FBD59"/>
<path opacity="0.7" d="M985.242 4562.85C1360.03 4562.85 1663.86 4518.63 1663.86 4464.08C1663.86 4409.53 1360.03 4365.31 985.242 4365.31C610.449 4365.31 306.62 4409.53 306.62 4464.08C306.62 4518.63 610.449 4562.85 985.242 4562.85Z" fill="white"/>
<path d="M4806.79 984.45C4806.79 984.45 5086.17 957.386 5102.15 1003.95C5118.13 1050.51 5112.81 1156.85 5112.81 1156.85C5126.88 1160.51 5140.61 1165.39 5153.83 1171.45C5157.56 1175.07 5198.9 1202.13 5160.33 1246.56C5150.25 1257.83 5138.05 1266.99 5124.42 1273.52C5107.41 1281.05 5091.23 1290.34 5076.15 1301.23L5020.11 1364.84L5030.76 1446.77C5030.76 1446.77 5055.8 1464.89 5086.38 1528.07C5086.38 1528.07 5158.62 1570.69 5201.03 1594.88C5235.9 1613.2 5272.17 1628.74 5309.5 1641.34C5309.5 1641.34 5328.89 1647.62 5327.51 1661.58C5326.12 1675.54 5230.97 1991.89 5230.97 1991.89L5180.89 2151.71C5179.94 2171.35 5177.38 2190.88 5173.22 2210.1C5166.08 2244.52 5139.23 2267.11 5111.42 2260.08L5114.19 2377.28C5114.19 2377.28 4983.56 2442.6 4768.11 2431.52C4768.11 2431.52 4666.68 2421.71 4591.67 2366.2L4590.28 2092.36L4244.63 2025.45C4244.63 2025.45 4200.84 2016.18 4223.32 1976.76C4245.8 1937.33 4321.35 1839.52 4321.35 1839.52L4564.18 1542.46C4564.18 1542.46 4580.91 1522.74 4587.09 1516.46C4593.27 1510.17 4608.4 1505.8 4668.38 1500.79C4728.37 1495.79 4795.61 1484.17 4795.61 1484.17C4795.61 1484.17 4832.05 1452.85 4837.27 1452.85C4842.49 1452.85 4843.55 1405.96 4843.55 1405.96C4825.12 1392.67 4809.8 1375.53 4798.63 1355.74C4787.47 1335.94 4780.73 1313.97 4778.88 1291.32C4773.66 1215.24 4807.01 1036.98 4807.01 1036.98L4806.79 984.45Z" fill="white"/>
<path d="M4595.93 2365.13C4595.93 2365.13 4566.52 2801.99 4566.52 3011.05C4566.52 3220.1 4579.63 3389.41 4586.13 3536.23C4592.63 3683.06 4566.52 3784.18 4589.32 3891.79C4612.12 3999.41 4664.44 4312.67 4664.44 4312.67L4725.92 4349.75C4725.92 4349.75 4736.58 4100.53 4758.95 4012.52C4781.33 3924.51 4788.36 3552.54 4801.57 3438.31C4814.78 3324.09 4857.09 2919.63 4857.09 2919.63C4857.09 2919.63 5020.21 3343.7 5059.53 3510.13C5098.85 3676.56 5232.46 4051.62 5261.98 4142.93C5291.49 4234.25 5336.99 4369.57 5336.99 4369.57C5350.82 4373.61 5365.34 4374.7 5379.61 4372.76C5385.78 4372.27 5391.71 4370.21 5396.86 4366.78C5402.01 4363.35 5406.19 4358.66 5409.02 4353.16C5409.02 4353.16 5365.65 4079.96 5346.58 3947.2C5323.03 3783.01 5284.67 3536.23 5261.34 3444.92C5238 3353.61 5202.63 3209.98 5202.63 3141.46C5202.63 3072.95 5114.62 2384.95 5114.62 2384.95C5114.62 2384.95 4807.97 2518.46 4595.93 2365.13Z" fill="#263238"/>
<path d="M4856.87 2919.62L4726.03 2767.04" stroke="white" stroke-width="0.530341" stroke-miterlimit="10" stroke-linecap="round"/>
<path d="M4692.57 2778.23L4800.29 2878.5" stroke="white" stroke-width="0.530341" stroke-miterlimit="10" stroke-linecap="round"/>
<path d="M4922.83 2789.42C4950.41 2719.63 5001.67 2661.77 5067.63 2625.97" stroke="white" stroke-width="0.530341" stroke-miterlimit="10" stroke-linecap="round"/>
<path d="M5074.98 2421.82C5074.98 2421.82 5060.17 2477.44 5078.71 2510.9C5097.25 2544.35 5115.9 2544.35 5115.9 2544.35C5115.9 2544.35 5149.25 2726.23 5149.25 2830.23C5149.25 2934.22 5126.98 2945.3 5149.25 3060.38C5171.52 3175.45 5186.43 3212.64 5186.43 3279.45C5186.43 3346.25 5216.06 3390.9 5242.05 3431.71C5268.05 3472.52 5275.51 3591.53 5275.51 3639.59C5275.51 3687.64 5290.32 3739.85 5305.24 3788.12C5305.24 3788.12 5308.75 3896.38 5327.51 3921.73C5346.26 3947.09 5349.78 4033.19 5349.78 4033.19" stroke="white" stroke-width="0.530341" stroke-miterlimit="10" stroke-linecap="round"/>
<path d="M4830.02 2904.49C4830.02 2904.49 4837.37 2989.73 4811.37 3138.37C4785.38 3287.01 4766.84 3327.71 4763.11 3498.51C4759.38 3669.32 4774.3 3699.04 4766.84 3788.12C4759.38 3877.2 4714.84 4017.95 4714.84 4081.88C4714.84 4145.81 4721.66 4350.18 4721.66 4350.18" stroke="white" stroke-width="0.530341" stroke-miterlimit="10" stroke-linecap="round"/>
<path d="M4748.3 2444.09L4755.76 2473.82L4804.02 2484.9L4796.56 2447.82" stroke="white" stroke-width="0.530341" stroke-miterlimit="10" stroke-linecap="round"/>
<path d="M4804.24 2484.9C4804.24 2484.9 4893.31 2481.17 4937.85 2466.36L4927.2 2436.63" stroke="white" stroke-width="0.530341" stroke-miterlimit="10" stroke-linecap="round"/>
<path d="M4967.37 2429.17L4978.02 2466.36C4978.02 2466.36 5049.3 2462.31 5059.96 2451.65" stroke="white" stroke-width="0.530341" stroke-miterlimit="10" stroke-linecap="round"/>
<path d="M4755.76 2473.82C4731.13 2473.04 4707.01 2466.67 4685.22 2455.17L4651.76 2436.63L4662.42 2410.63" stroke="white" stroke-width="0.530341" stroke-miterlimit="10" stroke-linecap="round"/>
<path d="M4664.44 4312.67C4664.44 4312.67 4504.62 4416.98 4481.71 4465.89C4458.8 4514.8 4550.22 4495.3 4615.43 4469.19C4680.64 4443.09 4721.98 4349.75 4721.98 4349.75L4664.44 4312.67Z" fill="white" stroke="#263238" stroke-width="1.06068" stroke-miterlimit="10" stroke-linecap="round"/>
<path d="M5342.1 4370.95C5350.16 4415.64 5366.04 4458.56 5388.99 4497.75C5424.15 4552.41 5490.53 4599.29 5490.53 4513.3C5490.53 4427.32 5408.59 4353.48 5408.59 4353.48C5408.59 4353.48 5367.89 4375.53 5342.1 4370.95Z" fill="white" stroke="#263238" stroke-width="1.06068" stroke-miterlimit="10" stroke-linecap="round"/>
<path d="M4805.83 1043.48C4805.83 1043.48 4771.21 1258.28 4782.93 1311.56C4809.67 1430.79 4903.54 1425.68 4962.25 1402.87C5017.12 1381.56 5071.89 1306.23 5078.92 1296.32C5079.42 1295.62 5080.13 1295.1 5080.95 1294.83C5089.69 1292.38 5143.92 1275.12 5167.79 1233.25C5193.89 1187.54 5144.99 1168.04 5144.99 1168.04" fill="white"/>
<mask id="mask0_228_5421" style="mask-type:luminance" maskUnits="userSpaceOnUse" x="4780" y="1043" width="396" height="373">
<path d="M4805.83 1043.48C4805.83 1043.48 4771.21 1258.28 4782.93 1311.56C4809.67 1430.79 4903.54 1425.68 4962.25 1402.87C5017.12 1381.56 5071.89 1306.23 5078.92 1296.32C5079.42 1295.62 5080.13 1295.1 5080.95 1294.83C5089.69 1292.38 5143.92 1275.12 5167.79 1233.25C5193.89 1187.54 5144.99 1168.04 5144.99 1168.04" fill="white"/>
</mask>
<g mask="url(#mask0_228_5421)">
<g opacity="0.5" style="mix-blend-mode:multiply">
<path d="M5027.99 1351.62L5079.78 1294.72C5079.78 1294.72 5141.04 1275.87 5167.79 1232.71C5183.45 1207.46 5174.82 1185.4 5165.34 1179.44C5152.34 1172.4 5138.93 1166.18 5125.17 1160.79L5107.8 1199.04L5092.99 1201.6C5092.99 1201.6 5099.17 1162.18 5081.27 1138.84C5063.37 1115.51 5059.32 1047.95 5059.32 1047.95C5059.32 1047.95 5034.28 1182.63 5031.19 1239C5030.39 1270.37 5020.59 1300.85 5002.95 1326.8C5002.95 1326.8 5006.15 1361.21 5012.33 1395.63C5013.08 1399.68 5013.82 1405.75 5014.57 1413.32L5023.09 1399.68L5027.78 1412.68C5022.45 1390.3 5020 1366.54 5027.99 1351.62Z" fill="#1FBD59"/>
</g>
</g>
<path d="M4805.83 1043.48C4805.83 1043.48 4771.21 1258.28 4782.93 1311.56C4809.67 1430.79 4903.54 1425.68 4962.25 1402.87C5017.12 1381.56 5071.89 1306.23 5078.92 1296.32C5079.42 1295.62 5080.13 1295.1 5080.95 1294.83C5089.69 1292.38 5143.92 1275.12 5167.79 1233.25C5193.89 1187.54 5144.99 1168.04 5144.99 1168.04" stroke="#263238" stroke-width="1.06068" stroke-miterlimit="10" stroke-linecap="round"/>
<path d="M4938.38 1152.69C4936.36 1161.22 4938.38 1168.89 4942.33 1169.85C4946.27 1170.81 4951.6 1164.84 4953.62 1156.42C4955.65 1148.01 4953.62 1140.33 4949.68 1139.27C4945.74 1138.2 4940.41 1144.28 4938.38 1152.69Z" fill="#263238"/>
<path d="M4846.86 1130.42C4844.83 1138.95 4846.86 1146.62 4850.8 1147.58C4854.74 1148.54 4860.07 1142.57 4862.09 1134.15C4864.12 1125.74 4862.09 1117.96 4858.15 1117C4854.21 1116.04 4848.77 1121.9 4846.86 1130.42Z" fill="#263238"/>
<path d="M4995.17 1115.4C4990.14 1106.54 4982.97 1099.08 4974.32 1093.7C4965.66 1088.33 4955.8 1085.2 4945.63 1084.61" stroke="#263238" stroke-width="1.06068" stroke-miterlimit="10" stroke-linecap="round"/>
<path d="M4875.52 1086.21C4867.13 1082.54 4857.83 1081.51 4848.84 1083.27C4839.86 1085.02 4831.62 1089.46 4825.23 1096.01" stroke="#263238" stroke-width="1.06068" stroke-miterlimit="10" stroke-linecap="round"/>
<path d="M4881.7 1124.99C4881.9 1139.26 4880.83 1153.53 4878.5 1167.61C4874.98 1185.4 4861.13 1188.92 4864.65 1202.67C4868.17 1216.41 4885.96 1217.8 4885.96 1217.8" stroke="#263238" stroke-width="1.06068" stroke-miterlimit="10" stroke-linecap="round"/>
<path d="M4904.5 1273.31C4912.04 1275.71 4920.01 1276.45 4927.87 1275.47C4935.72 1274.5 4943.27 1271.83 4950 1267.66" stroke="#263238" stroke-width="1.06068" stroke-miterlimit="10" stroke-linecap="round"/>
<path d="M5073.28 893.455C5073.28 893.455 5001.57 831.442 4933.06 831.442C4864.54 831.442 4809.03 870.653 4766.62 874.063C4724.22 877.472 4694.91 838.155 4668.81 890.365C4642.71 942.575 4740.63 1030.69 4805.83 1043.69C4871.04 1056.69 4962.36 1037.19 4988.46 1033.89C5013.47 1032.17 5038.57 1032.17 5063.58 1033.89C5063.58 1033.89 5043.98 1095.9 5063.58 1115.51C5083.19 1135.11 5086.38 1148.11 5086.38 1161.11C5087.5 1175.46 5089.67 1189.7 5092.88 1203.73L5112.49 1210.34L5122.29 1174.43C5148.74 1146.22 5166.82 1111.21 5174.5 1073.31C5184.2 1014.6 5135.29 956.107 5135.29 956.107L5073.28 893.455Z" fill="#263238"/>
<path d="M4798.59 1016.95C4798.59 1016.95 4910.15 1038.26 4997.52 1001.92C5084.89 965.59 5009.56 893.455 5009.56 893.455" stroke="white" stroke-width="0.530341" stroke-miterlimit="10" stroke-linecap="round"/>
<path d="M5027.99 887.382C5037.05 887.382 5112.38 944.6 5097.25 986.794C5082.12 1028.99 5052.07 1032.08 5052.07 1032.08" stroke="white" stroke-width="0.530341" stroke-miterlimit="10" stroke-linecap="round"/>
<path d="M5015.63 2181.65L4921.44 2132C4897.23 2130.66 4873.16 2127.53 4849.41 2122.63C4827.46 2116.34 4602.22 2094.82 4602.22 2094.82L4598.81 2148.09C4598.81 2148.09 4855.7 2182.61 4908.87 2188.9C4962.04 2195.19 5009.13 2220.23 5018.51 2235.89C5027.89 2251.55 5046.75 2267.21 5037.37 2310.47C5027.99 2353.73 4965.34 2417.03 4965.34 2417.03C4962.36 2412.55 5116 2401.47 5114.51 2385.06C5111.21 2352.46 5093.84 2257.2 5093.84 2257.2L5015.63 2181.65Z" fill="#1FBD59"/>
<path opacity="0.5" d="M5015.63 2181.65L4921.44 2132C4897.23 2130.66 4873.16 2127.53 4849.41 2122.63C4827.46 2116.34 4602.22 2094.82 4602.22 2094.82L4598.81 2148.09C4598.81 2148.09 4855.7 2182.61 4908.87 2188.9C4962.04 2195.19 5009.13 2220.23 5018.51 2235.89C5027.89 2251.55 5046.75 2267.21 5037.37 2310.47C5027.99 2353.73 4965.34 2417.03 4965.34 2417.03C4962.89 2412.23 5116.32 2401.36 5114.51 2385.06C5109.5 2343.51 5093.84 2257.2 5093.84 2257.2L5015.63 2181.65Z" fill="white"/>
<path d="M5326.33 1660.41C5318.02 1621.41 5256.01 1626.63 5218.61 1605C5181.21 1583.37 5090.75 1533.29 5090.75 1533.29L5046.96 1467.44C5039.05 1449.69 5032.67 1431.3 5027.89 1412.46L5023.2 1399.46L5014.67 1413.1C5020.11 1471.49 5025.33 1620.98 5025.33 1620.98L5044.08 1714.96C5044.08 1714.96 5116.22 2025.02 5134.97 2093.96C5153.72 2162.9 5153.72 2209.78 5141.26 2231.73C5128.79 2253.68 5132.94 2263.7 5132.94 2263.7C5132.94 2263.7 5181.85 2225.87 5178.87 2188.37C5174.93 2144.25 5332.2 1686.83 5326.33 1660.41Z" fill="#1FBD59"/>
<path opacity="0.5" d="M5326.33 1660.41C5322.07 1620.77 5256.01 1626.63 5218.61 1605C5181.21 1583.37 5090.75 1533.29 5090.75 1533.29L5046.96 1467.44C5039.05 1449.69 5032.67 1431.3 5027.89 1412.46L5023.2 1399.46L5014.67 1413.1C5020.11 1471.49 5025.33 1620.98 5025.33 1620.98L5044.08 1714.96C5044.08 1714.96 5116.22 2025.02 5134.97 2093.96C5153.72 2162.9 5153.72 2209.78 5141.26 2231.73C5128.79 2253.68 5132.94 2263.7 5132.94 2263.7C5132.94 2263.7 5183.24 2225.77 5178.87 2188.37C5173.86 2148.2 5330.17 1693.33 5326.33 1660.41Z" fill="white"/>
<path d="M5052.61 1621.3C5052.61 1621.3 5033 1445.17 5023.2 1399.46C5013.4 1353.75 5020 1327.76 4977.59 1327.76C4935.19 1327.76 4882.98 1321.15 4892.35 1344.06C4901.73 1366.97 4966.94 1347.25 4977.59 1357.06C4988.25 1366.86 4980.79 1389.66 4980.79 1389.66C4980.79 1389.66 4895.55 1396.27 4895.55 1419.07C4895.55 1441.87 4898.85 1504.31 4915.16 1510.38C4931.46 1516.46 4937.96 1481.08 4937.96 1481.08C4937.96 1481.08 4941.26 1555.67 4957.56 1582.2C4967.95 1598.58 4979.98 1613.87 4993.47 1627.8L5052.61 1621.3Z" fill="white" stroke="#263238" stroke-width="1.06068" stroke-miterlimit="10" stroke-linecap="round"/>
<path d="M4993.9 1670.21C4993.9 1670.21 4984.09 2075.1 5000.4 2139.99C5016.7 2204.88 5104.82 2293.32 5150.42 2250.91C5196.02 2208.51 5173.33 2117.19 5173.33 2074.78C5173.33 2032.38 5068.91 1719.22 5068.91 1696.32C5067.36 1677.29 5062.94 1658.61 5055.8 1640.91" stroke="#263238" stroke-width="1.06068" stroke-miterlimit="10" stroke-linecap="round"/>
<path d="M5000.4 1719.22L5065.61 1712.62" stroke="#263238" stroke-width="1.06068" stroke-miterlimit="10" stroke-linecap="round"/>
<path d="M4583.36 1921.67L4595.93 1561.42C4595.93 1561.42 4580.27 1552.05 4573.98 1586.46C4567.69 1620.88 4564.6 1689.92 4564.6 1689.92C4564.6 1689.92 4489.38 1642.93 4508.24 1671.06C4527.1 1699.19 4558.32 1761.95 4558.32 1761.95L4441.96 1877.77L4495.24 1899.72L4583.36 1921.67Z" fill="#1FBD59"/>
<path opacity="0.5" d="M4583.36 1921.67L4595.93 1561.42C4595.93 1561.42 4580.27 1552.05 4573.98 1586.46C4567.69 1620.88 4564.6 1689.92 4564.6 1689.92C4564.6 1689.92 4489.38 1642.93 4508.24 1671.06C4527.1 1699.19 4558.32 1761.95 4558.32 1761.95L4441.96 1877.77L4495.24 1899.72L4583.36 1921.67Z" fill="white"/>
<path d="M4739.35 1641.87C4739.35 1641.87 4733.38 1663.18 4758.42 1663.18C4783.46 1663.18 4827.46 1645.38 4827.46 1645.38L4824.27 1610.01C4824.27 1610.01 4764.07 1639.31 4739.35 1641.87Z" fill="#1FBD59"/>
<path opacity="0.5" d="M4739.35 1641.87C4739.35 1641.87 4733.38 1663.18 4758.42 1663.18C4783.46 1663.18 4827.46 1645.38 4827.46 1645.38L4824.27 1610.01C4824.27 1610.01 4764.07 1639.31 4739.35 1641.87Z" fill="white"/>
<path d="M4846.86 1403.62C4846.86 1403.62 4814.25 1595.41 4833.86 1638.03C4853.46 1680.65 4882.76 1670.64 4905.57 1651.14C4928.37 1631.64 4957.78 1582.63 4957.78 1582.63" stroke="#263238" stroke-width="1.06068" stroke-miterlimit="10" stroke-linecap="round"/>
<path d="M4589.32 2097.59L4595.93 2365.13C4595.93 2365.13 4670.51 2436.84 4814.47 2436.84C4958.42 2436.84 5114.62 2384.63 5114.62 2384.63V2290.02" stroke="#263238" stroke-width="1.06068" stroke-miterlimit="10" stroke-linecap="round"/>
<path d="M5029.8 1441.87C5029.8 1441.87 5088.51 1500.58 5088.51 1556.09C5088.51 1611.61 5078.71 1624.61 5078.71 1624.61" stroke="#263238" stroke-width="1.06068" stroke-miterlimit="10" stroke-linecap="round"/>
<path d="M5081.91 1523.49C5081.91 1523.49 5170.02 1575.59 5218.93 1605C5267.84 1634.41 5326.65 1634.3 5326.65 1660.41C5326.65 1686.51 5189.63 2130.19 5189.63 2130.19" stroke="#263238" stroke-width="1.06068" stroke-miterlimit="10" stroke-linecap="round"/>
<path d="M5137.42 1670.21L5104.82 1800.73" stroke="#263238" stroke-width="1.06068" stroke-miterlimit="10" stroke-linecap="round"/>
<path d="M4590.18 1746.82L4537.43 1636.22" stroke="#263238" stroke-width="0.530341" stroke-miterlimit="10" stroke-linecap="round"/>
<path d="M4590.18 1778.47L4511.11 1731.05" stroke="#263238" stroke-width="0.530341" stroke-miterlimit="10" stroke-linecap="round"/>
<path d="M4848.13 2025.88L4832.37 2104.94" stroke="#263238" stroke-width="0.530341" stroke-miterlimit="10" stroke-linecap="round"/>
<path d="M5274.66 1657.32C5274.66 1657.32 5195.7 1673.09 5121.97 1762.59" stroke="#263238" stroke-width="0.530341" stroke-miterlimit="10" stroke-linecap="round"/>
<path d="M5222.02 1652.52C5222.02 1652.52 5200.71 1647.2 5127.3 1710.38" stroke="#263238" stroke-width="0.530341" stroke-miterlimit="10" stroke-linecap="round"/>
<path d="M4848.13 1678.41L4816.6 1925.83L4842.91 1931.15L4864.01 1852.2" stroke="#263238" stroke-width="0.530341" stroke-miterlimit="10" stroke-linecap="round"/>
<path d="M4869.23 2326.03C4774.4 2405.09 4642.81 2399.76 4642.81 2399.76" stroke="#263238" stroke-width="0.530341" stroke-miterlimit="10" stroke-linecap="round"/>
<path d="M4468.49 1896.31C4468.49 1896.31 4404.03 1837.28 4312.72 1912.4" stroke="#263238" stroke-width="0.530341" stroke-miterlimit="10" stroke-linecap="round"/>
<path d="M4840.57 1451.67C4840.57 1451.67 4814.46 1458.17 4785.06 1503.88C4755.65 1549.6 4719.85 1627.8 4745.95 1634.3C4772.06 1640.8 4820.54 1611.5 4820.54 1611.5" stroke="#263238" stroke-width="1.06068" stroke-miterlimit="10" stroke-linecap="round"/>
<path d="M4941.69 1624.61L4974.29 1653.91" stroke="#263238" stroke-width="1.06068" stroke-miterlimit="10" stroke-linecap="round"/>
<path d="M4794.86 1484.28C4794.86 1484.28 4674.14 1500.58 4625.23 1503.88C4576.32 1507.19 4585.81 1525.19 4569.82 1536.49C4544.04 1554.5 4248.25 1929.45 4228.86 1965.36C4209.47 2001.26 4212.56 2017.57 4245.16 2027.37C4277.77 2037.17 4602.54 2094.28 4602.54 2094.28L4889.48 2123.69L4912.28 2051.88C4912.28 2051.88 4978.98 2060.72 4990.7 2060.72" stroke="#263238" stroke-width="1.06068" stroke-miterlimit="10" stroke-linecap="round"/>
<path d="M4879.67 2025.45C4816.34 2007.08 4755.13 1982.08 4697.05 1950.87" stroke="#263238" stroke-width="1.06068" stroke-miterlimit="10" stroke-linecap="round"/>
<path d="M4670.94 1944.26C4670.94 1944.26 4575.05 1908.67 4523.15 1902.17C4471.26 1895.67 4391.78 1893.54 4391.78 1893.54" stroke="#263238" stroke-width="1.06068" stroke-miterlimit="10" stroke-linecap="round"/>
<path d="M4582.82 1901.85L4592.63 1644.11" stroke="#263238" stroke-width="1.06068" stroke-miterlimit="10" stroke-linecap="round"/>
<path d="M4889.48 2123.69C4911.86 2134.95 4935.31 2143.94 4959.48 2150.54" stroke="#263238" stroke-width="1.06068" stroke-miterlimit="10" stroke-linecap="round"/>
<path d="M620.306 1916.02L658.77 1705.8L902.239 1609.9C902.239 1609.9 914.066 1544.59 926 1541.71C937.934 1538.83 949.654 1511.98 949.654 1511.98L943.794 1458.17C943.794 1458.17 966.063 1372.93 1078.05 1439.31C1078.05 1439.31 1044.16 1461.9 1050.02 1471.28C1055.89 1480.66 1043.53 1510.49 1058.34 1510.49C1073.15 1510.49 1103.09 1529.35 1118.22 1544.59C1128.81 1555.96 1138.16 1568.43 1146.13 1581.77L1272.18 1589.02C1285.1 1589.13 1297.96 1590.88 1310.44 1594.24C1312.57 1532.65 1305 1485.66 1290.08 1449.12C1235.85 1317.21 1136.97 1270.11 1122.8 1204.05C1108.63 1137.99 1115.77 1131.06 1115.77 1131.06C1130.18 1116.41 1140.73 1098.42 1146.47 1078.69C1152.22 1058.96 1152.98 1038.11 1148.69 1018.01C1134.63 947.37 1080.39 897.824 884.871 888.447C689.351 879.071 717.693 1013.22 717.693 1013.22L720.037 1022.59C720.037 1022.59 595.16 1065.21 618.814 1222.8C642.468 1380.39 710.661 1448.9 708.316 1498.34C705.972 1547.78 632.879 1566.64 529.205 1679.48C425.531 1792.32 404.434 1962.05 446.841 2072.76C468.151 2127.21 509.812 2172.6 562.129 2206.48L620.306 1916.02Z" fill="#263238"/>
<path d="M783.541 1936.8V1984.32L693.293 2263.17C749.687 2278.09 808.828 2279.33 865.798 2266.79C897.957 2258.41 928.694 2245.3 957.006 2227.9L783.541 1936.8Z" fill="#263238"/>
<path d="M1042.99 1469.57L1053.65 1517.52C1053.65 1517.52 1085.61 1485.56 1148.05 1582.63C1148.05 1582.63 1277.83 1579.54 1313.21 1597.22C1313.21 1597.22 1320.56 1599.35 1344.53 1624.82C1368.51 1650.28 1458.65 1731.37 1458.65 1731.37C1458.65 1731.37 1574.36 1838.77 1585.87 1847.08C1597.38 1855.4 1640.53 1896.63 1672.81 1911.01L1759.33 1714L1797.9 1616.51L1819.22 1536.28H1826.03L1827.53 1471.6L1822.3 1394.46C1823.15 1390.53 1824.95 1386.88 1827.53 1383.8C1836.46 1371.42 1843.33 1357.67 1847.88 1343.1C1847.88 1335.85 1840.53 1293.02 1840.53 1293.02C1840.53 1293.02 1836.9 1282.37 1844.79 1281.09C1852.67 1279.81 1881.76 1289.93 1885.38 1310.28L1896.04 1306.66C1904.86 1285.58 1915.86 1265.47 1928.86 1246.67C1946.12 1224.29 1963.8 1210.23 1974.78 1217.48C1977.79 1219.55 1979.96 1222.64 1980.9 1226.17C1981.84 1229.71 1981.48 1233.46 1979.89 1236.76L1945.58 1299.84C1945.58 1299.84 1930.45 1320.19 1949.21 1327.44C1949.21 1327.44 1989.8 1353.54 1992.47 1376.45C1995.13 1399.36 1980.43 1419.07 1967.43 1435.9C1954.43 1452.74 1931.52 1489.18 1931.52 1489.18L1904.88 1512.73L1894.23 1553.32L1906.8 1568.99L1888.05 1650.28L1874.51 1711.23L1867.7 1748.21L1825.08 1894.18L1782.45 2021.4C1782.45 2021.4 1760.51 2094.28 1707.34 2092.26C1654.17 2090.23 1595.88 2061.46 1577.02 2052.09C1558.17 2042.71 1402.71 1961.52 1402.71 1961.52L1370.74 1946.39C1375.01 1960.94 1376.84 1976.1 1376.18 1991.25C1375.64 2019.38 1345.38 2081.39 1336.54 2095.45L1331.32 2205.41C1329.26 2224.49 1329.61 2243.75 1332.38 2262.74C1337.07 2291.4 1361.05 2453.57 1366.27 2473.82C1366.27 2473.82 1314.48 2520.7 1160.2 2542.97C1005.91 2565.24 933.671 2529.12 933.671 2529.12L864.946 2488.73L949.654 2321.34C949.654 2321.34 970.964 2271.58 968.833 2258.48C966.702 2245.37 930.262 2188.9 930.262 2188.9L796.54 1950.86L790.254 1953L769.477 2022.47L694.358 2258.05L595.479 2552.13C595.479 2552.13 568.415 2626.72 557.227 2648.77L526.008 2743.92C527.742 2760.92 531.942 2777.57 538.474 2793.36L459.947 2742.54L473.905 2667.95L491.272 2556.71L512.583 2435.78L531.336 2335.73L561.276 2202.32L571.931 2165.46L593.242 2061.25L630.747 1872.23L662.713 1710.38L886.469 1621.41L900.427 1610.75C903.531 1590.16 911.095 1570.48 922.59 1553.11C930.568 1541.68 940.068 1531.39 950.826 1522.53C950.826 1522.53 949.76 1508.57 949.015 1495.36C948.269 1482.15 944.859 1457.85 944.859 1457.85C944.859 1457.85 1014.01 1487.58 1042.99 1469.57Z" fill="white"/>
<path d="M743.265 1041.35C743.265 1041.35 784.713 949.607 867.61 949.607C950.506 949.607 1122.16 1112.42 1122.16 1112.42" stroke="white" stroke-width="0.530341" stroke-miterlimit="10" stroke-linecap="round"/>
<path d="M778.747 1055.84C778.747 1055.84 829.038 1002.56 891.264 1023.23C953.49 1043.9 962.334 1117.96 962.334 1117.96" stroke="white" stroke-width="0.530341" stroke-miterlimit="10" stroke-linecap="round"/>
<path d="M737.298 1065C737.298 1065 663.352 1106.45 657.385 1183.49C651.418 1260.52 760.953 1352.16 775.763 1455.83C790.574 1559.5 713.644 1583.05 589.299 1668.93C464.954 1754.81 485.732 1947.14 512.37 1988.58" stroke="white" stroke-width="0.530341" stroke-miterlimit="10" stroke-linecap="round"/>
<path d="M527.18 2012.34C527.18 2012.34 544.868 2050.81 571.505 2062.64" stroke="white" stroke-width="0.530341" stroke-miterlimit="10" stroke-linecap="round"/>
<path d="M746.248 1266.28C742.747 1273.8 741.176 1282.07 741.678 1290.35C742.181 1298.63 744.74 1306.65 749.125 1313.69C763.936 1340.33 876.986 1473.52 867.61 1535.74C858.233 1597.97 799.524 1636.33 799.524 1636.33" stroke="white" stroke-width="0.530341" stroke-miterlimit="10" stroke-linecap="round"/>
<path d="M802.401 1065C802.401 1065 734.315 1094.62 737.298 1162.71C740.282 1230.79 755.092 1248.59 755.092 1248.59" stroke="white" stroke-width="0.530341" stroke-miterlimit="10" stroke-linecap="round"/>
<path d="M1122.16 1290.25C1143.32 1338.14 1172.34 1382.15 1208.04 1420.46C1261.32 1473.73 1267.18 1550.77 1267.18 1550.77" stroke="white" stroke-width="0.530341" stroke-miterlimit="10" stroke-linecap="round"/>
<path d="M1184.28 1458.71C1184.28 1458.71 1210.92 1520.93 1210.92 1559.4" stroke="white" stroke-width="0.530341" stroke-miterlimit="10" stroke-linecap="round"/>
<path d="M1036.92 1475.22L953.277 1550.55C953.277 1550.55 944.327 1573.36 927.492 1609.9C910.656 1646.45 913.427 1716.45 913.427 1716.45L964.997 1819.06C964.997 1819.06 865.799 1705.27 860.151 1691.2C854.504 1677.14 750.724 1702.49 731.118 1710.91C711.513 1719.33 686.154 1736.16 691.801 1761.42C697.448 1786.67 722.701 1820.23 711.407 1825.88C700.112 1831.53 669.319 1817.46 669.319 1834.3C669.319 1851.13 705.866 1915.7 689.031 1938.08C672.196 1960.45 565.538 2322.51 565.538 2322.51C565.538 2322.51 632.878 2266.36 616.043 2288.84C599.208 2311.33 517.91 2493.63 517.91 2493.63L487.01 2600.19L559.998 2221.5L621.691 1901.85L658.77 1705.8C694.571 1693.86 902.239 1609.9 902.239 1609.9C902.239 1609.9 918.648 1540.86 949.654 1511.98L943.794 1458.17C943.794 1458.17 1000.37 1477.99 1036.92 1475.22Z" fill="#1FBD59"/>
<path opacity="0.5" d="M1036.92 1475.22L953.277 1550.55C953.277 1550.55 944.327 1573.36 927.492 1609.9C910.656 1646.45 913.427 1716.45 913.427 1716.45L964.997 1819.06C964.997 1819.06 865.799 1705.27 860.151 1691.2C854.504 1677.14 750.724 1702.49 731.118 1710.91C711.513 1719.33 686.154 1736.16 691.801 1761.42C697.448 1786.67 722.701 1820.23 711.407 1825.88C700.112 1831.53 669.319 1817.46 669.319 1834.3C669.319 1851.13 705.866 1915.7 689.031 1938.08C672.196 1960.45 565.538 2322.51 565.538 2322.51C565.538 2322.51 632.878 2266.36 616.043 2288.84C599.208 2311.33 517.91 2493.63 517.91 2493.63L487.01 2600.19L559.998 2221.5L621.691 1901.85L658.77 1705.8C694.571 1693.86 902.239 1609.9 902.239 1609.9C902.239 1609.9 906.714 1545.97 949.761 1523.6L943.794 1458.17C943.794 1458.17 1000.37 1477.99 1036.92 1475.22Z" fill="white"/>
<path d="M1348.26 1853.9C1348.26 1853.9 1398.77 1769.84 1404.41 1789.44C1410.06 1809.05 1390.35 1876.28 1390.35 1876.28C1390.35 1876.28 1443.62 1856.67 1438.08 1873.51C1432.54 1890.34 1421.25 1898.76 1424.02 1907.18C1426.79 1915.6 1609.2 2010.96 1631.69 2022.15C1654.17 2033.34 1707.44 1968.87 1732.7 1988.48C1757.95 2008.08 1732.7 2075.32 1682.19 2075.42C1631.69 2075.53 1485.82 2011.49 1485.82 2011.49L1370.96 1944.69" fill="#1FBD59"/>
<path opacity="0.5" d="M1348.26 1853.9C1348.26 1853.9 1398.77 1769.84 1404.41 1789.44C1410.06 1809.05 1390.35 1876.28 1390.35 1876.28C1390.35 1876.28 1443.62 1856.67 1438.08 1873.51C1432.54 1890.34 1421.25 1898.76 1424.02 1907.18C1426.79 1915.6 1609.2 2010.96 1631.69 2022.15C1654.17 2033.34 1707.44 1968.87 1732.7 1988.48C1757.95 2008.08 1732.7 2075.32 1682.19 2075.42C1631.69 2075.53 1485.82 2011.49 1485.82 2011.49L1371.38 1944.9" fill="white"/>
<path d="M1045.34 2193.37C1045.34 2193.37 1373.3 2019.48 1320.02 2083.95C1266.75 2148.41 1090.19 2221.5 1045.34 2193.37Z" fill="#1FBD59"/>
<path opacity="0.5" d="M1045.34 2193.37C1045.34 2193.37 1373.3 2019.48 1320.02 2083.95C1266.75 2148.41 1090.19 2221.5 1045.34 2193.37Z" fill="white"/>
<path d="M943.794 1458.71C943.794 1458.71 946.138 1503.46 953.277 1550.55C960.416 1597.65 957.965 1597.65 1002.72 1654.12C1047.47 1710.59 1094.56 1757.8 1101.6 1748.42" stroke="#263238" stroke-width="1.06068" stroke-miterlimit="10" stroke-linecap="round"/>
<path d="M1103.94 1731.9C1103.94 1731.9 1108.63 1649.43 1092.22 1595.31C1075.81 1541.18 1052.16 1522.21 1052.16 1510.06C1051.36 1497.41 1049.79 1484.81 1047.47 1472.35" stroke="#263238" stroke-width="1.06068" stroke-miterlimit="10" stroke-linecap="round"/>
<path d="M943.794 1527.01C924.973 1543.95 911.807 1566.27 906.075 1590.94C899.042 1628.55 892.01 1673.3 892.01 1673.3L964.997 1819.38C971.352 1793.94 980.837 1769.39 993.233 1746.29C999.373 1734.88 1007.33 1724.56 1016.78 1715.71" stroke="#263238" stroke-width="1.06068" stroke-miterlimit="10" stroke-linecap="round"/>
<path d="M1120.45 1691.84C1125.61 1690.55 1130.97 1690.3 1136.22 1691.1C1141.47 1691.91 1146.51 1693.75 1151.04 1696.53C1169.89 1706.01 1207.61 1755.45 1207.61 1755.45C1207.61 1755.45 1181.72 1632.92 1136.97 1569.41C1092.22 1505.91 1061.53 1510.49 1061.53 1510.49" stroke="#263238" stroke-width="1.06068" stroke-miterlimit="10" stroke-linecap="round"/>
<path d="M884.871 1618.85L658.77 1705.8C658.77 1705.8 576.407 2155.66 545.72 2275.74C515.033 2395.82 463.356 2735.08 463.356 2735.08L524.516 2746.8L545.826 2685.64" stroke="#263238" stroke-linecap="round" stroke-linejoin="round"/>
<path d="M557.547 2650.48C557.547 2650.48 571.612 2629.17 609.331 2511.96C647.05 2394.76 747.847 2107.07 764.788 2050.28C781.73 1993.49 795.368 1956.09 795.368 1956.09" stroke="#263238" stroke-width="1.06068" stroke-miterlimit="10" stroke-linecap="round"/>
<path d="M755.305 1886.93C755.305 1886.93 946.031 2227.9 962.547 2242.6C979.062 2257.31 955.514 2296.73 950.72 2317.93" stroke="#263238" stroke-width="1.06068" stroke-miterlimit="10" stroke-linecap="round"/>
<path d="M929.622 2360.77L868.462 2487.99C868.462 2487.99 908.525 2549.25 1078.05 2549.25C1178.93 2549.56 1278.37 2525.28 1367.76 2478.5C1367.76 2478.5 1327.7 2266.57 1330.04 2228.86C1332.38 2191.14 1337.18 2092.26 1337.18 2092.26C1337.18 2092.26 1379.8 2028.33 1374.79 1979.21C1369.78 1930.09 1348.9 1873.19 1348.9 1863.81C1348.9 1854.44 1344.21 1753.11 1344.21 1753.11" stroke="#263238" stroke-width="1.06068" stroke-miterlimit="10" stroke-linecap="round"/>
<path d="M1077.73 2151.39L1246.5 2047.83" stroke="#263238" stroke-width="0.530341" stroke-miterlimit="10" stroke-linecap="round"/>
<path d="M1166.59 2118.9L1258.33 2065.62" stroke="#263238" stroke-width="0.530341" stroke-miterlimit="10" stroke-linecap="round"/>
<path d="M1671.64 1913.25L1637.23 1997.53" stroke="#263238" stroke-width="0.530341" stroke-miterlimit="10" stroke-linecap="round"/>
<path d="M1657.9 1950.12L1625.4 1982.72" stroke="#263238" stroke-width="0.530341" stroke-miterlimit="10" stroke-linecap="round"/>
<path d="M695.85 2249.21C695.85 2249.21 639.591 2314.31 601.126 2340.95" stroke="#263238" stroke-width="0.530341" stroke-miterlimit="10" stroke-linecap="round"/>
<path d="M663.352 2266.89C663.352 2266.89 565.645 2343.82 541.991 2361.62" stroke="#263238" stroke-width="0.530341" stroke-miterlimit="10" stroke-linecap="round"/>
<path d="M680.72 1719.22C710.174 1760.87 736.868 1804.4 760.633 1849.54" stroke="#263238" stroke-width="0.530341" stroke-miterlimit="10" stroke-linecap="round"/>
<path d="M769.903 1870.21L790.574 1905.69" stroke="#263238" stroke-width="0.530341" stroke-miterlimit="10" stroke-linecap="round"/>
<path d="M1348.9 1863.81L1374.79 1731.9" stroke="#263238" stroke-width="0.530341" stroke-miterlimit="10" stroke-linecap="round"/>
<path d="M1358.38 1873.19L1398.34 1816.72" stroke="#263238" stroke-width="0.530341" stroke-miterlimit="10" stroke-linecap="round"/>
<path d="M795.368 1955.66L682.318 1894.39" stroke="#263238" stroke-width="0.530341" stroke-miterlimit="10" stroke-linecap="round"/>
<path d="M1099.25 1760.14C1099.25 1760.14 1141.87 1845.38 1155.83 1906.22" stroke="#263238" stroke-width="0.530341" stroke-miterlimit="10" stroke-linecap="round"/>
<path d="M1798.76 1611.71C1810.03 1610.88 1821.36 1612.34 1832.05 1616C1842.74 1619.67 1852.59 1625.46 1860.98 1633.02" stroke="#263238" stroke-width="0.530341" stroke-miterlimit="10" stroke-linecap="round"/>
<path d="M504.272 2676.58L533.467 2687.45" stroke="#263238" stroke-width="0.530341" stroke-miterlimit="10" stroke-linecap="round"/>
<path d="M462.61 2739.34C462.977 2779.85 460.842 2820.35 456.217 2860.6C449.185 2910.14 451.529 3023.19 460.906 3058.46C470.282 3093.73 475.077 3101.08 484.453 3079.77C493.83 3058.46 522.172 2933.8 522.172 2933.8C522.172 2933.8 526.861 3016.16 548.064 3009.13C569.268 3002.1 557.547 2962.03 557.547 2926.66C557.547 2891.28 559.891 2879.56 557.547 2851.33C555.203 2823.09 523.77 2753.3 523.77 2753.3" fill="white"/>
<path d="M462.61 2739.34C462.977 2779.85 460.842 2820.35 456.217 2860.6C449.185 2910.14 451.529 3023.19 460.906 3058.46C470.282 3093.73 475.077 3101.08 484.453 3079.77C493.83 3058.46 522.172 2933.8 522.172 2933.8C522.172 2933.8 526.861 3016.16 548.064 3009.13C569.268 3002.1 557.547 2962.03 557.547 2926.66C557.547 2891.28 559.891 2879.56 557.547 2851.33C555.203 2823.09 523.77 2753.3 523.77 2753.3" stroke="#263238" stroke-miterlimit="10" stroke-linecap="round"/>
<path d="M1826.25 1534.46C1825.18 1513.63 1825.18 1492.75 1826.25 1471.92C1828.17 1452.31 1820.39 1423.01 1822.31 1397.33C1824.22 1371.65 1849.69 1362.17 1845.75 1328.93C1841.8 1295.68 1834.03 1291.74 1839.89 1283.96C1845.75 1276.19 1882.51 1287.8 1884.85 1309.32C1886.94 1331.47 1886.94 1353.77 1884.85 1375.92C1882.93 1381.78 1896.57 1418.54 1888.79 1434.52C1884.34 1443.18 1881.04 1452.38 1878.99 1461.9" stroke="#263238" stroke-width="0.880843" stroke-miterlimit="10" stroke-linecap="round"/>
<path d="M1892.74 1307.62C1892.74 1307.62 1937.7 1217.69 1963.17 1215.66C1988.63 1213.64 1980.75 1236.97 1972.86 1248.91C1964.98 1260.84 1939.62 1303.68 1937.7 1321.36C1935.78 1339.05 1912.23 1397.55 1912.23 1397.55" stroke="#263238" stroke-width="0.880843" stroke-miterlimit="10" stroke-linecap="round"/>
<path d="M1938.02 1321.36C1938.02 1321.36 2006.53 1362.39 1991.29 1395.95C1976.06 1429.51 1967.75 1442.94 1956.03 1438.57C1945.63 1433.26 1936.34 1426.03 1928.64 1417.26" stroke="#263238" stroke-width="0.880843" stroke-miterlimit="10" stroke-linecap="round"/>
<path d="M1963.17 1438.68C1963.17 1438.68 1945.48 1467.98 1931.84 1485.66C1924 1495.88 1914.7 1504.89 1904.24 1512.41L1895.93 1541.28" stroke="#263238" stroke-width="0.880843" stroke-miterlimit="10" stroke-linecap="round"/>
<path d="M1141.66 1581.13C1141.66 1581.13 1304.15 1578.79 1325.35 1604.68C1346.56 1630.57 1603.34 1866.16 1634.35 1887.36C1665.36 1908.56 1672.07 1913.25 1672.07 1913.25C1672.07 1913.25 1799.18 1625.57 1799.18 1611.71C1799.18 1597.86 1820.49 1534.04 1820.49 1534.04C1820.49 1534.04 1860.56 1538.73 1870.04 1538.73C1879.52 1538.73 1905.31 1569.41 1905.31 1569.41C1905.31 1569.41 1870.04 1713.04 1870.04 1729.24C1870.04 1745.43 1804.08 1969.51 1773.4 2038.24C1742.71 2106.96 1700.41 2097.05 1632.11 2075.85C1563.81 2054.65 1377.78 1948.73 1377.78 1948.73" stroke="#263238" stroke-width="1.06068" stroke-miterlimit="10" stroke-linecap="round"/>
<path d="M868.462 2487.99C868.462 2487.99 774.165 2723.89 748.699 2884.46C723.234 3045.04 734.102 3420.52 726.75 3460.69C719.398 3500.86 617.322 3690.41 617.322 3781.62C617.322 3872.83 562.661 4343.25 562.661 4343.25L599.102 4365.09C599.102 4365.09 726.963 3970.85 774.165 3869.1C821.367 3767.34 887.215 3526.33 905.435 3478.91C923.656 3431.49 1051.41 3052.17 1058.66 3004.76C1065.9 2957.34 1109.69 2840.67 1109.69 2840.67C1109.69 2840.67 1204.52 3420.52 1222.74 3540.92C1240.96 3661.33 1368.61 4314.06 1368.61 4314.06C1376.99 4316.11 1385.56 4317.32 1394.18 4317.68C1404.84 4317.68 1408.78 4299.46 1408.78 4299.46C1408.78 4299.46 1459.82 3836.28 1445.22 3712.26C1430.62 3588.23 1386.94 3435.22 1386.94 3391.33C1386.94 3347.43 1452.57 2968.32 1452.57 2837.26C1452.57 2706.2 1367.33 2478.72 1367.33 2478.72C1367.33 2478.72 1064.84 2631.3 868.462 2487.99Z" fill="#263238"/>
<path d="M1385.55 3415.41C1385.55 3415.41 1353.06 3554.56 1308.62 3628.51" stroke="white" stroke-width="0.530341" stroke-miterlimit="10" stroke-linecap="round"/>
<path d="M1376.71 3557.54C1376.71 3557.54 1350.07 3658.13 1296.8 3705.54" stroke="white" stroke-width="0.530341" stroke-miterlimit="10" stroke-linecap="round"/>
<path d="M746.249 3513.11C746.249 3513.11 766.919 3634.47 790.574 3684.77" stroke="white" stroke-width="0.530341" stroke-miterlimit="10" stroke-linecap="round"/>
<path d="M740.282 3584.18C740.282 3584.18 758.076 3670.06 790.574 3720.35" stroke="white" stroke-width="0.530341" stroke-miterlimit="10" stroke-linecap="round"/>
<path d="M1119.18 2841.2L1237.55 2743.5" stroke="white" stroke-width="0.530341" stroke-miterlimit="10" stroke-linecap="round"/>
<path d="M1175.44 2799.76L1314.59 2737.53" stroke="white" stroke-width="0.530341" stroke-miterlimit="10" stroke-linecap="round"/>
<path d="M870.487 2633.96C870.487 2633.96 962.333 2693.1 1015.61 2743.5" stroke="white" stroke-width="0.530341" stroke-miterlimit="10" stroke-linecap="round"/>
<path d="M566.497 4342.93C566.497 4342.93 427.981 4460.14 427.981 4518.31C427.981 4576.49 482.642 4572.97 541.032 4518.31C599.422 4463.65 602.405 4351.03 602.405 4351.03L566.497 4342.93Z" fill="white" stroke="#263238" stroke-width="1.06068" stroke-miterlimit="10" stroke-linecap="round"/>
<path d="M1368.61 4314.05C1368.61 4314.05 1416.03 4430.73 1467.17 4481.87C1518.32 4533.02 1547.4 4551.13 1547.4 4496.36C1547.4 4441.6 1514.59 4379.69 1408.89 4299.46C1408.78 4299.46 1437.98 4321.3 1368.61 4314.05Z" fill="white" stroke="#263238" stroke-width="1.06068" stroke-miterlimit="10" stroke-linecap="round"/>
<path d="M879.33 1084.61C869.847 1081.09 860.897 1076.83 851.627 1072.89C842.357 1068.94 825.416 1066.81 819.023 1095.9C809.54 1138.52 875.495 1173.68 854.291 1208.95C841.1 1230.41 821.275 1246.98 797.819 1256.15C794.001 1257.47 790.022 1258.25 785.992 1258.5C767.133 1260.84 736.552 1258.5 745.929 1291.42C755.305 1324.35 785.992 1352.69 804.851 1352.69H823.711C823.711 1352.69 845.021 1416.62 924.934 1451.57C1004.85 1486.52 1059.19 1484.6 1078.05 1439.85C1096.91 1395.1 1111.08 1357.38 1111.08 1298.45C1111.08 1239.53 1089.77 1140.65 1089.77 1140.65C1089.77 1140.65 1070.91 1166.65 997.922 1133.62C949.654 1111.78 904.476 1094.09 879.33 1084.61Z" fill="white"/>
<mask id="mask1_228_5421" style="mask-type:luminance" maskUnits="userSpaceOnUse" x="744" y="1070" width="368" height="406">
<path d="M879.33 1084.61C869.847 1081.09 860.897 1076.83 851.627 1072.89C842.357 1068.94 825.416 1066.81 819.023 1095.9C809.54 1138.52 875.495 1173.68 854.291 1208.95C841.1 1230.41 821.275 1246.98 797.819 1256.15C794.001 1257.47 790.022 1258.25 785.992 1258.5C767.133 1260.84 736.552 1258.5 745.929 1291.42C755.305 1324.35 785.992 1352.69 804.851 1352.69H823.711C823.711 1352.69 845.021 1416.62 924.934 1451.57C1004.85 1486.52 1059.19 1484.6 1078.05 1439.85C1096.91 1395.1 1111.08 1357.38 1111.08 1298.45C1111.08 1239.53 1089.77 1140.65 1089.77 1140.65C1089.77 1140.65 1070.91 1166.65 997.922 1133.62C949.654 1111.78 904.476 1094.09 879.33 1084.61Z" fill="white"/>
</mask>
<g mask="url(#mask1_228_5421)">
<g opacity="0.5" style="mix-blend-mode:multiply">
<path d="M998.028 1133.62C998.028 1133.62 885.404 1127.33 868.569 1130.1C851.734 1132.87 871.339 1183.38 865.798 1233.88C860.258 1284.39 862.922 1365.79 885.404 1391.05C911.934 1417.08 940.046 1441.46 969.579 1464.03C969.579 1464.03 883.166 1450.08 851.734 1413.53C820.301 1376.98 815.293 1357.38 815.293 1357.38C815.293 1357.38 742.306 1314.76 736.659 1281.62C731.012 1248.48 779.279 1266.06 802.401 1249.65C815.4 1240.7 869.208 1223.87 855.676 1179.01C842.144 1134.15 820.301 1125.74 819.449 1095.69C818.81 1074.38 837.563 1068.2 849.07 1066.28C854.258 1065.41 859.589 1066.19 864.307 1068.52L998.028 1133.62Z" fill="#1FBD59"/>
</g>
</g>
<path d="M879.33 1084.61C869.847 1081.09 860.897 1076.83 851.627 1072.89C842.357 1068.94 825.416 1066.81 819.023 1095.9C809.54 1138.52 875.495 1173.68 854.291 1208.95C841.1 1230.41 821.275 1246.98 797.819 1256.15C794.001 1257.47 790.022 1258.25 785.992 1258.5C767.133 1260.84 736.552 1258.5 745.929 1291.42C755.305 1324.35 785.992 1352.69 804.851 1352.69H823.711C823.711 1352.69 845.021 1416.62 924.934 1451.57C1004.85 1486.52 1059.19 1484.6 1078.05 1439.85C1096.91 1395.1 1111.08 1357.38 1111.08 1298.45C1111.08 1239.53 1089.77 1140.65 1089.77 1140.65C1089.77 1140.65 1070.91 1166.65 997.922 1133.62C949.654 1111.78 904.476 1094.09 879.33 1084.61Z" stroke="#263238" stroke-width="1.06068" stroke-miterlimit="10" stroke-linecap="round"/>
<path d="M962.547 1224.19C964.038 1233.14 961.588 1241.02 957.006 1241.77C952.424 1242.52 947.736 1235.8 946.351 1226.85C944.966 1217.9 947.416 1209.91 951.891 1209.17C956.367 1208.42 961.055 1215.66 962.547 1224.19Z" fill="#263238"/>
<path d="M1060.04 1207.89C1061.43 1216.84 1058.98 1224.72 1054.5 1225.47C1050.02 1226.21 1045.23 1219.5 1043.85 1210.55C1042.46 1201.6 1044.8 1193.72 1049.28 1192.97C1053.75 1192.22 1058.55 1198.94 1060.04 1207.89Z" fill="#263238"/>
<path d="M906.075 1180.72C912.036 1171.85 920.124 1164.63 929.597 1159.69C939.071 1154.76 949.63 1152.28 960.309 1152.48" stroke="#263238" stroke-width="1.06068" stroke-miterlimit="10" stroke-linecap="round"/>
<path d="M1033.3 1159.51C1042.35 1156.35 1052.15 1156.01 1061.39 1158.54C1070.64 1161.07 1078.9 1166.35 1085.08 1173.68" stroke="#263238" stroke-width="1.06068" stroke-miterlimit="10" stroke-linecap="round"/>
<path d="M1023.92 1199.58C1022.62 1214.46 1022.62 1229.44 1023.92 1244.33C1026.26 1263.19 1040.33 1267.87 1035.64 1282.05C1030.95 1296.22 1012.09 1296.11 1012.09 1296.11" stroke="#263238" stroke-width="1.06068" stroke-miterlimit="10" stroke-linecap="round"/>
<path d="M988.545 1352.69C980.475 1354.6 972.089 1354.73 963.96 1353.1C955.832 1351.46 948.153 1348.09 941.45 1343.21" stroke="#263238" stroke-width="1.06068" stroke-miterlimit="10" stroke-linecap="round"/>
</svg>
